<svg xmlns="http://www.w3.org/2000/svg" xmlns:xlink="http://www.w3.org/1999/xlink" contentStyleType="text/css" data-diagram-type="WBS" height="3136px" preserveAspectRatio="none" style="width:1617px;height:3136px;background:#FFFFFF;" version="1.1" viewBox="0 0 1617 3136" width="1617px" zoomAndPan="magnify"><defs/><g><line style="stroke:#181818;stroke-width:1.5;" x1="29.3369" x2="29.3369" y1="65.0938" y2="85.0938"/><rect fill="#F1F1F1" height="35.0938" style="stroke:#181818;stroke-width:1.5;" width="38.6738" x="10" y="85.0938"/><text fill="#000000" font-family="sans-serif" font-size="12" lengthAdjust="spacing" textLength="18.6738" x="20" y="107.5508">dist</text><line style="stroke:#181818;stroke-width:1.5;" x1="29.3369" x2="39.3369" y1="152.7344" y2="152.7344"/><rect fill="#F1F1F1" height="35.0938" style="stroke:#181818;stroke-width:1.5;" width="54.6816" x="39.3369" y="135.1875"/><text fill="#000000" font-family="sans-serif" font-size="12" lengthAdjust="spacing" textLength="34.6816" x="49.3369" y="157.6445">assets</text><line style="stroke:#181818;stroke-width:1.5;" x1="29.3369" x2="39.3369" y1="202.8281" y2="202.8281"/><rect fill="#F1F1F1" height="35.0938" style="stroke:#181818;stroke-width:1.5;" width="46.0156" x="39.3369" y="185.2813"/><text fill="#000000" font-family="sans-serif" font-size="12" lengthAdjust="spacing" textLength="26.0156" x="49.3369" y="207.7383">fonts</text><line style="stroke:#181818;stroke-width:1.5;" x1="29.3369" x2="29.3369" y1="120.1875" y2="202.8281"/><line style="stroke:#181818;stroke-width:1.5;" x1="136.6924" x2="136.6924" y1="65.0938" y2="85.0938"/><rect fill="#F1F1F1" height="35.0938" style="stroke:#181818;stroke-width:1.5;" width="45.3477" x="114.0186" y="85.0938"/><text fill="#000000" font-family="sans-serif" font-size="12" lengthAdjust="spacing" textLength="25.3477" x="124.0186" y="107.5508">docs</text><line style="stroke:#181818;stroke-width:1.5;" x1="136.6924" x2="146.6924" y1="152.7344" y2="152.7344"/><rect fill="#F1F1F1" height="35.0938" style="stroke:#181818;stroke-width:1.5;" width="36.0137" x="146.6924" y="135.1875"/><text fill="#000000" font-family="sans-serif" font-size="12" lengthAdjust="spacing" textLength="16.0137" x="156.6924" y="157.6445">api</text><line style="stroke:#181818;stroke-width:1.5;" x1="136.6924" x2="146.6924" y1="202.8281" y2="202.8281"/><rect fill="#F1F1F1" height="35.0938" style="stroke:#181818;stroke-width:1.5;" width="43.3438" x="146.6924" y="185.2813"/><text fill="#000000" font-family="sans-serif" font-size="12" lengthAdjust="spacing" textLength="23.3438" x="156.6924" y="207.7383">crop</text><line style="stroke:#181818;stroke-width:1.5;" x1="136.6924" x2="146.6924" y1="252.9219" y2="252.9219"/><rect fill="#F1F1F1" height="35.0938" style="stroke:#181818;stroke-width:1.5;" width="101.9961" x="146.6924" y="235.375"/><text fill="#000000" font-family="sans-serif" font-size="12" lengthAdjust="spacing" textLength="81.9961" x="156.6924" y="257.832">INSTRUCTION</text><line style="stroke:#181818;stroke-width:1.5;" x1="136.6924" x2="146.6924" y1="303.0156" y2="303.0156"/><rect fill="#F1F1F1" height="35.0938" style="stroke:#181818;stroke-width:1.5;" width="53.3457" x="146.6924" y="285.4688"/><text fill="#000000" font-family="sans-serif" font-size="12" lengthAdjust="spacing" textLength="33.3457" x="156.6924" y="307.9258">lexical</text><line style="stroke:#181818;stroke-width:1.5;" x1="136.6924" x2="136.6924" y1="120.1875" y2="303.0156"/><line style="stroke:#181818;stroke-width:1.5;" x1="318.0518" x2="318.0518" y1="65.0938" y2="85.0938"/><rect fill="#F1F1F1" height="35.0938" style="stroke:#181818;stroke-width:1.5;" width="98.7266" x="268.6885" y="85.0938"/><text fill="#000000" font-family="sans-serif" font-size="12" lengthAdjust="spacing" textLength="78.7266" x="278.6885" y="107.5508">node_modules</text><line style="stroke:#181818;stroke-width:1.5;" x1="413.0918" x2="413.0918" y1="65.0938" y2="85.0938"/><rect fill="#F1F1F1" height="35.0938" style="stroke:#181818;stroke-width:1.5;" width="51.3535" x="387.415" y="85.0938"/><text fill="#000000" font-family="sans-serif" font-size="12" lengthAdjust="spacing" textLength="31.3535" x="397.415" y="107.5508">public</text><line style="stroke:#181818;stroke-width:1.5;" x1="413.0918" x2="423.0918" y1="152.7344" y2="152.7344"/><rect fill="#F1F1F1" height="35.0938" style="stroke:#181818;stroke-width:1.5;" width="46.0156" x="423.0918" y="135.1875"/><text fill="#000000" font-family="sans-serif" font-size="12" lengthAdjust="spacing" textLength="26.0156" x="433.0918" y="157.6445">fonts</text><line style="stroke:#181818;stroke-width:1.5;" x1="413.0918" x2="413.0918" y1="120.1875" y2="152.7344"/><line style="stroke:#181818;stroke-width:1.5;" x1="507.1055" x2="507.1055" y1="65.0938" y2="85.0938"/><rect fill="#F1F1F1" height="35.0938" style="stroke:#181818;stroke-width:1.5;" width="35.9961" x="489.1074" y="85.0938"/><text fill="#000000" font-family="sans-serif" font-size="12" lengthAdjust="spacing" textLength="15.9961" x="499.1074" y="107.5508">src</text><line style="stroke:#181818;stroke-width:1.5;" x1="507.1055" x2="517.1055" y1="152.7344" y2="152.7344"/><rect fill="#F1F1F1" height="35.0938" style="stroke:#181818;stroke-width:1.5;" width="36.0137" x="517.1055" y="135.1875"/><text fill="#000000" font-family="sans-serif" font-size="12" lengthAdjust="spacing" textLength="16.0137" x="527.1055" y="157.6445">api</text><line style="stroke:#181818;stroke-width:1.5;" x1="535.1123" x2="545.1123" y1="202.8281" y2="202.8281"/><rect fill="#F1F1F1" height="35.0938" style="stroke:#181818;stroke-width:1.5;" width="48.0137" x="545.1123" y="185.2813"/><text fill="#000000" font-family="sans-serif" font-size="12" lengthAdjust="spacing" textLength="28.0137" x="555.1123" y="207.7383">client</text><line style="stroke:#181818;stroke-width:1.5;" x1="569.1191" x2="579.1191" y1="252.9219" y2="252.9219"/><rect fill="#F1F1F1" height="35.0938" style="stroke:#181818;stroke-width:1.5;" width="82.6953" x="579.1191" y="235.375"/><text fill="#000000" font-family="sans-serif" font-size="12" lengthAdjust="spacing" textLength="62.6953" x="589.1191" y="257.832">interceptors</text><line style="stroke:#181818;stroke-width:1.5;" x1="569.1191" x2="569.1191" y1="220.375" y2="252.9219"/><line style="stroke:#181818;stroke-width:1.5;" x1="535.1123" x2="545.1123" y1="303.0156" y2="303.0156"/><rect fill="#F1F1F1" height="35.0938" style="stroke:#181818;stroke-width:1.5;" width="52.0215" x="545.1123" y="285.4688"/><text fill="#000000" font-family="sans-serif" font-size="12" lengthAdjust="spacing" textLength="32.0215" x="555.1123" y="307.9258">config</text><line style="stroke:#181818;stroke-width:1.5;" x1="535.1123" x2="545.1123" y1="353.1094" y2="353.1094"/><rect fill="#F1F1F1" height="35.0938" style="stroke:#181818;stroke-width:1.5;" width="64.0098" x="545.1123" y="335.5625"/><text fill="#000000" font-family="sans-serif" font-size="12" lengthAdjust="spacing" textLength="44.0098" x="555.1123" y="358.0195">services</text><line style="stroke:#181818;stroke-width:1.5;" x1="577.1172" x2="587.1172" y1="403.2031" y2="403.2031"/><rect fill="#F1F1F1" height="35.0938" style="stroke:#181818;stroke-width:1.5;" width="43.3555" x="587.1172" y="385.6563"/><text fill="#000000" font-family="sans-serif" font-size="12" lengthAdjust="spacing" textLength="23.3555" x="597.1172" y="408.1133">auth</text><line style="stroke:#181818;stroke-width:1.5;" x1="577.1172" x2="587.1172" y1="453.2969" y2="453.2969"/><rect fill="#F1F1F1" height="35.0938" style="stroke:#181818;stroke-width:1.5;" width="61.3613" x="587.1172" y="435.75"/><text fill="#000000" font-family="sans-serif" font-size="12" lengthAdjust="spacing" textLength="41.3613" x="597.1172" y="458.207">location</text><line style="stroke:#181818;stroke-width:1.5;" x1="577.1172" x2="587.1172" y1="503.3906" y2="503.3906"/><rect fill="#F1F1F1" height="35.0938" style="stroke:#181818;stroke-width:1.5;" width="66.0254" x="587.1172" y="485.8438"/><text fill="#000000" font-family="sans-serif" font-size="12" lengthAdjust="spacing" textLength="46.0254" x="597.1172" y="508.3008">payment</text><line style="stroke:#181818;stroke-width:1.5;" x1="577.1172" x2="587.1172" y1="553.4844" y2="553.4844"/><rect fill="#F1F1F1" height="35.0938" style="stroke:#181818;stroke-width:1.5;" width="43.3438" x="587.1172" y="535.9375"/><text fill="#000000" font-family="sans-serif" font-size="12" lengthAdjust="spacing" textLength="23.3438" x="597.1172" y="558.3945">user</text><line style="stroke:#181818;stroke-width:1.5;" x1="577.1172" x2="577.1172" y1="370.6563" y2="553.4844"/><line style="stroke:#181818;stroke-width:1.5;" x1="535.1123" x2="545.1123" y1="603.5781" y2="603.5781"/><rect fill="#F1F1F1" height="35.0938" style="stroke:#181818;stroke-width:1.5;" width="48.6816" x="545.1123" y="586.0313"/><text fill="#000000" font-family="sans-serif" font-size="12" lengthAdjust="spacing" textLength="28.6816" x="555.1123" y="608.4883">types</text><line style="stroke:#181818;stroke-width:1.5;" x1="535.1123" x2="535.1123" y1="170.2813" y2="603.5781"/><line style="stroke:#181818;stroke-width:1.5;" x1="507.1055" x2="517.1055" y1="653.6719" y2="653.6719"/><rect fill="#F1F1F1" height="35.0938" style="stroke:#181818;stroke-width:1.5;" width="54.6816" x="517.1055" y="636.125"/><text fill="#000000" font-family="sans-serif" font-size="12" lengthAdjust="spacing" textLength="34.6816" x="527.1055" y="658.582">assets</text><line style="stroke:#181818;stroke-width:1.5;" x1="544.4463" x2="554.4463" y1="703.7656" y2="703.7656"/><rect fill="#F1F1F1" height="35.0938" style="stroke:#181818;stroke-width:1.5;" width="58.6836" x="554.4463" y="686.2188"/><text fill="#000000" font-family="sans-serif" font-size="12" lengthAdjust="spacing" textLength="38.6836" x="564.4463" y="708.6758">images</text><line style="stroke:#181818;stroke-width:1.5;" x1="583.7881" x2="593.7881" y1="753.8594" y2="753.8594"/><rect fill="#F1F1F1" height="35.0938" style="stroke:#181818;stroke-width:1.5;" width="58.7012" x="593.7881" y="736.3125"/><text fill="#000000" font-family="sans-serif" font-size="12" lengthAdjust="spacing" textLength="38.7012" x="603.7881" y="758.7695">landing</text><line style="stroke:#181818;stroke-width:1.5;" x1="623.1387" x2="633.1387" y1="803.9531" y2="803.9531"/><rect fill="#F1F1F1" height="35.0938" style="stroke:#181818;stroke-width:1.5;" width="53.3516" x="633.1387" y="786.4063"/><text fill="#000000" font-family="sans-serif" font-size="12" lengthAdjust="spacing" textLength="33.3516" x="643.1387" y="808.8633">avatar</text><line style="stroke:#181818;stroke-width:1.5;" x1="623.1387" x2="633.1387" y1="854.0469" y2="854.0469"/><rect fill="#F1F1F1" height="35.0938" style="stroke:#181818;stroke-width:1.5;" width="88.7129" x="633.1387" y="836.5"/><text fill="#000000" font-family="sans-serif" font-size="12" lengthAdjust="spacing" textLength="68.7129" x="643.1387" y="858.957">backgrounds</text><line style="stroke:#181818;stroke-width:1.5;" x1="623.1387" x2="633.1387" y1="904.1406" y2="904.1406"/><rect fill="#F1F1F1" height="35.0938" style="stroke:#181818;stroke-width:1.5;" width="48.0137" x="633.1387" y="886.5938"/><text fill="#000000" font-family="sans-serif" font-size="12" lengthAdjust="spacing" textLength="28.0137" x="643.1387" y="909.0508">icons</text><line style="stroke:#181818;stroke-width:1.5;" x1="623.1387" x2="633.1387" y1="954.2344" y2="954.2344"/><rect fill="#F1F1F1" height="35.0938" style="stroke:#181818;stroke-width:1.5;" width="80.0234" x="633.1387" y="936.6875"/><text fill="#000000" font-family="sans-serif" font-size="12" lengthAdjust="spacing" textLength="60.0234" x="643.1387" y="959.1445">illustrations</text><line style="stroke:#181818;stroke-width:1.5;" x1="623.1387" x2="633.1387" y1="1004.3281" y2="1004.3281"/><rect fill="#F1F1F1" height="35.0938" style="stroke:#181818;stroke-width:1.5;" width="42.6875" x="633.1387" y="986.7813"/><text fill="#000000" font-family="sans-serif" font-size="12" lengthAdjust="spacing" textLength="22.6875" x="643.1387" y="1009.2383">logo</text><line style="stroke:#181818;stroke-width:1.5;" x1="623.1387" x2="633.1387" y1="1054.4219" y2="1054.4219"/><rect fill="#F1F1F1" height="35.0938" style="stroke:#181818;stroke-width:1.5;" width="56.6855" x="633.1387" y="1036.875"/><text fill="#000000" font-family="sans-serif" font-size="12" lengthAdjust="spacing" textLength="36.6855" x="643.1387" y="1059.332">texture</text><line style="stroke:#181818;stroke-width:1.5;" x1="623.1387" x2="623.1387" y1="771.4063" y2="1054.4219"/><line style="stroke:#181818;stroke-width:1.5;" x1="583.7881" x2="583.7881" y1="721.3125" y2="753.8594"/><line style="stroke:#181818;stroke-width:1.5;" x1="544.4463" x2="544.4463" y1="671.2188" y2="703.7656"/><line style="stroke:#181818;stroke-width:1.5;" x1="507.1055" x2="517.1055" y1="1104.5156" y2="1104.5156"/><rect fill="#F1F1F1" height="35.0938" style="stroke:#181818;stroke-width:1.5;" width="85.373" x="517.1055" y="1086.9688"/><text fill="#000000" font-family="sans-serif" font-size="12" lengthAdjust="spacing" textLength="65.373" x="527.1055" y="1109.4258">components</text><line style="stroke:#181818;stroke-width:1.5;" x1="559.792" x2="569.792" y1="1154.6094" y2="1154.6094"/><rect fill="#F1F1F1" height="35.0938" style="stroke:#181818;stroke-width:1.5;" width="43.3555" x="569.792" y="1137.0625"/><text fill="#000000" font-family="sans-serif" font-size="12" lengthAdjust="spacing" textLength="23.3555" x="579.792" y="1159.5195">auth</text><line style="stroke:#181818;stroke-width:1.5;" x1="559.792" x2="569.792" y1="1204.7031" y2="1204.7031"/><rect fill="#F1F1F1" height="35.0938" style="stroke:#181818;stroke-width:1.5;" width="66.0137" x="569.792" y="1187.1563"/><text fill="#000000" font-family="sans-serif" font-size="12" lengthAdjust="spacing" textLength="46.0137" x="579.792" y="1209.6133">common</text><line style="stroke:#181818;stroke-width:1.5;" x1="559.792" x2="569.792" y1="1254.7969" y2="1254.7969"/><rect fill="#F1F1F1" height="35.0938" style="stroke:#181818;stroke-width:1.5;" width="58.6836" x="569.792" y="1237.25"/><text fill="#000000" font-family="sans-serif" font-size="12" lengthAdjust="spacing" textLength="38.6836" x="579.792" y="1259.707">modals</text><line style="stroke:#181818;stroke-width:1.5;" x1="559.792" x2="569.792" y1="1304.8906" y2="1304.8906"/><rect fill="#F1F1F1" height="35.0938" style="stroke:#181818;stroke-width:1.5;" width="75.3535" x="569.792" y="1287.3438"/><text fill="#000000" font-family="sans-serif" font-size="12" lengthAdjust="spacing" textLength="55.3535" x="579.792" y="1309.8008">organisms</text><line style="stroke:#181818;stroke-width:1.5;" x1="607.4688" x2="617.4688" y1="1354.9844" y2="1354.9844"/><rect fill="#F1F1F1" height="35.0938" style="stroke:#181818;stroke-width:1.5;" width="51.3477" x="617.4688" y="1337.4375"/><text fill="#000000" font-family="sans-serif" font-size="12" lengthAdjust="spacing" textLength="31.3477" x="627.4688" y="1359.8945">Editor</text><line style="stroke:#181818;stroke-width:1.5;" x1="643.1426" x2="653.1426" y1="1405.0781" y2="1405.0781"/><rect fill="#F1F1F1" height="35.0938" style="stroke:#181818;stroke-width:1.5;" width="58.0273" x="653.1426" y="1387.5313"/><text fill="#000000" font-family="sans-serif" font-size="12" lengthAdjust="spacing" textLength="38.0273" x="663.1426" y="1409.9883">plugins</text><line style="stroke:#181818;stroke-width:1.5;" x1="682.1563" x2="692.1563" y1="1455.1719" y2="1455.1719"/><rect fill="#F1F1F1" height="35.0938" style="stroke:#181818;stroke-width:1.5;" width="56.6914" x="692.1563" y="1437.625"/><text fill="#000000" font-family="sans-serif" font-size="12" lengthAdjust="spacing" textLength="36.6914" x="702.1563" y="1460.082">toolbar</text><line style="stroke:#181818;stroke-width:1.5;" x1="682.1563" x2="682.1563" y1="1422.625" y2="1455.1719"/><line style="stroke:#181818;stroke-width:1.5;" x1="643.1426" x2="643.1426" y1="1372.5313" y2="1405.0781"/><line style="stroke:#181818;stroke-width:1.5;" x1="607.4688" x2="607.4688" y1="1322.4375" y2="1354.9844"/><line style="stroke:#181818;stroke-width:1.5;" x1="559.792" x2="569.792" y1="1505.2656" y2="1505.2656"/><rect fill="#F1F1F1" height="35.0938" style="stroke:#181818;stroke-width:1.5;" width="55.3613" x="569.792" y="1487.7188"/><text fill="#000000" font-family="sans-serif" font-size="12" lengthAdjust="spacing" textLength="35.3613" x="579.792" y="1510.1758">shadui</text><line style="stroke:#181818;stroke-width:1.5;" x1="559.792" x2="569.792" y1="1555.3594" y2="1555.3594"/><rect fill="#F1F1F1" height="35.0938" style="stroke:#181818;stroke-width:1.5;" width="29.3398" x="569.792" y="1537.8125"/><text fill="#000000" font-family="sans-serif" font-size="12" lengthAdjust="spacing" textLength="9.3398" x="579.792" y="1560.2695">ui</text><line style="stroke:#181818;stroke-width:1.5;" x1="559.792" x2="559.792" y1="1122.0625" y2="1555.3594"/><line style="stroke:#181818;stroke-width:1.5;" x1="507.1055" x2="517.1055" y1="1605.4531" y2="1605.4531"/><rect fill="#F1F1F1" height="35.0938" style="stroke:#181818;stroke-width:1.5;" width="52.0215" x="517.1055" y="1587.9063"/><text fill="#000000" font-family="sans-serif" font-size="12" lengthAdjust="spacing" textLength="32.0215" x="527.1055" y="1610.3633">config</text><line style="stroke:#181818;stroke-width:1.5;" x1="507.1055" x2="517.1055" y1="1655.5469" y2="1655.5469"/><rect fill="#F1F1F1" height="35.0938" style="stroke:#181818;stroke-width:1.5;" width="71.3633" x="517.1055" y="1638"/><text fill="#000000" font-family="sans-serif" font-size="12" lengthAdjust="spacing" textLength="51.3633" x="527.1055" y="1660.457">constants</text><line style="stroke:#181818;stroke-width:1.5;" x1="507.1055" x2="517.1055" y1="1705.6406" y2="1705.6406"/><rect fill="#F1F1F1" height="35.0938" style="stroke:#181818;stroke-width:1.5;" width="64.6895" x="517.1055" y="1688.0938"/><text fill="#000000" font-family="sans-serif" font-size="12" lengthAdjust="spacing" textLength="44.6895" x="527.1055" y="1710.5508">contexts</text><line style="stroke:#181818;stroke-width:1.5;" x1="507.1055" x2="517.1055" y1="1755.7344" y2="1755.7344"/><rect fill="#F1F1F1" height="35.0938" style="stroke:#181818;stroke-width:1.5;" width="36.6816" x="517.1055" y="1738.1875"/><text fill="#000000" font-family="sans-serif" font-size="12" lengthAdjust="spacing" textLength="16.6816" x="527.1055" y="1760.6445">dto</text><line style="stroke:#181818;stroke-width:1.5;" x1="507.1055" x2="517.1055" y1="1805.8281" y2="1805.8281"/><rect fill="#F1F1F1" height="35.0938" style="stroke:#181818;stroke-width:1.5;" width="63.3594" x="517.1055" y="1788.2813"/><text fill="#000000" font-family="sans-serif" font-size="12" lengthAdjust="spacing" textLength="43.3594" x="527.1055" y="1810.7383">features</text><line style="stroke:#181818;stroke-width:1.5;" x1="507.1055" x2="517.1055" y1="1855.9219" y2="1855.9219"/><rect fill="#F1F1F1" height="35.0938" style="stroke:#181818;stroke-width:1.5;" width="52.0215" x="517.1055" y="1838.375"/><text fill="#000000" font-family="sans-serif" font-size="12" lengthAdjust="spacing" textLength="32.0215" x="527.1055" y="1860.832">hooks</text><line style="stroke:#181818;stroke-width:1.5;" x1="543.1162" x2="553.1162" y1="1906.0156" y2="1906.0156"/><rect fill="#F1F1F1" height="35.0938" style="stroke:#181818;stroke-width:1.5;" width="43.3555" x="553.1162" y="1888.4688"/><text fill="#000000" font-family="sans-serif" font-size="12" lengthAdjust="spacing" textLength="23.3555" x="563.1162" y="1910.9258">auth</text><line style="stroke:#181818;stroke-width:1.5;" x1="543.1162" x2="553.1162" y1="1956.1094" y2="1956.1094"/><rect fill="#F1F1F1" height="35.0938" style="stroke:#181818;stroke-width:1.5;" width="61.3613" x="553.1162" y="1938.5625"/><text fill="#000000" font-family="sans-serif" font-size="12" lengthAdjust="spacing" textLength="41.3613" x="563.1162" y="1961.0195">location</text><line style="stroke:#181818;stroke-width:1.5;" x1="543.1162" x2="553.1162" y1="2006.2031" y2="2006.2031"/><rect fill="#F1F1F1" height="35.0938" style="stroke:#181818;stroke-width:1.5;" width="66.0254" x="553.1162" y="1988.6563"/><text fill="#000000" font-family="sans-serif" font-size="12" lengthAdjust="spacing" textLength="46.0254" x="563.1162" y="2011.1133">payment</text><line style="stroke:#181818;stroke-width:1.5;" x1="543.1162" x2="553.1162" y1="2056.2969" y2="2056.2969"/><rect fill="#F1F1F1" height="35.0938" style="stroke:#181818;stroke-width:1.5;" width="43.3438" x="553.1162" y="2038.75"/><text fill="#000000" font-family="sans-serif" font-size="12" lengthAdjust="spacing" textLength="23.3438" x="563.1162" y="2061.207">user</text><line style="stroke:#181818;stroke-width:1.5;" x1="543.1162" x2="543.1162" y1="1873.4688" y2="2056.2969"/><line style="stroke:#181818;stroke-width:1.5;" x1="507.1055" x2="517.1055" y1="2106.3906" y2="2106.3906"/><rect fill="#F1F1F1" height="35.0938" style="stroke:#181818;stroke-width:1.5;" width="32.0059" x="517.1055" y="2088.8438"/><text fill="#000000" font-family="sans-serif" font-size="12" lengthAdjust="spacing" textLength="12.0059" x="527.1055" y="2111.3008">lib</text><line style="stroke:#181818;stroke-width:1.5;" x1="507.1055" x2="517.1055" y1="2156.4844" y2="2156.4844"/><rect fill="#F1F1F1" height="35.0938" style="stroke:#181818;stroke-width:1.5;" width="52.6953" x="517.1055" y="2138.9375"/><text fill="#000000" font-family="sans-serif" font-size="12" lengthAdjust="spacing" textLength="32.6953" x="527.1055" y="2161.3945">pages</text><line style="stroke:#181818;stroke-width:1.5;" x1="543.4531" x2="553.4531" y1="2206.5781" y2="2206.5781"/><rect fill="#F1F1F1" height="35.0938" style="stroke:#181818;stroke-width:1.5;" width="43.3555" x="553.4531" y="2189.0313"/><text fill="#000000" font-family="sans-serif" font-size="12" lengthAdjust="spacing" textLength="23.3555" x="563.4531" y="2211.4883">auth</text><line style="stroke:#181818;stroke-width:1.5;" x1="575.1309" x2="585.1309" y1="2256.6719" y2="2256.6719"/><rect fill="#F1F1F1" height="35.0938" style="stroke:#181818;stroke-width:1.5;" width="85.373" x="585.1309" y="2239.125"/><text fill="#000000" font-family="sans-serif" font-size="12" lengthAdjust="spacing" textLength="65.373" x="595.1309" y="2261.582">components</text><line style="stroke:#181818;stroke-width:1.5;" x1="575.1309" x2="575.1309" y1="2224.125" y2="2256.6719"/><line style="stroke:#181818;stroke-width:1.5;" x1="543.4531" x2="553.4531" y1="2306.7656" y2="2306.7656"/><rect fill="#F1F1F1" height="35.0938" style="stroke:#181818;stroke-width:1.5;" width="68.0293" x="553.4531" y="2289.2188"/><text fill="#000000" font-family="sans-serif" font-size="12" lengthAdjust="spacing" textLength="48.0293" x="563.4531" y="2311.6758">checkout</text><line style="stroke:#181818;stroke-width:1.5;" x1="587.4678" x2="597.4678" y1="2356.8594" y2="2356.8594"/><rect fill="#F1F1F1" height="35.0938" style="stroke:#181818;stroke-width:1.5;" width="85.373" x="597.4678" y="2339.3125"/><text fill="#000000" font-family="sans-serif" font-size="12" lengthAdjust="spacing" textLength="65.373" x="607.4678" y="2361.7695">components</text><line style="stroke:#181818;stroke-width:1.5;" x1="587.4678" x2="587.4678" y1="2324.3125" y2="2356.8594"/><line style="stroke:#181818;stroke-width:1.5;" x1="543.4531" x2="553.4531" y1="2406.9531" y2="2406.9531"/><rect fill="#F1F1F1" height="35.0938" style="stroke:#181818;stroke-width:1.5;" width="85.3965" x="553.4531" y="2389.4063"/><text fill="#000000" font-family="sans-serif" font-size="12" lengthAdjust="spacing" textLength="65.3965" x="563.4531" y="2411.8633">landingpage</text><line style="stroke:#181818;stroke-width:1.5;" x1="596.1514" x2="606.1514" y1="2457.0469" y2="2457.0469"/><rect fill="#F1F1F1" height="35.0938" style="stroke:#181818;stroke-width:1.5;" width="85.373" x="606.1514" y="2439.5"/><text fill="#000000" font-family="sans-serif" font-size="12" lengthAdjust="spacing" textLength="65.373" x="616.1514" y="2461.957">components</text><line style="stroke:#181818;stroke-width:1.5;" x1="648.8379" x2="658.8379" y1="2507.1406" y2="2507.1406"/><rect fill="#F1F1F1" height="35.0938" style="stroke:#181818;stroke-width:1.5;" width="52.6777" x="658.8379" y="2489.5938"/><text fill="#000000" font-family="sans-serif" font-size="12" lengthAdjust="spacing" textLength="32.6777" x="668.8379" y="2512.0508">atoms</text><line style="stroke:#181818;stroke-width:1.5;" x1="648.8379" x2="658.8379" y1="2557.2344" y2="2557.2344"/><rect fill="#F1F1F1" height="35.0938" style="stroke:#181818;stroke-width:1.5;" width="74.0234" x="658.8379" y="2539.6875"/><text fill="#000000" font-family="sans-serif" font-size="12" lengthAdjust="spacing" textLength="54.0234" x="668.8379" y="2562.1445">molecules</text><line style="stroke:#181818;stroke-width:1.5;" x1="648.8379" x2="658.8379" y1="2607.3281" y2="2607.3281"/><rect fill="#F1F1F1" height="35.0938" style="stroke:#181818;stroke-width:1.5;" width="75.3535" x="658.8379" y="2589.7813"/><text fill="#000000" font-family="sans-serif" font-size="12" lengthAdjust="spacing" textLength="55.3535" x="668.8379" y="2612.2383">organisms</text><line style="stroke:#181818;stroke-width:1.5;" x1="648.8379" x2="648.8379" y1="2474.5938" y2="2607.3281"/><line style="stroke:#181818;stroke-width:1.5;" x1="596.1514" x2="596.1514" y1="2424.5" y2="2457.0469"/><line style="stroke:#181818;stroke-width:1.5;" x1="543.4531" x2="553.4531" y1="2657.4219" y2="2657.4219"/><rect fill="#F1F1F1" height="35.0938" style="stroke:#181818;stroke-width:1.5;" width="55.3496" x="553.4531" y="2639.875"/><text fill="#000000" font-family="sans-serif" font-size="12" lengthAdjust="spacing" textLength="35.3496" x="563.4531" y="2662.332">pricing</text><line style="stroke:#181818;stroke-width:1.5;" x1="543.4531" x2="553.4531" y1="2707.5156" y2="2707.5156"/><rect fill="#F1F1F1" height="35.0938" style="stroke:#181818;stroke-width:1.5;" width="43.3438" x="553.4531" y="2689.9688"/><text fill="#000000" font-family="sans-serif" font-size="12" lengthAdjust="spacing" textLength="23.3438" x="563.4531" y="2712.4258">user</text><line style="stroke:#181818;stroke-width:1.5;" x1="543.4531" x2="543.4531" y1="2174.0313" y2="2707.5156"/><line style="stroke:#181818;stroke-width:1.5;" x1="507.1055" x2="517.1055" y1="2757.6094" y2="2757.6094"/><rect fill="#F1F1F1" height="35.0938" style="stroke:#181818;stroke-width:1.5;" width="53.3516" x="517.1055" y="2740.0625"/><text fill="#000000" font-family="sans-serif" font-size="12" lengthAdjust="spacing" textLength="33.3516" x="527.1055" y="2762.5195">routes</text><line style="stroke:#181818;stroke-width:1.5;" x1="507.1055" x2="517.1055" y1="2807.7031" y2="2807.7031"/><rect fill="#F1F1F1" height="35.0938" style="stroke:#181818;stroke-width:1.5;" width="50.6738" x="517.1055" y="2790.1563"/><text fill="#000000" font-family="sans-serif" font-size="12" lengthAdjust="spacing" textLength="30.6738" x="527.1055" y="2812.6133">styles</text><line style="stroke:#181818;stroke-width:1.5;" x1="507.1055" x2="517.1055" y1="2857.7969" y2="2857.7969"/><rect fill="#F1F1F1" height="35.0938" style="stroke:#181818;stroke-width:1.5;" width="48.6816" x="517.1055" y="2840.25"/><text fill="#000000" font-family="sans-serif" font-size="12" lengthAdjust="spacing" textLength="28.6816" x="527.1055" y="2862.707">types</text><line style="stroke:#181818;stroke-width:1.5;" x1="507.1055" x2="517.1055" y1="2907.8906" y2="2907.8906"/><rect fill="#F1F1F1" height="35.0938" style="stroke:#181818;stroke-width:1.5;" width="41.3398" x="517.1055" y="2890.3438"/><text fill="#000000" font-family="sans-serif" font-size="12" lengthAdjust="spacing" textLength="21.3398" x="527.1055" y="2912.8008">utils</text><line style="stroke:#181818;stroke-width:1.5;" x1="537.7754" x2="547.7754" y1="2957.9844" y2="2957.9844"/><rect fill="#F1F1F1" height="35.0938" style="stroke:#181818;stroke-width:1.5;" width="53.3691" x="547.7754" y="2940.4375"/><text fill="#000000" font-family="sans-serif" font-size="12" lengthAdjust="spacing" textLength="33.3691" x="557.7754" y="2962.8945">debug</text><line style="stroke:#181818;stroke-width:1.5;" x1="537.7754" x2="547.7754" y1="3008.0781" y2="3008.0781"/><rect fill="#F1F1F1" height="35.0938" style="stroke:#181818;stroke-width:1.5;" width="45.3359" x="547.7754" y="2990.5313"/><text fill="#000000" font-family="sans-serif" font-size="12" lengthAdjust="spacing" textLength="25.3359" x="557.7754" y="3012.9883">error</text><line style="stroke:#181818;stroke-width:1.5;" x1="537.7754" x2="547.7754" y1="3058.1719" y2="3058.1719"/><rect fill="#F1F1F1" height="35.0938" style="stroke:#181818;stroke-width:1.5;" width="60.0254" x="547.7754" y="3040.625"/><text fill="#000000" font-family="sans-serif" font-size="12" lengthAdjust="spacing" textLength="40.0254" x="557.7754" y="3063.082">storage</text><line style="stroke:#181818;stroke-width:1.5;" x1="537.7754" x2="547.7754" y1="3108.2656" y2="3108.2656"/><rect fill="#F1F1F1" height="35.0938" style="stroke:#181818;stroke-width:1.5;" width="71.3574" x="547.7754" y="3090.7188"/><text fill="#000000" font-family="sans-serif" font-size="12" lengthAdjust="spacing" textLength="51.3574" x="557.7754" y="3113.1758">validators</text><line style="stroke:#181818;stroke-width:1.5;" x1="537.7754" x2="537.7754" y1="2925.4375" y2="3108.2656"/><line style="stroke:#181818;stroke-width:1.5;" x1="507.1055" x2="507.1055" y1="120.1875" y2="2907.8906"/><line style="stroke:#181818;stroke-width:1.5;" x1="824.208" x2="824.208" y1="65.0938" y2="85.0938"/><rect fill="#F1F1F1" height="35.0938" style="stroke:#181818;stroke-width:1.5;" width="110.7207" x="768.8477" y="85.0938"/><text fill="#000000" font-family="sans-serif" font-size="12" lengthAdjust="spacing" textLength="90.7207" x="778.8477" y="107.5508">components.json</text><line style="stroke:#181818;stroke-width:1.5;" x1="957.5947" x2="957.5947" y1="65.0938" y2="85.0938"/><rect fill="#F1F1F1" height="35.0938" style="stroke:#181818;stroke-width:1.5;" width="116.0527" x="899.5684" y="85.0938"/><text fill="#000000" font-family="sans-serif" font-size="12" lengthAdjust="spacing" textLength="96.0527" x="909.5684" y="107.5508">package-lock.json</text><line style="stroke:#181818;stroke-width:1.5;" x1="1080.9795" x2="1080.9795" y1="65.0938" y2="85.0938"/><rect fill="#F1F1F1" height="35.0938" style="stroke:#181818;stroke-width:1.5;" width="90.7168" x="1035.6211" y="85.0938"/><text fill="#000000" font-family="sans-serif" font-size="12" lengthAdjust="spacing" textLength="70.7168" x="1045.6211" y="107.5508">package.json</text><line style="stroke:#181818;stroke-width:1.5;" x1="1201.3672" x2="1201.3672" y1="65.0938" y2="85.0938"/><rect fill="#F1F1F1" height="35.0938" style="stroke:#181818;stroke-width:1.5;" width="110.0586" x="1146.3379" y="85.0938"/><text fill="#000000" font-family="sans-serif" font-size="12" lengthAdjust="spacing" textLength="90.0586" x="1156.3379" y="107.5508">tsconfig.app.json</text><line style="stroke:#181818;stroke-width:1.5;" x1="1319.748" x2="1319.748" y1="65.0938" y2="85.0938"/><rect fill="#F1F1F1" height="35.0938" style="stroke:#181818;stroke-width:1.5;" width="86.7031" x="1276.3965" y="85.0938"/><text fill="#000000" font-family="sans-serif" font-size="12" lengthAdjust="spacing" textLength="66.7031" x="1286.3965" y="107.5508">tsconfig.json</text><line style="stroke:#181818;stroke-width:1.5;" x1="1441.4658" x2="1441.4658" y1="65.0938" y2="85.0938"/><rect fill="#F1F1F1" height="35.0938" style="stroke:#181818;stroke-width:1.5;" width="116.7324" x="1383.0996" y="85.0938"/><text fill="#000000" font-family="sans-serif" font-size="12" lengthAdjust="spacing" textLength="96.7324" x="1393.0996" y="107.5508">tsconfig.node.json</text><line style="stroke:#181818;stroke-width:1.5;" x1="1563.1807" x2="1563.1807" y1="65.0938" y2="85.0938"/><rect fill="#F1F1F1" height="35.0938" style="stroke:#181818;stroke-width:1.5;" width="86.6973" x="1519.832" y="85.0938"/><text fill="#000000" font-family="sans-serif" font-size="12" lengthAdjust="spacing" textLength="66.6973" x="1529.832" y="107.5508">vite.config.ts</text><line style="stroke:#181818;stroke-width:1.5;" x1="29.3369" x2="1563.1807" y1="65.0938" y2="65.0938"/><rect fill="#F1F1F1" height="35.0938" style="stroke:#181818;stroke-width:1.5;" width="86.0293" x="753.2441" y="10"/><text fill="#000000" font-family="sans-serif" font-size="12" lengthAdjust="spacing" textLength="66.0293" x="763.2441" y="32.457">notefiber-FE</text><line style="stroke:#181818;stroke-width:1.5;" x1="796.2588" x2="796.2588" y1="45.0938" y2="65.0938"/><!--SRC=[TLJRKjim47ttL-mZP2QP50hJoHFJ4DemX38aqCUEB6ySDRBMeqiWVz-LBJlXqYVjJQkZSrQwSbvO_vAxp6sLgOKL5UH2RajBmHHJqcJXPQCy7kNTHXJqeam9Qw4TPja037bSgnpjy6QM3GPGAETv7O1m3hrhp3MPneA2P1iHjMfMQQbkZFdzSlNuD5tDVzqtliPN9OMEcmmL-AUY8cXicjGXrqg-RUoiFExBZRL2qm1XHncFLcBjoRgK9hDMPMixj3ibqQLY4VmccPgay8fCScknhmvD0-zh6_XzZUxTdVdGIfHzKorCmRIr7jVj19FVUGVMNHTI3F3WQ1sSjmsKFgYffCxs-Eg3nPPHgceoQ3eO_NLYfaft0QQJ1MnjigKmobKTrbcXcAYkTwr3gVfZ-ImYdIVipJo4n7X8YlRCHfDdB269NiJPEeMdLa0K4NaRt11jFw1-ey4R2Ne5GAiyQxCTuySglcT4Rb1kAVZ_f9DKiTVd5R6xfwftAj8eqt1-GYZKLibE-mDcrjkdUpk_JxkFHYburGbKO1xIThIMEkvPf0uZx8HMXKZpVGHuzDSrr34rSilLGwPp-pxO-zwrwer4NNyCVWZ4Xzb7T_nJZ5A2YSgkq1JnSyaUc53_jBY37Lh7GiANqTdux69qTl8R2xWL1iRVO3oUd5zCpYzXFbr1J9zc9pyUxi1Hu8VRV2fMvI4Emcbsoyy77eFngi89HEzajJY5vQmBmipib2NJZChjyw8jWf_abpNvflZow_2xyh3ajuyMdXVPDQv5q9wtIehwJ-1fTJFybjq9KmOcQG9eiYa_Kc_t4vXV_mC0]--></g></svg>