<svg width="164" height="55" viewBox="0 0 164 55" fill="none" xmlns="http://www.w3.org/2000/svg">
<path d="M0 25.3238C0 26.5839 0.896521 27.5346 2.08496 27.5347C6.71579 27.5347 11.3612 27.9676 14.1436 30.5972C14.1816 30.6333 14.2296 30.6574 14.2812 30.6666C14.3329 30.6758 14.3864 30.6698 14.4346 30.649C14.4827 30.6282 14.524 30.5933 14.5527 30.5494C14.5812 30.5056 14.596 30.4542 14.5957 30.4019V42.9127C14.596 42.9652 14.5815 43.0172 14.5527 43.0611C14.5241 43.1049 14.4826 43.1389 14.4346 43.1597C14.3864 43.1806 14.3329 43.1875 14.2812 43.1783C14.2296 43.1691 14.1816 43.1441 14.1436 43.108C11.3612 40.4784 6.71575 40.0455 2.08496 40.0455C0.896519 40.0454 0 39.0947 0 37.8345V25.3238ZM31.2793 37.9595C31.2793 38.5125 31.06 39.0432 30.6689 39.4342C30.2779 39.8251 29.7473 40.0445 29.1943 40.0445C21.7247 40.0439 18.7889 41.4328 17.1162 43.0943C17.0802 43.1296 17.0348 43.1542 16.9854 43.1637C16.9358 43.1731 16.8844 43.1676 16.8379 43.148C16.7914 43.1285 16.7515 43.0953 16.7236 43.0533C16.6958 43.0113 16.6806 42.962 16.6807 42.9117V30.401C16.6807 30.4513 16.6958 30.5006 16.7236 30.5426C16.7515 30.5846 16.7914 30.6177 16.8379 30.6373C16.8844 30.6568 16.9358 30.6623 16.9854 30.6529C17.0349 30.6434 17.0802 30.6188 17.1162 30.5836C18.7889 28.922 21.7246 27.5331 29.1943 27.5338C29.7472 27.5338 30.2779 27.3143 30.6689 26.9234C31.0599 26.5324 31.2792 26.0017 31.2793 25.4488V37.9595Z" fill="#8267EC"/>
<path d="M0 10.8582C0 12.1184 0.896521 13.0691 2.08496 13.0692C6.71581 13.0692 11.3612 13.502 14.1436 16.1317C14.1816 16.1678 14.2296 16.1918 14.2812 16.201C14.3329 16.2102 14.3864 16.2042 14.4346 16.1834C14.4827 16.1626 14.524 16.1277 14.5527 16.0838C14.5813 16.04 14.596 15.9887 14.5957 15.9363V28.4471C14.596 28.4996 14.5815 28.5516 14.5527 28.5955C14.5241 28.6394 14.4826 28.6733 14.4346 28.6942C14.3864 28.715 14.3329 28.7219 14.2812 28.7127C14.2296 28.7035 14.1816 28.6785 14.1436 28.6424C11.3612 26.0128 6.71576 25.5799 2.08496 25.5799C0.896519 25.5798 0 24.6291 0 23.369V10.8582ZM31.2793 23.494C31.2793 24.0469 31.0599 24.5776 30.6689 24.9686C30.2779 25.3595 29.7473 25.5789 29.1943 25.5789C21.7246 25.5783 18.7889 26.9672 17.1162 28.6287C17.0802 28.664 17.0348 28.6886 16.9854 28.6981C16.9358 28.7075 16.8844 28.702 16.8379 28.6824C16.7914 28.6629 16.7515 28.6297 16.7236 28.5877C16.6958 28.5458 16.6807 28.4965 16.6807 28.4461V15.9354C16.6807 15.9857 16.6958 16.035 16.7236 16.077C16.7515 16.119 16.7914 16.1521 16.8379 16.1717C16.8843 16.1912 16.9359 16.1958 16.9854 16.1863C17.0348 16.1769 17.0802 16.1532 17.1162 16.118C18.7889 14.4564 21.7245 13.0676 29.1943 13.0682C29.7473 13.0682 30.2779 12.8479 30.6689 12.4569C31.0598 12.0659 31.2792 11.536 31.2793 10.9832V23.494Z" fill="#8267EC"/>
<path d="M55.4225 16.0644V38.5201H52.6232L44.7484 25.5696C43.3641 23.201 42.0414 20.8016 40.7186 18.433C40.8417 21.3861 40.8724 24.4314 40.8724 27.1077V38.5201H38.6884V16.0644H41.4877L49.1472 28.5842C50.593 31.0759 52.008 33.5368 53.423 36.0284C53.3 33.1369 53.2692 29.9685 53.2692 27.323V16.0644H55.4225ZM59.7666 30.5529C59.7666 35.1979 61.7353 37.0128 64.9344 37.0128C68.1336 37.0128 70.0716 35.1979 70.0716 30.5529C70.0716 25.9387 68.1336 24.0931 64.9344 24.0931C61.7353 24.0931 59.7666 25.9387 59.7666 30.5529ZM57.4902 30.5529C57.4902 24.7083 60.351 22.1551 64.9344 22.1551C69.5179 22.1551 72.3786 24.7083 72.3786 30.5529C72.3786 36.3976 69.4871 38.9507 64.9344 38.9507C60.351 38.9507 57.4902 36.3976 57.4902 30.5529ZM77.0712 34.2135C77.0712 36.7052 77.5941 37.0435 80.6702 36.8282V38.6739C79.9935 38.7662 79.286 38.7969 78.4247 38.7969C75.9638 38.7969 75.0717 37.751 74.9179 36.0592C74.8564 35.2594 74.8564 34.6749 74.8564 33.7521V24.5545H72.7646V22.6781H74.8564V17.7563H77.0712V22.6781H80.701V24.5545H77.0712V34.2135ZM88.1964 22.1551C92.9029 22.1551 94.9946 25.4158 94.9946 30.2453C94.9946 30.5222 94.9639 30.8605 94.9331 31.2912H83.3361C83.5207 35.4132 85.2433 37.0128 88.1964 37.0128C90.5342 37.0128 92.1031 35.9361 92.626 33.8136H94.8101C94.1948 37.0743 91.7646 38.9507 88.104 38.9507C83.4283 38.9507 81.0598 36.0284 81.0598 30.5837C81.0598 24.9851 83.5206 22.1551 88.1964 22.1551ZM83.3361 29.4763H92.7491C92.5645 25.5389 90.6572 24.0931 88.0732 24.0931C85.3663 24.0931 83.5207 25.4466 83.3361 29.4763ZM117.01 16.0644V18.0946H104.89V26.4002H116.364V28.4304H104.89V38.5201H102.614V16.0644H117.01ZM120.974 22.5858V38.5201H118.79V22.5858H120.974ZM118.42 17.9716C118.42 17.1718 119.066 16.5566 119.866 16.5566C120.666 16.5566 121.312 17.1718 121.312 17.9716C121.312 18.7714 120.666 19.4174 119.866 19.4174C119.066 19.4174 118.42 18.7714 118.42 17.9716ZM125.775 16.0644V25.5389C126.513 23.1395 128.759 22.1551 131.404 22.1551C136.11 22.1551 138.264 25.5389 138.264 30.5529C138.264 35.8439 135.68 38.9507 131.189 38.9507C128.697 38.9507 126.359 37.9971 125.652 35.444L125.621 38.5201H123.56V16.0644H125.775ZM125.775 31.1374C125.775 35.69 128.359 37.0128 130.666 37.0128C134.142 37.0128 135.864 34.4904 135.864 30.5529C135.864 26.9231 134.48 24.0931 130.789 24.0931C127.99 24.0931 125.775 25.6619 125.775 30.2453V31.1374ZM146.474 22.1551C151.181 22.1551 153.273 25.4158 153.273 30.2453C153.273 30.5222 153.242 30.8605 153.211 31.2912H141.614C141.799 35.4132 143.521 37.0128 146.474 37.0128C148.812 37.0128 150.381 35.9361 150.904 33.8136H153.088C152.473 37.0743 150.043 38.9507 146.382 38.9507C141.706 38.9507 139.338 36.0284 139.338 30.5837C139.338 24.9851 141.799 22.1551 146.474 22.1551ZM141.614 29.4763H151.027C150.842 25.5389 148.935 24.0931 146.351 24.0931C143.644 24.0931 141.799 25.4466 141.614 29.4763ZM161.912 22.1551C162.312 22.1551 162.619 22.1551 162.896 22.2166V24.1238C159.543 23.8162 157.605 25.7234 157.605 30.6452V38.5201H155.391V22.5858H157.452L157.513 25.6311C157.944 23.2318 159.851 22.1551 161.912 22.1551Z" fill="#060B13"/>
</svg>
