<svg width="1440" height="441" viewBox="0 0 1440 441" fill="none" xmlns="http://www.w3.org/2000/svg">
<g clip-path="url(#clip0_205_12105)">
<g filter="url(#filter0_f_205_12105)">
<path d="M-773.422 617.448C412.21 -231.342 1449.94 115.193 1998.17 535.34L2139.18 654.529C2096.66 614.769 2049.57 574.731 1998.17 535.34L413.143 -804.439L-773.422 617.448Z" fill="url(#paint0_linear_205_12105)"/>
<path d="M-510.833 306.121C368.002 -427.2 1446.82 96.8497 1949.43 485.345L2095.69 608.977C2054.91 570.781 2005.79 528.916 1949.43 485.345L419.072 -808.192L-510.833 306.121Z" fill="url(#paint1_linear_205_12105)"/>
</g>
<g filter="url(#filter1_f_205_12105)">
<path d="M-773.422 617.448C412.21 -231.342 1449.94 115.193 1998.17 535.34L2139.18 654.529C2096.66 614.769 2049.57 574.731 1998.17 535.34L413.143 -804.439L-773.422 617.448Z" fill="url(#paint2_linear_205_12105)"/>
<path d="M-510.833 306.121C368.002 -427.2 1446.82 96.8497 1949.43 485.345L2095.69 608.977C2054.91 570.781 2005.79 528.916 1949.43 485.345L419.072 -808.192L-510.833 306.121Z" fill="url(#paint3_linear_205_12105)"/>
</g>
</g>
<defs>
<filter id="filter0_f_205_12105" x="-926.522" y="-961.292" width="3218.8" height="1768.92" filterUnits="userSpaceOnUse" color-interpolation-filters="sRGB">
<feFlood flood-opacity="0" result="BackgroundImageFix"/>
<feBlend mode="normal" in="SourceGraphic" in2="BackgroundImageFix" result="shape"/>
<feGaussianBlur stdDeviation="76.55" result="effect1_foregroundBlur_205_12105"/>
</filter>
<filter id="filter1_f_205_12105" x="-1084.42" y="-1119.19" width="3534.6" height="2084.72" filterUnits="userSpaceOnUse" color-interpolation-filters="sRGB">
<feFlood flood-opacity="0" result="BackgroundImageFix"/>
<feBlend mode="normal" in="SourceGraphic" in2="BackgroundImageFix" result="shape"/>
<feGaussianBlur stdDeviation="155.5" result="effect1_foregroundBlur_205_12105"/>
</filter>
<linearGradient id="paint0_linear_205_12105" x1="1277.61" y1="-76.6882" x2="80.6508" y2="1339.37" gradientUnits="userSpaceOnUse">
<stop stop-color="#FF649A"/>
<stop offset="1" stop-color="white"/>
</linearGradient>
<linearGradient id="paint1_linear_205_12105" x1="1258.81" y1="-101.324" x2="320.482" y2="1008.79" gradientUnits="userSpaceOnUse">
<stop stop-color="#7050F0"/>
<stop offset="1" stop-color="white"/>
</linearGradient>
<linearGradient id="paint2_linear_205_12105" x1="1277.61" y1="-76.6882" x2="80.6508" y2="1339.37" gradientUnits="userSpaceOnUse">
<stop stop-color="#FF649A"/>
<stop offset="1" stop-color="white"/>
</linearGradient>
<linearGradient id="paint3_linear_205_12105" x1="1258.81" y1="-101.324" x2="320.482" y2="1008.79" gradientUnits="userSpaceOnUse">
<stop stop-color="#7050F0"/>
<stop offset="1" stop-color="white"/>
</linearGradient>
<clipPath id="clip0_205_12105">
<rect width="1440" height="441" fill="white"/>
</clipPath>
</defs>
</svg>
