<svg width="621" height="376" viewBox="0 0 621 376" fill="none" xmlns="http://www.w3.org/2000/svg">
<g clip-path="url(#clip0_374_55298)">
<g filter="url(#filter0_d_374_55298)">
<path d="M126.39 114.849C126.39 101.737 137.019 91.1082 150.13 91.1082H470.631C483.742 91.1082 494.372 101.737 494.372 114.849V370.062C494.372 383.174 483.742 393.803 470.631 393.803H150.13C137.019 393.803 126.39 383.174 126.39 370.062V114.849Z" fill="white"/>
<path d="M150.131 91.3552H470.631C483.606 91.3552 494.124 101.874 494.124 114.849V370.062C494.124 383.037 483.606 393.555 470.631 393.555H150.131C137.156 393.555 126.637 383.037 126.637 370.062V114.849C126.637 101.874 137.156 91.3552 150.131 91.3552Z" stroke="#E0E7F5" stroke-width="0.494599"/>
<rect x="140.238" y="104.957" width="50.5961" height="50.5961" rx="25.298" fill="#7050F0"/>
<path d="M175.958 132.17C175.958 133.683 175.655 134.984 175.082 135.935C174.346 137.156 173.202 137.802 171.775 137.802C169.05 137.802 167.218 134.383 165.28 130.765C163.871 128.136 162.123 124.865 160.685 124.865C159.993 124.865 159.144 125.707 158.47 127.062C157.699 128.655 157.29 130.4 157.272 132.17C157.272 133.275 157.473 134.216 157.838 134.822C158.176 135.384 158.641 135.645 159.298 135.645C160.534 135.645 162.05 133.04 162.549 132.188C162.693 131.941 162.929 131.761 163.205 131.688C163.482 131.615 163.776 131.655 164.023 131.799C164.27 131.943 164.45 132.179 164.523 132.456C164.596 132.733 164.556 133.027 164.412 133.274C163.611 134.646 162.927 135.61 162.256 136.308C161.292 137.313 160.326 137.802 159.298 137.802C157.871 137.802 156.727 137.156 155.991 135.935C155.418 134.984 155.115 133.683 155.115 132.17C155.115 128.22 157.234 122.709 160.685 122.709C163.41 122.709 165.242 126.127 167.181 129.746C168.591 132.375 170.34 135.645 171.775 135.645C172.432 135.645 172.897 135.384 173.236 134.822C173.6 134.216 173.802 133.275 173.802 132.17C173.783 130.4 173.374 128.655 172.604 127.062C171.93 125.707 171.081 124.865 170.388 124.865C169.874 124.865 169.255 125.314 168.547 126.197C168.368 126.421 168.108 126.564 167.824 126.595C167.54 126.627 167.255 126.544 167.031 126.365C166.808 126.187 166.665 125.927 166.634 125.642C166.602 125.358 166.685 125.073 166.863 124.85C168.018 123.41 169.17 122.709 170.388 122.709C171.973 122.709 173.442 123.914 174.534 126.101C175.449 127.995 175.935 130.067 175.958 132.17Z" fill="white"/>
<path d="M231.252 122.841L227.678 137.255H225.269L223.453 130.226C222.979 128.449 222.643 126.652 222.308 124.855C221.933 126.652 221.557 128.449 221.083 130.226L219.129 137.255H216.68L213.324 122.841H215.358L216.779 129.436C217.253 131.569 217.628 133.662 217.984 135.755C218.418 133.642 218.912 131.569 219.504 129.436L221.32 123.039H223.354L225.072 129.436C225.645 131.529 226.118 133.563 226.553 135.636C226.908 133.563 227.323 131.509 227.816 129.436L229.376 122.841H231.252ZM236.317 126.692C239.476 126.692 240.838 128.864 240.838 131.924C240.838 132.141 240.838 132.437 240.819 132.734H233.454C233.612 135.063 234.599 135.932 236.317 135.932C237.679 135.932 238.568 135.34 238.864 134.214H240.7C240.305 136.327 238.726 137.532 236.258 137.532C233.138 137.532 231.539 135.676 231.539 132.141C231.539 128.627 233.138 126.692 236.317 126.692ZM233.474 131.253H238.943C238.805 129.101 237.738 128.311 236.238 128.311C234.638 128.311 233.631 129.061 233.474 131.253ZM247.327 126.692C250.486 126.692 251.848 128.864 251.848 131.924C251.848 132.141 251.848 132.437 251.829 132.734H244.464C244.622 135.063 245.609 135.932 247.327 135.932C248.689 135.932 249.578 135.34 249.874 134.214H251.71C251.315 136.327 249.736 137.532 247.268 137.532C244.148 137.532 242.549 135.676 242.549 132.141C242.549 128.627 244.148 126.692 247.327 126.692ZM244.484 131.253H249.953C249.815 129.101 248.748 128.311 247.248 128.311C245.648 128.311 244.642 129.061 244.484 131.253ZM262.646 126.968L258.796 131.036L262.844 137.255H260.593L257.355 132.181L255.676 133.839V137.255H253.82V122.841H255.676V132.141L260.573 126.968H262.646ZM266.125 134.57C266.125 135.952 266.323 136.07 267.448 135.952V137.295C267.113 137.354 266.56 137.393 266.185 137.393C264.862 137.393 264.368 136.88 264.309 135.715C264.269 135.261 264.269 134.866 264.269 134.116V122.841H266.125V134.57ZM273.932 137.255C272.53 140.809 271.543 141.402 269.509 141.402C269.134 141.402 268.858 141.382 268.542 141.303V139.743C268.877 139.782 269.233 139.802 269.588 139.802C270.437 139.802 271.148 139.486 271.701 138.104L271.898 137.571L267.772 126.968H269.944L272.925 135.676L276.084 126.968H278.059L273.932 137.255ZM285.014 132.102C285.014 134.866 286.14 135.932 288.035 135.932C289.931 135.932 291.056 134.866 291.056 132.102C291.056 129.357 289.931 128.311 288.035 128.311C286.14 128.311 285.014 129.357 285.014 132.102ZM283.079 132.102C283.079 128.429 284.916 126.692 288.035 126.692C291.155 126.692 293.011 128.429 293.011 132.102C293.011 135.794 291.155 137.532 288.035 137.532C284.916 137.532 283.079 135.794 283.079 132.102ZM304.116 126.968L299.91 137.255H297.797L293.532 126.968H295.645L298.903 135.616L302.121 126.968H304.116ZM309.511 126.692C312.671 126.692 314.033 128.864 314.033 131.924C314.033 132.141 314.033 132.437 314.013 132.734H306.648C306.806 135.063 307.794 135.932 309.511 135.932C310.874 135.932 311.762 135.34 312.058 134.214H313.895C313.5 136.327 311.92 137.532 309.452 137.532C306.332 137.532 304.733 135.676 304.733 132.141C304.733 128.627 306.332 126.692 309.511 126.692ZM306.668 131.253H312.137C311.999 129.101 310.933 128.311 309.432 128.311C307.833 128.311 306.826 129.061 306.668 131.253ZM320.934 126.692C321.211 126.692 321.428 126.692 321.625 126.751V128.311C319.355 128.094 318.15 129.318 318.15 132.437V137.255H316.294V126.968H318.012L318.071 128.962C318.288 127.402 319.473 126.692 320.934 126.692ZM333.077 126.968L328.872 137.255H326.759L322.494 126.968H324.607L327.865 135.616L331.083 126.968H333.077ZM336.314 126.968V137.255H334.458V126.968H336.314ZM334.26 123.927C334.26 123.296 334.754 122.802 335.366 122.802C335.998 122.802 336.492 123.296 336.492 123.927C336.492 124.539 335.998 125.033 335.366 125.033C334.754 125.033 334.26 124.539 334.26 123.927ZM342.966 126.692C346.125 126.692 347.487 128.864 347.487 131.924C347.487 132.141 347.487 132.437 347.468 132.734H340.103C340.261 135.063 341.248 135.932 342.966 135.932C344.328 135.932 345.217 135.34 345.513 134.214H347.349C346.954 136.327 345.375 137.532 342.906 137.532C339.787 137.532 338.187 135.676 338.187 132.141C338.187 128.627 339.787 126.692 342.966 126.692ZM340.122 131.253H345.592C345.454 129.101 344.387 128.311 342.887 128.311C341.287 128.311 340.28 129.061 340.122 131.253ZM363.304 126.968L360.302 137.255H358.249C357.4 134.708 356.59 132.042 355.82 129.337C355.09 132.042 354.221 134.708 353.392 137.255H351.358L348.317 126.968H350.312C351.082 129.792 351.812 132.595 352.464 135.419C353.234 132.655 354.083 129.969 354.952 127.205H356.788C357.676 130.009 358.525 132.773 359.276 135.557C359.927 132.694 360.638 129.831 361.428 126.968H363.304Z" fill="black"/>
<path d="M147.07 175.208L151.597 187.402H149.893L148.574 183.81H143.613L142.293 187.402H140.606L145.2 175.208H147.07ZM144.08 182.374H148.139L146.118 176.728L144.08 182.374ZM157.346 178.465C158.665 178.465 159.467 179.083 159.818 180.069C160.118 178.816 161.388 178.465 162.524 178.465C164.261 178.465 165.23 179.35 165.414 180.787C165.481 181.238 165.497 181.605 165.497 182.107V187.402H163.927V182.357C163.927 180.954 163.676 179.835 162.123 179.835C160.803 179.835 160.052 180.72 160.052 182.591V187.402H158.498V182.391C158.498 181.021 158.264 179.835 156.677 179.835C155.391 179.835 154.64 180.703 154.64 182.574V187.402H153.069V178.699H154.523L154.573 179.968C154.84 178.866 156.009 178.465 157.346 178.465ZM168.71 183.042C168.71 185.381 169.662 186.283 171.265 186.283C172.869 186.283 173.821 185.381 173.821 183.042C173.821 180.72 172.869 179.835 171.265 179.835C169.662 179.835 168.71 180.72 168.71 183.042ZM167.073 183.042C167.073 179.935 168.626 178.465 171.265 178.465C173.905 178.465 175.475 179.935 175.475 183.042C175.475 186.166 173.905 187.636 171.265 187.636C168.626 187.636 167.073 186.166 167.073 183.042ZM180.053 187.636C178.349 187.636 177.263 186.917 177.079 185.264C177.012 184.813 176.996 184.462 176.996 183.744V178.699H178.566V183.844C178.566 185.297 178.917 186.283 180.57 186.283C181.873 186.283 182.842 185.381 182.842 183.46V178.699H184.412V187.402H182.976L182.909 185.915C182.542 187.135 181.506 187.636 180.053 187.636ZM190.902 178.465C192.689 178.465 193.775 179.167 193.975 180.82C194.025 181.271 194.042 181.639 194.042 182.357V187.402H192.472V182.29C192.472 180.82 192.154 179.852 190.417 179.852C189.131 179.818 188.162 180.72 188.162 182.675V187.402H186.592V178.699H188.045L188.095 180.252C188.379 178.95 189.498 178.465 190.902 178.465ZM198.208 184.813C198.208 186.166 198.492 186.299 200.145 186.182V187.485C199.728 187.535 199.31 187.569 198.759 187.569C197.289 187.569 196.754 186.951 196.688 185.965C196.654 185.514 196.654 185.18 196.654 184.679V180.052H195.468V178.749H196.654V176.093H198.208V178.749H200.179V180.052H198.208V184.813Z" fill="#909090"/>
<path d="M146.946 210.277H149.182V212.384C152.265 212.718 154.167 214.517 154.27 217.601H151.906C151.777 215.75 150.749 214.774 149.182 214.465V220.068C152.908 220.864 154.784 222.432 154.784 225.259C154.784 228.369 152.163 229.936 149.182 230.193V232.3H146.946V230.167C143.862 229.833 141.678 228.137 141.421 224.873H143.785C143.965 226.698 145.07 227.777 146.946 228.112V222.021C143.579 221.276 141.883 219.914 141.883 217.215C141.883 214.491 144.016 212.744 146.946 212.41V210.277ZM144.325 217.061C144.325 218.577 145.224 219.348 146.946 219.811V214.44C145.327 214.722 144.325 215.622 144.325 217.061ZM149.182 228.163C151.006 227.957 152.343 227.084 152.343 225.465C152.343 223.82 151.263 222.843 149.182 222.329V228.163ZM171.979 211.844V230.681H169.512V214.902H165.708V213.386L170.257 211.844H171.979ZM189.814 211.921V214.131H181.41L180.588 220.53C181.384 218.988 182.823 218.423 184.751 218.423C188.092 218.423 190.507 220.453 190.507 224.694C190.507 228.266 188.246 231.041 184.211 231.041C180.099 231.041 178.121 229.371 177.761 225.85H180.279C180.613 227.726 181.641 228.78 184.108 228.78C186.498 228.78 187.989 227.263 187.989 224.745C187.989 221.815 186.241 220.685 184.186 220.685C182.335 220.685 181.153 221.378 180.433 222.792H177.992L179.303 211.921H189.814ZM198.679 231.041C195.004 231.041 193.257 229.062 192.923 225.747H195.441C195.75 227.777 196.829 228.78 198.782 228.78C201.583 228.78 202.894 226.801 202.945 221.019C202.457 222.92 200.427 224.051 198.294 224.051C194.619 224.051 192.614 221.635 192.614 217.858C192.614 213.797 195.415 211.562 198.936 211.562C202.971 211.562 205.387 213.9 205.387 220.042C205.387 227.418 203.742 231.041 198.679 231.041ZM195.081 217.806C195.081 220.453 196.572 221.79 198.833 221.79C201.455 221.79 202.791 220.094 202.791 218.14C202.791 215.853 201.789 213.823 199.013 213.823C196.649 213.823 195.081 215.211 195.081 217.806ZM209.292 231.041C208.316 231.041 207.545 230.245 207.545 229.268C207.545 228.317 208.316 227.52 209.292 227.52C210.269 227.52 211.066 228.317 211.066 229.268C211.066 230.245 210.269 231.041 209.292 231.041ZM219.518 213.823C216.537 213.823 215.612 216.239 215.612 221.301C215.612 226.338 216.537 228.78 219.518 228.78C222.474 228.78 223.425 226.338 223.425 221.301C223.425 216.239 222.474 213.823 219.518 213.823ZM213.068 221.301C213.068 214.954 214.738 211.562 219.518 211.562C224.298 211.562 225.969 214.954 225.969 221.301C225.969 227.623 224.298 231.041 219.518 231.041C214.738 231.041 213.068 227.623 213.068 221.301ZM234.526 213.823C231.545 213.823 230.62 216.239 230.62 221.301C230.62 226.338 231.545 228.78 234.526 228.78C237.481 228.78 238.432 226.338 238.432 221.301C238.432 216.239 237.481 213.823 234.526 213.823ZM228.076 221.301C228.076 214.954 229.746 211.562 234.526 211.562C239.306 211.562 240.976 214.954 240.976 221.301C240.976 227.623 239.306 231.041 234.526 231.041C229.746 231.041 228.076 227.623 228.076 221.301Z" fill="black"/>
<rect x="427.615" y="213.907" width="52.2015" height="24.0672" rx="12.0336" fill="#E5F8E5"/>
<rect x="427.615" y="213.907" width="52.2015" height="24.0672" rx="12.0336" stroke="#F5F6F9" stroke-width="1.41343"/>
<path d="M442.067 223.779V226.159H444.3V226.945H442.067V229.312H441.221V226.945H438.988V226.159H441.221V223.779H442.067ZM448.798 221.314C450.576 221.314 451.631 222.405 451.631 223.853C451.631 225.239 450.871 226.172 448.847 227.877L447.068 229.386H451.693V230.441H445.571V229.275L447.804 227.374C449.816 225.669 450.429 224.969 450.429 223.963C450.429 223.007 449.779 222.393 448.724 222.393C447.485 222.393 446.945 223.043 446.859 224.123H445.657C445.78 222.356 446.7 221.314 448.798 221.314ZM455.815 222.393C454.392 222.393 453.95 223.546 453.95 225.963C453.95 228.368 454.392 229.533 455.815 229.533C457.226 229.533 457.679 228.368 457.679 225.963C457.679 223.546 457.226 222.393 455.815 222.393ZM452.735 225.963C452.735 222.933 453.533 221.314 455.815 221.314C458.097 221.314 458.894 222.933 458.894 225.963C458.894 228.981 458.097 230.613 455.815 230.613C453.533 230.613 452.735 228.981 452.735 225.963ZM467.481 221.485L461.728 230.441H460.758L466.512 221.485H467.481ZM460.071 223.399C460.071 222.111 460.746 221.314 461.936 221.314C463.151 221.314 463.85 222.111 463.85 223.399C463.85 224.663 463.151 225.485 461.936 225.485C460.746 225.485 460.071 224.663 460.071 223.399ZM460.881 223.399C460.881 224.295 461.249 224.761 461.936 224.761C462.623 224.761 462.991 224.295 462.991 223.399C462.991 222.491 462.623 222.025 461.936 222.025C461.249 222.025 460.881 222.491 460.881 223.399ZM464.586 228.527C464.586 227.239 465.273 226.442 466.451 226.442C467.665 226.442 468.365 227.239 468.365 228.527C468.365 229.803 467.665 230.613 466.451 230.613C465.273 230.613 464.586 229.803 464.586 228.527ZM465.396 228.527C465.396 229.423 465.764 229.901 466.451 229.901C467.138 229.901 467.506 229.423 467.506 228.527C467.506 227.619 467.138 227.165 466.451 227.165C465.764 227.165 465.396 227.619 465.396 228.527Z" fill="#8DCE90"/>
</g>
</g>
<defs>
<filter id="filter0_d_374_55298" x="113.926" y="88.5362" width="404.78" height="339.493" filterUnits="userSpaceOnUse" color-interpolation-filters="sRGB">
<feFlood flood-opacity="0" result="BackgroundImageFix"/>
<feColorMatrix in="SourceAlpha" type="matrix" values="0 0 0 0 0 0 0 0 0 0 0 0 0 0 0 0 0 0 127 0" result="hardAlpha"/>
<feMorphology radius="1.9784" operator="erode" in="SourceAlpha" result="effect1_dropShadow_374_55298"/>
<feOffset dx="5.93519" dy="15.8272"/>
<feGaussianBlur stdDeviation="10.1887"/>
<feComposite in2="hardAlpha" operator="out"/>
<feColorMatrix type="matrix" values="0 0 0 0 0 0 0 0 0 0 0 0 0 0 0 0 0 0 0.07 0"/>
<feBlend mode="normal" in2="BackgroundImageFix" result="effect1_dropShadow_374_55298"/>
<feBlend mode="normal" in="SourceGraphic" in2="effect1_dropShadow_374_55298" result="shape"/>
</filter>
<clipPath id="clip0_374_55298">
<rect width="620.761" height="393.803" fill="white"/>
</clipPath>
</defs>
</svg>
