<svg width="621" height="376" viewBox="0 0 621 376" fill="none" xmlns="http://www.w3.org/2000/svg">
<mask id="mask0_374_55174" style="mask-type:alpha" maskUnits="userSpaceOnUse" x="0" y="0" width="621" height="376">
<rect width="620.761" height="375.401" fill="url(#paint0_linear_374_55174)"/>
</mask>
<g mask="url(#mask0_374_55174)">
<g clip-path="url(#clip0_374_55174)">
<path d="M87.1846 102.428C87.1846 96.1761 92.2526 91.1082 98.5043 91.1082H522.257C528.509 91.1082 533.577 96.1762 533.577 102.428V382.483C533.577 388.735 528.509 393.803 522.257 393.803H98.5043C92.2526 393.803 87.1846 388.735 87.1846 382.483V102.428Z" fill="white"/>
<path d="M170.739 240.516H220.195" stroke="#E0E7F5" stroke-width="0.969732"/>
<path d="M233.772 240.031H450.022" stroke="#E0E7F5" stroke-width="0.969732"/>
<g filter="url(#filter0_i_374_55174)">
<rect x="106.737" y="113.481" width="64.0023" height="64.0023" rx="32.0012" fill="#F5F6F9"/>
<rect x="107.076" y="113.821" width="63.3235" height="63.3235" rx="31.6618" stroke="#E0E7F5" stroke-width="0.678813"/>
<g clip-path="url(#clip1_374_55174)">
<path d="M138.738 130.936C138.975 130.936 139.207 130.988 139.434 131.093C139.661 131.197 139.86 131.329 140.031 131.49L152.73 144.19C152.919 144.379 153.057 144.592 153.142 144.829C153.227 145.066 153.274 145.312 153.284 145.567C153.284 145.814 153.232 146.046 153.128 146.264C153.023 146.481 152.891 146.671 152.73 146.832L140.087 159.474C139.718 159.844 139.268 160.028 138.738 160.028C138.501 160.028 138.269 159.976 138.042 159.872C137.815 159.768 137.616 159.635 137.445 159.474L124.746 146.775C124.585 146.614 124.452 146.42 124.348 146.193C124.244 145.965 124.192 145.728 124.192 145.482C124.192 145.236 124.239 144.995 124.334 144.758C124.429 144.521 124.566 144.313 124.746 144.133L133.454 135.425L136.749 138.721C136.636 138.995 136.579 139.284 136.579 139.587C136.579 140.193 136.797 140.714 137.232 141.15L137.346 141.263C137.365 141.282 137.388 141.297 137.417 141.306C137.445 141.315 137.474 141.32 137.502 141.32C137.531 141.32 137.578 141.339 137.644 141.377V149.431C137.531 149.479 137.436 149.545 137.36 149.63C137.284 149.715 137.199 149.801 137.104 149.886C136.858 150.132 136.664 150.392 136.522 150.667C136.38 150.942 136.309 151.259 136.309 151.619C136.309 151.941 136.37 152.239 136.494 152.514C136.617 152.788 136.782 153.035 136.991 153.252C137.199 153.47 137.445 153.636 137.729 153.75C138.013 153.863 138.317 153.925 138.639 153.934C138.96 153.934 139.268 153.882 139.562 153.778C139.855 153.674 140.106 153.527 140.315 153.338C140.523 153.148 140.694 152.912 140.826 152.627C140.959 152.343 141.025 152.036 141.025 151.704C141.025 151.496 140.997 151.287 140.94 151.079C140.883 150.871 140.798 150.677 140.684 150.497C140.57 150.317 140.438 150.146 140.286 149.985C140.135 149.824 139.969 149.696 139.789 149.602V141.775L142.801 144.786C142.687 145.061 142.63 145.345 142.63 145.639C142.63 145.951 142.687 146.24 142.801 146.505C142.914 146.77 143.075 147.007 143.284 147.215C143.492 147.424 143.724 147.58 143.98 147.684C144.235 147.788 144.529 147.85 144.86 147.869C145.173 147.869 145.462 147.812 145.727 147.698C145.992 147.585 146.229 147.424 146.437 147.215C146.645 147.007 146.802 146.775 146.906 146.519C147.01 146.264 147.072 145.97 147.091 145.639C147.091 145.335 147.034 145.051 146.92 144.786C146.806 144.521 146.645 144.284 146.437 144.076C146.229 143.868 145.997 143.707 145.741 143.593C145.485 143.479 145.197 143.418 144.875 143.408C144.619 143.408 144.373 143.451 144.136 143.536L140.911 140.312C140.997 140.075 141.039 139.829 141.039 139.573C141.039 139.26 140.982 138.972 140.869 138.706C140.755 138.441 140.594 138.205 140.386 137.996C140.177 137.788 139.945 137.632 139.69 137.527C139.434 137.423 139.14 137.366 138.809 137.357C138.582 137.357 138.345 137.395 138.099 137.471L134.746 134.118L137.388 131.49C137.758 131.121 138.208 130.936 138.738 130.936Z" fill="#7050F0"/>
</g>
</g>
<rect x="262.629" y="192.764" width="95.5039" height="95.5039" rx="47.752" fill="#7050F0"/>
<rect x="262.629" y="192.764" width="95.5039" height="95.5039" rx="47.752" stroke="#573DC1" stroke-width="1.46929"/>
<path d="M288.341 238.203C288.341 239.921 289.605 241.218 291.28 241.218C297.805 241.218 304.351 241.808 308.272 245.394C308.325 245.443 308.393 245.476 308.466 245.489C308.539 245.501 308.614 245.493 308.682 245.464C308.75 245.436 308.808 245.389 308.848 245.33C308.888 245.27 308.91 245.199 308.909 245.127V262.189C308.91 262.26 308.888 262.33 308.848 262.39C308.807 262.45 308.75 262.497 308.682 262.526C308.614 262.554 308.539 262.563 308.466 262.55C308.393 262.538 308.325 262.505 308.272 262.456C304.351 258.869 297.805 258.279 291.28 258.279C289.605 258.279 288.341 256.983 288.341 255.264V238.203ZM332.42 255.434C332.42 256.188 332.11 256.911 331.559 257.444C331.008 257.977 330.261 258.277 329.482 258.277C318.956 258.276 314.818 260.17 312.461 262.436C312.411 262.484 312.346 262.517 312.277 262.53C312.207 262.543 312.134 262.536 312.069 262.509C312.003 262.483 311.948 262.437 311.909 262.38C311.869 262.323 311.848 262.256 311.848 262.187V245.125C311.848 245.194 311.869 245.262 311.909 245.319C311.948 245.376 312.003 245.421 312.069 245.448C312.134 245.474 312.207 245.482 312.277 245.469C312.346 245.456 312.411 245.424 312.461 245.375C314.818 243.11 318.955 241.215 329.482 241.216C330.261 241.216 331.008 240.916 331.559 240.383C332.11 239.85 332.42 239.127 332.42 238.373V255.434Z" fill="white"/>
<path d="M288.341 218.477C288.341 220.195 289.605 221.492 291.28 221.492C297.805 221.492 304.351 222.082 308.272 225.668C308.325 225.717 308.393 225.75 308.466 225.763C308.539 225.775 308.614 225.767 308.682 225.738C308.75 225.71 308.808 225.663 308.848 225.604C308.888 225.544 308.91 225.473 308.91 225.401V242.462C308.91 242.533 308.888 242.604 308.848 242.664C308.808 242.724 308.75 242.77 308.682 242.799C308.614 242.827 308.539 242.836 308.466 242.823C308.393 242.811 308.325 242.778 308.272 242.729C304.351 239.143 297.805 238.553 291.28 238.553C289.605 238.553 288.341 237.256 288.341 235.537V218.477ZM332.419 235.707C332.419 236.461 332.11 237.185 331.559 237.718C331.008 238.251 330.261 238.551 329.482 238.551C318.955 238.55 314.818 240.444 312.461 242.71C312.411 242.758 312.346 242.791 312.277 242.804C312.207 242.817 312.134 242.809 312.069 242.782C312.003 242.756 311.947 242.711 311.908 242.653C311.868 242.596 311.848 242.529 311.848 242.46V225.399C311.848 225.468 311.869 225.536 311.908 225.593C311.947 225.65 312.003 225.695 312.069 225.722C312.134 225.748 312.207 225.756 312.277 225.743C312.346 225.73 312.411 225.697 312.461 225.649C314.818 223.384 318.955 221.489 329.482 221.49C330.261 221.49 331.008 221.19 331.559 220.657C332.11 220.124 332.419 219.401 332.419 218.646V235.707Z" fill="white"/>
<g filter="url(#filter1_i_374_55174)">
<rect x="450.022" y="113.481" width="64.0023" height="64.0023" rx="32.0012" fill="#F5F6F9"/>
<rect x="450.361" y="113.821" width="63.3235" height="63.3235" rx="31.6618" stroke="#E0E7F5" stroke-width="0.678813"/>
<g clip-path="url(#clip2_374_55174)">
<path d="M482.023 130.936C482.26 130.936 482.492 130.988 482.719 131.093C482.946 131.197 483.145 131.329 483.316 131.49L496.015 144.19C496.204 144.379 496.342 144.592 496.427 144.829C496.512 145.066 496.559 145.312 496.569 145.567C496.569 145.814 496.517 146.046 496.413 146.264C496.308 146.481 496.176 146.671 496.015 146.832L483.372 159.474C483.003 159.844 482.553 160.028 482.023 160.028C481.786 160.028 481.554 159.976 481.327 159.872C481.1 159.768 480.901 159.635 480.73 159.474L468.031 146.775C467.87 146.614 467.737 146.42 467.633 146.193C467.529 145.965 467.477 145.728 467.477 145.482C467.477 145.236 467.524 144.995 467.619 144.758C467.714 144.521 467.851 144.313 468.031 144.133L476.739 135.425L480.034 138.721C479.921 138.995 479.864 139.284 479.864 139.587C479.864 140.193 480.082 140.714 480.517 141.15L480.631 141.263C480.65 141.282 480.673 141.297 480.702 141.306C480.73 141.315 480.759 141.32 480.787 141.32C480.815 141.32 480.863 141.339 480.929 141.377V149.431C480.815 149.479 480.721 149.545 480.645 149.63C480.569 149.715 480.484 149.801 480.389 149.886C480.143 150.132 479.949 150.392 479.807 150.667C479.665 150.942 479.594 151.259 479.594 151.619C479.594 151.941 479.655 152.239 479.779 152.514C479.902 152.788 480.067 153.035 480.276 153.252C480.484 153.47 480.73 153.636 481.014 153.75C481.298 153.863 481.601 153.925 481.923 153.934C482.245 153.934 482.553 153.882 482.847 153.778C483.14 153.674 483.391 153.527 483.6 153.338C483.808 153.148 483.978 152.912 484.111 152.627C484.244 152.343 484.31 152.036 484.31 151.704C484.31 151.496 484.282 151.287 484.225 151.079C484.168 150.871 484.083 150.677 483.969 150.497C483.855 150.317 483.723 150.146 483.571 149.985C483.42 149.824 483.254 149.696 483.074 149.602V141.775L486.086 144.786C485.972 145.061 485.915 145.345 485.915 145.639C485.915 145.951 485.972 146.24 486.086 146.505C486.199 146.77 486.36 147.007 486.569 147.215C486.777 147.424 487.009 147.58 487.265 147.684C487.52 147.788 487.814 147.85 488.145 147.869C488.458 147.869 488.747 147.812 489.012 147.698C489.277 147.585 489.514 147.424 489.722 147.215C489.93 147.007 490.087 146.775 490.191 146.519C490.295 146.264 490.357 145.97 490.375 145.639C490.375 145.335 490.319 145.051 490.205 144.786C490.091 144.521 489.93 144.284 489.722 144.076C489.514 143.868 489.282 143.707 489.026 143.593C488.77 143.479 488.481 143.418 488.16 143.408C487.904 143.408 487.658 143.451 487.421 143.536L484.196 140.312C484.282 140.075 484.324 139.829 484.324 139.573C484.324 139.26 484.267 138.972 484.154 138.706C484.04 138.441 483.879 138.205 483.671 137.996C483.462 137.788 483.23 137.632 482.975 137.527C482.719 137.423 482.425 137.366 482.094 137.357C481.867 137.357 481.63 137.395 481.384 137.471L478.031 134.118L480.673 131.49C481.043 131.121 481.493 130.936 482.023 130.936Z" fill="#7050F0"/>
</g>
</g>
<g filter="url(#filter2_i_374_55174)">
<rect x="106.737" y="208.515" width="64.0023" height="64.0023" rx="32.0012" fill="#F5F6F9"/>
<rect x="107.076" y="208.855" width="63.3235" height="63.3235" rx="31.6618" stroke="#E0E7F5" stroke-width="0.678813"/>
<path d="M148.237 238.681C148.209 238.892 148.121 239.09 147.982 239.251L136.164 252.233C136.014 252.427 135.805 252.567 135.57 252.633C135.469 252.645 135.368 252.645 135.266 252.633C135.095 252.632 134.926 252.595 134.77 252.524C134.526 252.41 134.333 252.212 134.224 251.966C134.118 251.748 134.089 251.501 134.139 251.263L135.182 242.948H130.781C130.53 242.932 130.283 242.871 130.054 242.766C129.83 242.648 129.637 242.477 129.494 242.268C129.35 242.059 129.26 241.818 129.23 241.566C129.204 241.31 129.242 241.052 129.339 240.814L133.921 229.359C134.042 229.07 134.243 228.821 134.503 228.644C134.762 228.476 135.066 228.387 135.376 228.39H144.152C144.405 228.395 144.654 228.456 144.879 228.572C145.107 228.699 145.302 228.878 145.449 229.093C145.584 229.31 145.667 229.553 145.691 229.808C145.716 230.061 145.674 230.316 145.57 230.547L142.673 237.299H147.097C147.317 237.306 147.531 237.374 147.715 237.493C147.91 237.623 148.063 237.807 148.155 238.022C148.248 238.237 148.276 238.474 148.237 238.705V238.681Z" fill="#7050F0"/>
</g>
<g filter="url(#filter3_i_374_55174)">
<rect x="450.022" y="208.515" width="64.0023" height="64.0023" rx="32.0012" fill="#F5F6F9"/>
<rect x="450.361" y="208.855" width="63.3235" height="63.3235" rx="31.6618" stroke="#E0E7F5" stroke-width="0.678813"/>
<path d="M491.521 238.681C491.494 238.892 491.405 239.09 491.267 239.251L479.448 252.233C479.298 252.427 479.09 252.567 478.854 252.633C478.753 252.645 478.652 252.645 478.551 252.633C478.38 252.632 478.21 252.595 478.054 252.524C477.811 252.41 477.618 252.212 477.509 251.966C477.403 251.748 477.373 251.501 477.424 251.263L478.466 242.948H474.066C473.815 242.932 473.568 242.871 473.339 242.766C473.115 242.648 472.922 242.477 472.779 242.268C472.635 242.059 472.544 241.818 472.515 241.566C472.489 241.31 472.527 241.052 472.624 240.814L477.206 229.359C477.327 229.07 477.528 228.821 477.788 228.644C478.047 228.476 478.351 228.387 478.66 228.39H487.436C487.69 228.395 487.938 228.456 488.164 228.572C488.392 228.699 488.587 228.878 488.733 229.093C488.869 229.31 488.952 229.553 488.976 229.808C489.001 230.061 488.959 230.316 488.855 230.547L485.958 237.299H490.382C490.602 237.306 490.816 237.374 491 237.493C491.195 237.623 491.348 237.807 491.44 238.022C491.533 238.237 491.561 238.474 491.521 238.705V238.681Z" fill="#7050F0"/>
</g>
<g filter="url(#filter4_i_374_55174)">
<rect x="106.737" y="307.428" width="64.0023" height="64.0023" rx="32.0012" fill="#F5F6F9"/>
<rect x="107.076" y="307.767" width="63.3235" height="63.3235" rx="31.6618" stroke="#E0E7F5" stroke-width="0.678813"/>
<g clip-path="url(#clip3_374_55174)">
<path d="M136.017 326.726C135.641 326.726 135.28 326.876 135.013 327.141L129.086 333.068C128.82 333.334 128.459 333.483 128.083 333.483H125.61C125.421 333.483 125.234 333.521 125.059 333.595C124.885 333.668 124.727 333.776 124.594 333.912C124.462 334.047 124.359 334.208 124.29 334.384C124.22 334.56 124.187 334.749 124.192 334.938L124.255 337.343C124.265 337.713 124.418 338.064 124.683 338.322C124.948 338.581 125.304 338.725 125.673 338.725H128.546C128.922 338.725 129.282 338.575 129.549 338.308L135.525 332.332C135.791 332.065 136.151 331.916 136.527 331.916H140.011C140.197 331.916 140.382 331.879 140.554 331.808C140.726 331.737 140.882 331.632 141.014 331.501C141.145 331.369 141.25 331.213 141.321 331.041C141.392 330.869 141.429 330.684 141.429 330.498V328.144C141.429 327.768 141.28 327.407 141.014 327.141C140.748 326.875 140.387 326.726 140.011 326.726H136.017ZM147.872 329.76C147.496 329.76 147.135 329.909 146.868 330.175L140.942 336.102C140.676 336.367 140.315 336.516 139.939 336.516H136.599C136.223 336.516 135.862 336.667 135.596 336.933L129.223 343.304C128.957 343.57 128.596 343.72 128.22 343.72H125.792C125.416 343.72 125.055 343.87 124.789 344.136C124.523 344.402 124.374 344.762 124.374 345.138V347.558C124.374 348.341 125.009 348.976 125.792 348.976H128.237C128.603 348.976 128.955 348.835 129.219 348.582L135.928 342.153C136.192 341.899 136.544 341.758 136.91 341.758H140.401C140.777 341.758 141.137 341.609 141.404 341.343L147.38 335.367C147.646 335.1 148.006 334.95 148.382 334.95H151.865C152.051 334.95 152.236 334.914 152.408 334.843C152.58 334.771 152.737 334.667 152.868 334.535C153 334.403 153.105 334.247 153.176 334.075C153.247 333.903 153.284 333.718 153.284 333.532V331.178C153.284 330.802 153.135 330.441 152.869 330.175C152.603 329.909 152.242 329.76 151.866 329.76H147.872ZM147.872 340.135C147.496 340.135 147.135 340.284 146.868 340.55L140.942 346.477C140.676 346.743 140.315 346.892 139.939 346.892H137.467C137.277 346.892 137.09 346.93 136.915 347.004C136.741 347.077 136.583 347.185 136.451 347.321C136.318 347.456 136.215 347.617 136.146 347.793C136.077 347.969 136.044 348.158 136.048 348.347L136.111 350.752C136.121 351.122 136.274 351.473 136.539 351.731C136.804 351.989 137.16 352.134 137.53 352.134H140.402C140.778 352.134 141.138 351.983 141.405 351.718L147.381 345.742C147.648 345.475 148.008 345.326 148.383 345.326H151.866C152.242 345.326 152.603 345.177 152.869 344.911C153.135 344.645 153.284 344.284 153.284 343.908V341.553C153.284 341.177 153.135 340.816 152.869 340.55C152.603 340.284 152.242 340.135 151.866 340.135H147.872Z" fill="#7050F0"/>
</g>
</g>
<g filter="url(#filter5_i_374_55174)">
<rect x="450.022" y="307.428" width="64.0023" height="64.0023" rx="32.0012" fill="#F5F6F9"/>
<rect x="450.361" y="307.767" width="63.3235" height="63.3235" rx="31.6618" stroke="#E0E7F5" stroke-width="0.678813"/>
<g clip-path="url(#clip4_374_55174)">
<path d="M479.302 326.726C478.926 326.726 478.565 326.876 478.298 327.141L472.37 333.068C472.105 333.334 471.744 333.483 471.368 333.483H468.895C468.706 333.483 468.518 333.521 468.344 333.595C468.169 333.668 468.011 333.776 467.879 333.912C467.747 334.047 467.643 334.208 467.574 334.384C467.505 334.56 467.472 334.749 467.477 334.938L467.54 337.343C467.549 337.713 467.703 338.064 467.968 338.322C468.233 338.581 468.588 338.725 468.958 338.725H471.831C472.207 338.725 472.567 338.575 472.833 338.308L478.809 332.332C479.076 332.065 479.436 331.916 479.812 331.916H483.296C483.482 331.916 483.666 331.879 483.838 331.808C484.01 331.737 484.167 331.632 484.298 331.501C484.43 331.369 484.535 331.213 484.606 331.041C484.677 330.869 484.714 330.684 484.714 330.498V328.144C484.714 327.768 484.564 327.407 484.298 327.141C484.032 326.875 483.672 326.726 483.296 326.726H479.302ZM491.156 329.76C490.781 329.76 490.42 329.909 490.153 330.175L484.227 336.102C483.961 336.367 483.6 336.516 483.224 336.516H479.883C479.508 336.516 479.146 336.667 478.881 336.933L472.507 343.304C472.242 343.57 471.881 343.72 471.505 343.72H469.077C468.701 343.72 468.34 343.87 468.074 344.136C467.808 344.402 467.659 344.762 467.659 345.138V347.558C467.659 348.341 468.294 348.976 469.077 348.976H471.522C471.888 348.976 472.239 348.835 472.504 348.582L479.213 342.153C479.477 341.899 479.829 341.758 480.195 341.758H483.686C484.062 341.758 484.422 341.609 484.688 341.343L490.664 335.367C490.931 335.1 491.291 334.95 491.667 334.95H495.149C495.336 334.95 495.52 334.914 495.692 334.843C495.865 334.771 496.021 334.667 496.153 334.535C496.285 334.403 496.389 334.247 496.461 334.075C496.532 333.903 496.569 333.718 496.569 333.532V331.178C496.569 330.802 496.419 330.441 496.153 330.175C495.887 329.909 495.527 329.76 495.151 329.76H491.156ZM491.156 340.135C490.781 340.135 490.42 340.284 490.153 340.55L484.227 346.477C483.961 346.743 483.6 346.892 483.224 346.892H480.751C480.562 346.892 480.374 346.93 480.2 347.004C480.026 347.077 479.868 347.185 479.735 347.321C479.603 347.456 479.499 347.617 479.43 347.793C479.361 347.969 479.328 348.158 479.333 348.347L479.396 350.752C479.406 351.122 479.559 351.473 479.824 351.731C480.089 351.989 480.444 352.134 480.814 352.134H483.687C484.063 352.134 484.423 351.983 484.69 351.718L490.666 345.742C490.932 345.475 491.292 345.326 491.668 345.326H495.151C495.527 345.326 495.887 345.177 496.153 344.911C496.419 344.645 496.569 344.284 496.569 343.908V341.553C496.569 341.177 496.419 340.816 496.153 340.55C495.887 340.284 495.527 340.135 495.151 340.135H491.156Z" fill="#7050F0"/>
</g>
</g>
<path d="M198.132 225V155.18C198.132 149.288 193.356 144.513 187.465 144.513H170.739" stroke="#E0E7F5" stroke-width="0.969732"/>
<path d="M198.132 225L198.144 227.021C198.188 234.487 204.254 240.517 211.72 240.517H261.894" stroke="#E0E7F5" stroke-width="0.969732"/>
<path d="M198.132 256.032V325.853C198.132 331.744 193.356 336.52 187.465 336.52H170.739" stroke="#E0E7F5" stroke-width="0.969732"/>
<path d="M198.132 256.032L198.144 254.011C198.189 246.545 204.254 240.516 211.72 240.516H261.894" stroke="#E0E7F5" stroke-width="0.969732"/>
<path d="M422.629 225V155.18C422.629 149.288 427.405 144.513 433.296 144.513H450.022" stroke="#E0E7F5" stroke-width="0.969732"/>
<path d="M422.629 225L422.617 227.021C422.573 234.487 416.507 240.517 409.041 240.517H358.867" stroke="#E0E7F5" stroke-width="0.969732"/>
<path d="M422.629 256.032V325.853C422.629 331.744 427.405 336.52 433.296 336.52H450.022" stroke="#E0E7F5" stroke-width="0.969732"/>
<path d="M422.629 256.032L422.617 254.011C422.572 246.545 416.507 240.516 409.041 240.516H358.867" stroke="#E0E7F5" stroke-width="0.969732"/>
</g>
</g>
<defs>
<filter id="filter0_i_374_55174" x="106.737" y="113.481" width="64.0023" height="64.0024" filterUnits="userSpaceOnUse" color-interpolation-filters="sRGB">
<feFlood flood-opacity="0" result="BackgroundImageFix"/>
<feBlend mode="normal" in="SourceGraphic" in2="BackgroundImageFix" result="shape"/>
<feColorMatrix in="SourceAlpha" type="matrix" values="0 0 0 0 0 0 0 0 0 0 0 0 0 0 0 0 0 0 127 0" result="hardAlpha"/>
<feMorphology radius="1.93946" operator="erode" in="SourceAlpha" result="effect1_innerShadow_374_55174"/>
<feOffset/>
<feGaussianBlur stdDeviation="0.484866"/>
<feComposite in2="hardAlpha" operator="arithmetic" k2="-1" k3="1"/>
<feColorMatrix type="matrix" values="0 0 0 0 1 0 0 0 0 1 0 0 0 0 1 0 0 0 0.9 0"/>
<feBlend mode="normal" in2="shape" result="effect1_innerShadow_374_55174"/>
</filter>
<filter id="filter1_i_374_55174" x="450.022" y="113.481" width="64.0023" height="64.0024" filterUnits="userSpaceOnUse" color-interpolation-filters="sRGB">
<feFlood flood-opacity="0" result="BackgroundImageFix"/>
<feBlend mode="normal" in="SourceGraphic" in2="BackgroundImageFix" result="shape"/>
<feColorMatrix in="SourceAlpha" type="matrix" values="0 0 0 0 0 0 0 0 0 0 0 0 0 0 0 0 0 0 127 0" result="hardAlpha"/>
<feMorphology radius="1.93946" operator="erode" in="SourceAlpha" result="effect1_innerShadow_374_55174"/>
<feOffset/>
<feGaussianBlur stdDeviation="0.484866"/>
<feComposite in2="hardAlpha" operator="arithmetic" k2="-1" k3="1"/>
<feColorMatrix type="matrix" values="0 0 0 0 1 0 0 0 0 1 0 0 0 0 1 0 0 0 0.9 0"/>
<feBlend mode="normal" in2="shape" result="effect1_innerShadow_374_55174"/>
</filter>
<filter id="filter2_i_374_55174" x="106.737" y="208.515" width="64.0023" height="64.0024" filterUnits="userSpaceOnUse" color-interpolation-filters="sRGB">
<feFlood flood-opacity="0" result="BackgroundImageFix"/>
<feBlend mode="normal" in="SourceGraphic" in2="BackgroundImageFix" result="shape"/>
<feColorMatrix in="SourceAlpha" type="matrix" values="0 0 0 0 0 0 0 0 0 0 0 0 0 0 0 0 0 0 127 0" result="hardAlpha"/>
<feMorphology radius="1.93946" operator="erode" in="SourceAlpha" result="effect1_innerShadow_374_55174"/>
<feOffset/>
<feGaussianBlur stdDeviation="0.484866"/>
<feComposite in2="hardAlpha" operator="arithmetic" k2="-1" k3="1"/>
<feColorMatrix type="matrix" values="0 0 0 0 1 0 0 0 0 1 0 0 0 0 1 0 0 0 0.9 0"/>
<feBlend mode="normal" in2="shape" result="effect1_innerShadow_374_55174"/>
</filter>
<filter id="filter3_i_374_55174" x="450.022" y="208.515" width="64.0023" height="64.0024" filterUnits="userSpaceOnUse" color-interpolation-filters="sRGB">
<feFlood flood-opacity="0" result="BackgroundImageFix"/>
<feBlend mode="normal" in="SourceGraphic" in2="BackgroundImageFix" result="shape"/>
<feColorMatrix in="SourceAlpha" type="matrix" values="0 0 0 0 0 0 0 0 0 0 0 0 0 0 0 0 0 0 127 0" result="hardAlpha"/>
<feMorphology radius="1.93946" operator="erode" in="SourceAlpha" result="effect1_innerShadow_374_55174"/>
<feOffset/>
<feGaussianBlur stdDeviation="0.484866"/>
<feComposite in2="hardAlpha" operator="arithmetic" k2="-1" k3="1"/>
<feColorMatrix type="matrix" values="0 0 0 0 1 0 0 0 0 1 0 0 0 0 1 0 0 0 0.9 0"/>
<feBlend mode="normal" in2="shape" result="effect1_innerShadow_374_55174"/>
</filter>
<filter id="filter4_i_374_55174" x="106.737" y="307.428" width="64.0023" height="64.0024" filterUnits="userSpaceOnUse" color-interpolation-filters="sRGB">
<feFlood flood-opacity="0" result="BackgroundImageFix"/>
<feBlend mode="normal" in="SourceGraphic" in2="BackgroundImageFix" result="shape"/>
<feColorMatrix in="SourceAlpha" type="matrix" values="0 0 0 0 0 0 0 0 0 0 0 0 0 0 0 0 0 0 127 0" result="hardAlpha"/>
<feMorphology radius="1.93946" operator="erode" in="SourceAlpha" result="effect1_innerShadow_374_55174"/>
<feOffset/>
<feGaussianBlur stdDeviation="0.484866"/>
<feComposite in2="hardAlpha" operator="arithmetic" k2="-1" k3="1"/>
<feColorMatrix type="matrix" values="0 0 0 0 1 0 0 0 0 1 0 0 0 0 1 0 0 0 0.9 0"/>
<feBlend mode="normal" in2="shape" result="effect1_innerShadow_374_55174"/>
</filter>
<filter id="filter5_i_374_55174" x="450.022" y="307.428" width="64.0023" height="64.0024" filterUnits="userSpaceOnUse" color-interpolation-filters="sRGB">
<feFlood flood-opacity="0" result="BackgroundImageFix"/>
<feBlend mode="normal" in="SourceGraphic" in2="BackgroundImageFix" result="shape"/>
<feColorMatrix in="SourceAlpha" type="matrix" values="0 0 0 0 0 0 0 0 0 0 0 0 0 0 0 0 0 0 127 0" result="hardAlpha"/>
<feMorphology radius="1.93946" operator="erode" in="SourceAlpha" result="effect1_innerShadow_374_55174"/>
<feOffset/>
<feGaussianBlur stdDeviation="0.484866"/>
<feComposite in2="hardAlpha" operator="arithmetic" k2="-1" k3="1"/>
<feColorMatrix type="matrix" values="0 0 0 0 1 0 0 0 0 1 0 0 0 0 1 0 0 0 0.9 0"/>
<feBlend mode="normal" in2="shape" result="effect1_innerShadow_374_55174"/>
</filter>
<linearGradient id="paint0_linear_374_55174" x1="310.381" y1="249.098" x2="310.381" y2="358.444" gradientUnits="userSpaceOnUse">
<stop stop-color="#D9D9D9"/>
<stop offset="1" stop-color="#737373" stop-opacity="0"/>
</linearGradient>
<clipPath id="clip0_374_55174">
<rect width="620.761" height="393.803" fill="white"/>
</clipPath>
<clipPath id="clip1_374_55174">
<rect width="29.092" height="29.092" fill="white" transform="translate(124.192 130.936)"/>
</clipPath>
<clipPath id="clip2_374_55174">
<rect width="29.092" height="29.092" fill="white" transform="translate(467.477 130.936)"/>
</clipPath>
<clipPath id="clip3_374_55174">
<rect width="29.092" height="29.092" fill="white" transform="translate(124.192 324.883)"/>
</clipPath>
<clipPath id="clip4_374_55174">
<rect width="29.092" height="29.092" fill="white" transform="translate(467.477 324.883)"/>
</clipPath>
</defs>
</svg>
