<svg width="1126" height="268" viewBox="0 0 1126 268" fill="none" xmlns="http://www.w3.org/2000/svg">
<g filter="url(#filter0_d_440_4126)">
<rect x="19.6987" y="124.655" width="509.676" height="88.8311" rx="23.4508" fill="white" shape-rendering="crispEdges"/>
<rect x="20.4804" y="125.437" width="508.113" height="87.2677" rx="22.6691" stroke="#E0E7F5" stroke-width="1.56339" shape-rendering="crispEdges"/>
<rect x="35.3325" y="144.057" width="50.0284" height="50.0284" rx="25.0142" fill="url(#paint0_linear_440_4126)"/>
<path d="M58.1602 159.975C58.7651 159.975 59.3245 160.17 59.7782 160.502V164.523H59.1108C58.9767 164.143 58.7128 163.824 58.3658 163.62C58.0188 163.417 57.6109 163.342 57.2144 163.41C56.8179 163.478 56.4582 163.684 56.1988 163.992C55.9395 164.299 55.7973 164.689 55.7973 165.091C55.7973 165.493 55.9395 165.883 56.1988 166.19C56.4582 166.498 56.8179 166.704 57.2144 166.772C57.6109 166.84 58.0188 166.766 58.3658 166.562C58.7128 166.359 58.9767 166.039 59.1108 165.66H59.7782V177.294C59.1756 177.836 58.3797 178.167 57.5042 178.167C56.6808 178.166 55.8854 177.868 55.2647 177.327C54.6441 176.786 54.2401 176.039 54.1273 175.223C53.4899 175.079 52.9022 174.768 52.4243 174.323C51.9464 173.877 51.5954 173.312 51.4072 172.687C51.2191 172.061 51.2005 171.396 51.3534 170.761C51.5063 170.126 51.8251 169.542 52.2774 169.071H55.2302C55.381 169.071 55.5256 169.131 55.6322 169.237C55.7388 169.344 55.7987 169.488 55.7987 169.639V170.307C55.4194 170.441 55.0997 170.705 54.8961 171.052C54.6925 171.399 54.6182 171.806 54.6862 172.203C54.7543 172.6 54.9603 172.959 55.2679 173.219C55.5755 173.478 55.9649 173.62 56.3672 173.62C56.7695 173.62 57.1589 173.478 57.4665 173.219C57.7741 172.959 57.9801 172.6 58.0481 172.203C58.1162 171.806 58.0418 171.399 57.8383 171.052C57.6347 170.705 57.315 170.441 56.9357 170.307V169.639C56.9357 169.187 56.756 168.753 56.4362 168.433C56.1163 168.113 55.6825 167.934 55.2302 167.934H52.9641C52.5908 167.443 52.3883 166.844 52.3877 166.228V166.003C52.3877 164.541 53.4201 163.281 54.8538 162.995L55.3155 162.901L55.4576 162.19C55.5827 161.565 55.9203 161.003 56.413 160.599C56.9058 160.195 57.5232 159.975 58.1602 159.975ZM62.5332 159.975C63.8464 159.975 64.9777 160.902 65.2359 162.19L65.378 162.901L65.8396 162.995C66.5349 163.134 67.1605 163.51 67.61 164.058C68.0596 164.607 68.3054 165.294 68.3058 166.003V166.228C68.3049 166.621 68.2228 167.009 68.0645 167.368C67.9061 167.728 67.6751 168.05 67.3859 168.316C68.0698 168.653 68.6323 169.194 68.996 169.865C69.3598 170.535 69.5069 171.301 69.4171 172.059C69.3274 172.816 69.0052 173.527 68.4948 174.093C67.9845 174.66 67.3111 175.055 66.5673 175.223C66.4545 176.039 66.0503 176.786 65.4294 177.327C64.8085 177.868 64.0128 178.167 63.1892 178.167C62.3137 178.167 61.5178 177.836 60.9152 177.294V172.482H63.1892C63.6416 172.482 64.0754 172.302 64.3952 171.982C64.7151 171.662 64.8947 171.229 64.8947 170.776V170.108C65.275 169.975 65.5958 169.711 65.8002 169.364C66.0045 169.017 66.0793 168.609 66.0111 168.212C65.9429 167.815 65.7363 167.455 65.4278 167.196C65.1194 166.937 64.7291 166.795 64.3262 166.797C63.9252 166.798 63.5375 166.941 63.2314 167.2C62.9252 167.46 62.7202 167.818 62.6524 168.214C62.5845 168.609 62.6581 169.015 62.8603 169.362C63.0624 169.708 63.3802 169.972 63.7577 170.108V170.776C63.7577 170.927 63.6978 171.072 63.5912 171.178C63.4846 171.285 63.34 171.345 63.1892 171.345H60.9152V160.502C61.37 160.17 61.9272 159.975 62.5332 159.975ZM56.3672 171.345C56.518 171.345 56.6626 171.405 56.7692 171.511C56.8758 171.618 56.9357 171.762 56.9357 171.913C56.9357 172.064 56.8758 172.209 56.7692 172.315C56.6626 172.422 56.518 172.482 56.3672 172.482C56.2164 172.482 56.0718 172.422 55.9652 172.315C55.8586 172.209 55.7987 172.064 55.7987 171.913C55.7987 171.762 55.8586 171.618 55.9652 171.511C56.0718 171.405 56.2164 171.345 56.3672 171.345ZM64.3262 167.934C64.477 167.934 64.6216 167.994 64.7282 168.1C64.8349 168.207 64.8947 168.351 64.8947 168.502C64.8947 168.653 64.8349 168.798 64.7282 168.904C64.6216 169.011 64.477 169.071 64.3262 169.071C64.1755 169.071 64.0309 169.011 63.9242 168.904C63.8176 168.798 63.7577 168.653 63.7577 168.502C63.7577 168.351 63.8176 168.207 63.9242 168.1C64.0309 167.994 64.1755 167.934 64.3262 167.934ZM57.5042 164.523C57.655 164.523 57.7996 164.583 57.9062 164.689C58.0128 164.796 58.0727 164.94 58.0727 165.091C58.0727 165.242 58.0128 165.387 57.9062 165.493C57.7996 165.6 57.655 165.66 57.5042 165.66C57.3534 165.66 57.2088 165.6 57.1022 165.493C56.9956 165.387 56.9357 165.242 56.9357 165.091C56.9357 164.94 56.9956 164.796 57.1022 164.689C57.2088 164.583 57.3534 164.523 57.5042 164.523Z" fill="white"/>
<path d="M102.604 146.331L107.415 159.289H105.604L104.202 155.473H98.9295L97.5272 159.289H95.7343L100.616 146.331H102.604ZM99.4265 153.946H103.74L101.592 147.946L99.4265 153.946ZM110.914 146.331V159.289H109.21V146.331H110.914ZM117.179 153.52V154.851H112.865V153.52H117.179ZM123.243 146.331C123.936 146.331 124.504 146.348 125.143 146.419C126.865 146.633 128.445 147.573 128.445 150.058C128.445 152.686 126.865 153.768 125.143 153.981C124.504 154.052 123.936 154.07 123.243 154.07H120.829V159.289H119.125V146.331H123.243ZM120.829 152.544H123.332C125.214 152.544 126.687 152.277 126.687 150.165C126.687 148.248 125.32 147.857 123.332 147.857H120.829V152.544ZM131.285 154.656C131.285 157.141 132.297 158.1 134.001 158.1C135.705 158.1 136.717 157.141 136.717 154.656C136.717 152.189 135.705 151.248 134.001 151.248C132.297 151.248 131.285 152.189 131.285 154.656ZM129.545 154.656C129.545 151.354 131.196 149.792 134.001 149.792C136.806 149.792 138.474 151.354 138.474 154.656C138.474 157.975 136.806 159.538 134.001 159.538C131.196 159.538 129.545 157.975 129.545 154.656ZM152.663 150.041L149.965 159.289H148.119C147.355 156.999 146.628 154.603 145.935 152.171C145.278 154.603 144.497 156.999 143.752 159.289H141.924L139.19 150.041H140.983C141.675 152.579 142.332 155.1 142.918 157.638C143.61 155.153 144.373 152.739 145.154 150.254H146.805C147.604 152.774 148.367 155.26 149.042 157.762C149.627 155.189 150.266 152.615 150.977 150.041H152.663ZM157.729 149.792C160.569 149.792 161.794 151.745 161.794 154.496C161.794 154.691 161.794 154.958 161.776 155.224H155.155C155.297 157.319 156.185 158.1 157.729 158.1C158.954 158.1 159.752 157.567 160.019 156.555H161.67C161.315 158.455 159.894 159.538 157.676 159.538C154.871 159.538 153.433 157.869 153.433 154.691C153.433 151.532 154.871 149.792 157.729 149.792ZM155.173 153.893H160.09C159.965 151.958 159.007 151.248 157.658 151.248C156.22 151.248 155.315 151.922 155.173 153.893ZM167.998 149.792C168.247 149.792 168.442 149.792 168.62 149.845V151.248C166.578 151.053 165.495 152.153 165.495 154.958V159.289H163.827V150.041H165.371L165.424 151.834C165.62 150.431 166.685 149.792 167.998 149.792ZM173.486 149.792C176.327 149.792 177.551 151.745 177.551 154.496C177.551 154.691 177.551 154.958 177.534 155.224H170.912C171.054 157.319 171.942 158.1 173.486 158.1C174.711 158.1 175.51 157.567 175.776 156.555H177.427C177.072 158.455 175.652 159.538 173.433 159.538C170.628 159.538 169.191 157.869 169.191 154.691C169.191 151.532 170.628 149.792 173.486 149.792ZM170.93 153.893H175.847C175.723 151.958 174.764 151.248 173.415 151.248C171.978 151.248 171.072 151.922 170.93 153.893ZM187.877 146.331V159.289H186.35L186.261 157.603C185.835 159.058 184.557 159.538 183.048 159.538C180.297 159.538 179.054 157.603 179.054 154.674C179.054 151.567 180.563 149.792 183.19 149.792C184.486 149.792 185.711 150.183 186.226 151.425V146.331H187.877ZM180.865 154.691C180.865 156.626 181.628 158.1 183.545 158.1C185.054 158.1 186.226 157.248 186.226 154.798V154.372C186.226 151.94 184.859 151.248 183.616 151.248C181.77 151.248 180.865 152.561 180.865 154.691ZM198.408 146.082C201.23 146.082 203.041 147.485 203.112 150.094H201.408C201.283 148.408 199.987 147.644 198.337 147.644C196.863 147.644 195.567 148.461 195.567 149.668C195.567 151.035 196.615 151.496 198.905 151.958C201.834 152.508 203.449 153.662 203.449 155.881C203.449 158.508 201.035 159.538 198.514 159.538C195.638 159.538 193.65 158.277 193.455 155.473H195.177C195.354 157.07 196.544 157.975 198.567 157.975C200.218 157.975 201.745 157.407 201.745 155.97C201.745 154.62 200.697 153.981 198.319 153.52C195.425 152.97 193.881 151.922 193.881 149.721C193.881 147.467 195.922 146.082 198.408 146.082ZM209.162 149.792C212.002 149.792 213.227 151.745 213.227 154.496C213.227 154.691 213.227 154.958 213.209 155.224H206.588C206.73 157.319 207.617 158.1 209.162 158.1C210.387 158.1 211.185 157.567 211.452 156.555H213.103C212.748 158.455 211.327 159.538 209.109 159.538C206.304 159.538 204.866 157.869 204.866 154.691C204.866 151.532 206.304 149.792 209.162 149.792ZM206.606 153.893H211.523C211.398 151.958 210.44 151.248 209.091 151.248C207.653 151.248 206.748 151.922 206.606 153.893ZM218.708 149.792C221.14 149.792 222.134 150.893 222.259 152.508C222.294 152.987 222.312 153.342 222.312 153.875V159.289H220.785L220.697 157.922C220.182 159.165 218.975 159.538 217.626 159.538C215.868 159.538 214.59 158.579 214.59 156.822C214.59 154.443 216.596 153.715 220.164 153.715H220.643V153.254C220.643 152.082 220.341 151.248 218.637 151.248C217.271 151.248 216.596 151.709 216.436 152.863H214.91C214.998 151.035 216.063 149.792 218.708 149.792ZM216.276 156.626C216.276 157.549 216.916 158.1 218.123 158.1C219.436 158.1 220.643 157.265 220.643 156.005V155.064C218.069 154.993 216.276 155.171 216.276 156.626ZM228.671 149.792C228.919 149.792 229.115 149.792 229.292 149.845V151.248C227.251 151.053 226.168 152.153 226.168 154.958V159.289H224.499V150.041H226.044L226.097 151.834C226.292 150.431 227.357 149.792 228.671 149.792ZM234.23 149.792C236.804 149.792 237.958 151.124 238.1 153.058H236.449C236.36 151.922 235.543 151.248 234.194 151.248C232.597 151.248 231.603 152.242 231.603 154.638C231.603 156.981 232.473 158.1 234.159 158.1C235.366 158.1 236.289 157.354 236.449 156.271H238.1C237.851 158.224 236.484 159.538 234.07 159.538C231.194 159.538 229.863 157.709 229.863 154.674C229.863 151.532 231.265 149.792 234.23 149.792ZM241.423 146.331V151.567C241.76 150.271 242.878 149.792 244.334 149.792C246.233 149.792 247.387 150.538 247.6 152.295C247.653 152.774 247.671 153.165 247.671 153.928V159.289H246.002V153.857C246.002 152.295 245.665 151.266 243.819 151.266C242.452 151.23 241.423 152.189 241.423 154.265V159.289H239.754V146.331H241.423Z" fill="black"/>
<path d="M100.525 178.962C103.504 178.962 104.993 180.162 105.126 182.673H103.059C102.881 181.207 101.926 180.74 100.481 180.74C99.2362 180.74 98.2139 181.251 98.2139 182.251C98.2139 183.296 99.0362 183.807 101.014 184.096C104.059 184.54 105.415 185.563 105.415 187.719C105.415 189.941 103.459 191.164 100.814 191.164C97.7249 191.164 96.058 190.075 95.7468 187.407H97.8138C98.1027 188.897 98.9695 189.386 100.881 189.386C102.348 189.386 103.304 188.852 103.304 187.874C103.304 186.807 102.481 186.229 100.214 185.896C97.4804 185.474 96.1024 184.585 96.1024 182.362C96.1024 180.362 97.8583 178.962 100.525 178.962ZM112.439 178.962C115.995 178.962 117.528 181.407 117.528 184.852C117.528 185.096 117.528 185.429 117.506 185.763H109.216C109.394 188.385 110.505 189.363 112.439 189.363C113.972 189.363 114.972 188.697 115.306 187.43H117.373C116.928 189.808 115.15 191.164 112.372 191.164C108.86 191.164 107.06 189.074 107.06 185.096C107.06 181.14 108.86 178.962 112.439 178.962ZM109.238 184.096H115.395C115.239 181.673 114.039 180.784 112.35 180.784C110.55 180.784 109.416 181.629 109.238 184.096ZM125.438 178.962C127.194 178.962 128.261 179.784 128.727 181.095C129.127 179.428 130.817 178.962 132.328 178.962C134.639 178.962 135.928 180.14 136.173 182.051C136.262 182.651 136.284 183.14 136.284 183.807V190.852H134.195V184.14C134.195 182.273 133.861 180.784 131.794 180.784C130.039 180.784 129.039 181.962 129.039 184.451V190.852H126.972V184.185C126.972 182.362 126.66 180.784 124.549 180.784C122.838 180.784 121.837 181.94 121.837 184.429V190.852H119.748V179.273H121.682L121.749 180.962C122.104 179.495 123.66 178.962 125.438 178.962ZM143.449 178.962C146.493 178.962 147.738 180.34 147.894 182.362C147.938 182.962 147.96 183.407 147.96 184.074V190.852H146.049L145.938 189.141C145.293 190.697 143.782 191.164 142.093 191.164C139.892 191.164 138.292 189.963 138.292 187.763C138.292 184.785 140.804 183.874 145.271 183.874H145.871V183.296C145.871 181.829 145.493 180.784 143.36 180.784C141.648 180.784 140.804 181.362 140.604 182.807H138.692C138.803 180.518 140.137 178.962 143.449 178.962ZM140.404 187.519C140.404 188.674 141.204 189.363 142.715 189.363C144.36 189.363 145.871 188.319 145.871 186.741V185.563C142.648 185.474 140.404 185.696 140.404 187.519ZM156.433 178.962C158.811 178.962 160.256 179.895 160.523 182.096C160.589 182.696 160.612 183.185 160.612 184.14V190.852H158.523V184.051C158.523 182.096 158.1 180.806 155.789 180.806C154.077 180.762 152.788 181.962 152.788 184.563V190.852H150.699V179.273H152.633L152.699 181.34C153.077 179.606 154.566 178.962 156.433 178.962ZM166.154 187.407C166.154 189.208 166.532 189.386 168.733 189.23V190.964C168.177 191.03 167.621 191.075 166.888 191.075C164.932 191.075 164.221 190.252 164.132 188.941C164.087 188.341 164.087 187.896 164.087 187.23V181.073H162.509V179.34H164.087V175.806H166.154V179.34H168.777V181.073H166.154V187.407ZM172.865 179.273V190.852H170.776V179.273H172.865ZM170.554 175.85C170.554 175.139 171.109 174.583 171.798 174.583C172.51 174.583 173.065 175.139 173.065 175.85C173.065 176.539 172.51 177.095 171.798 177.095C171.109 177.095 170.554 176.539 170.554 175.85ZM180.442 178.962C183.664 178.962 185.109 180.629 185.287 183.051H183.22C183.109 181.629 182.086 180.784 180.397 180.784C178.397 180.784 177.152 182.029 177.152 185.029C177.152 187.963 178.241 189.363 180.353 189.363C181.864 189.363 183.02 188.43 183.22 187.074H185.287C184.976 189.519 183.264 191.164 180.242 191.164C176.641 191.164 174.974 188.874 174.974 185.074C174.974 181.14 176.73 178.962 180.442 178.962ZM196.33 178.962C199.308 178.962 200.797 180.162 200.931 182.673H198.864C198.686 181.207 197.73 180.74 196.285 180.74C195.041 180.74 194.018 181.251 194.018 182.251C194.018 183.296 194.841 183.807 196.819 184.096C199.864 184.54 201.219 185.563 201.219 187.719C201.219 189.941 199.264 191.164 196.619 191.164C193.529 191.164 191.862 190.075 191.551 187.407H193.618C193.907 188.897 194.774 189.386 196.685 189.386C198.152 189.386 199.108 188.852 199.108 187.874C199.108 186.807 198.286 186.229 196.019 185.896C193.285 185.474 191.907 184.585 191.907 182.362C191.907 180.362 193.663 178.962 196.33 178.962ZM208.243 178.962C211.799 178.962 213.333 181.407 213.333 184.852C213.333 185.096 213.333 185.429 213.311 185.763H205.021C205.198 188.385 206.31 189.363 208.243 189.363C209.777 189.363 210.777 188.697 211.11 187.43H213.177C212.733 189.808 210.955 191.164 208.177 191.164C204.665 191.164 202.865 189.074 202.865 185.096C202.865 181.14 204.665 178.962 208.243 178.962ZM205.043 184.096H211.199C211.044 181.673 209.843 180.784 208.154 180.784C206.354 180.784 205.221 181.629 205.043 184.096ZM220.196 178.962C223.241 178.962 224.486 180.34 224.641 182.362C224.686 182.962 224.708 183.407 224.708 184.074V190.852H222.797L222.686 189.141C222.041 190.697 220.53 191.164 218.841 191.164C216.64 191.164 215.04 189.963 215.04 187.763C215.04 184.785 217.551 183.874 222.019 183.874H222.619V183.296C222.619 181.829 222.241 180.784 220.107 180.784C218.396 180.784 217.551 181.362 217.351 182.807H215.44C215.551 180.518 216.885 178.962 220.196 178.962ZM217.151 187.519C217.151 188.674 217.951 189.363 219.463 189.363C221.108 189.363 222.619 188.319 222.619 186.741V185.563C219.396 185.474 217.151 185.696 217.151 187.519ZM232.67 178.962C232.981 178.962 233.226 178.962 233.448 179.028V180.784C230.892 180.54 229.536 181.918 229.536 185.429V190.852H227.447V179.273H229.38L229.447 181.518C229.692 179.762 231.025 178.962 232.67 178.962ZM239.63 178.962C242.853 178.962 244.298 180.629 244.475 183.051H242.409C242.297 181.629 241.275 180.784 239.586 180.784C237.586 180.784 236.341 182.029 236.341 185.029C236.341 187.963 237.43 189.363 239.541 189.363C241.053 189.363 242.208 188.43 242.409 187.074H244.475C244.164 189.519 242.453 191.164 239.43 191.164C235.83 191.164 234.163 188.874 234.163 185.074C234.163 181.14 235.919 178.962 239.63 178.962ZM248.636 174.628V181.184C249.058 179.562 250.459 178.962 252.281 178.962C254.659 178.962 256.104 179.895 256.371 182.096C256.437 182.696 256.46 183.185 256.46 184.14V190.852H254.37V184.051C254.37 182.096 253.948 180.806 251.637 180.806C249.925 180.762 248.636 181.962 248.636 184.563V190.852H246.547V174.628H248.636ZM266.951 187.407C266.951 189.208 267.329 189.386 269.529 189.23V190.964C268.973 191.03 268.418 191.075 267.684 191.075C265.729 191.075 265.017 190.252 264.928 188.941C264.884 188.341 264.884 187.896 264.884 187.23V181.073H263.306V179.34H264.884V175.806H266.951V179.34H269.574V181.073H266.951V187.407ZM273.662 174.628V181.184C274.084 179.562 275.484 178.962 277.307 178.962C279.685 178.962 281.129 179.895 281.396 182.096C281.463 182.696 281.485 183.185 281.485 184.14V190.852H279.396V184.051C279.396 182.096 278.974 180.806 276.662 180.806C274.951 180.762 273.662 181.962 273.662 184.563V190.852H271.572V174.628H273.662ZM288.675 178.962C291.719 178.962 292.964 180.34 293.12 182.362C293.164 182.962 293.186 183.407 293.186 184.074V190.852H291.275L291.164 189.141C290.519 190.697 289.008 191.164 287.319 191.164C285.118 191.164 283.518 189.963 283.518 187.763C283.518 184.785 286.03 183.874 290.497 183.874H291.097V183.296C291.097 181.829 290.719 180.784 288.586 180.784C286.874 180.784 286.03 181.362 285.83 182.807H283.918C284.029 180.518 285.363 178.962 288.675 178.962ZM285.63 187.519C285.63 188.674 286.43 189.363 287.941 189.363C289.586 189.363 291.097 188.319 291.097 186.741V185.563C287.874 185.474 285.63 185.696 285.63 187.519ZM298.727 187.407C298.727 189.208 299.104 189.386 301.305 189.23V190.964C300.749 191.03 300.194 191.075 299.46 191.075C297.504 191.075 296.793 190.252 296.704 188.941C296.66 188.341 296.66 187.896 296.66 187.23V181.073H295.082V179.34H296.66V175.806H298.727V179.34H301.349V181.073H298.727V187.407ZM312.033 191.164C309.766 191.164 308.321 190.208 308.077 188.008C307.988 187.407 307.966 186.941 307.966 185.985V179.273H310.055V186.118C310.055 188.052 310.521 189.363 312.722 189.363C314.455 189.363 315.744 188.163 315.744 185.607V179.273H317.834V190.852H315.922L315.833 188.874C315.344 190.497 313.966 191.164 312.033 191.164ZM326.468 178.962C328.846 178.962 330.291 179.895 330.557 182.096C330.624 182.696 330.646 183.185 330.646 184.14V190.852H328.557V184.051C328.557 182.096 328.135 180.806 325.823 180.806C324.112 180.762 322.823 181.962 322.823 184.563V190.852H320.734V179.273H322.667L322.734 181.34C323.112 179.606 324.601 178.962 326.468 178.962ZM343.835 174.628V190.852H341.924L341.812 188.741C341.279 190.563 339.679 191.164 337.79 191.164C334.345 191.164 332.789 188.741 332.789 185.074C332.789 181.184 334.678 178.962 337.967 178.962C339.59 178.962 341.124 179.451 341.768 181.006V174.628H343.835ZM335.056 185.096C335.056 187.519 336.012 189.363 338.412 189.363C340.301 189.363 341.768 188.296 341.768 185.229V184.696C341.768 181.651 340.057 180.784 338.501 180.784C336.189 180.784 335.056 182.429 335.056 185.096ZM351.364 178.962C354.92 178.962 356.454 181.407 356.454 184.852C356.454 185.096 356.454 185.429 356.431 185.763H348.141C348.319 188.385 349.43 189.363 351.364 189.363C352.898 189.363 353.898 188.697 354.231 187.43H356.298C355.854 189.808 354.075 191.164 351.297 191.164C347.786 191.164 345.985 189.074 345.985 185.096C345.985 181.14 347.786 178.962 351.364 178.962ZM348.163 184.096H354.32C354.164 181.673 352.964 180.784 351.275 180.784C349.475 180.784 348.341 181.629 348.163 184.096ZM364.222 178.962C364.533 178.962 364.778 178.962 365 179.028V180.784C362.444 180.54 361.088 181.918 361.088 185.429V190.852H358.999V179.273H360.933L360.999 181.518C361.244 179.762 362.577 178.962 364.222 178.962ZM370.684 178.962C373.662 178.962 375.151 180.162 375.284 182.673H373.217C373.039 181.207 372.084 180.74 370.639 180.74C369.394 180.74 368.372 181.251 368.372 182.251C368.372 183.296 369.194 183.807 371.172 184.096C374.217 184.54 375.573 185.563 375.573 187.719C375.573 189.941 373.617 191.164 370.972 191.164C367.883 191.164 366.216 190.075 365.905 187.407H367.972C368.261 188.897 369.128 189.386 371.039 189.386C372.506 189.386 373.462 188.852 373.462 187.874C373.462 186.807 372.639 186.229 370.372 185.896C367.639 185.474 366.261 184.585 366.261 182.362C366.261 180.362 368.016 178.962 370.684 178.962ZM380.532 187.407C380.532 189.208 380.909 189.386 383.11 189.23V190.964C382.554 191.03 381.998 191.075 381.265 191.075C379.309 191.075 378.598 190.252 378.509 188.941C378.465 188.341 378.465 187.896 378.465 187.23V181.073H376.887V179.34H378.465V175.806H380.532V179.34H383.154V181.073H380.532V187.407ZM389.732 178.962C392.776 178.962 394.021 180.34 394.177 182.362C394.221 182.962 394.243 183.407 394.243 184.074V190.852H392.332L392.221 189.141C391.576 190.697 390.065 191.164 388.376 191.164C386.175 191.164 384.575 189.963 384.575 187.763C384.575 184.785 387.087 183.874 391.554 183.874H392.154V183.296C392.154 181.829 391.776 180.784 389.643 180.784C387.931 180.784 387.087 181.362 386.887 182.807H384.975C385.086 180.518 386.42 178.962 389.732 178.962ZM386.687 187.519C386.687 188.674 387.487 189.363 388.998 189.363C390.643 189.363 392.154 188.319 392.154 186.741V185.563C388.931 185.474 386.687 185.696 386.687 187.519ZM402.716 178.962C405.094 178.962 406.539 179.895 406.806 182.096C406.873 182.696 406.895 183.185 406.895 184.14V190.852H404.806V184.051C404.806 182.096 404.383 180.806 402.072 180.806C400.36 180.762 399.071 181.962 399.071 184.563V190.852H396.982V179.273H398.916L398.982 181.34C399.36 179.606 400.849 178.962 402.716 178.962ZM420.084 174.628V190.852H418.172L418.061 188.741C417.528 190.563 415.927 191.164 414.038 191.164C410.593 191.164 409.037 188.741 409.037 185.074C409.037 181.184 410.927 178.962 414.216 178.962C415.839 178.962 417.372 179.451 418.017 181.006V174.628H420.084ZM411.304 185.096C411.304 187.519 412.26 189.363 414.661 189.363C416.55 189.363 418.017 188.296 418.017 185.229V184.696C418.017 181.651 416.305 180.784 414.749 180.784C412.438 180.784 411.304 182.429 411.304 185.096ZM426.942 178.962C429.92 178.962 431.409 180.162 431.543 182.673H429.476C429.298 181.207 428.342 180.74 426.898 180.74C425.653 180.74 424.631 181.251 424.631 182.251C424.631 183.296 425.453 183.807 427.431 184.096C430.476 184.54 431.832 185.563 431.832 187.719C431.832 189.941 429.876 191.164 427.231 191.164C424.142 191.164 422.475 190.075 422.164 187.407H424.231C424.519 188.897 425.386 189.386 427.298 189.386C428.765 189.386 429.72 188.852 429.72 187.874C429.72 186.807 428.898 186.229 426.631 185.896C423.897 185.474 422.519 184.585 422.519 182.362C422.519 180.362 424.275 178.962 426.942 178.962ZM443.806 178.962C447.029 178.962 448.474 180.629 448.651 183.051H446.584C446.473 181.629 445.451 180.784 443.762 180.784C441.762 180.784 440.517 182.029 440.517 185.029C440.517 187.963 441.606 189.363 443.717 189.363C445.229 189.363 446.384 188.43 446.584 187.074H448.651C448.34 189.519 446.629 191.164 443.606 191.164C440.006 191.164 438.339 188.874 438.339 185.074C438.339 181.14 440.095 178.962 443.806 178.962ZM452.498 185.052C452.498 188.163 453.765 189.363 455.898 189.363C458.032 189.363 459.299 188.163 459.299 185.052C459.299 181.962 458.032 180.784 455.898 180.784C453.765 180.784 452.498 181.962 452.498 185.052ZM450.32 185.052C450.32 180.918 452.387 178.962 455.898 178.962C459.41 178.962 461.499 180.918 461.499 185.052C461.499 189.208 459.41 191.164 455.898 191.164C452.387 191.164 450.32 189.208 450.32 185.052ZM469.567 178.962C471.945 178.962 473.39 179.895 473.656 182.096C473.723 182.696 473.745 183.185 473.745 184.14V190.852H471.656V184.051C471.656 182.096 471.234 180.806 468.922 180.806C467.211 180.762 465.922 181.962 465.922 184.563V190.852H463.833V179.273H465.766L465.833 181.34C466.211 179.606 467.7 178.962 469.567 178.962ZM479.288 187.407C479.288 189.208 479.666 189.386 481.866 189.23V190.964C481.31 191.03 480.755 191.075 480.021 191.075C478.065 191.075 477.354 190.252 477.265 188.941C477.221 188.341 477.221 187.896 477.221 187.23V181.073H475.643V179.34H477.221V175.806H479.288V179.34H481.911V181.073H479.288V187.407ZM488.668 178.962C492.224 178.962 493.757 181.407 493.757 184.852C493.757 185.096 493.757 185.429 493.735 185.763H485.445C485.623 188.385 486.734 189.363 488.668 189.363C490.201 189.363 491.201 188.697 491.535 187.43H493.602C493.157 189.808 491.379 191.164 488.601 191.164C485.089 191.164 483.289 189.074 483.289 185.096C483.289 181.14 485.089 178.962 488.668 178.962ZM485.467 184.096H491.624C491.468 181.673 490.268 180.784 488.579 180.784C486.779 180.784 485.645 181.629 485.467 184.096ZM505.63 179.273L501.43 185.074L505.608 190.852H503.208L500.096 186.385L496.762 190.852H494.518L498.763 185.074L494.673 179.273H497.051L500.118 183.762L503.252 179.273H505.63ZM510.564 187.407C510.564 189.208 510.942 189.386 513.142 189.23V190.964C512.587 191.03 512.031 191.075 511.298 191.075C509.342 191.075 508.631 190.252 508.542 188.941C508.497 188.341 508.497 187.896 508.497 187.23V181.073H506.919V179.34H508.497V175.806H510.564V179.34H513.187V181.073H510.564V187.407Z" fill="#909090"/>
</g>
<g filter="url(#filter1_d_440_4126)">
<rect x="122.882" y="13.6547" width="406.676" height="88.8311" rx="23.4508" fill="white" shape-rendering="crispEdges"/>
<rect x="123.664" y="14.4364" width="405.113" height="87.2677" rx="22.6691" stroke="#E0E7F5" stroke-width="1.56339" shape-rendering="crispEdges"/>
<rect x="138.516" y="33.056" width="50.0284" height="50.0284" rx="25.0142" fill="url(#paint1_linear_440_4126)"/>
<g clip-path="url(#clip0_440_4126)">
<path d="M163.53 46.7001C160.515 46.7001 157.623 47.898 155.49 50.0303C153.358 52.1626 152.16 55.0546 152.16 58.0702C152.16 61.0857 153.358 63.9777 155.49 66.11C157.623 68.2423 160.515 69.4402 163.53 69.4402C166.546 69.4402 169.438 68.2423 171.57 66.11C173.702 63.9777 174.9 61.0857 174.9 58.0702C174.9 55.0546 173.702 52.1626 171.57 50.0303C169.438 47.898 166.546 46.7001 163.53 46.7001ZM164.015 50.1111C164.848 50.1212 165.675 50.2456 166.473 50.4806C168.145 50.9733 169.8 52.1359 170.096 53.9675C170.158 54.3559 170.157 54.7529 170.102 55.1424C169.905 56.5314 169.069 57.7736 168.122 58.7713C167.115 59.8344 165.832 60.528 164.768 61.5172C164.145 62.0961 163.891 62.8058 164.643 63.4075C165.67 63.9314 166.524 63.6595 167.457 63.0929C168.008 62.7584 168.48 62.3131 168.888 61.8185C169.096 61.5684 169.288 61.3049 169.473 61.0368C169.628 60.8094 169.773 60.5469 169.982 60.3584C170.104 60.2187 170.273 60.1286 170.457 60.1054C170.594 60.0915 170.732 60.1212 170.851 60.1903C170.971 60.2594 171.065 60.3643 171.121 60.4901C171.233 60.7554 171.133 61.0965 171.014 61.3428C170.396 62.6182 169.717 63.4747 169.245 63.9769C167.837 65.5431 165.636 66.5693 163.602 65.726C162.433 65.2428 161.52 64.1551 161.357 62.8854C161.053 60.5147 163.809 59.1427 165.26 57.7992C166.148 56.9767 167.122 55.7118 166.668 54.4242C166.233 53.1905 164.785 52.6542 163.593 52.5291C162.418 52.4079 161.224 52.6504 160.159 53.1488C159.323 53.5392 158.619 54.1323 157.961 54.77C157.743 54.9813 157.534 55.2058 157.309 55.4077C157.114 55.582 156.88 55.7412 156.615 55.7772C156.22 55.8303 155.845 55.5422 155.895 55.1253C155.977 54.4507 156.456 53.8632 156.877 53.361C157.137 53.0496 157.416 52.7565 157.714 52.4818C158.388 51.8615 159.154 51.35 159.986 50.9658C161.249 50.3861 162.625 50.0945 164.015 50.112M161.912 55.0997C163.388 55.0476 163.731 56.0794 162.748 56.846C161.077 58.146 158.96 59.4469 158.745 61.5361C158.658 62.3766 159.079 63.7088 159.589 64.6061C159.627 64.6724 159.646 64.751 159.644 64.8335C159.634 65.0523 159.464 65.2314 159.238 65.221C159.085 65.2134 158.943 65.1357 158.812 65.0542C158.206 64.68 157.639 64.211 157.196 63.651C156.941 63.3274 156.729 62.9719 156.566 62.5936C156.413 62.2313 156.31 61.8502 156.26 61.4603C156.211 61.0707 156.214 60.6761 156.27 60.2873C156.299 60.0883 156.339 59.8925 156.392 59.6999C157.029 57.3406 159.591 55.3754 161.601 55.1253C161.71 55.112 161.813 55.1035 161.912 55.0997Z" fill="white"/>
</g>
<path d="M205.102 35.0817C208.44 35.0817 210.126 36.8213 210.499 39.2H208.741C208.404 37.6911 207.215 36.6438 205.102 36.6438C202.44 36.6438 200.895 38.4544 200.895 41.7561C200.895 45.5371 202.67 46.9749 205.191 46.9749C207.215 46.9749 208.44 45.9809 208.777 44.4188H210.499C210.09 46.9749 208.227 48.537 205.138 48.537C201.304 48.537 199.138 46.2294 199.138 41.8271C199.138 37.9042 201.073 35.0817 205.102 35.0817ZM214.007 35.3303V40.5668C214.344 39.271 215.462 38.7917 216.918 38.7917C218.817 38.7917 219.971 39.5373 220.184 41.2946C220.237 41.7739 220.255 42.1644 220.255 42.9277V48.2885H218.587V42.8567C218.587 41.2946 218.249 40.265 216.403 40.265C215.036 40.2295 214.007 41.1881 214.007 43.265V48.2885H212.338V35.3303H214.007ZM225.997 38.7917C228.429 38.7917 229.423 39.8923 229.547 41.5076C229.583 41.9869 229.601 42.3419 229.601 42.8744V48.2885H228.074L227.985 46.9217C227.471 48.1643 226.264 48.537 224.914 48.537C223.157 48.537 221.879 47.5785 221.879 45.8211C221.879 43.4425 223.885 42.7147 227.453 42.7147H227.932V42.2532C227.932 41.0816 227.63 40.2473 225.926 40.2473C224.559 40.2473 223.885 40.7088 223.725 41.8626H222.199C222.287 40.0343 223.352 38.7917 225.997 38.7917ZM223.565 45.6259C223.565 46.5489 224.204 47.0992 225.411 47.0992C226.725 47.0992 227.932 46.2649 227.932 45.0046V44.0638C225.358 43.9928 223.565 44.1703 223.565 45.6259ZM234.026 45.5371C234.026 46.9749 234.327 47.1169 236.085 46.9927V48.3773C235.641 48.4305 235.197 48.466 234.611 48.466C233.049 48.466 232.481 47.8092 232.41 46.7619C232.375 46.2826 232.375 45.9276 232.375 45.3951V40.4781H231.114V39.0935H232.375V36.2711H234.026V39.0935H236.12V40.4781H234.026V45.5371ZM254.167 39.0402L251.469 48.2885H249.623C248.86 45.9986 248.132 43.6022 247.44 41.1703C246.783 43.6022 246.002 45.9986 245.256 48.2885H243.428L240.694 39.0402H242.487C243.18 41.5786 243.836 44.0993 244.422 46.6377C245.114 44.1525 245.878 41.7384 246.659 39.2532H248.31C249.108 41.7739 249.872 44.259 250.546 46.7619C251.132 44.188 251.771 41.6141 252.481 39.0402H254.167ZM257.24 39.0402V48.2885H255.572V39.0402H257.24ZM255.394 36.3066C255.394 35.7385 255.838 35.2948 256.388 35.2948C256.956 35.2948 257.4 35.7385 257.4 36.3066C257.4 36.8568 256.956 37.3006 256.388 37.3006C255.838 37.3006 255.394 36.8568 255.394 36.3066ZM261.796 45.5371C261.796 46.9749 262.098 47.1169 263.855 46.9927V48.3773C263.412 48.4305 262.968 48.466 262.382 48.466C260.82 48.466 260.252 47.8092 260.181 46.7619C260.145 46.2826 260.145 45.9276 260.145 45.3951V40.4781H258.885V39.0935H260.145V36.2711H261.796V39.0935H263.891V40.4781H261.796V45.5371ZM267.156 35.3303V40.5668C267.493 39.271 268.612 38.7917 270.067 38.7917C271.967 38.7917 273.12 39.5373 273.333 41.2946C273.387 41.7739 273.404 42.1644 273.404 42.9277V48.2885H271.736V42.8567C271.736 41.2946 271.398 40.265 269.552 40.265C268.186 40.2295 267.156 41.1881 267.156 43.265V48.2885H265.487V35.3303H267.156ZM289.736 35.3303V48.2885H287.659L283.434 41.1703C282.689 39.8568 281.961 38.5077 281.251 37.1764C281.34 38.8627 281.375 40.5136 281.375 41.9869V48.2885H279.742V35.3303H281.801L285.902 42.1822C286.701 43.5667 287.464 44.9691 288.209 46.3714C288.138 44.7206 288.103 42.9632 288.103 41.5076V35.3303H289.736ZM293.462 43.6555C293.462 46.1406 294.474 47.0992 296.178 47.0992C297.882 47.0992 298.894 46.1406 298.894 43.6555C298.894 41.1881 297.882 40.2473 296.178 40.2473C294.474 40.2473 293.462 41.1881 293.462 43.6555ZM291.723 43.6555C291.723 40.3538 293.373 38.7917 296.178 38.7917C298.983 38.7917 300.651 40.3538 300.651 43.6555C300.651 46.9749 298.983 48.537 296.178 48.537C293.373 48.537 291.723 46.9749 291.723 43.6555ZM304.631 45.5371C304.631 46.9749 304.933 47.1169 306.69 46.9927V48.3773C306.246 48.4305 305.803 48.466 305.217 48.466C303.655 48.466 303.087 47.8092 303.016 46.7619C302.98 46.2826 302.98 45.9276 302.98 45.3951V40.4781H301.72V39.0935H302.98V36.2711H304.631V39.0935H306.726V40.4781H304.631V45.5371ZM312.123 38.7917C314.963 38.7917 316.188 40.7443 316.188 43.4957C316.188 43.691 316.188 43.9573 316.17 44.2235H309.549C309.691 46.3181 310.578 47.0992 312.123 47.0992C313.347 47.0992 314.146 46.5667 314.412 45.5549H316.063C315.708 47.4542 314.288 48.537 312.069 48.537C309.265 48.537 307.827 46.8684 307.827 43.691C307.827 40.5313 309.265 38.7917 312.123 38.7917ZM309.566 42.8922H314.483C314.359 40.9573 313.401 40.2473 312.052 40.2473C310.614 40.2473 309.708 40.9218 309.566 42.8922ZM321.433 38.7917C323.812 38.7917 325.001 39.7503 325.108 41.7561H323.457C323.315 40.5846 322.552 40.2118 321.398 40.2118C320.404 40.2118 319.587 40.6201 319.587 41.4189C319.587 42.2532 320.244 42.6614 321.824 42.8922C324.256 43.2472 325.339 44.0638 325.339 45.7856C325.339 47.5607 323.777 48.537 321.664 48.537C319.197 48.537 317.865 47.6672 317.617 45.5371H319.268C319.499 46.7264 320.191 47.1169 321.717 47.1169C322.889 47.1169 323.652 46.6909 323.652 45.9099C323.652 45.0578 322.995 44.5963 321.185 44.33C319.001 43.9928 317.901 43.2827 317.901 41.5076C317.901 39.91 319.303 38.7917 321.433 38.7917Z" fill="black"/>
<path d="M207.689 63.6272L213.713 79.8519H211.446L209.69 75.0734H203.089L201.333 79.8519H199.088L205.2 63.6272H207.689ZM203.711 73.162H209.112L206.423 65.6498L203.711 73.162ZM219.672 67.9612C222.651 67.9612 224.14 69.1614 224.273 71.6729H222.206C222.028 70.206 221.073 69.7393 219.628 69.7393C218.383 69.7393 217.361 70.2505 217.361 71.2506C217.361 72.2952 218.183 72.8064 220.161 73.0953C223.206 73.5399 224.562 74.5622 224.562 76.7181C224.562 78.9407 222.606 80.1631 219.961 80.1631C216.872 80.1631 215.205 79.074 214.894 76.407H216.961C217.25 77.8961 218.117 78.385 220.028 78.385C221.495 78.385 222.451 77.8516 222.451 76.8737C222.451 75.8069 221.628 75.229 219.361 74.8956C216.627 74.4733 215.249 73.5843 215.249 71.3617C215.249 69.3614 217.005 67.9612 219.672 67.9612ZM236.654 68.2724L232.32 72.8509L236.876 79.8519H234.342L230.697 74.14L228.808 76.0069V79.8519H226.719V63.6272H228.808V74.0955L234.32 68.2724H236.654ZM251.942 84.0748V77.8961C251.364 79.5852 249.786 80.1631 247.964 80.1631C244.519 80.1631 242.963 77.7405 242.963 74.0733C242.963 70.1838 244.852 67.9612 248.142 67.9612C249.786 67.9612 251.342 68.4724 251.965 70.0504L252.098 68.2724H254.009V84.0748H251.942ZM245.23 74.0955C245.23 76.5181 246.186 78.3628 248.586 78.3628C250.475 78.3628 251.942 77.296 251.942 74.2289V73.6954C251.942 70.6505 250.231 69.7837 248.675 69.7837C246.364 69.7837 245.23 71.4284 245.23 74.0955ZM260.798 80.1631C258.531 80.1631 257.086 79.2074 256.842 77.0071C256.753 76.407 256.731 75.9402 256.731 74.9845V68.2724H258.82V75.1179C258.82 77.0515 259.287 78.3628 261.487 78.3628C263.221 78.3628 264.51 77.1626 264.51 74.6067V68.2724H266.599V79.8519H264.687L264.599 77.8739C264.11 79.4963 262.732 80.1631 260.798 80.1631ZM274.127 67.9612C277.683 67.9612 279.217 70.406 279.217 73.851C279.217 74.0955 279.217 74.4289 279.194 74.7623H270.904C271.082 77.3849 272.193 78.3628 274.127 78.3628C275.661 78.3628 276.661 77.696 276.994 76.4292H279.061C278.617 78.8073 276.838 80.1631 274.06 80.1631C270.549 80.1631 268.748 78.0739 268.748 74.0955C268.748 70.1393 270.549 67.9612 274.127 67.9612ZM270.926 73.0953H277.083C276.927 70.6728 275.727 69.7837 274.038 69.7837C272.238 69.7837 271.104 70.6283 270.926 73.0953ZM285.785 67.9612C288.763 67.9612 290.252 69.1614 290.385 71.6729H288.319C288.141 70.206 287.185 69.7393 285.74 69.7393C284.496 69.7393 283.473 70.2505 283.473 71.2506C283.473 72.2952 284.296 72.8064 286.274 73.0953C289.319 73.5399 290.674 74.5622 290.674 76.7181C290.674 78.9407 288.719 80.1631 286.074 80.1631C282.984 80.1631 281.317 79.074 281.006 76.407H283.073C283.362 77.8961 284.229 78.385 286.14 78.385C287.607 78.385 288.563 77.8516 288.563 76.8737C288.563 75.8069 287.741 75.229 285.474 74.8956C282.74 74.4733 281.362 73.5843 281.362 71.3617C281.362 69.3614 283.118 67.9612 285.785 67.9612ZM295.633 76.407C295.633 78.2072 296.011 78.385 298.211 78.2295V79.9631C297.655 80.0297 297.1 80.0742 296.366 80.0742C294.41 80.0742 293.699 79.2518 293.61 77.9405C293.566 77.3404 293.566 76.8959 293.566 76.2292V70.0727H291.988V68.3391H293.566V64.8052H295.633V68.3391H298.255V70.0727H295.633V76.407ZM302.344 68.2724V79.8519H300.254V68.2724H302.344ZM300.032 64.8497C300.032 64.1384 300.588 63.5828 301.277 63.5828C301.988 63.5828 302.544 64.1384 302.544 64.8497C302.544 65.5386 301.988 66.0943 301.277 66.0943C300.588 66.0943 300.032 65.5386 300.032 64.8497ZM306.609 74.051C306.609 77.1626 307.876 78.3628 310.009 78.3628C312.143 78.3628 313.41 77.1626 313.41 74.051C313.41 70.9617 312.143 69.7837 310.009 69.7837C307.876 69.7837 306.609 70.9617 306.609 74.051ZM304.431 74.051C304.431 69.9171 306.498 67.9612 310.009 67.9612C313.521 67.9612 315.61 69.9171 315.61 74.051C315.61 78.2072 313.521 80.1631 310.009 80.1631C306.498 80.1631 304.431 78.2072 304.431 74.051ZM323.678 67.9612C326.056 67.9612 327.501 68.8947 327.767 71.095C327.834 71.6951 327.856 72.1841 327.856 73.1398V79.8519H325.767V73.0509C325.767 71.095 325.345 69.806 323.033 69.806C321.322 69.7615 320.033 70.9617 320.033 73.5621V79.8519H317.944V68.2724H319.877L319.944 70.3394C320.322 68.6058 321.811 67.9612 323.678 67.9612ZM334.664 67.9612C337.642 67.9612 339.131 69.1614 339.264 71.6729H337.197C337.02 70.206 336.064 69.7393 334.619 69.7393C333.375 69.7393 332.352 70.2505 332.352 71.2506C332.352 72.2952 333.175 72.8064 335.153 73.0953C338.198 73.5399 339.553 74.5622 339.553 76.7181C339.553 78.9407 337.598 80.1631 334.953 80.1631C331.863 80.1631 330.196 79.074 329.885 76.407H331.952C332.241 77.8961 333.108 78.385 335.019 78.385C336.486 78.385 337.442 77.8516 337.442 76.8737C337.442 75.8069 336.62 75.229 334.353 74.8956C331.619 74.4733 330.241 73.5843 330.241 71.3617C330.241 69.3614 331.997 67.9612 334.664 67.9612ZM351.172 67.9612C354.217 67.9612 355.462 69.3392 355.617 71.3617C355.662 71.9618 355.684 72.4064 355.684 73.0731V79.8519H353.773L353.662 78.1406C353.017 79.6963 351.506 80.1631 349.817 80.1631C347.616 80.1631 346.016 78.9629 346.016 76.7626C346.016 73.7843 348.527 72.8731 352.995 72.8731H353.595V72.2952C353.595 70.8283 353.217 69.7837 351.083 69.7837C349.372 69.7837 348.527 70.3616 348.327 71.8063H346.416C346.527 69.517 347.861 67.9612 351.172 67.9612ZM348.127 76.5181C348.127 77.6738 348.928 78.3628 350.439 78.3628C352.084 78.3628 353.595 77.3182 353.595 75.7402V74.5622C350.372 74.4733 348.127 74.6956 348.127 76.5181ZM360.512 63.6272V70.206C361.09 68.5169 362.646 67.9612 364.468 67.9612C367.935 67.9612 369.491 70.3838 369.491 74.051C369.491 77.9405 367.602 80.1631 364.313 80.1631C362.579 80.1631 360.979 79.6074 360.423 77.8961L360.357 79.8519H358.423V63.6272H360.512ZM360.512 74.4289C360.512 77.4738 362.201 78.3628 363.779 78.3628C366.069 78.3628 367.224 76.6959 367.224 74.0288C367.224 71.6285 366.269 69.7837 363.846 69.7837C361.957 69.7837 360.512 70.8283 360.512 73.8955V74.4289ZM373.459 74.051C373.459 77.1626 374.726 78.3628 376.86 78.3628C378.994 78.3628 380.26 77.1626 380.26 74.051C380.26 70.9617 378.994 69.7837 376.86 69.7837C374.726 69.7837 373.459 70.9617 373.459 74.051ZM371.281 74.051C371.281 69.9171 373.348 67.9612 376.86 67.9612C380.372 67.9612 382.461 69.9171 382.461 74.051C382.461 78.2072 380.372 80.1631 376.86 80.1631C373.348 80.1631 371.281 78.2072 371.281 74.051ZM388.552 80.1631C386.285 80.1631 384.84 79.2074 384.596 77.0071C384.507 76.407 384.484 75.9402 384.484 74.9845V68.2724H386.574V75.1179C386.574 77.0515 387.04 78.3628 389.241 78.3628C390.974 78.3628 392.263 77.1626 392.263 74.6067V68.2724H394.353V79.8519H392.441L392.352 77.8739C391.863 79.4963 390.485 80.1631 388.552 80.1631ZM400.097 76.407C400.097 78.2072 400.475 78.385 402.676 78.2295V79.9631C402.12 80.0297 401.564 80.0742 400.831 80.0742C398.875 80.0742 398.164 79.2518 398.075 77.9405C398.03 77.3404 398.03 76.8959 398.03 76.2292V70.0727H396.452V68.3391H398.03V64.8052H400.097V68.3391H402.72V70.0727H400.097V76.407ZM415.159 79.8519C413.581 83.8525 412.47 84.5193 410.181 84.5193C409.759 84.5193 409.447 84.4971 409.092 84.4082V82.6524C409.47 82.6968 409.87 82.719 410.27 82.719C411.226 82.719 412.026 82.3634 412.648 80.8076L412.87 80.2075L408.225 68.2724H410.67L414.026 78.0739L417.582 68.2724H419.805L415.159 79.8519ZM422.555 74.051C422.555 77.1626 423.822 78.3628 425.956 78.3628C428.09 78.3628 429.356 77.1626 429.356 74.051C429.356 70.9617 428.09 69.7837 425.956 69.7837C423.822 69.7837 422.555 70.9617 422.555 74.051ZM420.377 74.051C420.377 69.9171 422.444 67.9612 425.956 67.9612C429.468 67.9612 431.557 69.9171 431.557 74.051C431.557 78.2072 429.468 80.1631 425.956 80.1631C422.444 80.1631 420.377 78.2072 420.377 74.051ZM437.648 80.1631C435.381 80.1631 433.936 79.2074 433.692 77.0071C433.603 76.407 433.58 75.9402 433.58 74.9845V68.2724H435.67V75.1179C435.67 77.0515 436.136 78.3628 438.337 78.3628C440.07 78.3628 441.359 77.1626 441.359 74.6067V68.2724H443.449V79.8519H441.537L441.448 77.8739C440.959 79.4963 439.581 80.1631 437.648 80.1631ZM451.572 67.9612C451.883 67.9612 452.127 67.9612 452.349 68.0279V69.7837C449.794 69.5393 448.438 70.9172 448.438 74.4289V79.8519H446.349V68.2724H448.282L448.349 70.5172C448.593 68.7614 449.927 67.9612 451.572 67.9612ZM464.802 67.9612C467.18 67.9612 468.625 68.8947 468.891 71.095C468.958 71.6951 468.98 72.1841 468.98 73.1398V79.8519H466.891V73.0509C466.891 71.095 466.469 69.806 464.157 69.806C462.446 69.7615 461.157 70.9617 461.157 73.5621V79.8519H459.068V68.2724H461.001L461.068 70.3394C461.446 68.6058 462.935 67.9612 464.802 67.9612ZM473.279 74.051C473.279 77.1626 474.546 78.3628 476.68 78.3628C478.813 78.3628 480.08 77.1626 480.08 74.051C480.08 70.9617 478.813 69.7837 476.68 69.7837C474.546 69.7837 473.279 70.9617 473.279 74.051ZM471.101 74.051C471.101 69.9171 473.168 67.9612 476.68 67.9612C480.191 67.9612 482.281 69.9171 482.281 74.051C482.281 78.2072 480.191 80.1631 476.68 80.1631C473.168 80.1631 471.101 78.2072 471.101 74.051ZM487.263 76.407C487.263 78.2072 487.641 78.385 489.842 78.2295V79.9631C489.286 80.0297 488.73 80.0742 487.997 80.0742C486.041 80.0742 485.33 79.2518 485.241 77.9405C485.196 77.3404 485.196 76.8959 485.196 76.2292V70.0727H483.618V68.3391H485.196V64.8052H487.263V68.3391H489.886V70.0727H487.263V76.407ZM496.643 67.9612C500.199 67.9612 501.733 70.406 501.733 73.851C501.733 74.0955 501.733 74.4289 501.711 74.7623H493.421C493.598 77.3849 494.71 78.3628 496.643 78.3628C498.177 78.3628 499.177 77.696 499.51 76.4292H501.577C501.133 78.8073 499.355 80.1631 496.577 80.1631C493.065 80.1631 491.265 78.0739 491.265 74.0955C491.265 70.1393 493.065 67.9612 496.643 67.9612ZM493.443 73.0953H499.599C499.444 70.6728 498.244 69.7837 496.554 69.7837C494.754 69.7837 493.621 70.6283 493.443 73.0953ZM508.301 67.9612C511.279 67.9612 512.769 69.1614 512.902 71.6729H510.835C510.657 70.206 509.701 69.7393 508.257 69.7393C507.012 69.7393 505.99 70.2505 505.99 71.2506C505.99 72.2952 506.812 72.8064 508.79 73.0953C511.835 73.5399 513.191 74.5622 513.191 76.7181C513.191 78.9407 511.235 80.1631 508.59 80.1631C505.501 80.1631 503.834 79.074 503.523 76.407H505.59C505.879 77.8961 506.745 78.385 508.657 78.385C510.124 78.385 511.079 77.8516 511.079 76.8737C511.079 75.8069 510.257 75.229 507.99 74.8956C505.256 74.4733 503.878 73.5843 503.878 71.3617C503.878 69.3614 505.634 67.9612 508.301 67.9612Z" fill="#909090"/>
</g>
<g filter="url(#filter2_d_440_4126)">
<rect x="574.701" y="124.655" width="512.676" height="88.8311" rx="23.4508" fill="white" shape-rendering="crispEdges"/>
<rect x="575.482" y="125.437" width="511.113" height="87.2677" rx="22.6691" stroke="#E0E7F5" stroke-width="1.56339" shape-rendering="crispEdges"/>
<rect x="590.334" y="144.057" width="50.0284" height="50.0284" rx="25.0142" fill="url(#paint2_linear_440_4126)"/>
<g clip-path="url(#clip1_440_4126)">
<path d="M615.349 157.701C612.333 157.701 609.441 158.898 607.309 161.031C605.176 163.163 603.979 166.055 603.979 169.071C603.979 172.086 605.176 174.978 607.309 177.111C609.441 179.243 612.333 180.441 615.349 180.441C618.364 180.441 621.256 179.243 623.388 177.111C625.521 174.978 626.719 172.086 626.719 169.071C626.719 166.055 625.521 163.163 623.388 161.031C621.256 158.898 618.364 157.701 615.349 157.701ZM615.834 161.112C616.666 161.122 617.493 161.246 618.292 161.481C619.963 161.974 621.618 163.136 621.914 164.968C621.976 165.356 621.975 165.753 621.921 166.143C621.723 167.532 620.888 168.774 619.94 169.772C618.933 170.835 617.65 171.528 616.586 172.518C615.964 173.097 615.71 173.806 616.461 174.408C617.488 174.932 618.343 174.66 619.275 174.093C619.827 173.759 620.298 173.314 620.707 172.819C620.914 172.569 621.107 172.305 621.291 172.037C621.447 171.81 621.592 171.547 621.8 171.359C621.922 171.219 622.092 171.129 622.276 171.106C622.413 171.092 622.551 171.122 622.67 171.191C622.789 171.26 622.883 171.365 622.939 171.491C623.051 171.756 622.951 172.097 622.832 172.343C622.214 173.619 621.536 174.475 621.063 174.977C619.655 176.544 617.454 177.57 615.421 176.727C614.251 176.243 613.338 175.156 613.175 173.886C612.872 171.515 615.627 170.143 617.079 168.8C617.967 167.977 618.941 166.712 618.487 165.425C618.052 164.191 616.603 163.655 615.411 163.53C614.236 163.408 613.042 163.651 611.977 164.149C611.142 164.54 610.438 165.133 609.779 165.77C609.561 165.982 609.353 166.206 609.127 166.408C608.932 166.582 608.698 166.742 608.434 166.778C608.039 166.831 607.663 166.543 607.714 166.126C607.795 165.451 608.275 164.864 608.695 164.362C608.955 164.05 609.235 163.757 609.533 163.482C610.206 162.862 610.973 162.35 611.804 161.966C613.067 161.387 614.444 161.095 615.834 161.113M613.73 166.1C615.206 166.048 615.549 167.08 614.566 167.846C612.896 169.146 610.779 170.447 610.564 172.537C610.477 173.377 610.897 174.709 611.407 175.607C611.445 175.673 611.465 175.752 611.462 175.834C611.452 176.053 611.282 176.232 611.056 176.221C610.903 176.214 610.762 176.136 610.63 176.055C610.025 175.68 609.457 175.211 609.015 174.651C608.759 174.328 608.548 173.972 608.384 173.594C608.232 173.232 608.129 172.851 608.078 172.461C608.029 172.071 608.032 171.677 608.089 171.288C608.117 171.089 608.158 170.893 608.21 170.7C608.848 168.341 611.41 166.376 613.419 166.126C613.528 166.113 613.632 166.104 613.73 166.1Z" fill="white"/>
</g>
<path d="M657.852 146.331L662.662 159.289H660.852L659.449 155.473H654.177L652.775 159.289H650.982L655.864 146.331H657.852ZM654.674 153.946H658.988L656.84 147.946L654.674 153.946ZM667.193 159.538C665.383 159.538 664.229 158.774 664.033 157.017C663.962 156.538 663.945 156.165 663.945 155.402V150.041H665.613V155.508C665.613 157.052 665.986 158.1 667.743 158.1C669.128 158.1 670.158 157.141 670.158 155.1V150.041H671.826V159.289H670.3L670.229 157.709C669.838 159.005 668.737 159.538 667.193 159.538ZM676.414 156.538C676.414 157.975 676.716 158.117 678.473 157.993V159.378C678.03 159.431 677.586 159.467 677 159.467C675.438 159.467 674.87 158.81 674.799 157.762C674.764 157.283 674.764 156.928 674.764 156.396V151.479H673.503V150.094H674.764V147.272H676.414V150.094H678.509V151.479H676.414V156.538ZM681.315 154.656C681.315 157.141 682.327 158.1 684.031 158.1C685.735 158.1 686.747 157.141 686.747 154.656C686.747 152.189 685.735 151.248 684.031 151.248C682.327 151.248 681.315 152.189 681.315 154.656ZM679.575 154.656C679.575 151.354 681.226 149.792 684.031 149.792C686.836 149.792 688.504 151.354 688.504 154.656C688.504 157.975 686.836 159.538 684.031 159.538C681.226 159.538 679.575 157.975 679.575 154.656ZM698.582 146.082C701.404 146.082 703.215 147.485 703.286 150.094H701.582C701.458 148.408 700.162 147.644 698.511 147.644C697.038 147.644 695.742 148.461 695.742 149.668C695.742 151.035 696.789 151.496 699.079 151.958C702.008 152.508 703.623 153.662 703.623 155.881C703.623 158.508 701.209 159.538 698.689 159.538C695.813 159.538 693.825 158.277 693.63 155.473H695.351C695.529 157.07 696.718 157.975 698.742 157.975C700.393 157.975 701.919 157.407 701.919 155.97C701.919 154.62 700.872 153.981 698.493 153.52C695.6 152.97 694.056 151.922 694.056 149.721C694.056 147.467 696.097 146.082 698.582 146.082ZM708.468 159.538C706.657 159.538 705.503 158.774 705.308 157.017C705.237 156.538 705.219 156.165 705.219 155.402V150.041H706.888V155.508C706.888 157.052 707.261 158.1 709.018 158.1C710.403 158.1 711.432 157.141 711.432 155.1V150.041H713.101V159.289H711.574L711.503 157.709C711.113 159.005 710.012 159.538 708.468 159.538ZM719.961 149.792C721.363 149.792 722.216 150.449 722.588 151.496C722.908 150.165 724.257 149.792 725.464 149.792C727.31 149.792 728.34 150.733 728.535 152.26C728.606 152.739 728.624 153.129 728.624 153.662V159.289H726.955V153.928C726.955 152.437 726.689 151.248 725.038 151.248C723.636 151.248 722.837 152.189 722.837 154.177V159.289H721.186V153.964C721.186 152.508 720.937 151.248 719.251 151.248C717.884 151.248 717.085 152.171 717.085 154.159V159.289H715.417V150.041H716.961L717.014 151.39C717.298 150.218 718.541 149.792 719.961 149.792ZM735.372 149.792C736.774 149.792 737.626 150.449 737.999 151.496C738.319 150.165 739.668 149.792 740.875 149.792C742.721 149.792 743.75 150.733 743.946 152.26C744.017 152.739 744.034 153.129 744.034 153.662V159.289H742.366V153.928C742.366 152.437 742.1 151.248 740.449 151.248C739.046 151.248 738.248 152.189 738.248 154.177V159.289H736.597V153.964C736.597 152.508 736.348 151.248 734.662 151.248C733.295 151.248 732.496 152.171 732.496 154.159V159.289H730.828V150.041H732.372L732.425 151.39C732.709 150.218 733.952 149.792 735.372 149.792ZM749.757 149.792C752.188 149.792 753.182 150.893 753.307 152.508C753.342 152.987 753.36 153.342 753.36 153.875V159.289H751.833L751.745 157.922C751.23 159.165 750.023 159.538 748.674 159.538C746.916 159.538 745.638 158.579 745.638 156.822C745.638 154.443 747.644 153.715 751.212 153.715H751.691V153.254C751.691 152.082 751.39 151.248 749.686 151.248C748.319 151.248 747.644 151.709 747.484 152.863H745.958C746.047 151.035 747.112 149.792 749.757 149.792ZM747.325 156.626C747.325 157.549 747.964 158.1 749.171 158.1C750.484 158.1 751.691 157.265 751.691 156.005V155.064C749.117 154.993 747.325 155.171 747.325 156.626ZM759.719 149.792C759.967 149.792 760.163 149.792 760.34 149.845V151.248C758.299 151.053 757.216 152.153 757.216 154.958V159.289H755.547V150.041H757.092L757.145 151.834C757.34 150.431 758.405 149.792 759.719 149.792ZM763.353 150.041V159.289H761.684V150.041H763.353ZM761.506 147.307C761.506 146.739 761.95 146.295 762.501 146.295C763.069 146.295 763.512 146.739 763.512 147.307C763.512 147.857 763.069 148.301 762.501 148.301C761.95 148.301 761.506 147.857 761.506 147.307ZM772.542 150.041V151.035L767.198 157.958H772.559V159.289H764.962V158.33L770.323 151.372H765.246V150.041H772.542ZM777.909 149.792C780.34 149.792 781.335 150.893 781.459 152.508C781.494 152.987 781.512 153.342 781.512 153.875V159.289H779.985L779.897 157.922C779.382 159.165 778.175 159.538 776.826 159.538C775.068 159.538 773.79 158.579 773.79 156.822C773.79 154.443 775.796 153.715 779.364 153.715H779.843V153.254C779.843 152.082 779.542 151.248 777.838 151.248C776.471 151.248 775.796 151.709 775.636 152.863H774.11C774.199 151.035 775.264 149.792 777.909 149.792ZM775.477 156.626C775.477 157.549 776.116 158.1 777.323 158.1C778.636 158.1 779.843 157.265 779.843 156.005V155.064C777.27 154.993 775.477 155.171 775.477 156.626ZM785.937 156.538C785.937 157.975 786.239 158.117 787.996 157.993V159.378C787.552 159.431 787.108 159.467 786.523 159.467C784.961 159.467 784.393 158.81 784.322 157.762C784.286 157.283 784.286 156.928 784.286 156.396V151.479H783.026V150.094H784.286V147.272H785.937V150.094H788.031V151.479H785.937V156.538ZM791.297 150.041V159.289H789.628V150.041H791.297ZM789.45 147.307C789.45 146.739 789.894 146.295 790.445 146.295C791.013 146.295 791.456 146.739 791.456 147.307C791.456 147.857 791.013 148.301 790.445 148.301C789.894 148.301 789.45 147.857 789.45 147.307ZM794.703 154.656C794.703 157.141 795.715 158.1 797.419 158.1C799.123 158.1 800.135 157.141 800.135 154.656C800.135 152.189 799.123 151.248 797.419 151.248C795.715 151.248 794.703 152.189 794.703 154.656ZM792.964 154.656C792.964 151.354 794.615 149.792 797.419 149.792C800.224 149.792 801.892 151.354 801.892 154.656C801.892 157.975 800.224 159.538 797.419 159.538C794.615 159.538 792.964 157.975 792.964 154.656ZM808.336 149.792C810.235 149.792 811.389 150.538 811.602 152.295C811.655 152.774 811.673 153.165 811.673 153.928V159.289H810.004V153.857C810.004 152.295 809.667 151.266 807.821 151.266C806.454 151.23 805.425 152.189 805.425 154.265V159.289H803.756V150.041H805.3L805.354 151.692C805.655 150.307 806.845 149.792 808.336 149.792Z" fill="black"/>
<path d="M653.569 182.696C653.569 187.341 655.591 189.208 658.925 189.208C661.014 189.208 663.637 187.785 663.637 184.563V184.029H658.814V182.118H665.771V190.852H664.037L663.837 187.696C663.77 188.385 663.637 188.697 663.415 188.985C662.37 190.541 660.392 191.164 658.525 191.164C653.969 191.164 651.369 188.341 651.369 182.762C651.369 177.85 653.702 174.317 658.859 174.317C663.348 174.317 665.282 176.495 665.749 179.473H663.593C663.193 177.584 661.792 176.272 658.836 176.272C655.391 176.272 653.569 178.562 653.569 182.696ZM673.349 178.962C676.905 178.962 678.439 181.407 678.439 184.852C678.439 185.096 678.439 185.429 678.417 185.763H670.126C670.304 188.385 671.416 189.363 673.349 189.363C674.883 189.363 675.883 188.697 676.216 187.43H678.283C677.839 189.808 676.061 191.164 673.282 191.164C669.771 191.164 667.971 189.074 667.971 185.096C667.971 181.14 669.771 178.962 673.349 178.962ZM670.149 184.096H676.305C676.15 181.673 674.949 180.784 673.26 180.784C671.46 180.784 670.326 181.629 670.149 184.096ZM683.417 187.407C683.417 189.208 683.794 189.386 685.995 189.23V190.964C685.439 191.03 684.884 191.075 684.15 191.075C682.194 191.075 681.483 190.252 681.394 188.941C681.35 188.341 681.35 187.896 681.35 187.23V181.073H679.772V179.34H681.35V175.806H683.417V179.34H686.039V181.073H683.417V187.407ZM700.546 174.628L706.569 190.852H704.302L702.546 186.074H695.945L694.189 190.852H691.944L698.056 174.628H700.546ZM696.567 184.163H701.968L699.279 176.65L696.567 184.163ZM710.95 174.628V190.852H708.816V174.628H710.95ZM718.795 183.629V185.296H713.394V183.629H718.795ZM731.496 187.696C731.496 189.141 731.496 189.897 731.474 190.608C731.363 193.72 729.496 195.386 726.14 195.386C723.45 195.386 721.206 194.697 720.961 191.497H723.028C723.317 193.186 724.517 193.586 726.14 193.586C728.473 193.586 729.407 192.23 729.407 190.408V188.208C729.096 190.03 727.807 190.764 725.651 190.764C722.206 190.764 720.65 188.385 720.65 184.874C720.65 181.118 722.517 178.962 725.784 178.962C727.74 178.962 729.051 179.54 729.496 181.118L729.562 179.273H731.496V187.696ZM722.917 184.874C722.917 187.141 723.806 188.941 726.095 188.941C727.984 188.941 729.407 187.919 729.407 185.074V184.451C729.407 181.651 727.718 180.784 726.162 180.784C724.006 180.784 722.917 182.384 722.917 184.874ZM739.006 178.962C742.562 178.962 744.095 181.407 744.095 184.852C744.095 185.096 744.095 185.429 744.073 185.763H735.783C735.961 188.385 737.072 189.363 739.006 189.363C740.539 189.363 741.54 188.697 741.873 187.43H743.94C743.495 189.808 741.717 191.164 738.939 191.164C735.428 191.164 733.627 189.074 733.627 185.096C733.627 181.14 735.428 178.962 739.006 178.962ZM735.805 184.096H741.962C741.806 181.673 740.606 180.784 738.917 180.784C737.117 180.784 735.983 181.629 735.805 184.096ZM752.049 178.962C754.428 178.962 755.872 179.895 756.139 182.096C756.206 182.696 756.228 183.185 756.228 184.14V190.852H754.139V184.051C754.139 182.096 753.716 180.806 751.405 180.806C749.694 180.762 748.404 181.962 748.404 184.563V190.852H746.315V179.273H748.249L748.316 181.34C748.693 179.606 750.183 178.962 752.049 178.962ZM763.749 178.962C767.305 178.962 768.839 181.407 768.839 184.852C768.839 185.096 768.839 185.429 768.817 185.763H760.526C760.704 188.385 761.816 189.363 763.749 189.363C765.283 189.363 766.283 188.697 766.616 187.43H768.683C768.239 189.808 766.461 191.164 763.682 191.164C760.171 191.164 758.371 189.074 758.371 185.096C758.371 181.14 760.171 178.962 763.749 178.962ZM760.549 184.096H766.705C766.55 181.673 765.349 180.784 763.66 180.784C761.86 180.784 760.726 181.629 760.549 184.096ZM776.607 178.962C776.918 178.962 777.163 178.962 777.385 179.028V180.784C774.829 180.54 773.473 181.918 773.473 185.429V190.852H771.384V179.273H773.318L773.384 181.518C773.629 179.762 774.963 178.962 776.607 178.962ZM783.299 178.962C786.344 178.962 787.588 180.34 787.744 182.362C787.788 182.962 787.811 183.407 787.811 184.074V190.852H785.899L785.788 189.141C785.144 190.697 783.632 191.164 781.943 191.164C779.743 191.164 778.143 189.963 778.143 187.763C778.143 184.785 780.654 183.874 785.121 183.874H785.721V183.296C785.721 181.829 785.344 180.784 783.21 180.784C781.499 180.784 780.654 181.362 780.454 182.807H778.543C778.654 180.518 779.987 178.962 783.299 178.962ZM780.254 187.519C780.254 188.674 781.054 189.363 782.565 189.363C784.21 189.363 785.721 188.319 785.721 186.741V185.563C782.499 185.474 780.254 185.696 780.254 187.519ZM793.351 187.407C793.351 189.208 793.729 189.386 795.929 189.23V190.964C795.373 191.03 794.818 191.075 794.084 191.075C792.128 191.075 791.417 190.252 791.328 188.941C791.284 188.341 791.284 187.896 791.284 187.23V181.073H789.706V179.34H791.284V175.806H793.351V179.34H795.974V181.073H793.351V187.407ZM802.731 178.962C806.287 178.962 807.82 181.407 807.82 184.852C807.82 185.096 807.82 185.429 807.798 185.763H799.508C799.686 188.385 800.797 189.363 802.731 189.363C804.264 189.363 805.264 188.697 805.598 187.43H807.665C807.22 189.808 805.442 191.164 802.664 191.164C799.152 191.164 797.352 189.074 797.352 185.096C797.352 181.14 799.152 178.962 802.731 178.962ZM799.53 184.096H805.687C805.531 181.673 804.331 180.784 802.642 180.784C800.842 180.784 799.708 181.629 799.53 184.096ZM820.748 174.628V190.852H818.837L818.726 188.741C818.192 190.563 816.592 191.164 814.703 191.164C811.258 191.164 809.702 188.741 809.702 185.074C809.702 181.184 811.591 178.962 814.881 178.962C816.503 178.962 818.037 179.451 818.681 181.006V174.628H820.748ZM811.969 185.096C811.969 187.519 812.925 189.363 815.325 189.363C817.214 189.363 818.681 188.296 818.681 185.229V184.696C818.681 181.651 816.97 180.784 815.414 180.784C813.103 180.784 811.969 182.429 811.969 185.096ZM832.534 178.962C835.512 178.962 837.001 180.162 837.134 182.673H835.067C834.89 181.207 833.934 180.74 832.489 180.74C831.245 180.74 830.222 181.251 830.222 182.251C830.222 183.296 831.045 183.807 833.023 184.096C836.068 184.54 837.423 185.563 837.423 187.719C837.423 189.941 835.468 191.164 832.823 191.164C829.733 191.164 828.066 190.075 827.755 187.407H829.822C830.111 188.897 830.978 189.386 832.889 189.386C834.356 189.386 835.312 188.852 835.312 187.874C835.312 186.807 834.49 186.229 832.223 185.896C829.489 185.474 828.111 184.585 828.111 182.362C828.111 180.362 829.867 178.962 832.534 178.962ZM843.425 191.164C841.158 191.164 839.713 190.208 839.469 188.008C839.38 187.407 839.358 186.941 839.358 185.985V179.273H841.447V186.118C841.447 188.052 841.913 189.363 844.114 189.363C845.847 189.363 847.136 188.163 847.136 185.607V179.273H849.226V190.852H847.314L847.225 188.874C846.736 190.497 845.358 191.164 843.425 191.164ZM857.815 178.962C859.571 178.962 860.638 179.784 861.105 181.095C861.505 179.428 863.194 178.962 864.705 178.962C867.017 178.962 868.306 180.14 868.55 182.051C868.639 182.651 868.661 183.14 868.661 183.807V190.852H866.572V184.14C866.572 182.273 866.239 180.784 864.172 180.784C862.416 180.784 861.416 181.962 861.416 184.451V190.852H859.349V184.185C859.349 182.362 859.038 180.784 856.926 180.784C855.215 180.784 854.215 181.94 854.215 184.429V190.852H852.126V179.273H854.059L854.126 180.962C854.482 179.495 856.037 178.962 857.815 178.962ZM877.111 178.962C878.867 178.962 879.933 179.784 880.4 181.095C880.8 179.428 882.489 178.962 884.001 178.962C886.312 178.962 887.601 180.14 887.846 182.051C887.935 182.651 887.957 183.14 887.957 183.807V190.852H885.868V184.14C885.868 182.273 885.534 180.784 883.467 180.784C881.712 180.784 880.711 181.962 880.711 184.451V190.852H878.644V184.185C878.644 182.362 878.333 180.784 876.222 180.784C874.51 180.784 873.51 181.94 873.51 184.429V190.852H871.421V179.273H873.355L873.421 180.962C873.777 179.495 875.333 178.962 877.111 178.962ZM895.121 178.962C898.166 178.962 899.411 180.34 899.566 182.362C899.611 182.962 899.633 183.407 899.633 184.074V190.852H897.722L897.611 189.141C896.966 190.697 895.455 191.164 893.766 191.164C891.565 191.164 889.965 189.963 889.965 187.763C889.965 184.785 892.477 183.874 896.944 183.874H897.544V183.296C897.544 181.829 897.166 180.784 895.032 180.784C893.321 180.784 892.477 181.362 892.276 182.807H890.365C890.476 180.518 891.81 178.962 895.121 178.962ZM892.076 187.519C892.076 188.674 892.877 189.363 894.388 189.363C896.033 189.363 897.544 188.319 897.544 186.741V185.563C894.321 185.474 892.076 185.696 892.076 187.519ZM907.595 178.962C907.906 178.962 908.151 178.962 908.373 179.028V180.784C905.817 180.54 904.461 181.918 904.461 185.429V190.852H902.372V179.273H904.306L904.372 181.518C904.617 179.762 905.95 178.962 907.595 178.962ZM912.145 179.273V190.852H910.055V179.273H912.145ZM909.833 175.85C909.833 175.139 910.389 174.583 911.078 174.583C911.789 174.583 912.345 175.139 912.345 175.85C912.345 176.539 911.789 177.095 911.078 177.095C910.389 177.095 909.833 176.539 909.833 175.85ZM919.632 178.962C923.188 178.962 924.722 181.407 924.722 184.852C924.722 185.096 924.722 185.429 924.7 185.763H916.41C916.587 188.385 917.699 189.363 919.632 189.363C921.166 189.363 922.166 188.697 922.499 187.43H924.566C924.122 189.808 922.344 191.164 919.566 191.164C916.054 191.164 914.254 189.074 914.254 185.096C914.254 181.14 916.054 178.962 919.632 178.962ZM916.432 184.096H922.588C922.433 181.673 921.232 180.784 919.543 180.784C917.743 180.784 916.61 181.629 916.432 184.096ZM931.29 178.962C934.268 178.962 935.757 180.162 935.891 182.673H933.824C933.646 181.207 932.69 180.74 931.246 180.74C930.001 180.74 928.979 181.251 928.979 182.251C928.979 183.296 929.801 183.807 931.779 184.096C934.824 184.54 936.18 185.563 936.18 187.719C936.18 189.941 934.224 191.164 931.579 191.164C928.49 191.164 926.823 190.075 926.512 187.407H928.579C928.867 188.897 929.734 189.386 931.646 189.386C933.113 189.386 934.068 188.852 934.068 187.874C934.068 186.807 933.246 186.229 930.979 185.896C928.245 185.474 926.867 184.585 926.867 182.362C926.867 180.362 928.623 178.962 931.29 178.962ZM944.865 185.052C944.865 188.163 946.132 189.363 948.265 189.363C950.399 189.363 951.666 188.163 951.666 185.052C951.666 181.962 950.399 180.784 948.265 180.784C946.132 180.784 944.865 181.962 944.865 185.052ZM942.687 185.052C942.687 180.918 944.754 178.962 948.265 178.962C951.777 178.962 953.866 180.918 953.866 185.052C953.866 189.208 951.777 191.164 948.265 191.164C944.754 191.164 942.687 189.208 942.687 185.052ZM959.87 174.317C960.426 174.317 960.803 174.339 961.27 174.428V176.184C959.092 175.872 958.581 176.65 958.581 178.006V179.34H961.026V181.073H958.581V190.852H956.492V181.073H955.136V179.34H956.492V178.228C956.492 177.895 956.492 177.628 956.514 177.206C956.625 175.45 957.67 174.317 959.87 174.317ZM969.79 187.83C969.79 189.386 970.012 189.519 971.279 189.386V190.897C970.901 190.964 970.279 191.008 969.857 191.008C968.368 191.008 967.812 190.43 967.745 189.119C967.701 188.608 967.701 188.163 967.701 187.319V174.628H969.79V187.83ZM974.709 185.052C974.709 188.163 975.976 189.363 978.109 189.363C980.243 189.363 981.51 188.163 981.51 185.052C981.51 181.962 980.243 180.784 978.109 180.784C975.976 180.784 974.709 181.962 974.709 185.052ZM972.531 185.052C972.531 180.918 974.598 178.962 978.109 178.962C981.621 178.962 983.71 180.918 983.71 185.052C983.71 189.208 981.621 191.164 978.109 191.164C974.598 191.164 972.531 189.208 972.531 185.052ZM991.778 178.962C994.156 178.962 995.601 179.895 995.867 182.096C995.934 182.696 995.956 183.185 995.956 184.14V190.852H993.867V184.051C993.867 182.096 993.445 180.806 991.133 180.806C989.422 180.762 988.133 181.962 988.133 184.563V190.852H986.044V179.273H987.977L988.044 181.34C988.422 179.606 989.911 178.962 991.778 178.962ZM1009.14 187.696C1009.14 189.141 1009.14 189.897 1009.12 190.608C1009.01 193.72 1007.14 195.386 1003.79 195.386C1001.1 195.386 998.852 194.697 998.607 191.497H1000.67C1000.96 193.186 1002.16 193.586 1003.79 193.586C1006.12 193.586 1007.05 192.23 1007.05 190.408V188.208C1006.74 190.03 1005.45 190.764 1003.3 190.764C999.852 190.764 998.296 188.385 998.296 184.874C998.296 181.118 1000.16 178.962 1003.43 178.962C1005.39 178.962 1006.7 179.54 1007.14 181.118L1007.21 179.273H1009.14V187.696ZM1000.56 184.874C1000.56 187.141 1001.45 188.941 1003.74 188.941C1005.63 188.941 1007.05 187.919 1007.05 185.074V184.451C1007.05 181.651 1005.36 180.784 1003.81 180.784C1001.65 180.784 1000.56 182.384 1000.56 184.874ZM1022.62 178.962C1025 178.962 1026.44 179.895 1026.71 182.096C1026.78 182.696 1026.8 183.185 1026.8 184.14V190.852H1024.71V184.051C1024.71 182.096 1024.29 180.806 1021.98 180.806C1020.26 180.762 1018.98 181.962 1018.98 184.563V190.852H1016.89V179.273H1018.82L1018.89 181.34C1019.26 179.606 1020.75 178.962 1022.62 178.962ZM1031.1 185.052C1031.1 188.163 1032.36 189.363 1034.5 189.363C1036.63 189.363 1037.9 188.163 1037.9 185.052C1037.9 181.962 1036.63 180.784 1034.5 180.784C1032.36 180.784 1031.1 181.962 1031.1 185.052ZM1028.92 185.052C1028.92 180.918 1030.99 178.962 1034.5 178.962C1038.01 178.962 1040.1 180.918 1040.1 185.052C1040.1 189.208 1038.01 191.164 1034.5 191.164C1030.99 191.164 1028.92 189.208 1028.92 185.052ZM1045.08 187.407C1045.08 189.208 1045.46 189.386 1047.66 189.23V190.964C1047.1 191.03 1046.55 191.075 1045.82 191.075C1043.86 191.075 1043.15 190.252 1043.06 188.941C1043.01 188.341 1043.01 187.896 1043.01 187.23V181.073H1041.44V179.34H1043.01V175.806H1045.08V179.34H1047.7V181.073H1045.08V187.407ZM1054.46 178.962C1058.02 178.962 1059.55 181.407 1059.55 184.852C1059.55 185.096 1059.55 185.429 1059.53 185.763H1051.24C1051.42 188.385 1052.53 189.363 1054.46 189.363C1056 189.363 1057 188.697 1057.33 187.43H1059.4C1058.95 189.808 1057.17 191.164 1054.4 191.164C1050.88 191.164 1049.08 189.074 1049.08 185.096C1049.08 181.14 1050.88 178.962 1054.46 178.962ZM1051.26 184.096H1057.42C1057.26 181.673 1056.06 180.784 1054.37 180.784C1052.57 180.784 1051.44 181.629 1051.26 184.096ZM1066.12 178.962C1069.1 178.962 1070.59 180.162 1070.72 182.673H1068.65C1068.48 181.207 1067.52 180.74 1066.08 180.74C1064.83 180.74 1063.81 181.251 1063.81 182.251C1063.81 183.296 1064.63 183.807 1066.61 184.096C1069.65 184.54 1071.01 185.563 1071.01 187.719C1071.01 189.941 1069.05 191.164 1066.41 191.164C1063.32 191.164 1061.65 190.075 1061.34 187.407H1063.41C1063.7 188.897 1064.56 189.386 1066.48 189.386C1067.94 189.386 1068.9 188.852 1068.9 187.874C1068.9 186.807 1068.08 186.229 1065.81 185.896C1063.07 185.474 1061.7 184.585 1061.7 182.362C1061.7 180.362 1063.45 178.962 1066.12 178.962Z" fill="#909090"/>
</g>
<g filter="url(#filter3_d_440_4126)">
<rect x="574.701" y="13.6547" width="375.676" height="88.8311" rx="23.4508" fill="white" shape-rendering="crispEdges"/>
<rect x="575.482" y="14.4364" width="374.113" height="87.2677" rx="22.6691" stroke="#E0E7F5" stroke-width="1.56339" shape-rendering="crispEdges"/>
<rect x="590.334" y="33.056" width="50.0284" height="50.0284" rx="25.0142" fill="url(#paint3_linear_440_4126)"/>
<path d="M625.771 58.0702C625.771 63.8263 621.104 68.4927 615.348 68.4927C609.592 68.4927 604.926 63.8263 604.926 58.0702C604.926 52.3141 609.592 47.6476 615.348 47.6476C621.104 47.6476 625.771 52.3141 625.771 58.0702ZM620.361 56.6489H616.296V50.8966L610.336 59.4914H614.401V65.2437L620.361 56.6489Z" fill="white"/>
<path d="M653.288 35.3302V46.7619H659.767V48.2885H651.584V35.3302H653.288ZM663.145 39.0402V48.2885H661.476V39.0402H663.145ZM661.299 36.3065C661.299 35.7385 661.743 35.2947 662.293 35.2947C662.861 35.2947 663.305 35.7385 663.305 36.3065C663.305 36.8568 662.861 37.3006 662.293 37.3006C661.743 37.3006 661.299 36.8568 661.299 36.3065ZM673.442 45.7678C673.442 46.9216 673.442 47.5252 673.424 48.0932C673.335 50.5783 671.844 51.9097 669.164 51.9097C667.016 51.9097 665.223 51.3594 665.028 48.8032H666.678C666.909 50.1523 667.868 50.4718 669.164 50.4718C671.027 50.4718 671.773 49.389 671.773 47.9334V46.1761C671.524 47.6317 670.495 48.2174 668.773 48.2174C666.022 48.2174 664.779 46.3181 664.779 43.5134C664.779 40.5135 666.27 38.7916 668.88 38.7916C670.442 38.7916 671.489 39.2532 671.844 40.5135L671.897 39.0402H673.442V45.7678ZM666.59 43.5134C666.59 45.324 667.3 46.7619 669.128 46.7619C670.637 46.7619 671.773 45.9453 671.773 43.6732V43.1762C671.773 40.9395 670.424 40.2472 669.181 40.2472C667.459 40.2472 666.59 41.5253 666.59 43.5134ZM677.412 35.3302V40.5668C677.749 39.2709 678.867 38.7916 680.323 38.7916C682.222 38.7916 683.376 39.5372 683.589 41.2945C683.642 41.7738 683.66 42.1643 683.66 42.9276V48.2885H681.991V42.8566C681.991 41.2945 681.654 40.265 679.808 40.265C678.441 40.2295 677.412 41.188 677.412 43.2649V48.2885H675.743V35.3302H677.412ZM688.087 45.537C688.087 46.9749 688.389 47.1169 690.146 46.9926V48.3772C689.702 48.4305 689.258 48.466 688.673 48.466C687.111 48.466 686.543 47.8092 686.472 46.7619C686.436 46.2826 686.436 45.9276 686.436 45.395V40.478H685.176V39.0934H686.436V36.271H688.087V39.0934H690.181V40.478H688.087V45.537ZM696.358 38.7916C698.257 38.7916 699.411 39.5372 699.624 41.2945C699.677 41.7738 699.695 42.1643 699.695 42.9276V48.2885H698.026V42.8566C698.026 41.2945 697.689 40.265 695.843 40.265C694.476 40.2295 693.447 41.188 693.447 43.2649V48.2885H691.778V39.0402H693.322L693.376 40.691C693.677 39.3064 694.867 38.7916 696.358 38.7916ZM703.588 39.0402V48.2885H701.919V39.0402H703.588ZM701.741 36.3065C701.741 35.7385 702.185 35.2947 702.735 35.2947C703.304 35.2947 703.747 35.7385 703.747 36.3065C703.747 36.8568 703.304 37.3006 702.735 37.3006C702.185 37.3006 701.741 36.8568 701.741 36.3065ZM710.451 38.7916C712.35 38.7916 713.504 39.5372 713.717 41.2945C713.771 41.7738 713.788 42.1643 713.788 42.9276V48.2885H712.12V42.8566C712.12 41.2945 711.782 40.265 709.936 40.265C708.569 40.2295 707.54 41.188 707.54 43.2649V48.2885H705.871V39.0402H707.416L707.469 40.691C707.771 39.3064 708.96 38.7916 710.451 38.7916ZM724.32 45.7678C724.32 46.9216 724.32 47.5252 724.302 48.0932C724.213 50.5783 722.722 51.9097 720.042 51.9097C717.894 51.9097 716.101 51.3594 715.906 48.8032H717.557C717.787 50.1523 718.746 50.4718 720.042 50.4718C721.906 50.4718 722.651 49.389 722.651 47.9334V46.1761C722.403 47.6317 721.373 48.2174 719.651 48.2174C716.9 48.2174 715.657 46.3181 715.657 43.5134C715.657 40.5135 717.148 38.7916 719.758 38.7916C721.32 38.7916 722.367 39.2532 722.722 40.5135L722.775 39.0402H724.32V45.7678ZM717.468 43.5134C717.468 45.324 718.178 46.7619 720.006 46.7619C721.515 46.7619 722.651 45.9453 722.651 43.6732V43.1762C722.651 40.9395 721.302 40.2472 720.06 40.2472C718.338 40.2472 717.468 41.5253 717.468 43.5134ZM739.344 35.3302V36.8568H732.439V41.188H738.972V42.6969H732.439V48.2885H730.735V35.3302H739.344ZM744.337 38.7916C746.769 38.7916 747.763 39.8922 747.887 41.5076C747.922 41.9868 747.94 42.3419 747.94 42.8744V48.2885H746.414L746.325 46.9216C745.81 48.1642 744.603 48.537 743.254 48.537C741.497 48.537 740.218 47.5784 740.218 45.8211C740.218 43.4424 742.224 42.7146 745.792 42.7146H746.272V42.2531C746.272 41.0815 745.97 40.2472 744.266 40.2472C742.899 40.2472 742.224 40.7088 742.065 41.8626H740.538C740.627 40.0342 741.692 38.7916 744.337 38.7916ZM741.905 45.6258C741.905 46.5489 742.544 47.0991 743.751 47.0991C745.064 47.0991 746.272 46.2648 746.272 45.0045V44.0637C743.698 43.9927 741.905 44.1702 741.905 45.6258ZM753.341 38.7916C755.719 38.7916 756.908 39.7502 757.015 41.7561H755.364C755.222 40.5845 754.459 40.2117 753.305 40.2117C752.311 40.2117 751.494 40.62 751.494 41.4188C751.494 42.2531 752.151 42.6614 753.731 42.8921C756.163 43.2472 757.246 44.0637 757.246 45.7856C757.246 47.5607 755.684 48.537 753.571 48.537C751.104 48.537 749.773 47.6672 749.524 45.537H751.175C751.406 46.7264 752.098 47.1169 753.625 47.1169C754.796 47.1169 755.559 46.6909 755.559 45.9098C755.559 45.0578 754.903 44.5962 753.092 44.33C750.909 43.9927 749.808 43.2827 749.808 41.5076C749.808 39.91 751.21 38.7916 753.341 38.7916ZM761.206 45.537C761.206 46.9749 761.508 47.1169 763.265 46.9926V48.3772C762.821 48.4305 762.377 48.466 761.792 48.466C760.23 48.466 759.662 47.8092 759.591 46.7619C759.555 46.2826 759.555 45.9276 759.555 45.395V40.478H758.295V39.0934H759.555V36.271H761.206V39.0934H763.3V40.478H761.206V45.537Z" fill="black"/>
<path d="M659.676 63.6272L665.699 79.8519H663.432L661.676 75.0734H655.075L653.319 79.8519H651.074L657.186 63.6272H659.676ZM655.697 73.162H661.098L658.409 65.6497L655.697 73.162ZM672.331 67.9612C675.554 67.9612 676.998 69.6281 677.176 72.0507H675.109C674.998 70.6282 673.976 69.7837 672.287 69.7837C670.286 69.7837 669.042 71.0283 669.042 74.0288C669.042 76.9625 670.131 78.3628 672.242 78.3628C673.754 78.3628 674.909 77.4293 675.109 76.0735H677.176C676.865 78.5183 675.154 80.163 672.131 80.163C668.531 80.163 666.864 77.8738 666.864 74.0732C666.864 70.1393 668.619 67.9612 672.331 67.9612ZM684.312 67.9612C687.535 67.9612 688.979 69.6281 689.157 72.0507H687.09C686.979 70.6282 685.957 69.7837 684.268 69.7837C682.267 69.7837 681.023 71.0283 681.023 74.0288C681.023 76.9625 682.112 78.3628 684.223 78.3628C685.735 78.3628 686.89 77.4293 687.09 76.0735H689.157C688.846 78.5183 687.135 80.163 684.112 80.163C680.511 80.163 678.845 77.8738 678.845 74.0732C678.845 70.1393 680.6 67.9612 684.312 67.9612ZM696.204 67.9612C699.76 67.9612 701.294 70.406 701.294 73.851C701.294 74.0954 701.294 74.4288 701.272 74.7622H692.981C693.159 77.3848 694.271 78.3628 696.204 78.3628C697.738 78.3628 698.738 77.696 699.071 76.4291H701.138C700.694 78.8073 698.916 80.163 696.137 80.163C692.626 80.163 690.826 78.0738 690.826 74.0954C690.826 70.1393 692.626 67.9612 696.204 67.9612ZM693.004 73.0953H699.16C699.005 70.6727 697.804 69.7837 696.115 69.7837C694.315 69.7837 693.181 70.6282 693.004 73.0953ZM707.862 67.9612C710.84 67.9612 712.329 69.1614 712.463 71.6728H710.396C710.218 70.206 709.262 69.7392 707.818 69.7392C706.573 69.7392 705.551 70.2504 705.551 71.2506C705.551 72.2952 706.373 72.8064 708.351 73.0953C711.396 73.5398 712.752 74.5622 712.752 76.7181C712.752 78.9406 710.796 80.163 708.151 80.163C705.062 80.163 703.395 79.074 703.083 76.4069H705.15C705.439 77.896 706.306 78.385 708.218 78.385C709.684 78.385 710.64 77.8516 710.64 76.8736C710.64 75.8068 709.818 75.2289 707.551 74.8956C704.817 74.4733 703.439 73.5842 703.439 71.3617C703.439 69.3614 705.195 67.9612 707.862 67.9612ZM719.083 67.9612C722.062 67.9612 723.551 69.1614 723.684 71.6728H721.617C721.439 70.206 720.484 69.7392 719.039 69.7392C717.794 69.7392 716.772 70.2504 716.772 71.2506C716.772 72.2952 717.594 72.8064 719.572 73.0953C722.617 73.5398 723.973 74.5622 723.973 76.7181C723.973 78.9406 722.017 80.163 719.372 80.163C716.283 80.163 714.616 79.074 714.305 76.4069H716.372C716.661 77.896 717.528 78.385 719.439 78.385C720.906 78.385 721.862 77.8516 721.862 76.8736C721.862 75.8068 721.039 75.2289 718.772 74.8956C716.038 74.4733 714.66 73.5842 714.66 71.3617C714.66 69.3614 716.416 67.9612 719.083 67.9612ZM736.592 79.8519C735.014 83.8525 733.903 84.5192 731.614 84.5192C731.191 84.5192 730.88 84.497 730.524 84.4081V82.6523C730.902 82.6967 731.302 82.719 731.702 82.719C732.658 82.719 733.458 82.3634 734.081 80.8076L734.303 80.2075L729.658 68.2723H732.102L735.459 78.0738L739.015 68.2723H741.237L736.592 79.8519ZM743.988 74.051C743.988 77.1626 745.255 78.3628 747.388 78.3628C749.522 78.3628 750.789 77.1626 750.789 74.051C750.789 70.9616 749.522 69.7837 747.388 69.7837C745.255 69.7837 743.988 70.9616 743.988 74.051ZM741.81 74.051C741.81 69.917 743.877 67.9612 747.388 67.9612C750.9 67.9612 752.989 69.917 752.989 74.051C752.989 78.2072 750.9 80.163 747.388 80.163C743.877 80.163 741.81 78.2072 741.81 74.051ZM759.08 80.163C756.813 80.163 755.369 79.2073 755.124 77.007C755.035 76.4069 755.013 75.9402 755.013 74.9845V68.2723H757.102V75.1178C757.102 77.0514 757.569 78.3628 759.769 78.3628C761.503 78.3628 762.792 77.1626 762.792 74.6066V68.2723H764.881V79.8519H762.97L762.881 77.8738C762.392 79.4963 761.014 80.163 759.08 80.163ZM773.004 67.9612C773.315 67.9612 773.56 67.9612 773.782 68.0278V69.7837C771.226 69.5392 769.87 70.9172 769.87 74.4288V79.8519H767.781V68.2723H769.715L769.781 70.5171C770.026 68.7613 771.359 67.9612 773.004 67.9612ZM786.234 67.9612C788.612 67.9612 790.057 68.8946 790.324 71.095C790.391 71.6951 790.413 72.184 790.413 73.1397V79.8519H788.324V73.0508C788.324 71.095 787.901 69.8059 785.59 69.8059C783.878 69.7614 782.589 70.9616 782.589 73.562V79.8519H780.5V68.2723H782.434L782.5 70.3393C782.878 68.6057 784.367 67.9612 786.234 67.9612ZM794.712 74.051C794.712 77.1626 795.979 78.3628 798.112 78.3628C800.246 78.3628 801.513 77.1626 801.513 74.051C801.513 70.9616 800.246 69.7837 798.112 69.7837C795.979 69.7837 794.712 70.9616 794.712 74.051ZM792.534 74.051C792.534 69.917 794.601 67.9612 798.112 67.9612C801.624 67.9612 803.713 69.917 803.713 74.051C803.713 78.2072 801.624 80.163 798.112 80.163C794.601 80.163 792.534 78.2072 792.534 74.051ZM808.696 76.4069C808.696 78.2072 809.074 78.385 811.274 78.2294V79.963C810.719 80.0297 810.163 80.0741 809.43 80.0741C807.474 80.0741 806.762 79.2518 806.674 77.9405C806.629 77.3404 806.629 76.8959 806.629 76.2291V70.0726H805.051V68.339H806.629V64.8051H808.696V68.339H811.319V70.0726H808.696V76.4069ZM818.076 67.9612C821.632 67.9612 823.166 70.406 823.166 73.851C823.166 74.0954 823.166 74.4288 823.143 74.7622H814.853C815.031 77.3848 816.142 78.3628 818.076 78.3628C819.61 78.3628 820.61 77.696 820.943 76.4291H823.01C822.566 78.8073 820.787 80.163 818.009 80.163C814.498 80.163 812.697 78.0738 812.697 74.0954C812.697 70.1393 814.498 67.9612 818.076 67.9612ZM814.875 73.0953H821.032C820.876 70.6727 819.676 69.7837 817.987 69.7837C816.187 69.7837 815.053 70.6282 814.875 73.0953ZM829.734 67.9612C832.712 67.9612 834.201 69.1614 834.335 71.6728H832.268C832.09 70.206 831.134 69.7392 829.689 69.7392C828.445 69.7392 827.422 70.2504 827.422 71.2506C827.422 72.2952 828.245 72.8064 830.223 73.0953C833.268 73.5398 834.623 74.5622 834.623 76.7181C834.623 78.9406 832.668 80.163 830.023 80.163C826.933 80.163 825.266 79.074 824.955 76.4069H827.022C827.311 77.896 828.178 78.385 830.089 78.385C831.556 78.385 832.512 77.8516 832.512 76.8736C832.512 75.8068 831.69 75.2289 829.423 74.8956C826.689 74.4733 825.311 73.5842 825.311 71.3617C825.311 69.3614 827.067 67.9612 829.734 67.9612ZM843.753 68.2723V79.8519H841.664V68.2723H843.753ZM841.442 64.8496C841.442 64.1384 841.997 63.5827 842.686 63.5827C843.398 63.5827 843.953 64.1384 843.953 64.8496C843.953 65.5386 843.398 66.0942 842.686 66.0942C841.997 66.0942 841.442 65.5386 841.442 64.8496ZM852.347 67.9612C854.725 67.9612 856.17 68.8946 856.436 71.095C856.503 71.6951 856.525 72.184 856.525 73.1397V79.8519H854.436V73.0508C854.436 71.095 854.014 69.8059 851.702 69.8059C849.991 69.7614 848.702 70.9616 848.702 73.562V79.8519H846.613V68.2723H848.546L848.613 70.3393C848.991 68.6057 850.48 67.9612 852.347 67.9612ZM863.333 67.9612C866.311 67.9612 867.8 69.1614 867.933 71.6728H865.866C865.689 70.206 864.733 69.7392 863.288 69.7392C862.044 69.7392 861.021 70.2504 861.021 71.2506C861.021 72.2952 861.844 72.8064 863.822 73.0953C866.867 73.5398 868.222 74.5622 868.222 76.7181C868.222 78.9406 866.266 80.163 863.622 80.163C860.532 80.163 858.865 79.074 858.554 76.4069H860.621C860.91 77.896 861.777 78.385 863.688 78.385C865.155 78.385 866.111 77.8516 866.111 76.8736C866.111 75.8068 865.289 75.2289 863.021 74.8956C860.288 74.4733 858.91 73.5842 858.91 71.3617C858.91 69.3614 860.666 67.9612 863.333 67.9612ZM873.181 76.4069C873.181 78.2072 873.559 78.385 875.759 78.2294V79.963C875.203 80.0297 874.648 80.0741 873.914 80.0741C871.958 80.0741 871.247 79.2518 871.158 77.9405C871.114 77.3404 871.114 76.8959 871.114 76.2291V70.0726H869.536V68.339H871.114V64.8051H873.181V68.339H875.803V70.0726H873.181V76.4069ZM882.381 67.9612C885.426 67.9612 886.67 69.3392 886.826 71.3617C886.87 71.9618 886.892 72.4063 886.892 73.0731V79.8519H884.981L884.87 78.1405C884.225 79.6963 882.714 80.163 881.025 80.163C878.825 80.163 877.224 78.9628 877.224 76.7625C877.224 73.7843 879.736 72.873 884.203 72.873H884.803V72.2952C884.803 70.8283 884.425 69.7837 882.292 69.7837C880.58 69.7837 879.736 70.3615 879.536 71.8062H877.624C877.736 69.517 879.069 67.9612 882.381 67.9612ZM879.336 76.518C879.336 77.6738 880.136 78.3628 881.647 78.3628C883.292 78.3628 884.803 77.3181 884.803 75.7401V74.5622C881.581 74.4733 879.336 74.6955 879.336 76.518ZM895.365 67.9612C897.744 67.9612 899.188 68.8946 899.455 71.095C899.522 71.6951 899.544 72.184 899.544 73.1397V79.8519H897.455V73.0508C897.455 71.095 897.032 69.8059 894.721 69.8059C893.01 69.7614 891.72 70.9616 891.72 73.562V79.8519H889.631V68.2723H891.565L891.632 70.3393C892.009 68.6057 893.499 67.9612 895.365 67.9612ZM905.087 76.4069C905.087 78.2072 905.464 78.385 907.665 78.2294V79.963C907.109 80.0297 906.553 80.0741 905.82 80.0741C903.864 80.0741 903.153 79.2518 903.064 77.9405C903.02 77.3404 903.02 76.8959 903.02 76.2291V70.0726H901.442V68.339H903.02V64.8051H905.087V68.339H907.709V70.0726H905.087V76.4069ZM911.708 76.8292C911.708 78.385 911.931 78.5183 913.198 78.385V79.8963C912.82 79.963 912.197 80.0074 911.775 80.0074C910.286 80.0074 909.73 79.4296 909.664 78.1183C909.619 77.6071 909.619 77.1626 909.619 76.318V63.6272H911.708V76.8292ZM920.496 79.8519C918.918 83.8525 917.807 84.5192 915.517 84.5192C915.095 84.5192 914.784 84.497 914.428 84.4081V82.6523C914.806 82.6967 915.206 82.719 915.606 82.719C916.562 82.719 917.362 82.3634 917.984 80.8076L918.207 80.2075L913.561 68.2723H916.006L919.362 78.0738L922.918 68.2723H925.141L920.496 79.8519Z" fill="#909090"/>
</g>
<defs>
<filter id="filter0_d_440_4126" x="5.60284e-05" y="120.59" width="567.834" height="146.989" filterUnits="userSpaceOnUse" color-interpolation-filters="sRGB">
<feFlood flood-opacity="0" result="BackgroundImageFix"/>
<feColorMatrix in="SourceAlpha" type="matrix" values="0 0 0 0 0 0 0 0 0 0 0 0 0 0 0 0 0 0 127 0" result="hardAlpha"/>
<feMorphology radius="3.12677" operator="erode" in="SourceAlpha" result="effect1_dropShadow_440_4126"/>
<feOffset dx="9.38032" dy="25.0142"/>
<feGaussianBlur stdDeviation="16.1029"/>
<feComposite in2="hardAlpha" operator="out"/>
<feColorMatrix type="matrix" values="0 0 0 0 0 0 0 0 0 0 0 0 0 0 0 0 0 0 0.07 0"/>
<feBlend mode="normal" in2="BackgroundImageFix" result="effect1_dropShadow_440_4126"/>
<feBlend mode="normal" in="SourceGraphic" in2="effect1_dropShadow_440_4126" result="shape"/>
</filter>
<filter id="filter1_d_440_4126" x="103.184" y="9.58986" width="464.834" height="146.989" filterUnits="userSpaceOnUse" color-interpolation-filters="sRGB">
<feFlood flood-opacity="0" result="BackgroundImageFix"/>
<feColorMatrix in="SourceAlpha" type="matrix" values="0 0 0 0 0 0 0 0 0 0 0 0 0 0 0 0 0 0 127 0" result="hardAlpha"/>
<feMorphology radius="3.12677" operator="erode" in="SourceAlpha" result="effect1_dropShadow_440_4126"/>
<feOffset dx="9.38032" dy="25.0142"/>
<feGaussianBlur stdDeviation="16.1029"/>
<feComposite in2="hardAlpha" operator="out"/>
<feColorMatrix type="matrix" values="0 0 0 0 0 0 0 0 0 0 0 0 0 0 0 0 0 0 0.07 0"/>
<feBlend mode="normal" in2="BackgroundImageFix" result="effect1_dropShadow_440_4126"/>
<feBlend mode="normal" in="SourceGraphic" in2="effect1_dropShadow_440_4126" result="shape"/>
</filter>
<filter id="filter2_d_440_4126" x="555.002" y="120.59" width="570.834" height="146.989" filterUnits="userSpaceOnUse" color-interpolation-filters="sRGB">
<feFlood flood-opacity="0" result="BackgroundImageFix"/>
<feColorMatrix in="SourceAlpha" type="matrix" values="0 0 0 0 0 0 0 0 0 0 0 0 0 0 0 0 0 0 127 0" result="hardAlpha"/>
<feMorphology radius="3.12677" operator="erode" in="SourceAlpha" result="effect1_dropShadow_440_4126"/>
<feOffset dx="9.38032" dy="25.0142"/>
<feGaussianBlur stdDeviation="16.1029"/>
<feComposite in2="hardAlpha" operator="out"/>
<feColorMatrix type="matrix" values="0 0 0 0 0 0 0 0 0 0 0 0 0 0 0 0 0 0 0.07 0"/>
<feBlend mode="normal" in2="BackgroundImageFix" result="effect1_dropShadow_440_4126"/>
<feBlend mode="normal" in="SourceGraphic" in2="effect1_dropShadow_440_4126" result="shape"/>
</filter>
<filter id="filter3_d_440_4126" x="555.002" y="9.58986" width="433.834" height="146.989" filterUnits="userSpaceOnUse" color-interpolation-filters="sRGB">
<feFlood flood-opacity="0" result="BackgroundImageFix"/>
<feColorMatrix in="SourceAlpha" type="matrix" values="0 0 0 0 0 0 0 0 0 0 0 0 0 0 0 0 0 0 127 0" result="hardAlpha"/>
<feMorphology radius="3.12677" operator="erode" in="SourceAlpha" result="effect1_dropShadow_440_4126"/>
<feOffset dx="9.38032" dy="25.0142"/>
<feGaussianBlur stdDeviation="16.1029"/>
<feComposite in2="hardAlpha" operator="out"/>
<feColorMatrix type="matrix" values="0 0 0 0 0 0 0 0 0 0 0 0 0 0 0 0 0 0 0.07 0"/>
<feBlend mode="normal" in2="BackgroundImageFix" result="effect1_dropShadow_440_4126"/>
<feBlend mode="normal" in="SourceGraphic" in2="effect1_dropShadow_440_4126" result="shape"/>
</filter>
<linearGradient id="paint0_linear_440_4126" x1="59.1764" y1="175.324" x2="59.1764" y2="144.057" gradientUnits="userSpaceOnUse">
<stop stop-color="#7050F0"/>
<stop offset="1" stop-color="#9E8CE8"/>
</linearGradient>
<linearGradient id="paint1_linear_440_4126" x1="162.36" y1="64.3238" x2="162.36" y2="33.056" gradientUnits="userSpaceOnUse">
<stop stop-color="#7050F0"/>
<stop offset="1" stop-color="#9E8CE8"/>
</linearGradient>
<linearGradient id="paint2_linear_440_4126" x1="614.178" y1="175.324" x2="614.178" y2="144.057" gradientUnits="userSpaceOnUse">
<stop stop-color="#7050F0"/>
<stop offset="1" stop-color="#9E8CE8"/>
</linearGradient>
<linearGradient id="paint3_linear_440_4126" x1="614.178" y1="64.3238" x2="614.178" y2="33.056" gradientUnits="userSpaceOnUse">
<stop stop-color="#7050F0"/>
<stop offset="1" stop-color="#9E8CE8"/>
</linearGradient>
<clipPath id="clip0_440_4126">
<rect width="22.7402" height="22.7402" fill="white" transform="translate(152.16 46.7001)"/>
</clipPath>
<clipPath id="clip1_440_4126">
<rect width="22.7402" height="22.7402" fill="white" transform="translate(603.979 157.701)"/>
</clipPath>
</defs>
</svg>
