<svg width="121" height="67" viewBox="0 0 121 67" fill="none" xmlns="http://www.w3.org/2000/svg">
<g filter="url(#filter0_i_389_60426)">
<path d="M0 26.6327C0 24.2073 1.96617 22.2411 4.39156 22.2411H103.567C105.992 22.2411 107.958 24.2073 107.958 26.6327V51.9686C107.958 54.394 105.992 56.3602 103.567 56.3602H4.39156C1.96617 56.3602 0 54.394 0 51.9686V26.6327Z" fill="url(#paint0_linear_389_60426)"/>
<path d="M4.3916 22.4101H103.567C105.899 22.4104 107.789 24.3008 107.789 26.6328V51.9687C107.789 54.3006 105.899 56.1911 103.567 56.1913H4.3916C2.05952 56.1913 0.168991 54.3008 0.168945 51.9687V26.6328C0.168945 24.3006 2.0595 22.4101 4.3916 22.4101Z" stroke="#573DC1" stroke-width="0.337812"/>
<path d="M29.0901 31.7579V33.5301H21.1772V38.3314H28.6574V40.1035H21.1772V45.0285H29.2756V46.8007H19.199V31.7579H29.0901ZM34.7302 31.4694C35.2454 31.4694 35.5957 31.49 36.0284 31.5724V33.2003C34.009 32.9119 33.535 33.6331 33.535 34.8901V36.1265H35.8017V37.7338H33.535V46.8007H31.598V37.7338H30.341V36.1265H31.598V35.0961C31.598 34.7871 31.598 34.5398 31.6186 34.1482C31.7217 32.5203 32.6902 31.4694 34.7302 31.4694ZM37.3678 32.8912C37.3678 32.2318 37.883 31.7167 38.5218 31.7167C39.1812 31.7167 39.6964 32.2318 39.6964 32.8912C39.6964 33.5301 39.1812 34.0452 38.5218 34.0452C37.883 34.0452 37.3678 33.5301 37.3678 32.8912ZM37.5739 46.8007V36.0647H39.5109V46.8007H37.5739ZM44.1109 36.0647V46.8007H42.1738V36.0647H44.1109ZM41.9678 32.8912C41.9678 32.2318 42.4829 31.7167 43.1217 31.7167C43.7811 31.7167 44.2963 32.2318 44.2963 32.8912C44.2963 33.5301 43.7811 34.0452 43.1217 34.0452C42.4829 34.0452 41.9678 33.5301 41.9678 32.8912ZM51.1354 35.7762C54.1234 35.7762 55.4628 37.3217 55.6276 39.5678H53.7112C53.6082 38.2489 52.6603 37.4659 51.0942 37.4659C49.2396 37.4659 48.0857 38.6199 48.0857 41.4017C48.0857 44.1218 49.0954 45.42 51.053 45.42C52.4542 45.42 53.5258 44.5545 53.7112 43.2975H55.6276C55.3392 45.5643 53.7525 47.0892 50.95 47.0892C47.6117 47.0892 46.0662 44.9667 46.0662 41.443C46.0662 37.7956 47.6941 35.7762 51.1354 35.7762ZM59.4853 36.0647V46.8007H57.5482V36.0647H59.4853ZM57.3422 32.8912C57.3422 32.2318 57.8573 31.7167 58.4961 31.7167C59.1556 31.7167 59.6707 32.2318 59.6707 32.8912C59.6707 33.5301 59.1556 34.0452 58.4961 34.0452C57.8573 34.0452 57.3422 33.5301 57.3422 32.8912ZM66.4274 35.7762C69.7244 35.7762 71.1463 38.0429 71.1463 41.2369C71.1463 41.4636 71.1463 41.7727 71.1257 42.0818H63.4395C63.6043 44.5133 64.6346 45.42 66.4274 45.42C67.8493 45.42 68.7765 44.8018 69.0856 43.6273H71.0021C70.5899 45.8322 68.9414 47.0892 66.3656 47.0892C63.1097 47.0892 61.4406 45.1521 61.4406 41.4636C61.4406 37.7956 63.1097 35.7762 66.4274 35.7762ZM63.4601 40.5363H69.1681C69.0238 38.2902 67.9111 37.4659 66.345 37.4659C64.6758 37.4659 63.6249 38.2489 63.4601 40.5363ZM78.5209 35.7762C80.7258 35.7762 82.0652 36.6416 82.3125 38.6817C82.3743 39.2381 82.3949 39.6914 82.3949 40.5775V46.8007H80.4579V40.4951C80.4579 38.6817 80.0664 37.4865 77.9233 37.4865C76.3366 37.4453 75.1414 38.558 75.1414 40.969V46.8007H73.2044V36.0647H74.9971L75.059 37.9811C75.4093 36.3738 76.7899 35.7762 78.5209 35.7762ZM87.5338 43.6066C87.5338 45.2758 87.8841 45.4406 89.9242 45.2964V46.9037C89.409 46.9655 88.8938 47.0067 88.2138 47.0067C86.4004 47.0067 85.741 46.2443 85.6586 45.0285C85.6174 44.4721 85.6174 44.06 85.6174 43.4418V37.7338H84.1543V36.1265H85.6174V32.85H87.5338V36.1265H89.9654V37.7338H87.5338V43.6066Z" fill="white"/>
</g>
<g filter="url(#filter1_i_389_60426)">
<path d="M120.262 2.0473C120.262 1.66709 120.157 1.2944 119.959 0.970973C119.761 0.647548 119.478 0.386175 119.141 0.216141C118.805 0.0461062 118.428 -0.0258714 118.053 0.00827346C117.678 0.0424183 117.32 0.181336 117.019 0.409461L100.808 12.6974C99.2519 13.8766 100.079 16.3825 102.025 16.3825H110.024C110.335 16.3823 110.641 16.4542 110.92 16.5927C111.199 16.7311 111.442 16.9324 111.632 17.181L116.63 23.763C117.807 25.3149 120.264 24.4735 120.264 22.5162L120.262 2.0473Z" fill="url(#paint1_linear_389_60426)"/>
</g>
<path d="M118.059 0.0693359C117.695 0.102432 117.348 0.236831 117.056 0.458008L100.846 12.7461C99.3351 13.8906 100.139 16.3213 102.025 16.3213H110.025C110.345 16.3211 110.66 16.3955 110.947 16.5381C111.234 16.6807 111.486 16.8876 111.681 17.1436L116.679 23.7256C117.82 25.2293 120.202 24.4162 120.202 22.5166L120.2 2.04688C120.2 1.67809 120.098 1.31655 119.906 1.00293C119.714 0.689283 119.44 0.435331 119.113 0.270508C118.787 0.105832 118.422 0.0362969 118.059 0.0693359Z" stroke="#573DC1" stroke-width="0.122841"/>
<defs>
<filter id="filter0_i_389_60426" x="0" y="22.2411" width="107.958" height="34.119" filterUnits="userSpaceOnUse" color-interpolation-filters="sRGB">
<feFlood flood-opacity="0" result="BackgroundImageFix"/>
<feBlend mode="normal" in="SourceGraphic" in2="BackgroundImageFix" result="shape"/>
<feColorMatrix in="SourceAlpha" type="matrix" values="0 0 0 0 0 0 0 0 0 0 0 0 0 0 0 0 0 0 127 0" result="hardAlpha"/>
<feMorphology radius="0.506718" operator="erode" in="SourceAlpha" result="effect1_innerShadow_389_60426"/>
<feOffset/>
<feComposite in2="hardAlpha" operator="arithmetic" k2="-1" k3="1"/>
<feColorMatrix type="matrix" values="0 0 0 0 1 0 0 0 0 1 0 0 0 0 1 0 0 0 0.26 0"/>
<feBlend mode="normal" in2="shape" result="effect1_innerShadow_389_60426"/>
</filter>
<filter id="filter1_i_389_60426" x="99.9951" y="0" width="20.2687" height="24.5681" filterUnits="userSpaceOnUse" color-interpolation-filters="sRGB">
<feFlood flood-opacity="0" result="BackgroundImageFix"/>
<feBlend mode="normal" in="SourceGraphic" in2="BackgroundImageFix" result="shape"/>
<feColorMatrix in="SourceAlpha" type="matrix" values="0 0 0 0 0 0 0 0 0 0 0 0 0 0 0 0 0 0 127 0" result="hardAlpha"/>
<feMorphology radius="0.921305" operator="erode" in="SourceAlpha" result="effect1_innerShadow_389_60426"/>
<feOffset/>
<feComposite in2="hardAlpha" operator="arithmetic" k2="-1" k3="1"/>
<feColorMatrix type="matrix" values="0 0 0 0 1 0 0 0 0 1 0 0 0 0 1 0 0 0 0.26 0"/>
<feBlend mode="normal" in2="shape" result="effect1_innerShadow_389_60426"/>
</filter>
<linearGradient id="paint0_linear_389_60426" x1="46.9385" y1="56.3602" x2="46.9385" y2="22.2411" gradientUnits="userSpaceOnUse">
<stop stop-color="#7050F0"/>
<stop offset="1" stop-color="#B7AAEE"/>
</linearGradient>
<linearGradient id="paint1_linear_389_60426" x1="111.451" y1="24.5681" x2="109.822" y2="-7.98465" gradientUnits="userSpaceOnUse">
<stop stop-color="#7050F0"/>
<stop offset="1" stop-color="#B7AAEE"/>
</linearGradient>
</defs>
</svg>
