<svg width="577" height="507" viewBox="0 0 577 507" fill="none" xmlns="http://www.w3.org/2000/svg">
<rect x="25.0715" y="0.374201" width="505.92" height="505.92" rx="252.96" fill="#F0ECFD"/>
<rect x="25.0715" y="0.374201" width="505.92" height="505.92" rx="252.96" stroke="#D8D8DB" stroke-width="0.748403"/>
<rect x="117.125" y="92.4277" width="321.813" height="321.813" rx="160.907" fill="#E0D9FC"/>
<rect x="117.125" y="92.4277" width="321.813" height="321.813" rx="160.907" stroke="#D8D8DB" stroke-width="0.748403"/>
<g filter="url(#filter0_i_440_8499)">
<rect x="197.578" y="180.98" width="160.907" height="144.708" rx="28.6674" fill="url(#paint0_linear_440_8499)"/>
<rect x="197.952" y="181.354" width="160.159" height="143.96" rx="28.2935" stroke="#573DC1" stroke-width="0.747846"/>
<path d="M274.967 235.512V299.97C274.968 300.124 274.923 300.275 274.839 300.404C274.755 300.533 274.634 300.635 274.492 300.696C274.351 300.757 274.195 300.775 274.043 300.748C273.892 300.721 273.751 300.651 273.64 300.545C265.475 292.828 251.844 291.557 238.255 291.557C234.768 291.557 232.136 288.768 232.136 285.07V248.358C232.136 252.056 234.767 254.845 238.254 254.845C251.843 254.845 265.475 256.116 273.64 263.833C273.752 263.939 273.892 264.01 274.043 264.037C274.195 264.064 274.351 264.045 274.492 263.984C274.634 263.923 274.754 263.822 274.838 263.693C274.922 263.564 274.967 263.413 274.966 263.259V235.479C274.966 235.49 274.967 235.501 274.967 235.512ZM323.924 230.367V285.435C323.924 287.058 323.279 288.614 322.132 289.761C320.985 290.909 319.428 291.553 317.805 291.553C295.885 291.552 287.271 295.629 282.363 300.505C282.257 300.608 282.123 300.678 281.978 300.706C281.832 300.734 281.682 300.717 281.545 300.66C281.409 300.603 281.293 300.506 281.211 300.383C281.129 300.259 281.085 300.115 281.085 299.967V263.256C281.085 263.403 281.128 263.548 281.21 263.672C281.292 263.795 281.409 263.891 281.545 263.948C281.682 264.005 281.832 264.022 281.978 263.994C282.123 263.966 282.257 263.896 282.363 263.793C287.271 258.917 295.885 254.84 317.805 254.842C319.428 254.842 320.984 254.197 322.131 253.05C323.279 251.902 323.923 250.346 323.923 248.723V230.333C323.923 230.344 323.924 230.356 323.924 230.367Z" fill="white"/>
<path d="M274.967 193.065V257.523C274.968 257.677 274.923 257.828 274.839 257.957C274.755 258.085 274.634 258.186 274.492 258.248C274.351 258.309 274.195 258.327 274.043 258.3C273.892 258.273 273.752 258.202 273.64 258.096C265.475 250.379 251.844 249.11 238.255 249.11C234.767 249.11 232.136 246.32 232.136 242.622V205.91C232.136 209.608 234.767 212.398 238.254 212.398C251.843 212.398 265.475 213.667 273.64 221.384C273.752 221.49 273.892 221.561 274.043 221.588C274.195 221.615 274.351 221.597 274.492 221.536C274.634 221.475 274.754 221.373 274.838 221.245C274.922 221.116 274.967 220.965 274.966 220.811V193.032C274.966 193.043 274.967 193.054 274.967 193.065ZM323.924 187.919V242.987C323.924 244.61 323.279 246.167 322.132 247.314C320.985 248.461 319.428 249.106 317.805 249.106C295.885 249.104 287.271 253.18 282.363 258.056C282.257 258.16 282.123 258.23 281.978 258.257C281.832 258.285 281.682 258.27 281.545 258.212C281.409 258.155 281.293 258.058 281.211 257.935C281.129 257.812 281.085 257.667 281.085 257.519V220.807C281.085 220.955 281.128 221.1 281.21 221.223C281.292 221.346 281.409 221.443 281.545 221.5C281.682 221.558 281.832 221.573 281.978 221.545C282.123 221.518 282.257 221.448 282.363 221.344C287.271 216.468 295.885 212.392 317.805 212.394C319.428 212.394 320.984 211.749 322.131 210.602C323.279 209.455 323.923 207.898 323.923 206.275V187.885C323.923 187.897 323.924 187.908 323.924 187.919Z" fill="white"/>
</g>
<rect x="433.162" y="121.079" width="52.7136" height="52.7136" rx="26.3568" fill="url(#paint1_linear_440_8499)"/>
<rect x="433.162" y="121.079" width="52.7136" height="52.7136" rx="26.3568" stroke="#573DC1" stroke-width="1.17141"/>
<path d="M453.338 147.067C455.238 144.264 457.065 142.628 457.065 142.628C457.065 142.628 455.051 140.288 452.626 139.403L452.468 139.365C450.428 141.149 449.139 143.639 448.86 146.334C448.582 149.029 449.334 151.73 450.966 153.894C450.966 153.683 450.994 150.531 453.338 147.067ZM470.235 147.435C470.236 145.907 469.91 144.395 469.278 143.003C468.645 141.611 467.722 140.371 466.571 139.365L466.417 139.408C463.992 140.293 461.973 142.633 461.973 142.633C461.973 142.633 463.801 144.269 465.7 147.072C468.044 150.535 468.073 153.688 468.068 153.898C469.478 152.039 470.24 149.769 470.235 147.435ZM456.898 139.059C458.299 139.686 459.51 140.714 459.51 140.714C459.51 140.714 460.729 139.69 462.131 139.059C463.892 138.27 465.236 138.518 465.59 138.605C463.803 137.377 461.687 136.72 459.519 136.72C457.352 136.72 455.235 137.377 453.449 138.605C453.793 138.518 455.132 138.265 456.898 139.059ZM464.432 149.201C462.217 146.479 459.51 144.709 459.51 144.709C459.51 144.709 456.816 146.479 454.597 149.201C452.693 151.54 451.985 153.257 451.602 154.358L451.54 154.587C452.545 155.709 453.775 156.605 455.15 157.219C456.525 157.833 458.013 158.151 459.519 158.151C461.025 158.151 462.514 157.833 463.889 157.219C465.264 156.605 466.494 155.709 467.499 154.587L467.432 154.358C467.049 153.257 466.336 151.54 464.432 149.201Z" fill="white"/>
<rect x="90.3941" y="83.6585" width="52.7136" height="52.7136" rx="26.3568" fill="url(#paint2_linear_440_8499)"/>
<rect x="90.3941" y="83.6585" width="52.7136" height="52.7136" rx="26.3568" stroke="#573DC1" stroke-width="1.17141"/>
<path d="M110.57 109.647C112.469 106.844 114.297 105.208 114.297 105.208C114.297 105.208 112.283 102.868 109.857 101.983L109.7 101.945C107.66 103.729 106.371 106.219 106.092 108.914C105.813 111.609 106.566 114.31 108.197 116.473C108.197 116.263 108.226 113.11 110.57 109.647ZM127.467 110.015C127.468 108.486 127.141 106.975 126.509 105.583C125.877 104.191 124.954 102.95 123.802 101.945L123.649 101.988C121.224 102.873 119.205 105.212 119.205 105.212C119.205 105.212 121.032 106.848 122.932 109.652C125.276 113.115 125.304 116.268 125.3 116.478C126.71 114.619 127.471 112.349 127.467 110.015ZM114.129 101.639C115.531 102.266 116.741 103.294 116.741 103.294C116.741 103.294 117.961 102.27 119.363 101.639C121.123 100.85 122.468 101.098 122.822 101.184C121.035 99.9567 118.918 99.2996 116.751 99.2996C114.583 99.2996 112.467 99.9567 110.68 101.184C111.025 101.098 112.364 100.845 114.129 101.639ZM121.664 111.781C119.449 109.059 116.741 107.289 116.741 107.289C116.741 107.289 114.048 109.059 111.828 111.781C109.924 114.12 109.216 115.837 108.834 116.938L108.771 117.167C109.776 118.288 111.007 119.185 112.381 119.799C113.756 120.413 115.245 120.731 116.751 120.731C118.257 120.731 119.745 120.413 121.12 119.799C122.495 119.185 123.725 118.288 124.73 117.167L124.663 116.938C124.281 115.837 123.568 114.12 121.664 111.781Z" fill="white"/>
<rect x="252.049" y="436.905" width="52.7136" height="52.7136" rx="26.3568" fill="url(#paint3_linear_440_8499)"/>
<rect x="252.049" y="436.905" width="52.7136" height="52.7136" rx="26.3568" stroke="#573DC1" stroke-width="1.17141"/>
<path d="M272.225 462.893C274.124 460.09 275.952 458.454 275.952 458.454C275.952 458.454 273.938 456.114 271.512 455.229L271.355 455.191C269.315 456.975 268.026 459.465 267.747 462.16C267.468 464.855 268.221 467.556 269.852 469.72C269.852 469.509 269.881 466.357 272.225 462.893ZM289.122 463.261C289.123 461.733 288.796 460.221 288.164 458.829C287.532 457.437 286.609 456.196 285.457 455.191L285.304 455.234C282.879 456.119 280.86 458.458 280.86 458.458C280.86 458.458 282.687 460.095 284.587 462.898C286.931 466.361 286.959 469.514 286.955 469.724C288.365 467.865 289.126 465.595 289.122 463.261ZM275.784 454.885C277.186 455.512 278.396 456.54 278.396 456.54C278.396 456.54 279.616 455.516 281.018 454.885C282.778 454.096 284.123 454.344 284.477 454.43C282.69 453.203 280.573 452.546 278.406 452.546C276.238 452.546 274.122 453.203 272.335 454.43C272.68 454.344 274.019 454.091 275.784 454.885ZM283.319 465.027C281.104 462.305 278.396 460.535 278.396 460.535C278.396 460.535 275.703 462.305 273.483 465.027C271.579 467.366 270.871 469.083 270.489 470.184L270.426 470.413C271.432 471.534 272.662 472.431 274.036 473.045C275.411 473.659 276.9 473.977 278.406 473.977C279.912 473.977 281.4 473.659 282.775 473.045C284.15 472.431 285.38 471.534 286.385 470.413L286.318 470.184C285.936 469.083 285.223 467.366 283.319 465.027Z" fill="white"/>
<g filter="url(#filter1_i_440_8499)">
<path d="M486.461 199.015C486.461 196.997 488.097 195.361 490.115 195.361H572.617C574.634 195.361 576.27 196.997 576.27 199.015V220.091C576.27 222.109 574.634 223.744 572.617 223.744H490.115C488.097 223.744 486.461 222.109 486.461 220.091V199.015Z" fill="url(#paint4_linear_440_8499)"/>
<path d="M490.115 195.502H572.617C574.557 195.502 576.129 197.075 576.129 199.015V220.091C576.129 222.031 574.557 223.603 572.617 223.604H490.115C488.175 223.604 486.602 222.031 486.602 220.091V199.015C486.602 197.075 488.175 195.502 490.115 195.502Z" stroke="#573DC1" stroke-width="0.281019"/>
<path d="M510.797 203.039V204.513H504.215V208.507H510.437V209.982H504.215V214.079H510.951V215.553H502.569V203.039H510.797ZM515.489 202.799C515.918 202.799 516.209 202.816 516.569 202.885V204.239C514.889 203.999 514.495 204.599 514.495 205.645V206.673H516.38V208.01H514.495V215.553H512.883V208.01H511.838V206.673H512.883V205.816C512.883 205.559 512.883 205.353 512.901 205.027C512.986 203.673 513.792 202.799 515.489 202.799ZM517.683 203.982C517.683 203.433 518.112 203.005 518.643 203.005C519.192 203.005 519.62 203.433 519.62 203.982C519.62 204.513 519.192 204.942 518.643 204.942C518.112 204.942 517.683 204.513 517.683 203.982ZM517.855 215.553V206.622H519.466V215.553H517.855ZM523.293 206.622V215.553H521.681V206.622H523.293ZM521.51 203.982C521.51 203.433 521.938 203.005 522.47 203.005C523.018 203.005 523.447 203.433 523.447 203.982C523.447 204.513 523.018 204.942 522.47 204.942C521.938 204.942 521.51 204.513 521.51 203.982ZM529.136 206.382C531.622 206.382 532.736 207.667 532.873 209.536H531.279C531.193 208.439 530.405 207.787 529.102 207.787C527.559 207.787 526.599 208.747 526.599 211.061C526.599 213.324 527.439 214.404 529.068 214.404C530.233 214.404 531.125 213.684 531.279 212.639H532.873C532.633 214.524 531.313 215.793 528.982 215.793C526.205 215.793 524.919 214.027 524.919 211.096C524.919 208.062 526.273 206.382 529.136 206.382ZM536.082 206.622V215.553H534.471V206.622H536.082ZM534.299 203.982C534.299 203.433 534.728 203.005 535.259 203.005C535.808 203.005 536.237 203.433 536.237 203.982C536.237 204.513 535.808 204.942 535.259 204.942C534.728 204.942 534.299 204.513 534.299 203.982ZM541.857 206.382C544.6 206.382 545.783 208.267 545.783 210.924C545.783 211.113 545.783 211.37 545.766 211.627H539.372C539.509 213.65 540.366 214.404 541.857 214.404C543.04 214.404 543.811 213.89 544.069 212.913H545.663C545.32 214.747 543.949 215.793 541.806 215.793C539.097 215.793 537.709 214.181 537.709 211.113C537.709 208.062 539.097 206.382 541.857 206.382ZM539.389 210.342H544.137C544.017 208.473 543.091 207.787 541.789 207.787C540.4 207.787 539.526 208.439 539.389 210.342ZM551.918 206.382C553.752 206.382 554.866 207.102 555.072 208.799C555.123 209.262 555.14 209.639 555.14 210.376V215.553H553.529V210.307C553.529 208.799 553.203 207.804 551.42 207.804C550.1 207.77 549.106 208.696 549.106 210.702V215.553H547.495V206.622H548.986L549.038 208.216C549.329 206.879 550.478 206.382 551.918 206.382ZM559.415 212.896C559.415 214.284 559.707 214.421 561.404 214.301V215.638C560.975 215.69 560.547 215.724 559.981 215.724C558.472 215.724 557.924 215.09 557.855 214.079C557.821 213.616 557.821 213.273 557.821 212.759V208.01H556.604V206.673H557.821V203.948H559.415V206.673H561.438V208.01H559.415V212.896Z" fill="white"/>
</g>
<g filter="url(#filter2_i_440_8499)">
<path d="M477.797 178.562C477.797 178.246 477.885 177.936 478.049 177.667C478.214 177.398 478.449 177.18 478.729 177.039C479.009 176.897 479.323 176.838 479.635 176.866C479.947 176.894 480.245 177.01 480.495 177.2L493.98 187.422C495.275 188.403 494.587 190.487 492.968 190.487H486.314C486.055 190.487 485.8 190.547 485.569 190.662C485.337 190.777 485.134 190.945 484.977 191.152L480.819 196.627C479.839 197.918 477.796 197.218 477.796 195.59L477.797 178.562Z" fill="url(#paint5_linear_440_8499)"/>
</g>
<path d="M479.631 176.917C479.933 176.944 480.222 177.057 480.465 177.241V177.24L493.949 187.463C495.206 188.415 494.537 190.436 492.969 190.436H486.313C486.047 190.436 485.784 190.498 485.546 190.617C485.307 190.736 485.099 190.908 484.936 191.121L480.778 196.596C479.829 197.847 477.846 197.17 477.846 195.59L477.848 178.562C477.848 178.255 477.933 177.954 478.093 177.693C478.252 177.432 478.481 177.222 478.753 177.085C479.024 176.948 479.328 176.889 479.631 176.917Z" stroke="#573DC1" stroke-width="0.102189"/>
<g filter="url(#filter3_i_440_8499)">
<path d="M0 166.085C0 164.067 1.63561 162.431 3.65324 162.431H86.1551C88.1727 162.431 89.8083 164.067 89.8083 166.085V187.161C89.8083 189.179 88.1727 190.814 86.1551 190.814H3.65324C1.63561 190.814 0 189.179 0 187.161V166.085Z" fill="url(#paint6_linear_440_8499)"/>
<path d="M3.65332 162.572H86.1553C88.0952 162.572 89.668 164.145 89.668 166.085V187.161C89.668 189.101 88.0952 190.673 86.1553 190.674H3.65332C1.71329 190.674 0.140625 189.101 0.140625 187.161V166.085C0.140625 164.145 1.71329 162.572 3.65332 162.572Z" stroke="#573DC1" stroke-width="0.281019"/>
<path d="M24.3358 170.109V171.583H17.7532V175.577H23.9758V177.052H17.7532V181.149H24.49V182.623H16.1075V170.109H24.3358ZM29.0276 169.869C29.4562 169.869 29.7476 169.886 30.1076 169.955V171.309C28.4276 171.069 28.0334 171.669 28.0334 172.715V173.743H29.919V175.08H28.0334V182.623H26.422V175.08H25.3763V173.743H26.422V172.886C26.422 172.629 26.422 172.423 26.4392 172.098C26.5249 170.743 27.3305 169.869 29.0276 169.869ZM31.2218 171.052C31.2218 170.503 31.6504 170.075 32.1818 170.075C32.7303 170.075 33.1589 170.503 33.1589 171.052C33.1589 171.583 32.7303 172.012 32.1818 172.012C31.6504 172.012 31.2218 171.583 31.2218 171.052ZM31.3932 182.623V173.692H33.0046V182.623H31.3932ZM36.8312 173.692V182.623H35.2198V173.692H36.8312ZM35.0484 171.052C35.0484 170.503 35.4769 170.075 36.0083 170.075C36.5569 170.075 36.9855 170.503 36.9855 171.052C36.9855 171.583 36.5569 172.012 36.0083 172.012C35.4769 172.012 35.0484 171.583 35.0484 171.052ZM42.6748 173.452C45.1604 173.452 46.2746 174.737 46.4117 176.606H44.8175C44.7318 175.509 43.9433 174.857 42.6405 174.857C41.0977 174.857 40.1377 175.817 40.1377 178.132C40.1377 180.394 40.9777 181.474 42.6062 181.474C43.7719 181.474 44.6633 180.754 44.8175 179.709H46.4117C46.1718 181.594 44.8518 182.863 42.5205 182.863C39.7435 182.863 38.4578 181.097 38.4578 178.166C38.4578 175.132 39.812 173.452 42.6748 173.452ZM49.6208 173.692V182.623H48.0094V173.692H49.6208ZM47.838 171.052C47.838 170.503 48.2666 170.075 48.798 170.075C49.3465 170.075 49.7751 170.503 49.7751 171.052C49.7751 171.583 49.3465 172.012 48.798 172.012C48.2666 172.012 47.838 171.583 47.838 171.052ZM55.3958 173.452C58.1386 173.452 59.3214 175.337 59.3214 177.994C59.3214 178.183 59.3214 178.44 59.3042 178.697H52.9102C53.0474 180.72 53.9045 181.474 55.3958 181.474C56.5786 181.474 57.35 180.96 57.6072 179.983H59.2014C58.8585 181.817 57.4872 182.863 55.3444 182.863C52.6359 182.863 51.2474 181.251 51.2474 178.183C51.2474 175.132 52.6359 173.452 55.3958 173.452ZM52.9274 177.412H57.6757C57.5557 175.543 56.6301 174.857 55.3273 174.857C53.9388 174.857 53.0645 175.509 52.9274 177.412ZM65.4561 173.452C67.2903 173.452 68.4046 174.172 68.6103 175.869C68.6617 176.332 68.6788 176.709 68.6788 177.446V182.623H67.0675V177.377C67.0675 175.869 66.7418 174.875 64.959 174.875C63.6391 174.84 62.6448 175.766 62.6448 177.772V182.623H61.0335V173.692H62.5248L62.5762 175.286C62.8677 173.949 64.0162 173.452 65.4561 173.452ZM72.9538 179.966C72.9538 181.354 73.2452 181.491 74.9423 181.371V182.709C74.5137 182.76 74.0852 182.794 73.5195 182.794C72.011 182.794 71.4624 182.16 71.3939 181.149C71.3596 180.686 71.3596 180.343 71.3596 179.829V175.08H70.1425V173.743H71.3596V171.018H72.9538V173.743H74.9766V175.08H72.9538V179.966Z" fill="white"/>
</g>
<g filter="url(#filter4_i_440_8499)">
<path d="M100.043 145.632C100.043 145.316 99.9558 145.006 99.7912 144.737C99.6266 144.468 99.391 144.25 99.111 144.109C98.8309 143.968 98.5174 143.908 98.2055 143.936C97.8937 143.964 97.5958 144.08 97.3453 144.27L83.8602 154.492C82.5653 155.473 83.2532 157.557 84.8719 157.557H91.5267C91.7851 157.557 92.04 157.617 92.2718 157.732C92.5036 157.847 92.7062 158.015 92.8638 158.222L97.0216 163.697C98.0012 164.988 100.045 164.288 100.045 162.66L100.043 145.632Z" fill="url(#paint7_linear_440_8499)"/>
</g>
<path d="M98.2097 143.987C97.9076 144.014 97.6185 144.127 97.3757 144.311V144.31L83.8914 154.533C82.6346 155.485 83.3034 157.506 84.8718 157.506H91.5271C91.7932 157.506 92.0559 157.568 92.2947 157.687C92.5334 157.806 92.7418 157.978 92.9041 158.191L97.0623 163.667C98.0116 164.917 99.9939 164.24 99.9939 162.66L99.9919 145.632C99.9919 145.325 99.9075 145.024 99.7478 144.763C99.5881 144.502 99.3591 144.292 99.0876 144.155C98.8162 144.018 98.512 143.959 98.2097 143.987Z" stroke="#573DC1" stroke-width="0.102189"/>
<defs>
<filter id="filter0_i_440_8499" x="197.578" y="180.98" width="160.906" height="148.447" filterUnits="userSpaceOnUse" color-interpolation-filters="sRGB">
<feFlood flood-opacity="0" result="BackgroundImageFix"/>
<feBlend mode="normal" in="SourceGraphic" in2="BackgroundImageFix" result="shape"/>
<feColorMatrix in="SourceAlpha" type="matrix" values="0 0 0 0 0 0 0 0 0 0 0 0 0 0 0 0 0 0 127 0" result="hardAlpha"/>
<feOffset dy="3.73923"/>
<feGaussianBlur stdDeviation="1.99426"/>
<feComposite in2="hardAlpha" operator="arithmetic" k2="-1" k3="1"/>
<feColorMatrix type="matrix" values="0 0 0 0 1 0 0 0 0 1 0 0 0 0 1 0 0 0 0.25 0"/>
<feBlend mode="normal" in2="shape" result="effect1_innerShadow_440_8499"/>
</filter>
<filter id="filter1_i_440_8499" x="486.461" y="195.361" width="89.8083" height="28.3828" filterUnits="userSpaceOnUse" color-interpolation-filters="sRGB">
<feFlood flood-opacity="0" result="BackgroundImageFix"/>
<feBlend mode="normal" in="SourceGraphic" in2="BackgroundImageFix" result="shape"/>
<feColorMatrix in="SourceAlpha" type="matrix" values="0 0 0 0 0 0 0 0 0 0 0 0 0 0 0 0 0 0 127 0" result="hardAlpha"/>
<feMorphology radius="0.421528" operator="erode" in="SourceAlpha" result="effect1_innerShadow_440_8499"/>
<feOffset/>
<feComposite in2="hardAlpha" operator="arithmetic" k2="-1" k3="1"/>
<feColorMatrix type="matrix" values="0 0 0 0 1 0 0 0 0 1 0 0 0 0 1 0 0 0 0.26 0"/>
<feBlend mode="normal" in2="shape" result="effect1_innerShadow_440_8499"/>
</filter>
<filter id="filter2_i_440_8499" x="477.796" y="176.859" width="16.8611" height="20.4377" filterUnits="userSpaceOnUse" color-interpolation-filters="sRGB">
<feFlood flood-opacity="0" result="BackgroundImageFix"/>
<feBlend mode="normal" in="SourceGraphic" in2="BackgroundImageFix" result="shape"/>
<feColorMatrix in="SourceAlpha" type="matrix" values="0 0 0 0 0 0 0 0 0 0 0 0 0 0 0 0 0 0 127 0" result="hardAlpha"/>
<feMorphology radius="0.766414" operator="erode" in="SourceAlpha" result="effect1_innerShadow_440_8499"/>
<feOffset/>
<feComposite in2="hardAlpha" operator="arithmetic" k2="-1" k3="1"/>
<feColorMatrix type="matrix" values="0 0 0 0 1 0 0 0 0 1 0 0 0 0 1 0 0 0 0.26 0"/>
<feBlend mode="normal" in2="shape" result="effect1_innerShadow_440_8499"/>
</filter>
<filter id="filter3_i_440_8499" x="0" y="162.431" width="89.8083" height="28.3828" filterUnits="userSpaceOnUse" color-interpolation-filters="sRGB">
<feFlood flood-opacity="0" result="BackgroundImageFix"/>
<feBlend mode="normal" in="SourceGraphic" in2="BackgroundImageFix" result="shape"/>
<feColorMatrix in="SourceAlpha" type="matrix" values="0 0 0 0 0 0 0 0 0 0 0 0 0 0 0 0 0 0 127 0" result="hardAlpha"/>
<feMorphology radius="0.421528" operator="erode" in="SourceAlpha" result="effect1_innerShadow_440_8499"/>
<feOffset/>
<feComposite in2="hardAlpha" operator="arithmetic" k2="-1" k3="1"/>
<feColorMatrix type="matrix" values="0 0 0 0 1 0 0 0 0 1 0 0 0 0 1 0 0 0 0.26 0"/>
<feBlend mode="normal" in2="shape" result="effect1_innerShadow_440_8499"/>
</filter>
<filter id="filter4_i_440_8499" x="83.1836" y="143.929" width="16.8611" height="20.4377" filterUnits="userSpaceOnUse" color-interpolation-filters="sRGB">
<feFlood flood-opacity="0" result="BackgroundImageFix"/>
<feBlend mode="normal" in="SourceGraphic" in2="BackgroundImageFix" result="shape"/>
<feColorMatrix in="SourceAlpha" type="matrix" values="0 0 0 0 0 0 0 0 0 0 0 0 0 0 0 0 0 0 127 0" result="hardAlpha"/>
<feMorphology radius="0.766414" operator="erode" in="SourceAlpha" result="effect1_innerShadow_440_8499"/>
<feOffset/>
<feComposite in2="hardAlpha" operator="arithmetic" k2="-1" k3="1"/>
<feColorMatrix type="matrix" values="0 0 0 0 1 0 0 0 0 1 0 0 0 0 1 0 0 0 0.26 0"/>
<feBlend mode="normal" in2="shape" result="effect1_innerShadow_440_8499"/>
</filter>
<linearGradient id="paint0_linear_440_8499" x1="267.538" y1="325.688" x2="267.538" y2="180.98" gradientUnits="userSpaceOnUse">
<stop stop-color="#7050F0"/>
<stop offset="1" stop-color="#B7AAEE"/>
</linearGradient>
<linearGradient id="paint1_linear_440_8499" x1="456.005" y1="174.378" x2="456.005" y2="120.493" gradientUnits="userSpaceOnUse">
<stop stop-color="#7050F0"/>
<stop offset="1" stop-color="#B7AAEE"/>
</linearGradient>
<linearGradient id="paint2_linear_440_8499" x1="113.237" y1="136.958" x2="113.237" y2="83.0728" gradientUnits="userSpaceOnUse">
<stop stop-color="#7050F0"/>
<stop offset="1" stop-color="#B7AAEE"/>
</linearGradient>
<linearGradient id="paint3_linear_440_8499" x1="274.892" y1="490.204" x2="274.892" y2="436.319" gradientUnits="userSpaceOnUse">
<stop stop-color="#7050F0"/>
<stop offset="1" stop-color="#B7AAEE"/>
</linearGradient>
<linearGradient id="paint4_linear_440_8499" x1="525.509" y1="223.744" x2="525.509" y2="195.361" gradientUnits="userSpaceOnUse">
<stop stop-color="#7050F0"/>
<stop offset="1" stop-color="#B7AAEE"/>
</linearGradient>
<linearGradient id="paint5_linear_440_8499" x1="485.127" y1="197.297" x2="486.482" y2="170.217" gradientUnits="userSpaceOnUse">
<stop stop-color="#7050F0"/>
<stop offset="1" stop-color="#B7AAEE"/>
</linearGradient>
<linearGradient id="paint6_linear_440_8499" x1="39.0471" y1="190.814" x2="39.0471" y2="162.431" gradientUnits="userSpaceOnUse">
<stop stop-color="#7050F0"/>
<stop offset="1" stop-color="#B7AAEE"/>
</linearGradient>
<linearGradient id="paint7_linear_440_8499" x1="92.7138" y1="164.367" x2="91.3586" y2="137.287" gradientUnits="userSpaceOnUse">
<stop stop-color="#7050F0"/>
<stop offset="1" stop-color="#B7AAEE"/>
</linearGradient>
</defs>
</svg>
