<svg width="119" height="67" viewBox="0 0 119 67" fill="none" xmlns="http://www.w3.org/2000/svg">
<g filter="url(#filter0_i_389_60435)">
<path d="M10.417 26.6327C10.417 24.2073 12.3832 22.2411 14.8085 22.2411H113.984C116.409 22.2411 118.375 24.2073 118.375 26.6327V51.9686C118.375 54.394 116.409 56.3602 113.984 56.3602H14.8085C12.3832 56.3602 10.417 54.394 10.417 51.9686V26.6327Z" fill="url(#paint0_linear_389_60435)"/>
<path d="M14.8086 22.4101H113.984C116.316 22.4104 118.206 24.3008 118.206 26.6328V51.9687C118.206 54.3006 116.316 56.1911 113.984 56.1913H14.8086C12.4765 56.1913 10.586 54.3008 10.5859 51.9687V26.6328C10.5859 24.3006 12.4765 22.4101 14.8086 22.4101Z" stroke="#573DC1" stroke-width="0.337812"/>
<path d="M39.5071 31.7579V33.5301H31.5942V38.3314H39.0744V40.1035H31.5942V45.0285H39.6926V46.8007H29.616V31.7579H39.5071ZM45.1472 31.4694C45.6624 31.4694 46.0127 31.49 46.4454 31.5724V33.2003C44.426 32.9119 43.952 33.6331 43.952 34.8901V36.1265H46.2187V37.7338H43.952V46.8007H42.015V37.7338H40.758V36.1265H42.015V35.0961C42.015 34.7871 42.015 34.5398 42.0356 34.1482C42.1386 32.5203 43.1072 31.4694 45.1472 31.4694ZM47.7848 32.8912C47.7848 32.2318 48.3 31.7167 48.9388 31.7167C49.5982 31.7167 50.1134 32.2318 50.1134 32.8912C50.1134 33.5301 49.5982 34.0452 48.9388 34.0452C48.3 34.0452 47.7848 33.5301 47.7848 32.8912ZM47.9909 46.8007V36.0647H49.9279V46.8007H47.9909ZM54.5278 36.0647V46.8007H52.5908V36.0647H54.5278ZM52.3848 32.8912C52.3848 32.2318 52.8999 31.7167 53.5387 31.7167C54.1981 31.7167 54.7133 32.2318 54.7133 32.8912C54.7133 33.5301 54.1981 34.0452 53.5387 34.0452C52.8999 34.0452 52.3848 33.5301 52.3848 32.8912ZM61.5524 35.7762C64.5404 35.7762 65.8798 37.3217 66.0446 39.5678H64.1282C64.0252 38.2489 63.0773 37.4659 61.5112 37.4659C59.6566 37.4659 58.5026 38.6199 58.5026 41.4017C58.5026 44.1218 59.5124 45.42 61.47 45.42C62.8712 45.42 63.9428 44.5545 64.1282 43.2975H66.0446C65.7561 45.5643 64.1694 47.0892 61.367 47.0892C58.0287 47.0892 56.4832 44.9667 56.4832 41.443C56.4832 37.7956 58.1111 35.7762 61.5524 35.7762ZM69.9022 36.0647V46.8007H67.9652V36.0647H69.9022ZM67.7592 32.8912C67.7592 32.2318 68.2743 31.7167 68.9131 31.7167C69.5725 31.7167 70.0877 32.2318 70.0877 32.8912C70.0877 33.5301 69.5725 34.0452 68.9131 34.0452C68.2743 34.0452 67.7592 33.5301 67.7592 32.8912ZM76.8444 35.7762C80.1414 35.7762 81.5633 38.0429 81.5633 41.2369C81.5633 41.4636 81.5633 41.7727 81.5427 42.0818H73.8564C74.0213 44.5133 75.0516 45.42 76.8444 45.42C78.2662 45.42 79.1935 44.8018 79.5026 43.6273H81.419C81.0069 45.8322 79.3584 47.0892 76.7826 47.0892C73.5267 47.0892 71.8576 45.1521 71.8576 41.4636C71.8576 37.7956 73.5267 35.7762 76.8444 35.7762ZM73.8771 40.5363H79.5851C79.4408 38.2902 78.3281 37.4659 76.762 37.4659C75.0928 37.4659 74.0419 38.2489 73.8771 40.5363ZM88.9379 35.7762C91.1428 35.7762 92.4822 36.6416 92.7295 38.6817C92.7913 39.2381 92.8119 39.6914 92.8119 40.5775V46.8007H90.8749V40.4951C90.8749 38.6817 90.4833 37.4865 88.3403 37.4865C86.7536 37.4453 85.5584 38.558 85.5584 40.969V46.8007H83.6214V36.0647H85.4141L85.476 37.9811C85.8263 36.3738 87.2069 35.7762 88.9379 35.7762ZM97.9508 43.6066C97.9508 45.2758 98.3011 45.4406 100.341 45.2964V46.9037C99.826 46.9655 99.3108 47.0067 98.6308 47.0067C96.8174 47.0067 96.158 46.2443 96.0756 45.0285C96.0344 44.4721 96.0344 44.06 96.0344 43.4418V37.7338H94.5713V36.1265H96.0344V32.85H97.9508V36.1265H100.382V37.7338H97.9508V43.6066Z" fill="white"/>
</g>
<g filter="url(#filter1_i_389_60435)">
<path d="M0.00202666 2.0473C0.00202666 1.66709 0.106842 1.2944 0.304728 0.970973C0.502615 0.647548 0.785753 0.386175 1.12242 0.216141C1.45908 0.0461062 1.83597 -0.0258714 2.21085 0.00827346C2.58573 0.0424183 2.94379 0.181336 3.24492 0.409461L19.4553 12.6974C21.0119 13.8766 20.185 16.3825 18.2392 16.3825H10.2394C9.92887 16.3823 9.62242 16.4542 9.34374 16.5927C9.06506 16.7311 8.82161 16.9324 8.63217 17.181L3.63406 23.763C2.45649 25.3149 0 24.4735 0 22.5162L0.00202666 2.0473Z" fill="url(#paint1_linear_389_60435)"/>
</g>
<path d="M2.20508 0.0693359C2.56844 0.102432 2.91603 0.236831 3.20801 0.458008L19.418 12.7461C20.9287 13.8906 20.1247 16.3213 18.2393 16.3213H10.2393C9.91926 16.3211 9.60351 16.3955 9.31641 16.5381C9.02932 16.6807 8.7781 16.8876 8.58301 17.1436L3.58496 23.7256C2.44393 25.2293 0.0618321 24.4162 0.0615234 22.5166L0.0634766 2.04688C0.0635552 1.67809 0.165531 1.31655 0.357422 1.00293C0.549378 0.689283 0.824045 0.435331 1.15039 0.270508C1.47664 0.105832 1.8419 0.0362969 2.20508 0.0693359Z" stroke="#573DC1" stroke-width="0.122841"/>
<defs>
<filter id="filter0_i_389_60435" x="10.417" y="22.2411" width="107.958" height="34.119" filterUnits="userSpaceOnUse" color-interpolation-filters="sRGB">
<feFlood flood-opacity="0" result="BackgroundImageFix"/>
<feBlend mode="normal" in="SourceGraphic" in2="BackgroundImageFix" result="shape"/>
<feColorMatrix in="SourceAlpha" type="matrix" values="0 0 0 0 0 0 0 0 0 0 0 0 0 0 0 0 0 0 127 0" result="hardAlpha"/>
<feMorphology radius="0.506718" operator="erode" in="SourceAlpha" result="effect1_innerShadow_389_60435"/>
<feOffset/>
<feComposite in2="hardAlpha" operator="arithmetic" k2="-1" k3="1"/>
<feColorMatrix type="matrix" values="0 0 0 0 1 0 0 0 0 1 0 0 0 0 1 0 0 0 0.26 0"/>
<feBlend mode="normal" in2="shape" result="effect1_innerShadow_389_60435"/>
</filter>
<filter id="filter1_i_389_60435" x="0" y="0" width="20.2687" height="24.5681" filterUnits="userSpaceOnUse" color-interpolation-filters="sRGB">
<feFlood flood-opacity="0" result="BackgroundImageFix"/>
<feBlend mode="normal" in="SourceGraphic" in2="BackgroundImageFix" result="shape"/>
<feColorMatrix in="SourceAlpha" type="matrix" values="0 0 0 0 0 0 0 0 0 0 0 0 0 0 0 0 0 0 127 0" result="hardAlpha"/>
<feMorphology radius="0.921305" operator="erode" in="SourceAlpha" result="effect1_innerShadow_389_60435"/>
<feOffset/>
<feComposite in2="hardAlpha" operator="arithmetic" k2="-1" k3="1"/>
<feColorMatrix type="matrix" values="0 0 0 0 1 0 0 0 0 1 0 0 0 0 1 0 0 0 0.26 0"/>
<feBlend mode="normal" in2="shape" result="effect1_innerShadow_389_60435"/>
</filter>
<linearGradient id="paint0_linear_389_60435" x1="57.3555" y1="56.3602" x2="57.3555" y2="22.2411" gradientUnits="userSpaceOnUse">
<stop stop-color="#7050F0"/>
<stop offset="1" stop-color="#B7AAEE"/>
</linearGradient>
<linearGradient id="paint1_linear_389_60435" x1="8.81249" y1="24.5681" x2="10.4415" y2="-7.98465" gradientUnits="userSpaceOnUse">
<stop stop-color="#7050F0"/>
<stop offset="1" stop-color="#B7AAEE"/>
</linearGradient>
</defs>
</svg>
