<svg width="621" height="376" viewBox="0 0 621 376" fill="none" xmlns="http://www.w3.org/2000/svg">
<g clip-path="url(#clip0_374_55236)">
<g filter="url(#filter0_d_374_55236)">
<g clip-path="url(#clip1_374_55236)">
<path d="M113.635 120.551C113.635 104.29 126.817 91.1082 143.078 91.1082H477.683C493.944 91.1082 507.126 104.29 507.126 120.551V364.36C507.126 380.621 493.944 393.803 477.683 393.803H143.078C126.817 393.803 113.635 380.621 113.635 364.36V120.551Z" fill="white"/>
<rect x="130.81" y="108.283" width="359.141" height="42.1366" rx="18.1024" fill="#F5F6F9"/>
<path d="M161.487 124.808C161.944 124.808 162.153 124.808 162.546 124.847C164.219 124.991 166.376 125.828 166.376 129.423C166.376 133.214 164.219 134.116 162.676 134.3C162.206 134.352 161.944 134.352 161.487 134.352H158.31V124.808H161.487ZM159.565 133.227H161.853C163.971 133.227 165.082 131.959 165.082 129.436C165.082 127.135 164.023 125.932 161.853 125.932H159.565V133.227ZM170.668 127.357C172.759 127.357 173.661 128.795 173.661 130.822C173.661 130.966 173.661 131.162 173.648 131.358H168.772C168.876 132.901 169.53 133.476 170.668 133.476C171.57 133.476 172.158 133.084 172.354 132.338H173.57C173.308 133.737 172.263 134.535 170.628 134.535C168.563 134.535 167.504 133.306 167.504 130.966C167.504 128.638 168.563 127.357 170.668 127.357ZM168.785 130.377H172.406C172.315 128.952 171.609 128.429 170.615 128.429C169.556 128.429 168.889 128.926 168.785 130.377ZM177.699 127.357C179.49 127.357 180.222 128.168 180.314 129.358C180.34 129.711 180.353 129.972 180.353 130.364V134.352H179.228L179.163 133.345C178.784 134.26 177.895 134.535 176.901 134.535C175.607 134.535 174.666 133.829 174.666 132.535C174.666 130.783 176.143 130.247 178.771 130.247H179.124V129.907C179.124 129.044 178.902 128.429 177.646 128.429C176.64 128.429 176.143 128.769 176.025 129.619H174.901C174.966 128.272 175.751 127.357 177.699 127.357ZM175.908 132.391C175.908 133.071 176.378 133.476 177.267 133.476C178.235 133.476 179.124 132.861 179.124 131.933V131.24C177.228 131.188 175.908 131.319 175.908 132.391ZM183.128 132.574C183.128 133.489 183.258 133.567 184.004 133.489V134.378C183.781 134.417 183.415 134.443 183.167 134.443C182.291 134.443 181.964 134.103 181.925 133.332C181.899 133.031 181.899 132.77 181.899 132.273V124.808H183.128V132.574ZM188.297 134.352C187.369 136.705 186.715 137.097 185.368 137.097C185.12 137.097 184.937 137.084 184.728 137.032V135.999C184.95 136.025 185.185 136.038 185.421 136.038C185.983 136.038 186.453 135.829 186.82 134.914L186.95 134.561L184.218 127.54H185.656L187.63 133.306L189.722 127.54H191.029L188.297 134.352Z" fill="black"/>
<rect x="262.27" y="114.82" width="82.222" height="29.0626" rx="14.5313" fill="white"/>
<rect x="262.27" y="114.82" width="82.222" height="29.0626" rx="14.5313" stroke="#D8D8DB" stroke-width="1.00569"/>
<path d="M294.253 124.808L291.886 134.352H290.291L289.089 129.697C288.775 128.521 288.553 127.331 288.33 126.141C288.082 127.331 287.833 128.521 287.52 129.697L286.225 134.352H284.604L282.382 124.808H283.728L284.67 129.175C284.983 130.586 285.232 131.972 285.467 133.358C285.755 131.959 286.082 130.586 286.474 129.175L287.677 124.939H289.023L290.161 129.175C290.54 130.56 290.854 131.907 291.141 133.28C291.377 131.907 291.651 130.547 291.978 129.175L293.011 124.808H294.253ZM297.606 127.357C299.698 127.357 300.6 128.795 300.6 130.822C300.6 130.966 300.6 131.162 300.587 131.358H295.711C295.815 132.901 296.469 133.476 297.606 133.476C298.508 133.476 299.097 133.084 299.293 132.338H300.509C300.247 133.737 299.201 134.535 297.567 134.535C295.501 134.535 294.442 133.306 294.442 130.966C294.442 128.638 295.501 127.357 297.606 127.357ZM295.724 130.377H299.345C299.254 128.952 298.548 128.429 297.554 128.429C296.495 128.429 295.828 128.926 295.724 130.377ZM304.638 127.357C306.429 127.357 307.161 128.168 307.252 129.358C307.279 129.711 307.292 129.972 307.292 130.364V134.352H306.167L306.102 133.345C305.723 134.26 304.834 134.535 303.84 134.535C302.546 134.535 301.604 133.829 301.604 132.535C301.604 130.783 303.082 130.247 305.71 130.247H306.063V129.907C306.063 129.044 305.84 128.429 304.585 128.429C303.579 128.429 303.082 128.769 302.964 129.619H301.84C301.905 128.272 302.69 127.357 304.638 127.357ZM302.846 132.391C302.846 133.071 303.317 133.476 304.206 133.476C305.174 133.476 306.063 132.861 306.063 131.933V131.24C304.167 131.188 302.846 131.319 302.846 132.391ZM314.747 127.54L312.197 130.234L314.878 134.352H313.387L311.243 130.992L310.132 132.09V134.352H308.903V124.808H310.132V130.966L313.374 127.54H314.747ZM317.05 132.574C317.05 133.489 317.181 133.567 317.926 133.489V134.378C317.704 134.417 317.338 134.443 317.09 134.443C316.214 134.443 315.887 134.103 315.848 133.332C315.821 133.031 315.821 132.77 315.821 132.273V124.808H317.05V132.574ZM322.22 134.352C321.291 136.705 320.638 137.097 319.291 137.097C319.043 137.097 318.86 137.084 318.65 137.032V135.999C318.873 136.025 319.108 136.038 319.343 136.038C319.905 136.038 320.376 135.829 320.742 134.914L320.873 134.561L318.14 127.54H319.579L321.553 133.306L323.645 127.54H324.952L322.22 134.352Z" fill="black"/>
<path d="M426.237 124.808V134.352H424.969V129.135C424.969 128.325 424.956 127.37 424.969 126.494C424.694 127.37 424.38 128.325 424.093 129.135L422.184 134.352H421.073L419.19 129.135C418.902 128.351 418.602 127.423 418.327 126.547C418.34 127.41 418.34 128.338 418.34 129.135V134.352H417.085V124.808H418.837C420.014 128.024 420.785 130.168 421.661 132.639C422.55 130.168 423.348 128.024 424.524 124.808H426.237ZM428.99 130.939C428.99 132.77 429.736 133.476 430.991 133.476C432.246 133.476 432.991 132.77 432.991 130.939C432.991 129.122 432.246 128.429 430.991 128.429C429.736 128.429 428.99 129.122 428.99 130.939ZM427.709 130.939C427.709 128.508 428.925 127.357 430.991 127.357C433.056 127.357 434.285 128.508 434.285 130.939C434.285 133.384 433.056 134.535 430.991 134.535C428.925 134.535 427.709 133.384 427.709 130.939ZM437.868 134.535C436.535 134.535 435.685 133.973 435.541 132.678C435.489 132.325 435.476 132.051 435.476 131.489V127.54H436.705V131.567C436.705 132.704 436.979 133.476 438.274 133.476C439.293 133.476 440.052 132.77 440.052 131.266V127.54H441.281V134.352H440.156L440.104 133.188C439.816 134.143 439.006 134.535 437.868 134.535ZM446.36 127.357C447.758 127.357 448.608 127.906 448.765 129.201C448.804 129.554 448.817 129.841 448.817 130.403V134.352H447.589V130.351C447.589 129.201 447.34 128.442 445.98 128.442C444.974 128.416 444.215 129.122 444.215 130.652V134.352H442.986V127.54H444.124L444.163 128.756C444.385 127.736 445.261 127.357 446.36 127.357ZM452.078 132.325C452.078 133.384 452.3 133.489 453.594 133.397V134.417C453.268 134.456 452.941 134.483 452.509 134.483C451.359 134.483 450.94 133.999 450.888 133.227C450.862 132.874 450.862 132.613 450.862 132.221V128.599H449.934V127.579H450.862V125.501H452.078V127.579H453.621V128.599H452.078V132.325ZM455.973 132.574C455.973 133.489 456.104 133.567 456.849 133.489V134.378C456.627 134.417 456.261 134.443 456.012 134.443C455.136 134.443 454.81 134.103 454.77 133.332C454.744 133.031 454.744 132.77 454.744 132.273V124.808H455.973V132.574ZM461.142 134.352C460.214 136.705 459.56 137.097 458.214 137.097C457.965 137.097 457.782 137.084 457.573 137.032V135.999C457.795 136.025 458.031 136.038 458.266 136.038C458.828 136.038 459.299 135.829 459.665 134.914L459.796 134.561L457.063 127.54H458.501L460.475 133.306L462.567 127.54H463.875L461.142 134.352Z" fill="black"/>
<rect x="131.875" y="160.073" width="172.533" height="91.5918" rx="11.7152" fill="white"/>
<rect x="131.875" y="160.073" width="172.533" height="91.5918" rx="11.7152" stroke="#E0E7F5" stroke-width="2.13004"/>
<rect x="154.24" y="176.048" width="23.4305" height="23.4305" rx="11.7152" fill="#7050F0"/>
<g clip-path="url(#clip2_374_55236)">
<path fill-rule="evenodd" clip-rule="evenodd" d="M162.849 182.882C162.378 182.882 161.927 183.069 161.594 183.402C161.261 183.735 161.074 184.186 161.074 184.657V190.869C161.074 191.34 161.261 191.792 161.594 192.125C161.927 192.458 162.378 192.645 162.849 192.645H169.062C169.532 192.645 169.984 192.458 170.317 192.125C170.65 191.792 170.837 191.34 170.837 190.869V184.657C170.837 184.186 170.65 183.735 170.317 183.402C169.984 183.069 169.532 182.882 169.062 182.882H162.849ZM165.465 184.572C165.617 184.094 166.293 184.094 166.445 184.572L167.686 188.373H168.158C168.251 188.373 168.334 188.431 168.365 188.519L169.03 190.379C169.05 190.434 169.056 190.494 169.048 190.552C169.04 190.61 169.018 190.666 168.984 190.714C168.95 190.762 168.905 190.801 168.853 190.828C168.801 190.856 168.742 190.87 168.684 190.869H163.227C163.168 190.87 163.11 190.855 163.058 190.828C163.006 190.801 162.961 190.762 162.927 190.714C162.893 190.666 162.871 190.61 162.863 190.552C162.855 190.494 162.862 190.435 162.881 190.379L163.546 188.519C163.561 188.477 163.589 188.44 163.626 188.414C163.663 188.387 163.708 188.373 163.753 188.373H164.226L165.465 184.572ZM165.955 188.52C166.385 188.52 166.837 188.399 167.179 188.241L167.461 189.106C167.372 189.171 167.277 189.228 167.178 189.277C166.912 189.41 166.505 189.548 165.955 189.548C165.406 189.548 164.999 189.41 164.732 189.277C164.633 189.228 164.539 189.171 164.449 189.106L164.731 188.241C165.074 188.399 165.526 188.52 165.955 188.52ZM166.612 186.503L166.301 185.55C166.187 185.57 166.071 185.581 165.955 185.583C165.857 185.583 165.731 185.571 165.61 185.55L165.299 186.503C165.514 186.567 165.771 186.611 165.955 186.611C166.14 186.611 166.396 186.567 166.612 186.503Z" fill="white"/>
</g>
<path d="M190.106 184.599V191.763H189.164V184.599H190.106ZM194.042 186.512C195.092 186.512 195.73 186.925 195.847 187.896C195.877 188.161 195.887 188.377 195.887 188.799V191.763H194.964V188.76C194.964 187.896 194.778 187.327 193.757 187.327C193.001 187.307 192.432 187.837 192.432 188.986V191.763H191.509V186.65H192.363L192.393 187.563C192.56 186.797 193.217 186.512 194.042 186.512ZM199.238 186.512C200.661 186.512 201.299 187.249 201.377 188.318H200.464C200.415 187.69 199.964 187.317 199.218 187.317C198.335 187.317 197.785 187.867 197.785 189.192C197.785 190.487 198.266 191.106 199.198 191.106C199.866 191.106 200.376 190.693 200.464 190.095H201.377C201.24 191.174 200.484 191.901 199.149 191.901C197.559 191.901 196.823 190.89 196.823 189.211C196.823 187.474 197.599 186.512 199.238 186.512ZM203.076 189.202C203.076 190.576 203.635 191.106 204.577 191.106C205.519 191.106 206.079 190.576 206.079 189.202C206.079 187.837 205.519 187.317 204.577 187.317C203.635 187.317 203.076 187.837 203.076 189.202ZM202.114 189.202C202.114 187.376 203.027 186.512 204.577 186.512C206.128 186.512 207.05 187.376 207.05 189.202C207.05 191.037 206.128 191.901 204.577 191.901C203.027 191.901 202.114 191.037 202.114 189.202ZM210.488 186.512C211.263 186.512 211.734 186.876 211.94 187.455C212.117 186.719 212.863 186.512 213.53 186.512C214.551 186.512 215.12 187.033 215.228 187.877C215.267 188.142 215.277 188.358 215.277 188.652V191.763H214.355V188.799C214.355 187.975 214.207 187.317 213.295 187.317C212.519 187.317 212.078 187.837 212.078 188.937V191.763H211.165V188.819C211.165 188.014 211.028 187.317 210.095 187.317C209.34 187.317 208.898 187.828 208.898 188.927V191.763H207.975V186.65H208.829L208.859 187.396C209.016 186.748 209.703 186.512 210.488 186.512ZM218.587 186.512C220.158 186.512 220.835 187.592 220.835 189.113C220.835 189.221 220.835 189.368 220.825 189.516H217.164C217.243 190.674 217.734 191.106 218.587 191.106C219.265 191.106 219.706 190.811 219.854 190.252H220.766C220.57 191.302 219.785 191.901 218.558 191.901C217.007 191.901 216.212 190.978 216.212 189.221C216.212 187.474 217.007 186.512 218.587 186.512ZM217.174 188.78H219.893C219.824 187.71 219.294 187.317 218.548 187.317C217.753 187.317 217.253 187.69 217.174 188.78Z" fill="black"/>
<path d="M157.533 221.948H158.6V222.954C160.073 223.114 160.98 223.972 161.03 225.445H159.901C159.84 224.561 159.349 224.095 158.6 223.948V226.622C160.379 227.003 161.275 227.751 161.275 229.1C161.275 230.585 160.024 231.333 158.6 231.456V232.462H157.533V231.444C156.061 231.284 155.018 230.474 154.896 228.916H156.024C156.11 229.787 156.638 230.303 157.533 230.462V227.555C155.926 227.199 155.116 226.549 155.116 225.261C155.116 223.96 156.135 223.126 157.533 222.966V221.948ZM156.282 225.187C156.282 225.911 156.711 226.279 157.533 226.5V223.936C156.76 224.071 156.282 224.5 156.282 225.187ZM158.6 230.487C159.471 230.389 160.109 229.971 160.109 229.199C160.109 228.413 159.594 227.947 158.6 227.702V230.487ZM166.358 222.733H167.573V228.18H168.603V229.235H167.573V231.689H166.395V229.235H162.224V228.144L166.358 222.733ZM163.365 228.18H166.395V224.218L163.365 228.18ZM172.566 223.641C171.142 223.641 170.701 224.794 170.701 227.211C170.701 229.616 171.142 230.781 172.566 230.781C173.976 230.781 174.43 229.616 174.43 227.211C174.43 224.794 173.976 223.641 172.566 223.641ZM169.486 227.211C169.486 224.181 170.284 222.562 172.566 222.562C174.847 222.562 175.645 224.181 175.645 227.211C175.645 230.229 174.847 231.861 172.566 231.861C170.284 231.861 169.486 230.229 169.486 227.211ZM178.012 230.07V230.413L177.338 233.627H176.295L176.908 230.07H178.012ZM182.33 223.641C180.907 223.641 180.465 224.794 180.465 227.211C180.465 229.616 180.907 230.781 182.33 230.781C183.74 230.781 184.194 229.616 184.194 227.211C184.194 224.794 183.74 223.641 182.33 223.641ZM179.25 227.211C179.25 224.181 180.048 222.562 182.33 222.562C184.611 222.562 185.409 224.181 185.409 227.211C185.409 230.229 184.611 231.861 182.33 231.861C180.048 231.861 179.25 230.229 179.25 227.211ZM189.494 223.641C188.071 223.641 187.629 224.794 187.629 227.211C187.629 229.616 188.071 230.781 189.494 230.781C190.905 230.781 191.359 229.616 191.359 227.211C191.359 224.794 190.905 223.641 189.494 223.641ZM186.415 227.211C186.415 224.181 187.212 222.562 189.494 222.562C191.776 222.562 192.573 224.181 192.573 227.211C192.573 230.229 191.776 231.861 189.494 231.861C187.212 231.861 186.415 230.229 186.415 227.211ZM196.658 223.641C195.235 223.641 194.794 224.794 194.794 227.211C194.794 229.616 195.235 230.781 196.658 230.781C198.069 230.781 198.523 229.616 198.523 227.211C198.523 224.794 198.069 223.641 196.658 223.641ZM193.579 227.211C193.579 224.181 194.376 222.562 196.658 222.562C198.94 222.562 199.738 224.181 199.738 227.211C199.738 230.229 198.94 231.861 196.658 231.861C194.376 231.861 193.579 230.229 193.579 227.211Z" fill="black"/>
<rect x="316.353" y="160.073" width="172.533" height="91.5918" rx="11.7152" fill="white"/>
<rect x="316.353" y="160.073" width="172.533" height="91.5918" rx="11.7152" stroke="#E0E7F5" stroke-width="2.13004"/>
<rect x="338.718" y="176.048" width="23.4305" height="23.4305" rx="11.7152" fill="#7050F0"/>
<g clip-path="url(#clip3_374_55236)">
<path fill-rule="evenodd" clip-rule="evenodd" d="M347.327 182.882C346.856 182.882 346.405 183.069 346.072 183.402C345.739 183.735 345.552 184.186 345.552 184.657V190.869C345.552 191.34 345.739 191.792 346.072 192.125C346.405 192.458 346.856 192.645 347.327 192.645H353.54C354.011 192.645 354.462 192.458 354.795 192.125C355.128 191.792 355.315 191.34 355.315 190.869V184.657C355.315 184.186 355.128 183.735 354.795 183.402C354.462 183.069 354.011 182.882 353.54 182.882H347.327ZM349.944 184.572C350.095 184.094 350.772 184.094 350.923 184.572L352.164 188.373H352.636C352.73 188.373 352.812 188.431 352.844 188.519L353.508 190.379C353.528 190.434 353.534 190.494 353.526 190.552C353.518 190.61 353.496 190.666 353.462 190.714C353.428 190.762 353.383 190.801 353.331 190.828C353.279 190.856 353.221 190.87 353.162 190.869H347.705C347.647 190.87 347.589 190.855 347.536 190.828C347.484 190.801 347.439 190.762 347.405 190.714C347.371 190.666 347.35 190.61 347.342 190.552C347.334 190.494 347.34 190.435 347.36 190.379L348.024 188.519C348.039 188.477 348.068 188.44 348.105 188.414C348.142 188.387 348.186 188.373 348.231 188.373H348.704L349.944 184.572ZM350.434 188.52C350.863 188.52 351.315 188.399 351.657 188.241L351.94 189.106C351.85 189.171 351.756 189.228 351.657 189.277C351.39 189.41 350.983 189.548 350.434 189.548C349.884 189.548 349.477 189.41 349.211 189.277C349.112 189.228 349.017 189.171 348.927 189.106L349.21 188.241C349.552 188.399 350.004 188.52 350.434 188.52ZM351.09 186.503L350.779 185.55C350.665 185.57 350.549 185.581 350.433 185.583C350.336 185.583 350.209 185.571 350.088 185.55L349.777 186.503C349.992 186.567 350.249 186.611 350.434 186.611C350.618 186.611 350.874 186.567 351.09 186.503Z" fill="white"/>
</g>
<path d="M378.957 184.599V185.443H375.188V187.729H378.751V188.574H375.188V190.919H379.045V191.763H374.246V184.599H378.957ZM384.506 186.65L382.651 189.211L384.496 191.763H383.436L382.062 189.79L380.59 191.763H379.598L381.473 189.211L379.667 186.65H380.717L382.072 188.632L383.456 186.65H384.506ZM386.226 193.628H385.304V186.65H386.157L386.197 187.592C386.432 186.777 387.139 186.512 387.973 186.512C389.504 186.512 390.191 187.582 390.191 189.202C390.191 190.919 389.357 191.901 387.904 191.901C387.178 191.901 386.511 191.685 386.226 191.007V193.628ZM386.226 189.368C386.226 190.713 386.972 191.106 387.669 191.106C388.68 191.106 389.19 190.37 389.19 189.192C389.19 188.132 388.768 187.317 387.698 187.317C386.864 187.317 386.226 187.779 386.226 189.133V189.368ZM393.22 186.512C394.564 186.512 395.114 187.121 395.183 188.014C395.202 188.279 395.212 188.475 395.212 188.77V191.763H394.368L394.319 191.007C394.034 191.694 393.367 191.901 392.621 191.901C391.649 191.901 390.943 191.371 390.943 190.399C390.943 189.084 392.052 188.681 394.025 188.681H394.29V188.426C394.29 187.779 394.123 187.317 393.18 187.317C392.425 187.317 392.052 187.572 391.963 188.21H391.119C391.169 187.199 391.757 186.512 393.22 186.512ZM391.875 190.291C391.875 190.801 392.228 191.106 392.896 191.106C393.622 191.106 394.29 190.644 394.29 189.948V189.427C392.866 189.388 391.875 189.486 391.875 190.291ZM398.954 186.512C400.004 186.512 400.642 186.925 400.759 187.896C400.789 188.161 400.799 188.377 400.799 188.799V191.763H399.876V188.76C399.876 187.896 399.69 187.327 398.669 187.327C397.913 187.307 397.344 187.837 397.344 188.986V191.763H396.421V186.65H397.275L397.305 187.563C397.472 186.797 398.129 186.512 398.954 186.512ZM403.805 186.512C405.12 186.512 405.777 187.042 405.836 188.151H404.924C404.845 187.504 404.423 187.298 403.785 187.298C403.235 187.298 402.784 187.523 402.784 187.965C402.784 188.426 403.147 188.652 404.021 188.78C405.365 188.976 405.964 189.427 405.964 190.379C405.964 191.361 405.1 191.901 403.932 191.901C402.568 191.901 401.832 191.42 401.695 190.242H402.607C402.735 190.9 403.118 191.115 403.962 191.115C404.61 191.115 405.032 190.88 405.032 190.448C405.032 189.977 404.668 189.722 403.667 189.575C402.46 189.388 401.852 188.996 401.852 188.014C401.852 187.131 402.627 186.512 403.805 186.512ZM409.065 186.512C410.636 186.512 411.313 187.592 411.313 189.113C411.313 189.221 411.313 189.368 411.303 189.516H407.642C407.721 190.674 408.212 191.106 409.065 191.106C409.743 191.106 410.184 190.811 410.332 190.252H411.244C411.048 191.302 410.263 191.901 409.036 191.901C407.485 191.901 406.69 190.978 406.69 189.221C406.69 187.474 407.485 186.512 409.065 186.512ZM407.652 188.78H410.371C410.302 187.71 409.772 187.317 409.026 187.317C408.231 187.317 407.731 187.69 407.652 188.78Z" fill="black"/>
<path d="M342.175 221.948H343.243V222.954C344.715 223.114 345.623 223.972 345.672 225.445H344.543C344.482 224.561 343.991 224.095 343.243 223.948V226.622C345.021 227.003 345.917 227.751 345.917 229.1C345.917 230.585 344.666 231.333 343.243 231.456V232.462H342.175V231.444C340.703 231.284 339.66 230.474 339.538 228.916H340.666C340.752 229.787 341.28 230.303 342.175 230.462V227.555C340.568 227.199 339.759 226.549 339.759 225.261C339.759 223.96 340.777 223.126 342.175 222.966V221.948ZM340.924 225.187C340.924 225.911 341.353 226.279 342.175 226.5V223.936C341.402 224.071 340.924 224.5 340.924 225.187ZM343.243 230.487C344.114 230.389 344.752 229.971 344.752 229.199C344.752 228.413 344.236 227.947 343.243 227.702V230.487ZM351.442 222.697V231.689H350.264V224.156H348.449V223.433L350.62 222.697H351.442ZM355.49 230.07V230.413L354.815 233.627H353.773L354.386 230.07H355.49ZM359.906 222.562C361.611 222.562 362.74 223.396 362.74 224.942C362.74 226.07 361.967 226.819 360.948 227.101C362.151 227.371 362.875 228.131 362.875 229.383C362.875 231.002 361.562 231.861 359.893 231.861C357.98 231.861 356.925 231.137 356.777 229.223H357.98C358.09 230.229 358.63 230.781 359.857 230.781C360.875 230.781 361.66 230.266 361.66 229.248C361.66 228.18 360.801 227.665 359.341 227.665H358.814V226.61H359.341C360.347 226.61 361.525 226.316 361.525 225.089C361.525 224.156 360.887 223.641 359.881 223.641C358.851 223.641 358.225 224.193 358.115 225.199H356.912C357.023 223.58 357.98 222.562 359.906 222.562ZM367.156 222.562C368.898 222.562 369.757 223.469 369.916 225.04H368.714C368.567 224.12 368.051 223.641 367.107 223.641C365.794 223.641 365.107 224.586 365.07 227.309C365.303 226.352 366.211 225.898 367.291 225.898C369.008 225.898 370.076 227.039 370.076 228.806C370.076 230.769 368.714 231.861 366.984 231.861C365.046 231.861 363.893 230.658 363.893 227.8C363.893 224.279 364.764 222.562 367.156 222.562ZM365.132 228.708C365.132 229.812 365.745 230.781 367.033 230.781C368.15 230.781 368.91 230.021 368.91 228.843C368.91 227.69 368.162 226.978 367.021 226.978C365.77 226.978 365.132 227.788 365.132 228.708ZM374.234 222.562C375.94 222.562 377.068 223.396 377.068 224.942C377.068 226.07 376.295 226.819 375.277 227.101C376.479 227.371 377.203 228.131 377.203 229.383C377.203 231.002 375.89 231.861 374.222 231.861C372.308 231.861 371.253 231.137 371.106 229.223H372.308C372.419 230.229 372.958 230.781 374.185 230.781C375.203 230.781 375.989 230.266 375.989 229.248C375.989 228.18 375.13 227.665 373.67 227.665H373.142V226.61H373.67C374.676 226.61 375.854 226.316 375.854 225.089C375.854 224.156 375.216 223.641 374.21 223.641C373.179 223.641 372.554 224.193 372.443 225.199H371.241C371.351 223.58 372.308 222.562 374.234 222.562Z" fill="black"/>
<path d="M144.142 269.669V283.998H141.708V277.854H134.759V283.998H132.325V269.669H134.759V275.695H141.708V269.669H144.142ZM149.206 273.693V283.998H146.831V273.693H149.206ZM146.674 270.553C146.674 269.807 147.263 269.198 148.009 269.198C148.754 269.198 149.363 269.807 149.363 270.553C149.363 271.298 148.754 271.887 148.009 271.887C147.263 271.887 146.674 271.298 146.674 270.553ZM155.314 273.418C158.121 273.418 159.397 274.498 159.534 276.716H157.179C157.022 275.656 156.276 275.421 155.255 275.421C154.333 275.421 153.606 275.754 153.606 276.402C153.606 277.109 154.215 277.501 155.883 277.756C158.592 278.188 159.809 279.13 159.809 281.113C159.809 283.194 157.944 284.273 155.53 284.273C152.684 284.273 151.192 283.272 150.917 280.917H153.273C153.489 281.937 154.156 282.271 155.589 282.271C156.727 282.271 157.414 281.918 157.414 281.29C157.414 280.524 156.688 280.073 154.98 279.798C152.389 279.366 151.212 278.581 151.212 276.52C151.212 274.694 152.841 273.418 155.314 273.418ZM164.713 280.563C164.713 282.153 165.046 282.271 166.95 282.153V284.096C166.361 284.175 165.851 284.214 165.046 284.214C163.123 284.214 162.475 283.429 162.377 282.173C162.338 281.623 162.338 281.211 162.338 280.622V275.695H160.885V273.732H162.338V270.67H164.713V273.732H167.029V275.695H164.713V280.563ZM170.647 278.836C170.647 281.329 171.648 282.232 173.336 282.232C175.024 282.232 176.006 281.329 176.006 278.836C176.006 276.382 175.024 275.46 173.336 275.46C171.648 275.46 170.647 276.382 170.647 278.836ZM168.174 278.836C168.174 275.244 170.019 273.418 173.336 273.418C176.653 273.418 178.499 275.244 178.499 278.836C178.499 282.448 176.634 284.273 173.336 284.273C170.019 284.273 168.174 282.448 168.174 278.836ZM185.404 273.418C185.738 273.418 185.973 273.418 186.189 273.477V275.46C183.794 275.224 182.636 276.422 182.636 279.503V283.998H180.261V273.693H182.44L182.538 275.578C182.715 274.105 183.873 273.418 185.404 273.418ZM193.789 283.998C192.395 287.492 191.355 288.12 188.999 288.12C188.587 288.12 188.273 288.101 187.92 288.022V286.02C188.293 286.059 188.685 286.079 189.058 286.079C189.942 286.079 190.648 285.863 191.06 284.764L191.198 284.371L187.076 273.693H189.863L192.513 281.918L195.398 273.693H197.931L193.789 283.998Z" fill="black"/>
<path d="M430.851 269.669L425.531 283.998H423.176L417.896 269.669H420.035L424.413 282.212L428.79 269.669H430.851ZM434.18 273.772V283.998H432.335V273.772H434.18ZM432.139 270.749C432.139 270.121 432.629 269.63 433.238 269.63C433.866 269.63 434.357 270.121 434.357 270.749C434.357 271.357 433.866 271.848 433.238 271.848C432.629 271.848 432.139 271.357 432.139 270.749ZM440.793 273.497C443.934 273.497 445.288 275.656 445.288 278.699C445.288 278.914 445.288 279.209 445.268 279.503H437.947C438.104 281.819 439.085 282.683 440.793 282.683C442.147 282.683 443.031 282.094 443.325 280.975H445.151C444.758 283.076 443.188 284.273 440.734 284.273C437.633 284.273 436.043 282.428 436.043 278.914C436.043 275.421 437.633 273.497 440.793 273.497ZM437.966 278.031H443.404C443.266 275.892 442.206 275.106 440.714 275.106C439.124 275.106 438.123 275.852 437.966 278.031ZM461.011 273.772L458.028 283.998H455.986C455.142 281.466 454.338 278.816 453.572 276.127C452.846 278.816 451.982 281.466 451.158 283.998H449.136L446.113 273.772H448.096C448.861 276.579 449.587 279.366 450.235 282.173C451.001 279.425 451.845 276.755 452.708 274.007H454.534C455.417 276.795 456.261 279.543 457.007 282.31C457.655 279.464 458.361 276.618 459.147 273.772H461.011ZM470.902 273.497C473.591 273.497 474.69 274.714 474.827 276.5C474.867 277.03 474.886 277.423 474.886 278.012V283.998H473.198L473.1 282.487C472.531 283.861 471.196 284.273 469.704 284.273C467.761 284.273 466.348 283.213 466.348 281.27C466.348 278.64 468.566 277.835 472.511 277.835H473.041V277.324C473.041 276.029 472.707 275.106 470.823 275.106C469.312 275.106 468.566 275.617 468.389 276.893H466.701C466.799 274.871 467.977 273.497 470.902 273.497ZM468.212 281.054C468.212 282.075 468.919 282.683 470.254 282.683C471.706 282.683 473.041 281.761 473.041 280.367V279.327C470.195 279.248 468.212 279.444 468.212 281.054ZM479.052 281.329C479.052 282.703 479.249 282.821 480.368 282.703V284.038C480.034 284.096 479.484 284.136 479.111 284.136C477.796 284.136 477.305 283.625 477.247 282.467C477.207 282.016 477.207 281.623 477.207 280.877V269.669H479.052V281.329ZM483.921 281.329C483.921 282.703 484.118 282.821 485.236 282.703V284.038C484.903 284.096 484.353 284.136 483.98 284.136C482.665 284.136 482.174 283.625 482.115 282.467C482.076 282.016 482.076 281.623 482.076 280.877V269.669H483.921V281.329Z" fill="#7050F0"/>
<rect x="130.81" y="300.268" width="54.6446" height="54.6417" rx="27.3208" fill="#F5F6F9"/>
<rect width="14.7331" height="21.3629" transform="matrix(1 0 -0.515038 0.857167 158.453 320.274)" fill="#07468D"/>
<rect width="14.7331" height="21.3629" transform="matrix(1 0 -0.515038 0.857167 154.77 318.064)" fill="#F5F6F9"/>
<rect width="14.7331" height="21.3629" transform="matrix(1 0 -0.515038 0.857167 154.081 316.591)" fill="#0C78F2"/>
<path d="M209.871 316.518V328.161H208.005L204.21 321.765C203.54 320.585 202.886 319.373 202.248 318.177C202.328 319.692 202.36 321.175 202.36 322.499V328.161H200.892V316.518H202.742L206.427 322.674C207.144 323.918 207.83 325.178 208.5 326.438C208.436 324.955 208.404 323.376 208.404 322.068V316.518H209.871ZM213.219 323.998C213.219 326.231 214.128 327.092 215.659 327.092C217.19 327.092 218.099 326.231 218.099 323.998C218.099 321.781 217.19 320.936 215.659 320.936C214.128 320.936 213.219 321.781 213.219 323.998ZM211.656 323.998C211.656 321.032 213.139 319.628 215.659 319.628C218.179 319.628 219.678 321.032 219.678 323.998C219.678 326.98 218.179 328.384 215.659 328.384C213.139 328.384 211.656 326.98 211.656 323.998ZM224.929 319.628C225.152 319.628 225.328 319.628 225.487 319.676V320.936C223.653 320.761 222.68 321.749 222.68 324.269V328.161H221.181V319.852H222.569L222.617 321.462C222.792 320.202 223.749 319.628 224.929 319.628ZM229.001 325.689C229.001 326.98 229.272 327.108 230.851 326.996V328.24C230.452 328.288 230.054 328.32 229.527 328.32C228.124 328.32 227.613 327.73 227.55 326.789C227.518 326.358 227.518 326.04 227.518 325.561V321.143H226.385V319.899H227.518V317.364H229.001V319.899H230.883V321.143H229.001V325.689ZM243.748 316.518V317.89H237.544V321.781H243.413V323.137H237.544V328.161H236.013V316.518H243.748ZM248.234 319.628C250.418 319.628 251.312 320.617 251.423 322.068C251.455 322.499 251.471 322.818 251.471 323.296V328.161H250.1L250.02 326.933C249.557 328.049 248.473 328.384 247.261 328.384C245.682 328.384 244.534 327.523 244.534 325.944C244.534 323.807 246.336 323.153 249.541 323.153H249.972V322.738C249.972 321.686 249.701 320.936 248.17 320.936C246.942 320.936 246.336 321.351 246.192 322.387H244.821C244.9 320.745 245.857 319.628 248.234 319.628ZM246.049 325.768C246.049 326.598 246.623 327.092 247.707 327.092C248.887 327.092 249.972 326.343 249.972 325.21V324.365C247.659 324.301 246.049 324.461 246.049 325.768ZM260.535 319.852L257.52 324.014L260.519 328.161H258.796L256.563 324.955L254.171 328.161H252.56L255.606 324.014L252.672 319.852H254.378L256.579 323.073L258.828 319.852H260.535ZM264.996 319.628C267.548 319.628 268.649 321.383 268.649 323.855C268.649 324.03 268.649 324.269 268.633 324.508H262.684C262.811 326.39 263.609 327.092 264.996 327.092C266.097 327.092 266.814 326.614 267.054 325.705H268.537C268.218 327.411 266.942 328.384 264.948 328.384C262.429 328.384 261.137 326.885 261.137 324.03C261.137 321.191 262.429 319.628 264.996 319.628ZM262.7 323.312H267.117C267.006 321.574 266.145 320.936 264.933 320.936C263.641 320.936 262.827 321.542 262.7 323.312Z" fill="black"/>
<path d="M204.01 334.666L206.367 341.016H205.48L204.793 339.146H202.209L201.522 341.016H200.643L203.035 334.666H204.01ZM202.452 338.398H204.566L203.514 335.458L202.452 338.398ZM208.587 341.138C207.7 341.138 207.135 340.764 207.039 339.903C207.004 339.668 206.996 339.485 206.996 339.111V336.484H207.813V339.163C207.813 339.92 207.996 340.434 208.857 340.434C209.536 340.434 210.04 339.964 210.04 338.963V336.484H210.858V341.016H210.11L210.075 340.242C209.884 340.877 209.344 341.138 208.587 341.138ZM215.92 339.781C215.92 340.347 215.92 340.642 215.911 340.921C215.868 342.139 215.137 342.791 213.823 342.791C212.771 342.791 211.892 342.521 211.796 341.269H212.605C212.718 341.93 213.188 342.086 213.823 342.086C214.737 342.086 215.102 341.556 215.102 340.842V339.981C214.98 340.694 214.476 340.982 213.632 340.982C212.284 340.982 211.675 340.051 211.675 338.676C211.675 337.206 212.405 336.362 213.684 336.362C214.45 336.362 214.963 336.588 215.137 337.206L215.163 336.484H215.92V339.781ZM212.562 338.676C212.562 339.564 212.91 340.268 213.806 340.268C214.545 340.268 215.102 339.868 215.102 338.755V338.511C215.102 337.415 214.441 337.076 213.832 337.076C212.988 337.076 212.562 337.702 212.562 338.676ZM218.569 341.138C217.682 341.138 217.117 340.764 217.021 339.903C216.986 339.668 216.977 339.485 216.977 339.111V336.484H217.795V339.163C217.795 339.92 217.978 340.434 218.839 340.434C219.518 340.434 220.022 339.964 220.022 338.963V336.484H220.84V341.016H220.092L220.057 340.242C219.866 340.877 219.326 341.138 218.569 341.138ZM223.524 336.362C224.69 336.362 225.272 336.832 225.325 337.815H224.516C224.446 337.241 224.072 337.058 223.507 337.058C223.019 337.058 222.619 337.258 222.619 337.65C222.619 338.059 222.941 338.259 223.715 338.372C224.907 338.546 225.438 338.946 225.438 339.79C225.438 340.66 224.672 341.138 223.637 341.138C222.428 341.138 221.775 340.712 221.654 339.668H222.463C222.576 340.251 222.915 340.442 223.663 340.442C224.237 340.442 224.611 340.233 224.611 339.851C224.611 339.433 224.289 339.207 223.402 339.076C222.332 338.911 221.793 338.563 221.793 337.693C221.793 336.91 222.48 336.362 223.524 336.362ZM227.378 339.668C227.378 340.373 227.526 340.442 228.388 340.381V341.06C228.17 341.086 227.953 341.103 227.666 341.103C226.9 341.103 226.622 340.781 226.587 340.268C226.569 340.033 226.569 339.859 226.569 339.598V337.189H225.952V336.51H226.569V335.127H227.378V336.51H228.405V337.189H227.378V339.668ZM235.038 334.544C236.247 334.544 237.047 335.136 237.047 336.232C237.047 337.032 236.499 337.563 235.777 337.763C236.629 337.954 237.143 338.494 237.143 339.381C237.143 340.529 236.212 341.138 235.029 341.138C233.672 341.138 232.924 340.625 232.819 339.268H233.672C233.75 339.981 234.133 340.373 235.003 340.373C235.725 340.373 236.281 340.007 236.281 339.285C236.281 338.528 235.673 338.163 234.637 338.163H234.263V337.415H234.637C235.351 337.415 236.186 337.206 236.186 336.336C236.186 335.675 235.733 335.31 235.02 335.31C234.289 335.31 233.846 335.701 233.767 336.415H232.915C232.993 335.266 233.672 334.544 235.038 334.544ZM240.048 335.31C239.039 335.31 238.726 336.127 238.726 337.841C238.726 339.546 239.039 340.373 240.048 340.373C241.048 340.373 241.37 339.546 241.37 337.841C241.37 336.127 241.048 335.31 240.048 335.31ZM237.865 337.841C237.865 335.692 238.43 334.544 240.048 334.544C241.666 334.544 242.232 335.692 242.232 337.841C242.232 339.981 241.666 341.138 240.048 341.138C238.43 341.138 237.865 339.981 237.865 337.841ZM243.91 339.868V340.112L243.432 342.391H242.692L243.127 339.868H243.91ZM248.979 334.544C250.24 334.544 250.989 335.318 250.989 336.345C250.989 337.328 250.449 337.989 249.014 339.198L247.752 340.268H251.032V341.016H246.691V340.19L248.274 338.842C249.701 337.632 250.136 337.137 250.136 336.423C250.136 335.745 249.675 335.31 248.927 335.31C248.048 335.31 247.665 335.771 247.605 336.536H246.752C246.839 335.284 247.491 334.544 248.979 334.544ZM253.955 335.31C252.946 335.31 252.633 336.127 252.633 337.841C252.633 339.546 252.946 340.373 253.955 340.373C254.955 340.373 255.277 339.546 255.277 337.841C255.277 336.127 254.955 335.31 253.955 335.31ZM251.771 337.841C251.771 335.692 252.337 334.544 253.955 334.544C255.573 334.544 256.138 335.692 256.138 337.841C256.138 339.981 255.573 341.138 253.955 341.138C252.337 341.138 251.771 339.981 251.771 337.841ZM259.139 334.544C260.401 334.544 261.149 335.318 261.149 336.345C261.149 337.328 260.61 337.989 259.174 339.198L257.913 340.268H261.192V341.016H256.851V340.19L258.435 338.842C259.861 337.632 260.296 337.137 260.296 336.423C260.296 335.745 259.835 335.31 259.087 335.31C258.209 335.31 257.826 335.771 257.765 336.536H256.912C256.999 335.284 257.652 334.544 259.139 334.544ZM264.649 334.666H265.51V338.528H266.241V339.277H265.51V341.016H264.675V339.277H261.718V338.502L264.649 334.666ZM262.527 338.528H264.675V335.719L262.527 338.528Z" fill="#909090"/>
<path d="M462.092 321.561H463.245V322.649C464.836 322.821 465.818 323.749 465.871 325.34H464.651C464.585 324.385 464.054 323.882 463.245 323.723V326.613C465.168 327.024 466.136 327.833 466.136 329.291C466.136 330.895 464.783 331.704 463.245 331.836V332.924H462.092V331.823C460.501 331.651 459.374 330.776 459.242 329.092H460.461C460.554 330.033 461.124 330.59 462.092 330.763V327.62C460.355 327.236 459.48 326.533 459.48 325.141C459.48 323.736 460.581 322.834 462.092 322.662V321.561ZM460.74 325.062C460.74 325.844 461.204 326.242 462.092 326.48V323.709C461.257 323.855 460.74 324.319 460.74 325.062ZM463.245 330.789C464.187 330.683 464.876 330.232 464.876 329.397C464.876 328.548 464.319 328.045 463.245 327.78V330.789ZM470.754 322.224C472.677 322.224 473.817 323.404 473.817 324.969C473.817 326.467 472.995 327.475 470.807 329.317L468.885 330.948H473.883V332.088H467.267V330.829L469.68 328.774C471.855 326.931 472.518 326.175 472.518 325.088C472.518 324.054 471.815 323.391 470.675 323.391C469.336 323.391 468.752 324.094 468.659 325.26H467.36C467.493 323.351 468.487 322.224 470.754 322.224ZM478.338 323.391C476.8 323.391 476.322 324.637 476.322 327.249C476.322 329.848 476.8 331.107 478.338 331.107C479.862 331.107 480.353 329.848 480.353 327.249C480.353 324.637 479.862 323.391 478.338 323.391ZM475.01 327.249C475.01 323.974 475.872 322.224 478.338 322.224C480.804 322.224 481.665 323.974 481.665 327.249C481.665 330.511 480.804 332.274 478.338 332.274C475.872 332.274 475.01 330.511 475.01 327.249ZM486.08 323.391C484.542 323.391 484.065 324.637 484.065 327.249C484.065 329.848 484.542 331.107 486.08 331.107C487.605 331.107 488.095 329.848 488.095 327.249C488.095 324.637 487.605 323.391 486.08 323.391ZM482.752 327.249C482.752 323.974 483.614 322.224 486.08 322.224C488.546 322.224 489.408 323.974 489.408 327.249C489.408 330.511 488.546 332.274 486.08 332.274C483.614 332.274 482.752 330.511 482.752 327.249Z" fill="#5FF25F"/>
<rect x="130.81" y="358.59" width="54.6446" height="54.6417" rx="27.3208" fill="#F5F6F9"/>
<rect width="14.7331" height="21.3629" transform="matrix(1 0 -0.515038 0.857167 154.081 374.913)" fill="#0C78F2"/>
<path d="M209.871 374.841V386.483H208.005L204.21 380.088C203.54 378.907 202.886 377.695 202.248 376.499C202.328 378.014 202.36 379.498 202.36 380.821V386.483H200.892V374.841H202.742L206.427 380.997C207.144 382.241 207.83 383.501 208.5 384.76C208.436 383.277 208.404 381.698 208.404 380.391V374.841H209.871ZM213.219 382.32C213.219 384.553 214.128 385.414 215.659 385.414C217.19 385.414 218.099 384.553 218.099 382.32C218.099 380.104 217.19 379.258 215.659 379.258C214.128 379.258 213.219 380.104 213.219 382.32ZM211.656 382.32C211.656 379.354 213.139 377.951 215.659 377.951C218.179 377.951 219.678 379.354 219.678 382.32C219.678 385.303 218.179 386.706 215.659 386.706C213.139 386.706 211.656 385.303 211.656 382.32ZM224.929 377.951C225.152 377.951 225.328 377.951 225.487 377.998V379.258C223.653 379.083 222.68 380.072 222.68 382.591V386.483H221.181V378.174H222.569L222.617 379.785C222.792 378.525 223.749 377.951 224.929 377.951ZM229.001 384.011C229.001 385.303 229.272 385.43 230.851 385.319V386.563C230.452 386.61 230.054 386.642 229.527 386.642C228.124 386.642 227.613 386.052 227.55 385.111C227.518 384.681 227.518 384.362 227.518 383.883V379.466H226.385V378.222H227.518V375.686H229.001V378.222H230.883V379.466H229.001V384.011ZM243.748 374.841V376.212H237.544V380.104H243.413V381.459H237.544V386.483H236.013V374.841H243.748ZM248.234 377.951C250.418 377.951 251.312 378.939 251.423 380.391C251.455 380.821 251.471 381.14 251.471 381.619V386.483H250.1L250.02 385.255C249.557 386.371 248.473 386.706 247.261 386.706C245.682 386.706 244.534 385.845 244.534 384.266C244.534 382.129 246.336 381.475 249.541 381.475H249.972V381.06C249.972 380.008 249.701 379.258 248.17 379.258C246.942 379.258 246.336 379.673 246.192 380.71H244.821C244.9 379.067 245.857 377.951 248.234 377.951ZM246.049 384.091C246.049 384.92 246.623 385.414 247.707 385.414C248.887 385.414 249.972 384.665 249.972 383.532V382.687C247.659 382.623 246.049 382.783 246.049 384.091ZM260.535 378.174L257.52 382.336L260.519 386.483H258.796L256.563 383.277L254.171 386.483H252.56L255.606 382.336L252.672 378.174H254.378L256.579 381.395L258.828 378.174H260.535ZM264.996 377.951C267.548 377.951 268.649 379.705 268.649 382.177C268.649 382.352 268.649 382.591 268.633 382.831H262.684C262.811 384.713 263.609 385.414 264.996 385.414C266.097 385.414 266.814 384.936 267.054 384.027H268.537C268.218 385.733 266.942 386.706 264.948 386.706C262.429 386.706 261.137 385.207 261.137 382.352C261.137 379.513 262.429 377.951 264.996 377.951ZM262.7 381.635H267.117C267.006 379.896 266.145 379.258 264.933 379.258C263.641 379.258 262.827 379.864 262.7 381.635Z" fill="black"/>
</g>
<path d="M143.078 91.4148H477.684C493.775 91.4149 506.82 104.46 506.82 120.552V364.36C506.82 380.452 493.775 393.496 477.684 393.496H143.078C126.986 393.496 113.941 380.452 113.941 364.36V120.552C113.941 104.46 126.986 91.4148 143.078 91.4148Z" stroke="#E0E7F5" stroke-width="0.6134"/>
</g>
</g>
<defs>
<filter id="filter0_d_374_55236" x="98.177" y="87.9185" width="439.129" height="348.332" filterUnits="userSpaceOnUse" color-interpolation-filters="sRGB">
<feFlood flood-opacity="0" result="BackgroundImageFix"/>
<feColorMatrix in="SourceAlpha" type="matrix" values="0 0 0 0 0 0 0 0 0 0 0 0 0 0 0 0 0 0 127 0" result="hardAlpha"/>
<feMorphology radius="2.4536" operator="erode" in="SourceAlpha" result="effect1_dropShadow_374_55236"/>
<feOffset dx="7.3608" dy="19.6288"/>
<feGaussianBlur stdDeviation="12.636"/>
<feComposite in2="hardAlpha" operator="out"/>
<feColorMatrix type="matrix" values="0 0 0 0 0 0 0 0 0 0 0 0 0 0 0 0 0 0 0.07 0"/>
<feBlend mode="normal" in2="BackgroundImageFix" result="effect1_dropShadow_374_55236"/>
<feBlend mode="normal" in="SourceGraphic" in2="effect1_dropShadow_374_55236" result="shape"/>
</filter>
<clipPath id="clip0_374_55236">
<rect width="620.761" height="393.803" fill="white"/>
</clipPath>
<clipPath id="clip1_374_55236">
<path d="M113.635 120.551C113.635 104.29 126.817 91.1082 143.078 91.1082H477.683C493.944 91.1082 507.126 104.29 507.126 120.551V364.36C507.126 380.621 493.944 393.803 477.683 393.803H143.078C126.817 393.803 113.635 380.621 113.635 364.36V120.551Z" fill="white"/>
</clipPath>
<clipPath id="clip2_374_55236">
<rect width="10.6502" height="10.6502" fill="white" transform="translate(160.63 182.438)"/>
</clipPath>
<clipPath id="clip3_374_55236">
<rect width="10.6502" height="10.6502" fill="white" transform="translate(345.109 182.438)"/>
</clipPath>
</defs>
</svg>
