<svg width="598" height="601" viewBox="0 0 598 601" fill="none" xmlns="http://www.w3.org/2000/svg">
<g filter="url(#filter0_d_440_6649)">
<rect x="76.1841" y="63.9163" width="413.432" height="498.958" rx="26.9896" fill="white" shape-rendering="crispEdges"/>
<path d="M112.988 301.558C112.988 297.012 116.673 293.328 121.218 293.328H444.582C449.127 293.328 452.812 297.012 452.812 301.558V514.232C452.812 518.778 449.127 522.462 444.582 522.462H121.218C116.673 522.462 112.988 518.778 112.988 514.232V301.558Z" fill="white"/>
<path d="M181.376 406.485H217.333" stroke="#E0E7F5" stroke-width="0.705029"/>
<path d="M227.203 406.133H384.424" stroke="#E0E7F5" stroke-width="0.705029"/>
<g filter="url(#filter1_i_440_6649)">
<rect x="134.845" y="314.126" width="46.5319" height="46.5319" rx="23.2659" fill="#F5F6F9"/>
<rect x="135.091" y="314.373" width="46.0384" height="46.0384" rx="23.0192" stroke="#E0E7F5" stroke-width="0.49352"/>
<g clip-path="url(#clip0_440_6649)">
<path d="M158.111 326.817C158.283 326.817 158.451 326.855 158.617 326.93C158.782 327.006 158.926 327.102 159.05 327.219L168.283 336.452C168.421 336.59 168.521 336.745 168.583 336.917C168.645 337.089 168.679 337.268 168.686 337.454C168.686 337.633 168.648 337.802 168.572 337.96C168.497 338.118 168.4 338.256 168.283 338.373L159.092 347.565C158.823 347.833 158.496 347.968 158.111 347.968C157.938 347.968 157.77 347.93 157.605 347.854C157.439 347.778 157.295 347.682 157.171 347.565L147.938 338.332C147.821 338.215 147.724 338.074 147.649 337.908C147.573 337.743 147.535 337.571 147.535 337.392C147.535 337.213 147.57 337.037 147.638 336.865C147.707 336.693 147.807 336.542 147.938 336.411L154.269 330.08L156.665 332.476C156.582 332.676 156.541 332.886 156.541 333.106C156.541 333.547 156.699 333.925 157.016 334.242L157.098 334.325C157.112 334.339 157.129 334.349 157.15 334.356C157.171 334.363 157.191 334.366 157.212 334.366C157.233 334.366 157.267 334.38 157.315 334.407V340.263C157.233 340.298 157.164 340.346 157.109 340.408C157.054 340.47 156.992 340.532 156.923 340.594C156.744 340.773 156.603 340.962 156.499 341.162C156.396 341.361 156.345 341.592 156.345 341.854C156.345 342.088 156.389 342.305 156.479 342.504C156.568 342.704 156.689 342.883 156.84 343.041C156.992 343.2 157.171 343.32 157.377 343.403C157.584 343.485 157.804 343.53 158.038 343.537C158.272 343.537 158.496 343.499 158.71 343.423C158.923 343.348 159.105 343.241 159.257 343.103C159.408 342.966 159.532 342.793 159.629 342.587C159.725 342.38 159.773 342.157 159.773 341.916C159.773 341.764 159.753 341.613 159.711 341.461C159.67 341.31 159.608 341.169 159.525 341.038C159.443 340.907 159.346 340.783 159.236 340.666C159.126 340.549 159.006 340.456 158.875 340.387V334.697L161.064 336.886C160.982 337.086 160.94 337.292 160.94 337.506C160.94 337.733 160.982 337.943 161.064 338.136C161.147 338.328 161.264 338.501 161.415 338.652C161.567 338.804 161.736 338.917 161.921 338.993C162.107 339.069 162.321 339.113 162.562 339.127C162.789 339.127 162.999 339.086 163.192 339.003C163.385 338.921 163.557 338.804 163.708 338.652C163.86 338.501 163.973 338.332 164.049 338.146C164.125 337.96 164.169 337.747 164.183 337.506C164.183 337.285 164.142 337.079 164.059 336.886C163.977 336.693 163.86 336.521 163.708 336.37C163.557 336.218 163.388 336.101 163.202 336.019C163.016 335.936 162.806 335.891 162.572 335.884C162.386 335.884 162.207 335.915 162.035 335.977L159.691 333.633C159.753 333.461 159.784 333.282 159.784 333.096C159.784 332.869 159.742 332.659 159.66 332.466C159.577 332.273 159.46 332.101 159.309 331.949C159.157 331.798 158.988 331.684 158.803 331.609C158.617 331.533 158.403 331.492 158.162 331.485C157.997 331.485 157.825 331.512 157.646 331.567L155.209 329.13L157.129 327.219C157.398 326.951 157.725 326.817 158.111 326.817Z" fill="#7050F0"/>
</g>
</g>
<rect x="248.183" y="371.768" width="69.4346" height="69.4346" rx="34.7173" fill="#7050F0"/>
<rect x="248.183" y="371.768" width="69.4346" height="69.4346" rx="34.7173" stroke="#573DC1" stroke-width="1.06823"/>
<path d="M266.877 404.803C266.877 406.053 267.796 406.996 269.014 406.996C273.758 406.996 278.517 407.425 281.367 410.032C281.406 410.068 281.456 410.092 281.509 410.101C281.562 410.11 281.616 410.103 281.665 410.083C281.714 410.062 281.757 410.028 281.786 409.985C281.815 409.941 281.831 409.89 281.831 409.838V422.242C281.831 422.294 281.816 422.345 281.786 422.388C281.757 422.432 281.714 422.466 281.665 422.487C281.616 422.507 281.562 422.513 281.509 422.504C281.456 422.495 281.406 422.471 281.367 422.435C278.517 419.828 273.758 419.399 269.014 419.399C267.796 419.399 266.877 418.457 266.877 417.208V404.803ZM298.924 417.331C298.924 417.879 298.698 418.405 298.298 418.792C297.897 419.18 297.354 419.398 296.787 419.398C289.134 419.397 286.127 420.774 284.413 422.421C284.376 422.456 284.329 422.48 284.278 422.49C284.228 422.499 284.175 422.493 284.128 422.474C284.08 422.455 284.039 422.422 284.011 422.38C283.982 422.339 283.967 422.29 283.967 422.241V409.836C283.967 409.886 283.982 409.935 284.011 409.977C284.039 410.019 284.08 410.051 284.128 410.071C284.175 410.09 284.228 410.096 284.278 410.086C284.329 410.077 284.376 410.053 284.413 410.018C286.127 408.371 289.134 406.993 296.787 406.994C297.354 406.994 297.897 406.776 298.298 406.388C298.698 406.001 298.924 405.475 298.924 404.927V417.331Z" fill="white"/>
<path d="M266.877 390.462C266.877 391.711 267.796 392.654 269.014 392.654C273.758 392.654 278.517 393.083 281.367 395.69C281.406 395.726 281.456 395.749 281.509 395.759C281.562 395.768 281.616 395.762 281.665 395.741C281.714 395.72 281.757 395.687 281.786 395.643C281.816 395.6 281.831 395.548 281.831 395.496V407.9C281.831 407.952 281.816 408.003 281.786 408.047C281.757 408.09 281.714 408.125 281.665 408.145C281.616 408.166 281.562 408.172 281.509 408.163C281.456 408.154 281.406 408.129 281.367 408.094C278.517 405.487 273.758 405.057 269.014 405.057C267.796 405.057 266.877 404.115 266.877 402.866V390.462ZM298.924 402.989C298.924 403.537 298.698 404.063 298.298 404.451C297.897 404.839 297.354 405.056 296.787 405.056C289.134 405.056 286.127 406.433 284.413 408.08C284.376 408.115 284.329 408.139 284.278 408.148C284.228 408.158 284.175 408.152 284.128 408.133C284.08 408.113 284.039 408.08 284.011 408.039C283.982 407.997 283.967 407.949 283.967 407.899V395.495C283.967 395.545 283.982 395.594 284.011 395.635C284.039 395.677 284.08 395.71 284.128 395.729C284.175 395.749 284.228 395.754 284.278 395.745C284.329 395.736 284.376 395.712 284.413 395.677C286.127 394.029 289.134 392.651 296.787 392.652C297.354 392.652 297.897 392.434 298.298 392.047C298.698 391.659 298.924 391.134 298.924 390.586V402.989Z" fill="white"/>
<g filter="url(#filter2_i_440_6649)">
<rect x="384.425" y="314.126" width="46.5319" height="46.5319" rx="23.2659" fill="#F5F6F9"/>
<rect x="384.672" y="314.373" width="46.0384" height="46.0384" rx="23.0192" stroke="#E0E7F5" stroke-width="0.49352"/>
<g clip-path="url(#clip1_440_6649)">
<path d="M407.691 326.817C407.863 326.817 408.032 326.855 408.197 326.93C408.362 327.006 408.507 327.102 408.631 327.219L417.864 336.452C418.002 336.59 418.101 336.745 418.163 336.917C418.225 337.089 418.26 337.268 418.267 337.454C418.267 337.633 418.229 337.802 418.153 337.96C418.077 338.118 417.981 338.256 417.864 338.373L408.672 347.565C408.404 347.833 408.077 347.968 407.691 347.968C407.519 347.968 407.35 347.93 407.185 347.854C407.02 347.778 406.875 347.682 406.751 347.565L397.518 338.332C397.401 338.215 397.305 338.074 397.229 337.908C397.154 337.743 397.116 337.571 397.116 337.392C397.116 337.213 397.15 337.037 397.219 336.865C397.288 336.693 397.388 336.542 397.518 336.411L403.849 330.08L406.245 332.476C406.163 332.676 406.121 332.886 406.121 333.106C406.121 333.547 406.28 333.925 406.596 334.242L406.679 334.325C406.693 334.339 406.71 334.349 406.731 334.356C406.751 334.363 406.772 334.366 406.793 334.366C406.813 334.366 406.848 334.38 406.896 334.407V340.263C406.813 340.298 406.744 340.346 406.689 340.408C406.634 340.47 406.572 340.532 406.503 340.594C406.324 340.773 406.183 340.962 406.08 341.162C405.977 341.361 405.925 341.592 405.925 341.854C405.925 342.088 405.97 342.305 406.059 342.504C406.149 342.704 406.269 342.883 406.421 343.041C406.572 343.2 406.751 343.32 406.958 343.403C407.164 343.485 407.385 343.53 407.619 343.537C407.853 343.537 408.077 343.499 408.29 343.423C408.504 343.348 408.686 343.241 408.838 343.103C408.989 342.966 409.113 342.793 409.209 342.587C409.306 342.38 409.354 342.157 409.354 341.916C409.354 341.764 409.333 341.613 409.292 341.461C409.251 341.31 409.189 341.169 409.106 341.038C409.023 340.907 408.927 340.783 408.817 340.666C408.707 340.549 408.586 340.456 408.455 340.387V334.697L410.645 336.886C410.562 337.086 410.521 337.292 410.521 337.506C410.521 337.733 410.562 337.943 410.645 338.136C410.727 338.328 410.845 338.501 410.996 338.652C411.147 338.804 411.316 338.917 411.502 338.993C411.688 339.069 411.901 339.113 412.142 339.127C412.37 339.127 412.58 339.086 412.772 339.003C412.965 338.921 413.137 338.804 413.289 338.652C413.44 338.501 413.554 338.332 413.63 338.146C413.705 337.96 413.75 337.747 413.764 337.506C413.764 337.285 413.722 337.079 413.64 336.886C413.557 336.693 413.44 336.521 413.289 336.37C413.137 336.218 412.969 336.101 412.783 336.019C412.597 335.936 412.387 335.891 412.153 335.884C411.967 335.884 411.788 335.915 411.616 335.977L409.271 333.633C409.333 333.461 409.364 333.282 409.364 333.096C409.364 332.869 409.323 332.659 409.24 332.466C409.158 332.273 409.041 332.101 408.889 331.949C408.738 331.798 408.569 331.684 408.383 331.609C408.197 331.533 407.984 331.492 407.743 331.485C407.578 331.485 407.405 331.512 407.226 331.567L404.789 329.13L406.71 327.219C406.979 326.951 407.306 326.817 407.691 326.817Z" fill="#7050F0"/>
</g>
</g>
<g filter="url(#filter3_i_440_6649)">
<rect x="134.845" y="383.219" width="46.5319" height="46.5319" rx="23.2659" fill="#F5F6F9"/>
<rect x="135.091" y="383.466" width="46.0384" height="46.0384" rx="23.0192" stroke="#E0E7F5" stroke-width="0.49352"/>
<path d="M165.017 405.151C164.997 405.304 164.932 405.448 164.832 405.565L156.239 415.003C156.13 415.144 155.979 415.246 155.807 415.294C155.734 415.303 155.66 415.303 155.587 415.294C155.462 415.294 155.339 415.267 155.225 415.215C155.049 415.132 154.908 414.988 154.829 414.81C154.752 414.651 154.73 414.471 154.767 414.298L155.525 408.253H152.326C152.143 408.241 151.964 408.197 151.797 408.121C151.634 408.035 151.494 407.91 151.39 407.758C151.286 407.606 151.22 407.431 151.198 407.248C151.18 407.062 151.207 406.875 151.277 406.702L154.609 398.374C154.697 398.163 154.843 397.982 155.032 397.854C155.22 397.731 155.441 397.667 155.666 397.669H162.047C162.231 397.672 162.411 397.717 162.575 397.801C162.741 397.893 162.883 398.024 162.99 398.18C163.088 398.337 163.148 398.515 163.166 398.7C163.184 398.883 163.154 399.069 163.078 399.237L160.971 404.146H164.188C164.348 404.151 164.503 404.2 164.638 404.287C164.779 404.382 164.89 404.515 164.958 404.672C165.025 404.828 165.045 405 165.017 405.168V405.151Z" fill="#7050F0"/>
</g>
<g filter="url(#filter4_i_440_6649)">
<rect x="384.425" y="383.219" width="46.5319" height="46.5319" rx="23.2659" fill="#F5F6F9"/>
<rect x="384.672" y="383.466" width="46.0384" height="46.0384" rx="23.0192" stroke="#E0E7F5" stroke-width="0.49352"/>
<path d="M414.597 405.151C414.577 405.304 414.513 405.448 414.412 405.565L405.82 415.003C405.711 415.144 405.559 415.246 405.388 415.294C405.314 415.303 405.241 415.303 405.167 415.294C405.043 415.294 404.92 415.267 404.806 415.215C404.629 415.132 404.489 414.988 404.409 414.81C404.333 414.651 404.311 414.471 404.348 414.298L405.106 408.253H401.907C401.724 408.241 401.545 408.197 401.378 408.121C401.215 408.035 401.075 407.91 400.97 407.758C400.866 407.606 400.8 407.431 400.779 407.248C400.76 407.062 400.787 406.875 400.858 406.702L404.189 398.374C404.277 398.163 404.424 397.982 404.612 397.854C404.801 397.731 405.022 397.667 405.247 397.669H411.627C411.811 397.672 411.992 397.717 412.156 397.801C412.322 397.893 412.464 398.024 412.57 398.18C412.669 398.337 412.729 398.515 412.746 398.7C412.765 398.883 412.734 399.069 412.658 399.237L410.552 404.146H413.769C413.929 404.151 414.084 404.2 414.218 404.287C414.36 404.382 414.471 404.515 414.538 404.672C414.605 404.828 414.626 405 414.597 405.168V405.151Z" fill="#7050F0"/>
</g>
<g filter="url(#filter5_i_440_6649)">
<rect x="134.845" y="455.132" width="46.5319" height="46.5319" rx="23.2659" fill="#F5F6F9"/>
<rect x="135.091" y="455.379" width="46.0384" height="46.0384" rx="23.0192" stroke="#E0E7F5" stroke-width="0.49352"/>
<g clip-path="url(#clip2_440_6649)">
<path d="M156.132 469.162C155.859 469.162 155.596 469.271 155.402 469.464L151.093 473.773C150.9 473.966 150.637 474.075 150.364 474.075H148.566C148.428 474.075 148.292 474.103 148.165 474.156C148.038 474.21 147.924 474.288 147.828 474.387C147.731 474.485 147.656 474.602 147.606 474.73C147.556 474.858 147.531 474.995 147.535 475.133L147.581 476.881C147.588 477.15 147.699 477.406 147.892 477.593C148.085 477.781 148.343 477.886 148.612 477.886H150.701C150.974 477.886 151.236 477.777 151.429 477.583L155.774 473.238C155.968 473.044 156.23 472.936 156.503 472.936H159.036C159.171 472.936 159.305 472.909 159.43 472.857C159.555 472.805 159.669 472.73 159.765 472.634C159.861 472.538 159.937 472.424 159.988 472.299C160.04 472.174 160.067 472.04 160.067 471.905V470.193C160.067 469.92 159.958 469.657 159.765 469.464C159.572 469.271 159.309 469.162 159.036 469.162H156.132ZM164.751 471.368C164.478 471.368 164.215 471.476 164.021 471.67L159.713 475.979C159.519 476.172 159.257 476.28 158.984 476.28H156.555C156.282 476.28 156.019 476.39 155.826 476.583L151.192 481.215C150.999 481.409 150.737 481.518 150.464 481.518H148.698C148.425 481.518 148.163 481.626 147.969 481.82C147.776 482.013 147.667 482.275 147.667 482.549V484.308C147.667 484.877 148.129 485.339 148.698 485.339H150.476C150.742 485.339 150.998 485.237 151.19 485.053L156.068 480.378C156.26 480.194 156.515 480.091 156.781 480.091H159.32C159.593 480.091 159.854 479.983 160.048 479.79L164.393 475.445C164.587 475.251 164.849 475.142 165.122 475.142H167.654C167.789 475.142 167.924 475.115 168.049 475.063C168.174 475.012 168.288 474.936 168.384 474.84C168.479 474.744 168.555 474.63 168.607 474.505C168.659 474.38 168.686 474.246 168.686 474.111V472.399C168.686 472.126 168.577 471.863 168.384 471.67C168.19 471.477 167.928 471.368 167.655 471.368H164.751ZM164.751 478.911C164.478 478.911 164.215 479.019 164.021 479.213L159.713 483.522C159.519 483.715 159.257 483.824 158.984 483.824H157.186C157.048 483.824 156.912 483.852 156.785 483.905C156.658 483.958 156.543 484.037 156.447 484.135C156.351 484.234 156.276 484.351 156.226 484.479C156.175 484.607 156.151 484.744 156.155 484.882L156.201 486.63C156.208 486.899 156.319 487.154 156.512 487.342C156.705 487.53 156.963 487.635 157.232 487.635H159.32C159.594 487.635 159.855 487.525 160.049 487.332L164.394 482.988C164.588 482.794 164.85 482.685 165.123 482.685H167.655C167.928 482.685 168.19 482.577 168.384 482.383C168.577 482.19 168.686 481.928 168.686 481.654V479.942C168.686 479.669 168.577 479.406 168.384 479.213C168.19 479.02 167.928 478.911 167.655 478.911H164.751Z" fill="#7050F0"/>
</g>
</g>
<g filter="url(#filter6_i_440_6649)">
<rect x="384.425" y="455.132" width="46.5319" height="46.5319" rx="23.2659" fill="#F5F6F9"/>
<rect x="384.672" y="455.379" width="46.0384" height="46.0384" rx="23.0192" stroke="#E0E7F5" stroke-width="0.49352"/>
<g clip-path="url(#clip3_440_6649)">
<path d="M405.713 469.162C405.439 469.162 405.177 469.271 404.983 469.464L400.673 473.773C400.48 473.966 400.218 474.075 399.945 474.075H398.147C398.009 474.075 397.873 474.103 397.746 474.156C397.619 474.21 397.504 474.288 397.408 474.387C397.312 474.485 397.237 474.602 397.186 474.73C397.136 474.858 397.112 474.995 397.116 475.133L397.161 476.881C397.168 477.15 397.28 477.406 397.473 477.593C397.665 477.781 397.924 477.886 398.193 477.886H400.281C400.554 477.886 400.816 477.777 401.01 477.583L405.355 473.238C405.549 473.044 405.81 472.936 406.084 472.936H408.616C408.752 472.936 408.886 472.909 409.011 472.857C409.136 472.805 409.25 472.73 409.345 472.634C409.441 472.538 409.517 472.424 409.569 472.299C409.621 472.174 409.647 472.04 409.647 471.905V470.193C409.647 469.92 409.539 469.657 409.345 469.464C409.152 469.271 408.89 469.162 408.616 469.162H405.713ZM414.331 471.368C414.058 471.368 413.796 471.476 413.602 471.67L409.293 475.979C409.1 476.172 408.838 476.28 408.564 476.28H406.136C405.862 476.28 405.6 476.39 405.407 476.583L400.773 481.215C400.58 481.409 400.317 481.518 400.044 481.518H398.279C398.005 481.518 397.743 481.626 397.55 481.82C397.356 482.013 397.248 482.275 397.248 482.549V484.308C397.248 484.877 397.71 485.339 398.279 485.339H400.056C400.323 485.339 400.578 485.237 400.77 485.053L405.648 480.378C405.84 480.194 406.096 480.091 406.362 480.091H408.9C409.173 480.091 409.435 479.983 409.629 479.79L413.974 475.445C414.168 475.251 414.429 475.142 414.703 475.142H417.234C417.37 475.142 417.504 475.115 417.629 475.063C417.755 475.012 417.868 474.936 417.964 474.84C418.06 474.744 418.136 474.63 418.188 474.505C418.24 474.38 418.266 474.246 418.266 474.111V472.399C418.266 472.126 418.158 471.863 417.964 471.67C417.771 471.477 417.509 471.368 417.235 471.368H414.331ZM414.331 478.911C414.058 478.911 413.796 479.019 413.602 479.213L409.293 483.522C409.1 483.715 408.838 483.824 408.564 483.824H406.767C406.629 483.824 406.493 483.852 406.366 483.905C406.239 483.958 406.124 484.037 406.028 484.135C405.932 484.234 405.856 484.351 405.806 484.479C405.756 484.607 405.732 484.744 405.735 484.882L405.781 486.63C405.788 486.899 405.9 487.154 406.092 487.342C406.285 487.53 406.543 487.635 406.812 487.635H408.901C409.174 487.635 409.436 487.525 409.63 487.332L413.975 482.988C414.168 482.794 414.43 482.685 414.703 482.685H417.235C417.509 482.685 417.771 482.577 417.964 482.383C418.158 482.19 418.266 481.928 418.266 481.654V479.942C418.266 479.669 418.158 479.406 417.964 479.213C417.771 479.02 417.509 478.911 417.235 478.911H414.331Z" fill="#7050F0"/>
</g>
</g>
<path d="M201.293 395.205V344.443C201.293 340.159 197.821 336.687 193.538 336.687H181.377" stroke="#E0E7F5" stroke-width="0.705029"/>
<path d="M201.292 395.205L201.301 396.674C201.334 402.102 205.743 406.485 211.171 406.485H247.65" stroke="#E0E7F5" stroke-width="0.705029"/>
<path d="M201.293 417.766V468.528C201.293 472.811 197.821 476.283 193.538 476.283H181.377" stroke="#E0E7F5" stroke-width="0.705029"/>
<path d="M201.292 417.766L201.301 416.296C201.334 410.868 205.743 406.485 211.171 406.485H247.65" stroke="#E0E7F5" stroke-width="0.705029"/>
<path d="M364.509 395.205V344.443C364.509 340.159 367.981 336.687 372.264 336.687H384.424" stroke="#E0E7F5" stroke-width="0.705029"/>
<path d="M364.509 395.205L364.501 396.674C364.468 402.102 360.059 406.485 354.63 406.485H318.152" stroke="#E0E7F5" stroke-width="0.705029"/>
<path d="M364.509 417.766V468.528C364.509 472.811 367.981 476.283 372.264 476.283H384.424" stroke="#E0E7F5" stroke-width="0.705029"/>
<path d="M364.509 417.766L364.501 416.296C364.468 410.868 360.059 406.485 354.63 406.485H318.152" stroke="#E0E7F5" stroke-width="0.705029"/>
<g filter="url(#filter7_dd_440_6649)">
<rect x="149.792" y="238.122" width="266.216" height="76.0616" rx="21.9409" fill="white"/>
<rect x="150.524" y="238.853" width="264.753" height="74.5989" rx="21.2095" stroke="#E0E7F5" stroke-width="1.46272"/>
<rect x="164.42" y="252.749" width="46.8072" height="46.8072" rx="23.4036" fill="#7050F0"/>
<path d="M194.77 274.81C194.75 274.964 194.685 275.109 194.584 275.227L185.941 284.721C185.831 284.863 185.679 284.966 185.506 285.014C185.432 285.023 185.359 285.023 185.285 285.014C185.159 285.013 185.035 284.986 184.921 284.934C184.743 284.851 184.602 284.706 184.522 284.526C184.445 284.367 184.423 284.186 184.46 284.012L185.223 277.931H182.005C181.821 277.919 181.64 277.874 181.473 277.798C181.309 277.711 181.168 277.586 181.063 277.433C180.958 277.281 180.892 277.104 180.87 276.92C180.851 276.733 180.879 276.545 180.95 276.371L184.301 267.993C184.389 267.781 184.536 267.6 184.726 267.47C184.916 267.347 185.138 267.282 185.364 267.284H191.783C191.968 267.288 192.15 267.333 192.315 267.417C192.481 267.51 192.624 267.641 192.731 267.798C192.831 267.957 192.891 268.135 192.909 268.321C192.927 268.506 192.896 268.693 192.82 268.862L190.701 273.8H193.937C194.098 273.805 194.254 273.854 194.389 273.942C194.531 274.037 194.643 274.171 194.711 274.328C194.778 274.486 194.799 274.659 194.77 274.828V274.81Z" fill="white"/>
<path d="M225.88 265.248C228.923 265.248 230.235 267.34 230.235 270.287C230.235 270.496 230.235 270.782 230.216 271.067H223.123C223.275 273.311 224.226 274.147 225.88 274.147C227.192 274.147 228.048 273.577 228.333 272.493H230.102C229.721 274.528 228.2 275.688 225.823 275.688C222.819 275.688 221.279 273.9 221.279 270.496C221.279 267.112 222.819 265.248 225.88 265.248ZM223.142 269.641H228.409C228.276 267.568 227.249 266.807 225.804 266.807C224.264 266.807 223.294 267.53 223.142 269.641ZM237.04 265.248C239.075 265.248 240.311 266.047 240.539 267.929C240.596 268.443 240.615 268.861 240.615 269.679V275.421H238.827V269.603C238.827 267.929 238.466 266.826 236.488 266.826C235.024 266.788 233.921 267.815 233.921 270.04V275.421H232.134V265.514H233.788L233.845 267.283C234.169 265.8 235.443 265.248 237.04 265.248ZM247.466 265.248C247.732 265.248 247.941 265.248 248.131 265.305V266.807C245.945 266.598 244.785 267.777 244.785 270.782V275.421H242.997V265.514H244.652L244.709 267.435C244.918 265.933 246.059 265.248 247.466 265.248ZM251.358 265.514V275.421H249.571V265.514H251.358ZM249.381 262.586C249.381 261.977 249.856 261.502 250.446 261.502C251.054 261.502 251.529 261.977 251.529 262.586C251.529 263.175 251.054 263.651 250.446 263.651C249.856 263.651 249.381 263.175 249.381 262.586ZM257.841 265.248C260.598 265.248 261.834 266.674 261.986 268.747H260.217C260.122 267.53 259.248 266.807 257.802 266.807C256.091 266.807 255.026 267.872 255.026 270.439C255.026 272.949 255.958 274.147 257.764 274.147C259.058 274.147 260.046 273.349 260.217 272.189H261.986C261.72 274.28 260.255 275.688 257.669 275.688C254.589 275.688 253.163 273.729 253.163 270.477C253.163 267.112 254.665 265.248 257.841 265.248ZM265.546 261.54V267.15C265.907 265.762 267.105 265.248 268.664 265.248C270.699 265.248 271.935 266.047 272.163 267.929C272.22 268.443 272.239 268.861 272.239 269.679V275.421H270.452V269.603C270.452 267.929 270.09 266.826 268.113 266.826C266.649 266.788 265.546 267.815 265.546 270.04V275.421H263.758V261.54H265.546ZM278.674 265.248C281.716 265.248 283.029 267.34 283.029 270.287C283.029 270.496 283.029 270.782 283.01 271.067H275.917C276.069 273.311 277.02 274.147 278.674 274.147C279.986 274.147 280.842 273.577 281.127 272.493H282.895C282.515 274.528 280.994 275.688 278.617 275.688C275.613 275.688 274.072 273.9 274.072 270.496C274.072 267.112 275.613 265.248 278.674 265.248ZM275.936 269.641H281.203C281.07 267.568 280.043 266.807 278.598 266.807C277.058 266.807 276.088 267.53 275.936 269.641ZM294.089 261.54V275.421H292.454L292.359 273.615C291.902 275.174 290.533 275.688 288.917 275.688C285.97 275.688 284.638 273.615 284.638 270.477C284.638 267.15 286.255 265.248 289.069 265.248C290.457 265.248 291.769 265.666 292.321 266.998V261.54H294.089ZM286.578 270.496C286.578 272.569 287.396 274.147 289.449 274.147C291.066 274.147 292.321 273.235 292.321 270.61V270.154C292.321 267.549 290.856 266.807 289.525 266.807C287.548 266.807 286.578 268.215 286.578 270.496ZM305.503 275.421C304.153 278.844 303.203 279.415 301.244 279.415C300.883 279.415 300.616 279.396 300.312 279.32V277.817C300.635 277.855 300.978 277.874 301.32 277.874C302.138 277.874 302.822 277.57 303.355 276.239L303.545 275.726L299.571 265.514H301.662L304.534 273.9L307.576 265.514H309.478L305.503 275.421ZM311.831 270.458C311.831 273.121 312.915 274.147 314.74 274.147C316.566 274.147 317.65 273.121 317.65 270.458C317.65 267.815 316.566 266.807 314.74 266.807C312.915 266.807 311.831 267.815 311.831 270.458ZM309.968 270.458C309.968 266.921 311.736 265.248 314.74 265.248C317.745 265.248 319.532 266.921 319.532 270.458C319.532 274.014 317.745 275.688 314.74 275.688C311.736 275.688 309.968 274.014 309.968 270.458ZM324.744 275.688C322.804 275.688 321.568 274.87 321.359 272.987C321.283 272.474 321.264 272.075 321.264 271.257V265.514H323.051V271.371C323.051 273.025 323.451 274.147 325.333 274.147C326.816 274.147 327.919 273.121 327.919 270.934V265.514H329.707V275.421H328.071L327.995 273.729C327.577 275.117 326.398 275.688 324.744 275.688ZM336.656 265.248C336.922 265.248 337.132 265.248 337.322 265.305V266.807C335.135 266.598 333.975 267.777 333.975 270.782V275.421H332.188V265.514H333.842L333.899 267.435C334.108 265.933 335.249 265.248 336.656 265.248ZM347.976 265.248C350.01 265.248 351.246 266.047 351.474 267.929C351.531 268.443 351.55 268.861 351.55 269.679V275.421H349.763V269.603C349.763 267.929 349.402 266.826 347.424 266.826C345.96 266.788 344.857 267.815 344.857 270.04V275.421H343.07V265.514H344.724L344.781 267.283C345.104 265.8 346.378 265.248 347.976 265.248ZM355.229 270.458C355.229 273.121 356.312 274.147 358.138 274.147C359.963 274.147 361.047 273.121 361.047 270.458C361.047 267.815 359.963 266.807 358.138 266.807C356.312 266.807 355.229 267.815 355.229 270.458ZM353.365 270.458C353.365 266.921 355.133 265.248 358.138 265.248C361.142 265.248 362.93 266.921 362.93 270.458C362.93 274.014 361.142 275.688 358.138 275.688C355.133 275.688 353.365 274.014 353.365 270.458ZM367.193 272.474C367.193 274.014 367.516 274.166 369.399 274.033V275.516C368.923 275.574 368.448 275.612 367.82 275.612C366.147 275.612 365.539 274.908 365.463 273.786C365.425 273.273 365.425 272.892 365.425 272.322V267.055H364.074V265.571H365.425V262.548H367.193V265.571H369.437V267.055H367.193V272.474ZM375.218 265.248C378.261 265.248 379.573 267.34 379.573 270.287C379.573 270.496 379.573 270.782 379.554 271.067H372.461C372.613 273.311 373.564 274.147 375.218 274.147C376.53 274.147 377.386 273.577 377.671 272.493H379.439C379.059 274.528 377.538 275.688 375.161 275.688C372.157 275.688 370.616 273.9 370.616 270.496C370.616 267.112 372.157 265.248 375.218 265.248ZM372.48 269.641H377.747C377.614 267.568 376.587 266.807 375.142 266.807C373.602 266.807 372.632 267.53 372.48 269.641ZM385.192 265.248C387.74 265.248 389.014 266.275 389.128 268.424H387.36C387.208 267.169 386.39 266.769 385.154 266.769C384.089 266.769 383.214 267.207 383.214 268.062C383.214 268.956 383.918 269.394 385.61 269.641C388.216 270.021 389.375 270.896 389.375 272.74C389.375 274.642 387.702 275.688 385.439 275.688C382.796 275.688 381.37 274.756 381.104 272.474H382.872C383.119 273.748 383.861 274.166 385.496 274.166C386.751 274.166 387.569 273.71 387.569 272.873C387.569 271.961 386.865 271.466 384.926 271.181C382.587 270.82 381.408 270.059 381.408 268.157C381.408 266.446 382.91 265.248 385.192 265.248Z" fill="black"/>
<path d="M227.407 293.822V293.884H226.224C226.11 293.407 225.996 292.764 225.913 292.069C225.789 291.063 225.457 290.762 224.274 290.762H222.802V293.884H221.795V286.312H224.212C224.617 286.312 224.949 286.323 225.312 286.364C226.421 286.489 227.21 287.08 227.21 288.397C227.21 289.341 226.691 289.995 225.861 290.285C226.484 290.523 226.836 291.011 226.93 291.841C227.013 292.598 227.096 293.044 227.23 293.594L227.407 293.822ZM222.802 289.87H224.326C225.384 289.87 226.193 289.611 226.193 288.542C226.193 287.599 225.654 287.204 224.347 287.204H222.802V289.87ZM230.678 288.335C232.337 288.335 233.053 289.476 233.053 291.084C233.053 291.198 233.053 291.353 233.043 291.509H229.174C229.257 292.733 229.775 293.189 230.678 293.189C231.393 293.189 231.86 292.878 232.016 292.287H232.98C232.773 293.397 231.943 294.029 230.647 294.029C229.008 294.029 228.168 293.054 228.168 291.198C228.168 289.351 229.008 288.335 230.678 288.335ZM229.184 290.731H232.057C231.985 289.6 231.425 289.185 230.636 289.185C229.796 289.185 229.267 289.58 229.184 290.731ZM235.043 292.473C235.043 293.199 235.146 293.262 235.737 293.199V293.905C235.561 293.936 235.271 293.957 235.074 293.957C234.379 293.957 234.119 293.687 234.088 293.075C234.068 292.836 234.068 292.629 234.068 292.235V286.312H235.043V292.473ZM238.852 288.335C240.511 288.335 241.227 289.476 241.227 291.084C241.227 291.198 241.227 291.353 241.217 291.509H237.348C237.431 292.733 237.949 293.189 238.852 293.189C239.567 293.189 240.034 292.878 240.19 292.287H241.154C240.947 293.397 240.117 294.029 238.821 294.029C237.182 294.029 236.342 293.054 236.342 291.198C236.342 289.351 237.182 288.335 238.852 288.335ZM237.358 290.731H240.231C240.159 289.6 239.599 289.185 238.81 289.185C237.97 289.185 237.441 289.58 237.358 290.731ZM247.109 288.48L244.899 293.884H243.79L241.549 288.48H242.659L244.37 293.023L246.061 288.48H247.109ZM249.788 288.335C251.209 288.335 251.79 288.978 251.863 289.922C251.883 290.202 251.894 290.409 251.894 290.721V293.884H251.002L250.95 293.085C250.649 293.811 249.944 294.029 249.155 294.029C248.129 294.029 247.382 293.469 247.382 292.442C247.382 291.052 248.554 290.627 250.639 290.627H250.919V290.358C250.919 289.673 250.742 289.185 249.747 289.185C248.948 289.185 248.554 289.455 248.46 290.129H247.569C247.62 289.061 248.243 288.335 249.788 288.335ZM248.367 292.328C248.367 292.868 248.741 293.189 249.446 293.189C250.213 293.189 250.919 292.702 250.919 291.965V291.415C249.415 291.374 248.367 291.478 248.367 292.328ZM255.848 288.335C256.958 288.335 257.632 288.771 257.756 289.797C257.787 290.077 257.798 290.306 257.798 290.752V293.884H256.823V290.71C256.823 289.797 256.626 289.196 255.547 289.196C254.748 289.175 254.147 289.735 254.147 290.949V293.884H253.172V288.48H254.074L254.105 289.445C254.282 288.636 254.976 288.335 255.848 288.335ZM260.384 292.276C260.384 293.117 260.561 293.199 261.587 293.127V293.936C261.328 293.967 261.069 293.988 260.727 293.988C259.814 293.988 259.482 293.604 259.44 292.992C259.42 292.712 259.42 292.505 259.42 292.193V289.32H258.683V288.511H259.42V286.862H260.384V288.511H261.608V289.32H260.384V292.276ZM269.446 288.48L267.424 290.617L269.55 293.884H268.368L266.667 291.218L265.785 292.09V293.884H264.81V286.312H265.785V291.198L268.357 288.48H269.446ZM273.047 288.335C274.157 288.335 274.831 288.771 274.955 289.797C274.986 290.077 274.997 290.306 274.997 290.752V293.884H274.022V290.71C274.022 289.797 273.825 289.196 272.746 289.196C271.947 289.175 271.346 289.735 271.346 290.949V293.884H270.371V288.48H271.273L271.304 289.445C271.481 288.636 272.175 288.335 273.047 288.335ZM277.003 291.177C277.003 292.629 277.594 293.189 278.59 293.189C279.586 293.189 280.177 292.629 280.177 291.177C280.177 289.735 279.586 289.185 278.59 289.185C277.594 289.185 277.003 289.735 277.003 291.177ZM275.986 291.177C275.986 289.248 276.951 288.335 278.59 288.335C280.229 288.335 281.204 289.248 281.204 291.177C281.204 293.117 280.229 294.029 278.59 294.029C276.951 294.029 275.986 293.117 275.986 291.177ZM289.494 288.48L287.918 293.884H286.839C286.393 292.546 285.968 291.146 285.563 289.725C285.179 291.146 284.723 292.546 284.287 293.884H283.219L281.622 288.48H282.669C283.074 289.963 283.458 291.436 283.8 292.919C284.204 291.467 284.65 290.057 285.107 288.605H286.071C286.538 290.077 286.984 291.53 287.378 292.992C287.72 291.488 288.094 289.984 288.509 288.48H289.494ZM291.248 292.473C291.248 293.199 291.352 293.262 291.943 293.199V293.905C291.767 293.936 291.476 293.957 291.279 293.957C290.584 293.957 290.325 293.687 290.294 293.075C290.273 292.836 290.273 292.629 290.273 292.235V286.312H291.248V292.473ZM295.057 288.335C296.717 288.335 297.433 289.476 297.433 291.084C297.433 291.198 297.433 291.353 297.422 291.509H293.553C293.636 292.733 294.155 293.189 295.057 293.189C295.773 293.189 296.24 292.878 296.395 292.287H297.36C297.152 293.397 296.323 294.029 295.026 294.029C293.387 294.029 292.547 293.054 292.547 291.198C292.547 289.351 293.387 288.335 295.057 288.335ZM293.564 290.731H296.437C296.364 289.6 295.804 289.185 295.016 289.185C294.176 289.185 293.647 289.58 293.564 290.731ZM303.466 286.312V293.884H302.574L302.522 292.899C302.273 293.749 301.526 294.029 300.644 294.029C299.037 294.029 298.311 292.899 298.311 291.187C298.311 289.372 299.192 288.335 300.727 288.335C301.484 288.335 302.2 288.563 302.501 289.289V286.312H303.466ZM299.369 291.198C299.369 292.328 299.815 293.189 300.935 293.189C301.816 293.189 302.501 292.691 302.501 291.26V291.011C302.501 289.59 301.702 289.185 300.976 289.185C299.898 289.185 299.369 289.953 299.369 291.198ZM309.501 292.411C309.501 293.085 309.501 293.438 309.491 293.77C309.439 295.222 308.568 296 307.002 296C305.747 296 304.699 295.678 304.585 294.185H305.549C305.684 294.973 306.244 295.16 307.002 295.16C308.091 295.16 308.526 294.527 308.526 293.677V292.65C308.381 293.5 307.779 293.843 306.773 293.843C305.166 293.843 304.44 292.733 304.44 291.094C304.44 289.341 305.311 288.335 306.836 288.335C307.748 288.335 308.36 288.605 308.568 289.341L308.599 288.48H309.501V292.411ZM305.498 291.094C305.498 292.152 305.912 292.992 306.981 292.992C307.862 292.992 308.526 292.515 308.526 291.187V290.897C308.526 289.59 307.738 289.185 307.012 289.185C306.006 289.185 305.498 289.932 305.498 291.094ZM313.006 288.335C314.665 288.335 315.381 289.476 315.381 291.084C315.381 291.198 315.381 291.353 315.371 291.509H311.502C311.585 292.733 312.103 293.189 313.006 293.189C313.721 293.189 314.188 292.878 314.344 292.287H315.308C315.101 293.397 314.271 294.029 312.975 294.029C311.336 294.029 310.496 293.054 310.496 291.198C310.496 289.351 311.336 288.335 313.006 288.335ZM311.512 290.731H314.385C314.313 289.6 313.753 289.185 312.964 289.185C312.124 289.185 311.595 289.58 311.512 290.731ZM320.974 288.335C322.395 288.335 322.976 288.978 323.049 289.922C323.07 290.202 323.08 290.409 323.08 290.721V293.884H322.188L322.136 293.085C321.835 293.811 321.13 294.029 320.342 294.029C319.315 294.029 318.568 293.469 318.568 292.442C318.568 291.052 319.74 290.627 321.825 290.627H322.105V290.358C322.105 289.673 321.929 289.185 320.933 289.185C320.134 289.185 319.74 289.455 319.647 290.129H318.755C318.807 289.061 319.429 288.335 320.974 288.335ZM319.553 292.328C319.553 292.868 319.927 293.189 320.632 293.189C321.4 293.189 322.105 292.702 322.105 291.965V291.415C320.601 291.374 319.553 291.478 319.553 292.328ZM329.223 286.312V293.884H328.331L328.28 292.899C328.031 293.749 327.284 294.029 326.402 294.029C324.795 294.029 324.069 292.899 324.069 291.187C324.069 289.372 324.95 288.335 326.485 288.335C327.242 288.335 327.958 288.563 328.259 289.289V286.312H329.223ZM325.126 291.198C325.126 292.328 325.572 293.189 326.693 293.189C327.574 293.189 328.259 292.691 328.259 291.26V291.011C328.259 289.59 327.46 289.185 326.734 289.185C325.655 289.185 325.126 289.953 325.126 291.198ZM335.402 286.312V293.884H334.51L334.458 292.899C334.209 293.749 333.463 294.029 332.581 294.029C330.973 294.029 330.247 292.899 330.247 291.187C330.247 289.372 331.129 288.335 332.664 288.335C333.421 288.335 334.137 288.563 334.438 289.289V286.312H335.402ZM331.305 291.198C331.305 292.328 331.751 293.189 332.871 293.189C333.753 293.189 334.438 292.691 334.438 291.26V291.011C334.438 289.59 333.639 289.185 332.913 289.185C331.834 289.185 331.305 289.953 331.305 291.198ZM338.916 288.335C340.575 288.335 341.291 289.476 341.291 291.084C341.291 291.198 341.291 291.353 341.28 291.509H337.412C337.495 292.733 338.013 293.189 338.916 293.189C339.631 293.189 340.098 292.878 340.254 292.287H341.218C341.011 293.397 340.181 294.029 338.885 294.029C337.246 294.029 336.406 293.054 336.406 291.198C336.406 289.351 337.246 288.335 338.916 288.335ZM337.422 290.731H340.295C340.223 289.6 339.662 289.185 338.874 289.185C338.034 289.185 337.505 289.58 337.422 290.731ZM347.324 286.312V293.884H346.432L346.38 292.899C346.131 293.749 345.384 294.029 344.503 294.029C342.895 294.029 342.169 292.899 342.169 291.187C342.169 289.372 343.051 288.335 344.586 288.335C345.343 288.335 346.058 288.563 346.359 289.289V286.312H347.324ZM343.227 291.198C343.227 292.328 343.673 293.189 344.793 293.189C345.675 293.189 346.359 292.691 346.359 291.26V291.011C346.359 289.59 345.561 289.185 344.835 289.185C343.756 289.185 343.227 289.953 343.227 291.198Z" fill="#909090"/>
</g>
<g filter="url(#filter8_dd_440_6649)">
<rect x="132.617" y="175.555" width="300.566" height="85.876" rx="24.7719" fill="white"/>
<rect x="133.443" y="176.381" width="298.915" height="84.2246" rx="23.9462" stroke="#E0E7F5" stroke-width="1.65146"/>
<rect x="149.132" y="192.07" width="52.8468" height="52.8468" rx="26.4234" fill="#7050F0"/>
<g clip-path="url(#clip4_440_6649)">
<path d="M185.564 210.426L175.555 206.923L165.546 210.426V218.493C165.546 222.624 168.083 225.511 170.447 227.304C171.874 228.375 173.44 229.249 175.101 229.901C175.214 229.944 175.328 229.985 175.443 230.023L175.555 230.063L175.669 230.023C175.888 229.947 176.105 229.866 176.32 229.779C177.867 229.142 179.327 228.31 180.664 227.304C183.029 225.511 185.564 222.624 185.564 218.493V210.426ZM174.555 221.911L170.311 217.664L171.726 216.248L174.556 219.08L180.218 213.418L181.635 214.833L174.555 221.911Z" fill="white"/>
</g>
<path d="M225.423 211.592C225.423 212.085 225.402 212.536 225.337 213.288C225.165 216.014 223.598 217.968 219.498 217.968C215.397 217.968 213.787 216.014 213.594 213.288C213.551 212.558 213.551 212.085 213.551 211.592V201.995H215.633V212.193C215.633 214.49 216.471 216.079 219.498 216.079C222.546 216.079 223.384 214.468 223.384 212.193V201.995H225.423V211.592ZM232.153 206.181C235.029 206.181 236.468 207.341 236.597 209.767H234.6C234.428 208.35 233.505 207.899 232.11 207.899C230.907 207.899 229.92 208.393 229.92 209.359C229.92 210.368 230.714 210.862 232.625 211.141C235.566 211.57 236.876 212.558 236.876 214.64C236.876 216.787 234.987 217.968 232.432 217.968C229.448 217.968 227.837 216.916 227.537 214.34H229.533C229.813 215.778 230.65 216.25 232.496 216.25C233.913 216.25 234.836 215.735 234.836 214.79C234.836 213.76 234.042 213.202 231.852 212.88C229.211 212.472 227.88 211.613 227.88 209.466C227.88 207.534 229.576 206.181 232.153 206.181ZM243.661 206.181C247.096 206.181 248.577 208.543 248.577 211.871C248.577 212.107 248.577 212.429 248.555 212.751H240.548C240.719 215.284 241.793 216.229 243.661 216.229C245.142 216.229 246.108 215.585 246.43 214.361H248.427C247.997 216.658 246.28 217.968 243.596 217.968C240.204 217.968 238.465 215.95 238.465 212.107C238.465 208.285 240.204 206.181 243.661 206.181ZM240.569 211.141H246.516C246.366 208.801 245.206 207.942 243.575 207.942C241.836 207.942 240.741 208.758 240.569 211.141ZM256.081 206.181C256.381 206.181 256.618 206.181 256.832 206.246V207.942C254.363 207.706 253.054 209.037 253.054 212.429V217.667H251.036V206.482H252.903L252.968 208.65C253.204 206.954 254.492 206.181 256.081 206.181ZM262.526 210.69V212.3H257.309V210.69H262.526ZM268.272 201.694C268.808 201.694 269.173 201.716 269.624 201.802V203.498C267.52 203.197 267.027 203.949 267.027 205.258V206.546H269.388V208.221H267.027V217.667H265.008V208.221H263.699V206.546H265.008V205.473C265.008 205.151 265.008 204.893 265.03 204.485C265.137 202.789 266.146 201.694 268.272 201.694ZM276.25 206.181C276.551 206.181 276.787 206.181 277.001 206.246V207.942C274.532 207.706 273.223 209.037 273.223 212.429V217.667H271.205V206.482H273.073L273.137 208.65C273.373 206.954 274.661 206.181 276.25 206.181ZM280.645 206.482V217.667H278.627V206.482H280.645ZM278.412 203.176C278.412 202.489 278.949 201.952 279.614 201.952C280.301 201.952 280.838 202.489 280.838 203.176C280.838 203.841 280.301 204.378 279.614 204.378C278.949 204.378 278.412 203.841 278.412 203.176ZM287.877 206.181C291.312 206.181 292.794 208.543 292.794 211.871C292.794 212.107 292.794 212.429 292.772 212.751H284.764C284.936 215.284 286.01 216.229 287.877 216.229C289.359 216.229 290.325 215.585 290.647 214.361H292.644C292.214 216.658 290.497 217.968 287.813 217.968C284.421 217.968 282.682 215.95 282.682 212.107C282.682 208.285 284.421 206.181 287.877 206.181ZM284.786 211.141H290.733C290.583 208.801 289.423 207.942 287.792 207.942C286.053 207.942 284.958 208.758 284.786 211.141ZM300.477 206.181C302.774 206.181 304.17 207.083 304.427 209.208C304.492 209.788 304.513 210.26 304.513 211.184V217.667H302.495V211.098C302.495 209.208 302.087 207.963 299.854 207.963C298.201 207.92 296.956 209.08 296.956 211.592V217.667H294.938V206.482H296.806L296.87 208.478C297.235 206.804 298.674 206.181 300.477 206.181ZM317.253 201.995V217.667H315.407L315.299 215.628C314.784 217.388 313.238 217.968 311.414 217.968C308.086 217.968 306.583 215.628 306.583 212.085C306.583 208.328 308.408 206.181 311.585 206.181C313.153 206.181 314.634 206.654 315.256 208.156V201.995H317.253ZM308.773 212.107C308.773 214.447 309.696 216.229 312.015 216.229C313.84 216.229 315.256 215.198 315.256 212.236V211.72C315.256 208.779 313.603 207.942 312.101 207.942C309.868 207.942 308.773 209.53 308.773 212.107ZM322.029 214.747C322.029 216.25 322.244 216.379 323.468 216.25V217.71C323.103 217.775 322.502 217.818 322.094 217.818C320.655 217.818 320.119 217.259 320.054 215.993C320.011 215.499 320.011 215.069 320.011 214.254V201.995H322.029V214.747ZM330.518 217.667C328.993 221.532 327.92 222.176 325.709 222.176C325.301 222.176 325 222.154 324.657 222.068V220.372C325.022 220.415 325.408 220.437 325.794 220.437C326.718 220.437 327.49 220.093 328.092 218.59L328.306 218.011L323.819 206.482H326.181L329.423 215.95L332.858 206.482H335.005L330.518 217.667Z" fill="black"/>
<path d="M219.668 229.77V238.319H218.298L215.511 233.623C215.019 232.756 214.539 231.866 214.071 230.988C214.129 232.1 214.153 233.189 214.153 234.161V238.319H213.075V229.77H214.434L217.139 234.29C217.666 235.204 218.169 236.129 218.661 237.054C218.614 235.965 218.591 234.805 218.591 233.845V229.77H219.668ZM222.126 235.262C222.126 236.902 222.794 237.534 223.918 237.534C225.042 237.534 225.71 236.902 225.71 235.262C225.71 233.634 225.042 233.014 223.918 233.014C222.794 233.014 222.126 233.634 222.126 235.262ZM220.979 235.262C220.979 233.084 222.068 232.054 223.918 232.054C225.768 232.054 226.869 233.084 226.869 235.262C226.869 237.452 225.768 238.483 223.918 238.483C222.068 238.483 220.979 237.452 220.979 235.262ZM229.495 236.503C229.495 237.452 229.694 237.546 230.853 237.464V238.377C230.56 238.412 230.267 238.436 229.881 238.436C228.85 238.436 228.476 238.002 228.429 237.312C228.405 236.995 228.405 236.761 228.405 236.41V233.166H227.574V232.253H228.405V230.391H229.495V232.253H230.876V233.166H229.495V236.503ZM234.437 232.054C236.31 232.054 237.118 233.342 237.118 235.157C237.118 235.286 237.118 235.461 237.107 235.637H232.739C232.832 237.019 233.418 237.534 234.437 237.534C235.245 237.534 235.772 237.183 235.947 236.515H237.036C236.802 237.768 235.865 238.483 234.402 238.483C232.551 238.483 231.603 237.382 231.603 235.286C231.603 233.201 232.551 232.054 234.437 232.054ZM232.75 234.759H235.994C235.912 233.482 235.28 233.014 234.39 233.014C233.441 233.014 232.844 233.459 232.75 234.759ZM240.579 232.054C242.148 232.054 242.933 232.686 243.003 234.009H241.914C241.82 233.236 241.317 232.99 240.556 232.99C239.9 232.99 239.361 233.26 239.361 233.787C239.361 234.337 239.794 234.606 240.837 234.759C242.441 234.993 243.155 235.532 243.155 236.667C243.155 237.838 242.125 238.483 240.731 238.483C239.104 238.483 238.225 237.909 238.061 236.503H239.15C239.303 237.288 239.759 237.546 240.766 237.546C241.539 237.546 242.043 237.265 242.043 236.749C242.043 236.187 241.61 235.883 240.415 235.707C238.975 235.485 238.249 235.016 238.249 233.845C238.249 232.791 239.174 232.054 240.579 232.054ZM248.879 238.483C247.685 238.483 246.923 237.979 246.795 236.82C246.748 236.503 246.736 236.258 246.736 235.754V232.218H247.837V235.824C247.837 236.843 248.083 237.534 249.242 237.534C250.155 237.534 250.835 236.902 250.835 235.555V232.218H251.935V238.319H250.928L250.881 237.276C250.624 238.131 249.898 238.483 248.879 238.483ZM254.564 240.544H253.463V232.218H254.482L254.529 233.342C254.81 232.37 255.653 232.054 256.649 232.054C258.475 232.054 259.295 233.33 259.295 235.262C259.295 237.312 258.3 238.483 256.567 238.483C255.7 238.483 254.904 238.225 254.564 237.417V240.544ZM254.564 235.461C254.564 237.066 255.454 237.534 256.286 237.534C257.492 237.534 258.101 236.656 258.101 235.25C258.101 233.986 257.597 233.014 256.321 233.014C255.325 233.014 254.564 233.564 254.564 235.18V235.461ZM266.058 229.77V238.319H265.051L264.993 237.206C264.712 238.166 263.868 238.483 262.873 238.483C261.058 238.483 260.238 237.206 260.238 235.274C260.238 233.225 261.234 232.054 262.967 232.054C263.822 232.054 264.63 232.311 264.969 233.131V229.77H266.058ZM261.433 235.286C261.433 236.562 261.936 237.534 263.201 237.534C264.196 237.534 264.969 236.972 264.969 235.356V235.075C264.969 233.471 264.068 233.014 263.248 233.014C262.03 233.014 261.433 233.88 261.433 235.286ZM269.862 232.054C271.466 232.054 272.122 232.78 272.204 233.845C272.227 234.161 272.239 234.396 272.239 234.747V238.319H271.232L271.173 237.417C270.834 238.237 270.037 238.483 269.147 238.483C267.988 238.483 267.145 237.85 267.145 236.691C267.145 235.122 268.468 234.642 270.822 234.642H271.138V234.337C271.138 233.564 270.939 233.014 269.815 233.014C268.913 233.014 268.468 233.318 268.363 234.079H267.356C267.414 232.873 268.117 232.054 269.862 232.054ZM268.257 236.562C268.257 237.171 268.679 237.534 269.475 237.534C270.342 237.534 271.138 236.984 271.138 236.152V235.532C269.44 235.485 268.257 235.602 268.257 236.562ZM275.158 236.503C275.158 237.452 275.357 237.546 276.517 237.464V238.377C276.224 238.412 275.931 238.436 275.545 238.436C274.514 238.436 274.139 238.002 274.092 237.312C274.069 236.995 274.069 236.761 274.069 236.41V233.166H273.238V232.253H274.069V230.391H275.158V232.253H276.54V233.166H275.158V236.503ZM280.1 232.054C281.974 232.054 282.782 233.342 282.782 235.157C282.782 235.286 282.782 235.461 282.77 235.637H278.402C278.496 237.019 279.081 237.534 280.1 237.534C280.908 237.534 281.435 237.183 281.611 236.515H282.7C282.466 237.768 281.529 238.483 280.065 238.483C278.215 238.483 277.266 237.382 277.266 235.286C277.266 233.201 278.215 232.054 280.1 232.054ZM278.414 234.759H281.658C281.576 233.482 280.943 233.014 280.053 233.014C279.105 233.014 278.508 233.459 278.414 234.759ZM289.593 229.77V238.319H288.586L288.528 237.206C288.247 238.166 287.404 238.483 286.408 238.483C284.593 238.483 283.773 237.206 283.773 235.274C283.773 233.225 284.769 232.054 286.502 232.054C287.357 232.054 288.165 232.311 288.504 233.131V229.77H289.593ZM284.968 235.286C284.968 236.562 285.471 237.534 286.736 237.534C287.731 237.534 288.504 236.972 288.504 235.356V235.075C288.504 233.471 287.603 233.014 286.783 233.014C285.565 233.014 284.968 233.88 284.968 235.286ZM301.974 232.218L300.194 238.319H298.977C298.473 236.808 297.993 235.227 297.536 233.623C297.103 235.227 296.588 236.808 296.096 238.319H294.89L293.086 232.218H294.269C294.726 233.892 295.159 235.555 295.545 237.23C296.002 235.59 296.506 233.997 297.021 232.358H298.11C298.637 234.021 299.14 235.66 299.585 237.312C299.972 235.614 300.393 233.916 300.862 232.218H301.974ZM304.002 232.218V238.319H302.901V232.218H304.002ZM302.784 230.414C302.784 230.039 303.076 229.747 303.439 229.747C303.814 229.747 304.107 230.039 304.107 230.414C304.107 230.777 303.814 231.07 303.439 231.07C303.076 231.07 302.784 230.777 302.784 230.414ZM307.007 236.503C307.007 237.452 307.206 237.546 308.366 237.464V238.377C308.073 238.412 307.78 238.436 307.394 238.436C306.363 238.436 305.988 238.002 305.941 237.312C305.918 236.995 305.918 236.761 305.918 236.41V233.166H305.087V232.253H305.918V230.391H307.007V232.253H308.389V233.166H307.007V236.503ZM310.543 229.77V233.225C310.765 232.37 311.503 232.054 312.463 232.054C313.716 232.054 314.478 232.545 314.618 233.705C314.653 234.021 314.665 234.279 314.665 234.782V238.319H313.564V234.735C313.564 233.705 313.342 233.026 312.124 233.026C311.222 233.002 310.543 233.634 310.543 235.005V238.319H309.442V229.77H310.543ZM322.722 229.77L325.896 238.319H324.701L323.776 235.801H320.298L319.373 238.319H318.19L321.411 229.77H322.722ZM320.626 234.794H323.472L322.055 230.836L320.626 234.794ZM328.204 229.77V238.319H327.08V229.77H328.204ZM335.039 232.054C336.737 232.054 337.499 232.932 337.592 234.208H336.503C336.445 233.459 335.906 233.014 335.016 233.014C333.962 233.014 333.306 233.67 333.306 235.25C333.306 236.796 333.88 237.534 334.993 237.534C335.789 237.534 336.398 237.042 336.503 236.328H337.592C337.428 237.616 336.527 238.483 334.934 238.483C333.037 238.483 332.159 237.276 332.159 235.274C332.159 233.201 333.084 232.054 335.039 232.054ZM339.619 235.262C339.619 236.902 340.286 237.534 341.411 237.534C342.535 237.534 343.202 236.902 343.202 235.262C343.202 233.634 342.535 233.014 341.411 233.014C340.286 233.014 339.619 233.634 339.619 235.262ZM338.471 235.262C338.471 233.084 339.56 232.054 341.411 232.054C343.261 232.054 344.362 233.084 344.362 235.262C344.362 237.452 343.261 238.483 341.411 238.483C339.56 238.483 338.471 237.452 338.471 235.262ZM348.612 232.054C349.865 232.054 350.626 232.545 350.767 233.705C350.802 234.021 350.814 234.279 350.814 234.782V238.319H349.713V234.735C349.713 233.705 349.491 233.026 348.273 233.026C347.371 233.002 346.692 233.634 346.692 235.005V238.319H345.591V232.218H346.61L346.645 233.307C346.844 232.393 347.629 232.054 348.612 232.054ZM353.734 236.503C353.734 237.452 353.933 237.546 355.093 237.464V238.377C354.8 238.412 354.507 238.436 354.121 238.436C353.09 238.436 352.715 238.002 352.669 237.312C352.645 236.995 352.645 236.761 352.645 236.41V233.166H351.814V232.253H352.645V230.391H353.734V232.253H355.116V233.166H353.734V236.503ZM358.676 232.054C360.55 232.054 361.358 233.342 361.358 235.157C361.358 235.286 361.358 235.461 361.346 235.637H356.978C357.072 237.019 357.658 237.534 358.676 237.534C359.484 237.534 360.011 237.183 360.187 236.515H361.276C361.042 237.768 360.105 238.483 358.641 238.483C356.791 238.483 355.842 237.382 355.842 235.286C355.842 233.201 356.791 232.054 358.676 232.054ZM356.99 234.759H360.234C360.152 233.482 359.52 233.014 358.63 233.014C357.681 233.014 357.084 233.459 356.99 234.759ZM367.614 232.218L365.4 235.274L367.602 238.319H366.337L364.698 235.965L362.941 238.319H361.759L363.995 235.274L361.841 232.218H363.094L364.71 234.583L366.361 232.218H367.614ZM370.213 236.503C370.213 237.452 370.412 237.546 371.572 237.464V238.377C371.279 238.412 370.986 238.436 370.6 238.436C369.569 238.436 369.195 238.002 369.148 237.312C369.124 236.995 369.124 236.761 369.124 236.41V233.166H368.293V232.253H369.124V230.391H370.213V232.253H371.595V233.166H370.213V236.503Z" fill="#909090"/>
</g>
<g filter="url(#filter9_dd_440_6649)">
<rect x="112.988" y="100.72" width="339.824" height="97.0925" rx="28.0075" fill="white"/>
<rect x="113.922" y="101.654" width="337.957" height="95.2253" rx="27.0739" stroke="#E0E7F5" stroke-width="1.86716"/>
<rect x="131.66" y="119.392" width="59.7492" height="59.7492" rx="29.8746" fill="#7050F0"/>
<g clip-path="url(#clip5_440_6649)">
<path d="M161.535 135.687C157.933 135.687 154.479 137.118 151.933 139.664C149.386 142.211 147.956 145.665 147.956 149.266C147.956 152.868 149.386 156.322 151.933 158.868C154.479 161.415 157.933 162.846 161.535 162.846C165.136 162.846 168.59 161.415 171.137 158.868C173.684 156.322 175.114 152.868 175.114 149.266C175.114 145.665 173.684 142.211 171.137 139.664C168.59 137.118 165.136 135.687 161.535 135.687ZM162.114 139.761C163.108 139.773 164.096 139.921 165.05 140.202C167.046 140.791 169.023 142.179 169.376 144.366C169.451 144.83 169.449 145.305 169.384 145.77C169.148 147.429 168.15 148.912 167.019 150.104C165.816 151.373 164.284 152.202 163.013 153.383C162.269 154.075 161.966 154.922 162.863 155.641C164.09 156.267 165.111 155.942 166.224 155.265C166.883 154.866 167.446 154.334 167.934 153.743C168.182 153.444 168.412 153.13 168.632 152.809C168.818 152.538 168.991 152.224 169.24 151.999C169.386 151.832 169.588 151.725 169.808 151.697C169.972 151.681 170.136 151.716 170.279 151.798C170.421 151.881 170.533 152.006 170.6 152.157C170.734 152.473 170.615 152.881 170.472 153.175C169.735 154.698 168.924 155.721 168.36 156.321C166.678 158.191 164.049 159.417 161.621 158.41C160.225 157.833 159.134 156.534 158.939 155.017C158.577 152.186 161.868 150.547 163.601 148.943C164.662 147.96 165.825 146.45 165.283 144.912C164.763 143.439 163.033 142.798 161.61 142.649C160.206 142.504 158.781 142.794 157.509 143.389C156.511 143.855 155.67 144.563 154.883 145.325C154.623 145.577 154.374 145.846 154.105 146.087C153.872 146.295 153.592 146.485 153.276 146.528C152.805 146.591 152.356 146.247 152.416 145.749C152.514 144.944 153.086 144.242 153.589 143.642C153.9 143.27 154.233 142.92 154.589 142.592C155.394 141.851 156.309 141.24 157.302 140.782C158.81 140.089 160.454 139.741 162.114 139.762M159.602 145.719C161.365 145.657 161.775 146.889 160.6 147.804C158.605 149.357 156.077 150.911 155.82 153.406C155.716 154.41 156.219 156.001 156.827 157.072C156.873 157.151 156.896 157.245 156.893 157.344C156.882 157.605 156.678 157.819 156.409 157.807C156.225 157.798 156.057 157.705 155.899 157.608C155.176 157.161 154.499 156.6 153.97 155.932C153.665 155.545 153.412 155.121 153.218 154.669C153.035 154.236 152.912 153.781 152.852 153.315C152.793 152.85 152.797 152.379 152.865 151.914C152.898 151.677 152.947 151.443 153.009 151.213C153.771 148.395 156.831 146.048 159.231 145.749C159.361 145.733 159.484 145.723 159.602 145.719Z" fill="white"/>
</g>
<path d="M209.134 134.847C212.387 134.847 214.013 136.157 214.159 138.9H211.901C211.707 137.298 210.663 136.788 209.086 136.788C207.726 136.788 206.61 137.347 206.61 138.439C206.61 139.58 207.508 140.138 209.668 140.454C212.994 140.939 214.474 142.056 214.474 144.41C214.474 146.838 212.338 148.173 209.45 148.173C206.076 148.173 204.255 146.983 203.915 144.07H206.173C206.488 145.697 207.435 146.231 209.523 146.231C211.125 146.231 212.168 145.648 212.168 144.58C212.168 143.415 211.27 142.784 208.794 142.42C205.809 141.959 204.304 140.988 204.304 138.56C204.304 136.376 206.221 134.847 209.134 134.847ZM222.828 147.833C221.104 152.202 219.891 152.93 217.39 152.93C216.929 152.93 216.589 152.906 216.201 152.809V150.891C216.614 150.94 217.051 150.964 217.488 150.964C218.531 150.964 219.405 150.576 220.085 148.877L220.328 148.221L215.254 135.186H217.924L221.59 145.891L225.473 135.186H227.901L222.828 147.833ZM235.845 134.847C238.442 134.847 240.02 135.866 240.312 138.269C240.384 138.925 240.409 139.459 240.409 140.502V147.833H238.127V140.405C238.127 138.269 237.666 136.861 235.141 136.861C233.272 136.813 231.864 138.124 231.864 140.963V147.833H229.583V135.186H231.695L231.767 137.444C232.18 135.551 233.806 134.847 235.845 134.847ZM248.696 134.847C252.216 134.847 253.794 136.667 253.988 139.313H251.73C251.609 137.759 250.492 136.837 248.648 136.837C246.463 136.837 245.104 138.196 245.104 141.473C245.104 144.677 246.293 146.206 248.599 146.206C250.25 146.206 251.512 145.187 251.73 143.706H253.988C253.648 146.376 251.779 148.173 248.478 148.173C244.545 148.173 242.725 145.672 242.725 141.522C242.725 137.225 244.643 134.847 248.696 134.847ZM261.684 134.847C265.568 134.847 267.242 137.517 267.242 141.279C267.242 141.546 267.242 141.91 267.218 142.274H258.164C258.358 145.138 259.572 146.206 261.684 146.206C263.359 146.206 264.451 145.478 264.815 144.095H267.072C266.587 146.692 264.645 148.173 261.611 148.173C257.776 148.173 255.81 145.891 255.81 141.546C255.81 137.225 257.776 134.847 261.684 134.847ZM258.188 140.454H264.912C264.742 137.808 263.431 136.837 261.587 136.837C259.621 136.837 258.383 137.759 258.188 140.454ZM281.361 130.113V147.833H279.274L279.152 145.527C278.57 147.517 276.822 148.173 274.759 148.173C270.997 148.173 269.297 145.527 269.297 141.522C269.297 137.274 271.361 134.847 274.953 134.847C276.725 134.847 278.4 135.381 279.104 137.08V130.113H281.361ZM271.773 141.546C271.773 144.192 272.817 146.206 275.439 146.206C277.502 146.206 279.104 145.041 279.104 141.692V141.109C279.104 137.784 277.235 136.837 275.536 136.837C273.011 136.837 271.773 138.633 271.773 141.546ZM294.232 134.847C297.485 134.847 299.111 136.157 299.257 138.9H297C296.805 137.298 295.762 136.788 294.184 136.788C292.825 136.788 291.708 137.347 291.708 138.439C291.708 139.58 292.606 140.138 294.766 140.454C298.092 140.939 299.572 142.056 299.572 144.41C299.572 146.838 297.436 148.173 294.548 148.173C291.174 148.173 289.353 146.983 289.014 144.07H291.271C291.587 145.697 292.533 146.231 294.621 146.231C296.223 146.231 297.267 145.648 297.267 144.58C297.267 143.415 296.368 142.784 293.893 142.42C290.907 141.959 289.402 140.988 289.402 138.56C289.402 136.376 291.32 134.847 294.232 134.847ZM306.127 148.173C303.651 148.173 302.073 147.129 301.806 144.726C301.709 144.07 301.685 143.561 301.685 142.517V135.186H303.966V142.663C303.966 144.774 304.476 146.206 306.879 146.206C308.773 146.206 310.18 144.896 310.18 142.104V135.186H312.462V147.833H310.375L310.277 145.672C309.743 147.444 308.239 148.173 306.127 148.173ZM320.781 134.847C324.3 134.847 325.878 136.667 326.072 139.313H323.815C323.693 137.759 322.577 136.837 320.732 136.837C318.548 136.837 317.188 138.196 317.188 141.473C317.188 144.677 318.378 146.206 320.684 146.206C322.334 146.206 323.596 145.187 323.815 143.706H326.072C325.732 146.376 323.863 148.173 320.562 148.173C316.63 148.173 314.81 145.672 314.81 141.522C314.81 137.225 316.727 134.847 320.781 134.847ZM333.865 134.847C337.385 134.847 338.963 136.667 339.157 139.313H336.9C336.778 137.759 335.662 136.837 333.817 136.837C331.632 136.837 330.273 138.196 330.273 141.473C330.273 144.677 331.462 146.206 333.768 146.206C335.419 146.206 336.681 145.187 336.9 143.706H339.157C338.817 146.376 336.948 148.173 333.647 148.173C329.715 148.173 327.894 145.672 327.894 141.522C327.894 137.225 329.812 134.847 333.865 134.847ZM346.853 134.847C350.737 134.847 352.412 137.517 352.412 141.279C352.412 141.546 352.412 141.91 352.387 142.274H343.333C343.528 145.138 344.741 146.206 346.853 146.206C348.528 146.206 349.62 145.478 349.984 144.095H352.242C351.756 146.692 349.814 148.173 346.78 148.173C342.945 148.173 340.979 145.891 340.979 141.546C340.979 137.225 342.945 134.847 346.853 134.847ZM343.358 140.454H350.081C349.912 137.808 348.601 136.837 346.756 136.837C344.79 136.837 343.552 137.759 343.358 140.454ZM359.585 134.847C362.838 134.847 364.464 136.157 364.609 138.9H362.352C362.158 137.298 361.114 136.788 359.536 136.788C358.177 136.788 357.061 137.347 357.061 138.439C357.061 139.58 357.959 140.138 360.119 140.454C363.444 140.939 364.925 142.056 364.925 144.41C364.925 146.838 362.789 148.173 359.9 148.173C356.526 148.173 354.706 146.983 354.366 144.07H356.624C356.939 145.697 357.886 146.231 359.973 146.231C361.575 146.231 362.619 145.648 362.619 144.58C362.619 143.415 361.721 142.784 359.245 142.42C356.259 141.959 354.755 140.988 354.755 138.56C354.755 136.376 356.672 134.847 359.585 134.847ZM371.84 134.847C375.093 134.847 376.719 136.157 376.865 138.9H374.607C374.413 137.298 373.369 136.788 371.791 136.788C370.432 136.788 369.316 137.347 369.316 138.439C369.316 139.58 370.214 140.138 372.374 140.454C375.699 140.939 377.18 142.056 377.18 144.41C377.18 146.838 375.044 148.173 372.156 148.173C368.782 148.173 366.961 146.983 366.621 144.07H368.879C369.194 145.697 370.141 146.231 372.228 146.231C373.83 146.231 374.874 145.648 374.874 144.58C374.874 143.415 373.976 142.784 371.5 142.42C368.515 141.959 367.01 140.988 367.01 138.56C367.01 136.376 368.927 134.847 371.84 134.847ZM383.71 129.774C384.317 129.774 384.73 129.798 385.239 129.895V131.812C382.861 131.473 382.302 132.322 382.302 133.803V135.259H384.972V137.153H382.302V147.833H380.021V137.153H378.54V135.259H380.021V134.046C380.021 133.682 380.021 133.39 380.045 132.929C380.166 131.011 381.307 129.774 383.71 129.774ZM391.32 148.173C388.844 148.173 387.266 147.129 386.999 144.726C386.902 144.07 386.878 143.561 386.878 142.517V135.186H389.159V142.663C389.159 144.774 389.669 146.206 392.072 146.206C393.966 146.206 395.373 144.896 395.373 142.104V135.186H397.655V147.833H395.568L395.47 145.672C394.936 147.444 393.432 148.173 391.32 148.173ZM403.054 144.532C403.054 146.231 403.297 146.376 404.68 146.231V147.881C404.268 147.954 403.588 148.003 403.127 148.003C401.501 148.003 400.894 147.372 400.821 145.939C400.772 145.381 400.772 144.896 400.772 143.973V130.113H403.054V144.532ZM409.075 144.532C409.075 146.231 409.318 146.376 410.701 146.231V147.881C410.289 147.954 409.609 148.003 409.148 148.003C407.521 148.003 406.915 147.372 406.842 145.939C406.793 145.381 406.793 144.896 406.793 143.973V130.113H409.075V144.532ZM418.672 147.833C416.949 152.202 415.735 152.93 413.235 152.93C412.774 152.93 412.434 152.906 412.045 152.809V150.891C412.458 150.94 412.895 150.964 413.332 150.964C414.376 150.964 415.249 150.576 415.929 148.877L416.172 148.221L411.099 135.186H413.769L417.434 145.891L421.318 135.186H423.745L418.672 147.833Z" fill="black"/>
<path d="M205.229 162.035V171.7H203.958V162.035H205.229ZM210.511 164.617C211.557 164.617 212.193 165.106 212.471 165.888C212.709 164.895 213.715 164.617 214.615 164.617C215.992 164.617 216.76 165.318 216.906 166.457C216.959 166.814 216.972 167.106 216.972 167.503V171.7H215.728V167.702C215.728 166.589 215.529 165.702 214.298 165.702C213.252 165.702 212.656 166.404 212.656 167.887V171.7H211.425V167.728C211.425 166.642 211.239 165.702 209.981 165.702C208.962 165.702 208.366 166.391 208.366 167.874V171.7H207.122V164.802H208.274L208.313 165.808C208.525 164.934 209.452 164.617 210.511 164.617ZM219.861 174.216H218.616V164.802H219.768L219.821 166.073C220.139 164.974 221.092 164.617 222.217 164.617C224.283 164.617 225.21 166.06 225.21 168.244C225.21 170.561 224.084 171.885 222.125 171.885C221.145 171.885 220.245 171.594 219.861 170.68V174.216ZM219.861 168.469C219.861 170.283 220.867 170.813 221.807 170.813C223.171 170.813 223.859 169.82 223.859 168.231C223.859 166.801 223.29 165.702 221.847 165.702C220.721 165.702 219.861 166.325 219.861 168.152V168.469ZM227.573 168.244C227.573 170.098 228.328 170.813 229.599 170.813C230.87 170.813 231.625 170.098 231.625 168.244C231.625 166.404 230.87 165.702 229.599 165.702C228.328 165.702 227.573 166.404 227.573 168.244ZM226.276 168.244C226.276 165.782 227.507 164.617 229.599 164.617C231.691 164.617 232.936 165.782 232.936 168.244C232.936 170.72 231.691 171.885 229.599 171.885C227.507 171.885 226.276 170.72 226.276 168.244ZM237.295 164.617C237.48 164.617 237.626 164.617 237.758 164.656V165.702C236.235 165.557 235.428 166.378 235.428 168.469V171.7H234.183V164.802H235.335L235.375 166.139C235.52 165.093 236.315 164.617 237.295 164.617ZM240.675 169.648C240.675 170.72 240.9 170.826 242.211 170.733V171.766C241.88 171.806 241.549 171.832 241.112 171.832C239.947 171.832 239.523 171.342 239.47 170.561C239.444 170.204 239.444 169.939 239.444 169.542V165.874H238.503V164.842H239.444V162.737H240.675V164.842H242.237V165.874H240.675V169.648ZM252.587 162.035V171.7H251.448L251.382 170.442C251.064 171.528 250.111 171.885 248.985 171.885C246.933 171.885 246.006 170.442 246.006 168.258C246.006 165.941 247.132 164.617 249.091 164.617C250.058 164.617 250.971 164.908 251.355 165.835V162.035H252.587ZM247.357 168.271C247.357 169.714 247.926 170.813 249.356 170.813C250.481 170.813 251.355 170.177 251.355 168.35V168.033C251.355 166.219 250.336 165.702 249.409 165.702C248.032 165.702 247.357 166.682 247.357 168.271ZM256.887 164.617C258.701 164.617 259.442 165.437 259.535 166.642C259.561 167 259.575 167.265 259.575 167.662V171.7H258.436L258.37 170.68C257.986 171.607 257.085 171.885 256.079 171.885C254.768 171.885 253.815 171.17 253.815 169.86C253.815 168.085 255.311 167.543 257.973 167.543H258.33V167.198C258.33 166.325 258.105 165.702 256.834 165.702C255.814 165.702 255.311 166.047 255.192 166.907H254.054C254.12 165.543 254.914 164.617 256.887 164.617ZM255.073 169.714C255.073 170.402 255.55 170.813 256.45 170.813C257.43 170.813 258.33 170.191 258.33 169.251V168.549C256.41 168.496 255.073 168.628 255.073 169.714ZM262.875 169.648C262.875 170.72 263.1 170.826 264.411 170.733V171.766C264.08 171.806 263.749 171.832 263.312 171.832C262.147 171.832 261.723 171.342 261.67 170.561C261.644 170.204 261.644 169.939 261.644 169.542V165.874H260.704V164.842H261.644V162.737H262.875V164.842H264.437V165.874H262.875V169.648ZM268.355 164.617C270.169 164.617 270.911 165.437 271.003 166.642C271.03 167 271.043 167.265 271.043 167.662V171.7H269.904L269.838 170.68C269.454 171.607 268.554 171.885 267.548 171.885C266.237 171.885 265.284 171.17 265.284 169.86C265.284 168.085 266.78 167.543 269.441 167.543H269.799V167.198C269.799 166.325 269.573 165.702 268.302 165.702C267.283 165.702 266.78 166.047 266.661 166.907H265.522C265.588 165.543 266.383 164.617 268.355 164.617ZM266.542 169.714C266.542 170.402 267.018 170.813 267.918 170.813C268.898 170.813 269.799 170.191 269.799 169.251V168.549C267.879 168.496 266.542 168.628 266.542 169.714ZM277.848 161.849C278.179 161.849 278.404 161.863 278.682 161.916V162.962C277.384 162.776 277.08 163.24 277.08 164.047V164.842H278.536V165.874H277.08V171.7H275.835V165.874H275.028V164.842H275.835V164.18C275.835 163.981 275.835 163.822 275.849 163.571C275.915 162.525 276.537 161.849 277.848 161.849ZM282.768 164.617C282.953 164.617 283.099 164.617 283.231 164.656V165.702C281.709 165.557 280.901 166.378 280.901 168.469V171.7H279.657V164.802H280.808L280.848 166.139C280.994 165.093 281.788 164.617 282.768 164.617ZM284.942 168.244C284.942 170.098 285.697 170.813 286.968 170.813C288.239 170.813 288.993 170.098 288.993 168.244C288.993 166.404 288.239 165.702 286.968 165.702C285.697 165.702 284.942 166.404 284.942 168.244ZM283.644 168.244C283.644 165.782 284.876 164.617 286.968 164.617C289.059 164.617 290.304 165.782 290.304 168.244C290.304 170.72 289.059 171.885 286.968 171.885C284.876 171.885 283.644 170.72 283.644 168.244ZM294.941 164.617C295.987 164.617 296.623 165.106 296.901 165.888C297.139 164.895 298.145 164.617 299.046 164.617C300.423 164.617 301.19 165.318 301.336 166.457C301.389 166.814 301.402 167.106 301.402 167.503V171.7H300.158V167.702C300.158 166.589 299.959 165.702 298.728 165.702C297.682 165.702 297.086 166.404 297.086 167.887V171.7H295.855V167.728C295.855 166.642 295.669 165.702 294.412 165.702C293.392 165.702 292.796 166.391 292.796 167.874V171.7H291.552V164.802H292.704L292.743 165.808C292.955 164.934 293.882 164.617 294.941 164.617ZM311.116 171.885C309.765 171.885 308.905 171.316 308.759 170.005C308.706 169.648 308.693 169.37 308.693 168.8V164.802H309.938V168.88C309.938 170.032 310.216 170.813 311.526 170.813C312.559 170.813 313.327 170.098 313.327 168.575V164.802H314.572V171.7H313.433L313.38 170.522C313.089 171.488 312.268 171.885 311.116 171.885ZM318.657 164.617C320.431 164.617 321.318 165.332 321.397 166.828H320.166C320.06 165.954 319.491 165.676 318.63 165.676C317.889 165.676 317.28 165.98 317.28 166.576C317.28 167.198 317.77 167.503 318.948 167.675C320.762 167.94 321.569 168.549 321.569 169.833C321.569 171.157 320.404 171.885 318.829 171.885C316.988 171.885 315.995 171.237 315.81 169.648H317.041C317.213 170.535 317.73 170.826 318.868 170.826C319.742 170.826 320.312 170.508 320.312 169.926C320.312 169.29 319.822 168.946 318.471 168.747C316.843 168.496 316.022 167.966 316.022 166.642C316.022 165.451 317.068 164.617 318.657 164.617ZM325.754 164.617C327.872 164.617 328.785 166.073 328.785 168.125C328.785 168.271 328.785 168.469 328.772 168.668H323.834C323.94 170.23 324.602 170.813 325.754 170.813C326.667 170.813 327.263 170.416 327.461 169.661H328.693C328.428 171.078 327.369 171.885 325.714 171.885C323.622 171.885 322.549 170.641 322.549 168.271C322.549 165.914 323.622 164.617 325.754 164.617ZM323.847 167.675H327.514C327.422 166.232 326.707 165.702 325.701 165.702C324.628 165.702 323.953 166.205 323.847 167.675ZM333.413 164.617C333.598 164.617 333.744 164.617 333.877 164.656V165.702C332.354 165.557 331.546 166.378 331.546 168.469V171.7H330.302V164.802H331.454L331.493 166.139C331.639 165.093 332.433 164.617 333.413 164.617ZM337.262 164.617C339.036 164.617 339.924 165.332 340.003 166.828H338.772C338.666 165.954 338.096 165.676 337.236 165.676C336.494 165.676 335.885 165.98 335.885 166.576C335.885 167.198 336.375 167.503 337.554 167.675C339.367 167.94 340.175 168.549 340.175 169.833C340.175 171.157 339.01 171.885 337.434 171.885C335.594 171.885 334.601 171.237 334.416 169.648H335.647C335.819 170.535 336.336 170.826 337.474 170.826C338.348 170.826 338.917 170.508 338.917 169.926C338.917 169.29 338.427 168.946 337.077 168.747C335.448 168.496 334.628 167.966 334.628 166.642C334.628 165.451 335.674 164.617 337.262 164.617Z" fill="#909090"/>
</g>
</g>
<defs>
<filter id="filter0_d_440_6649" x="-0.000231743" y="-4.76837e-05" width="597.697" height="683.223" filterUnits="userSpaceOnUse" color-interpolation-filters="sRGB">
<feFlood flood-opacity="0" result="BackgroundImageFix"/>
<feColorMatrix in="SourceAlpha" type="matrix" values="0 0 0 0 0 0 0 0 0 0 0 0 0 0 0 0 0 0 127 0" result="hardAlpha"/>
<feOffset dx="15.9484" dy="28.2164"/>
<feGaussianBlur stdDeviation="46.0664"/>
<feComposite in2="hardAlpha" operator="out"/>
<feColorMatrix type="matrix" values="0 0 0 0 0 0 0 0 0 0 0 0 0 0 0 0 0 0 0.11 0"/>
<feBlend mode="normal" in2="BackgroundImageFix" result="effect1_dropShadow_440_6649"/>
<feBlend mode="normal" in="SourceGraphic" in2="effect1_dropShadow_440_6649" result="shape"/>
</filter>
<filter id="filter1_i_440_6649" x="134.845" y="314.126" width="46.5317" height="46.532" filterUnits="userSpaceOnUse" color-interpolation-filters="sRGB">
<feFlood flood-opacity="0" result="BackgroundImageFix"/>
<feBlend mode="normal" in="SourceGraphic" in2="BackgroundImageFix" result="shape"/>
<feColorMatrix in="SourceAlpha" type="matrix" values="0 0 0 0 0 0 0 0 0 0 0 0 0 0 0 0 0 0 127 0" result="hardAlpha"/>
<feMorphology radius="1.41006" operator="erode" in="SourceAlpha" result="effect1_innerShadow_440_6649"/>
<feOffset/>
<feGaussianBlur stdDeviation="0.352514"/>
<feComposite in2="hardAlpha" operator="arithmetic" k2="-1" k3="1"/>
<feColorMatrix type="matrix" values="0 0 0 0 1 0 0 0 0 1 0 0 0 0 1 0 0 0 0.9 0"/>
<feBlend mode="normal" in2="shape" result="effect1_innerShadow_440_6649"/>
</filter>
<filter id="filter2_i_440_6649" x="384.425" y="314.126" width="46.5317" height="46.532" filterUnits="userSpaceOnUse" color-interpolation-filters="sRGB">
<feFlood flood-opacity="0" result="BackgroundImageFix"/>
<feBlend mode="normal" in="SourceGraphic" in2="BackgroundImageFix" result="shape"/>
<feColorMatrix in="SourceAlpha" type="matrix" values="0 0 0 0 0 0 0 0 0 0 0 0 0 0 0 0 0 0 127 0" result="hardAlpha"/>
<feMorphology radius="1.41006" operator="erode" in="SourceAlpha" result="effect1_innerShadow_440_6649"/>
<feOffset/>
<feGaussianBlur stdDeviation="0.352514"/>
<feComposite in2="hardAlpha" operator="arithmetic" k2="-1" k3="1"/>
<feColorMatrix type="matrix" values="0 0 0 0 1 0 0 0 0 1 0 0 0 0 1 0 0 0 0.9 0"/>
<feBlend mode="normal" in2="shape" result="effect1_innerShadow_440_6649"/>
</filter>
<filter id="filter3_i_440_6649" x="134.845" y="383.219" width="46.5317" height="46.532" filterUnits="userSpaceOnUse" color-interpolation-filters="sRGB">
<feFlood flood-opacity="0" result="BackgroundImageFix"/>
<feBlend mode="normal" in="SourceGraphic" in2="BackgroundImageFix" result="shape"/>
<feColorMatrix in="SourceAlpha" type="matrix" values="0 0 0 0 0 0 0 0 0 0 0 0 0 0 0 0 0 0 127 0" result="hardAlpha"/>
<feMorphology radius="1.41006" operator="erode" in="SourceAlpha" result="effect1_innerShadow_440_6649"/>
<feOffset/>
<feGaussianBlur stdDeviation="0.352514"/>
<feComposite in2="hardAlpha" operator="arithmetic" k2="-1" k3="1"/>
<feColorMatrix type="matrix" values="0 0 0 0 1 0 0 0 0 1 0 0 0 0 1 0 0 0 0.9 0"/>
<feBlend mode="normal" in2="shape" result="effect1_innerShadow_440_6649"/>
</filter>
<filter id="filter4_i_440_6649" x="384.425" y="383.219" width="46.5317" height="46.532" filterUnits="userSpaceOnUse" color-interpolation-filters="sRGB">
<feFlood flood-opacity="0" result="BackgroundImageFix"/>
<feBlend mode="normal" in="SourceGraphic" in2="BackgroundImageFix" result="shape"/>
<feColorMatrix in="SourceAlpha" type="matrix" values="0 0 0 0 0 0 0 0 0 0 0 0 0 0 0 0 0 0 127 0" result="hardAlpha"/>
<feMorphology radius="1.41006" operator="erode" in="SourceAlpha" result="effect1_innerShadow_440_6649"/>
<feOffset/>
<feGaussianBlur stdDeviation="0.352514"/>
<feComposite in2="hardAlpha" operator="arithmetic" k2="-1" k3="1"/>
<feColorMatrix type="matrix" values="0 0 0 0 1 0 0 0 0 1 0 0 0 0 1 0 0 0 0.9 0"/>
<feBlend mode="normal" in2="shape" result="effect1_innerShadow_440_6649"/>
</filter>
<filter id="filter5_i_440_6649" x="134.845" y="455.132" width="46.5317" height="46.532" filterUnits="userSpaceOnUse" color-interpolation-filters="sRGB">
<feFlood flood-opacity="0" result="BackgroundImageFix"/>
<feBlend mode="normal" in="SourceGraphic" in2="BackgroundImageFix" result="shape"/>
<feColorMatrix in="SourceAlpha" type="matrix" values="0 0 0 0 0 0 0 0 0 0 0 0 0 0 0 0 0 0 127 0" result="hardAlpha"/>
<feMorphology radius="1.41006" operator="erode" in="SourceAlpha" result="effect1_innerShadow_440_6649"/>
<feOffset/>
<feGaussianBlur stdDeviation="0.352514"/>
<feComposite in2="hardAlpha" operator="arithmetic" k2="-1" k3="1"/>
<feColorMatrix type="matrix" values="0 0 0 0 1 0 0 0 0 1 0 0 0 0 1 0 0 0 0.9 0"/>
<feBlend mode="normal" in2="shape" result="effect1_innerShadow_440_6649"/>
</filter>
<filter id="filter6_i_440_6649" x="384.425" y="455.132" width="46.5317" height="46.532" filterUnits="userSpaceOnUse" color-interpolation-filters="sRGB">
<feFlood flood-opacity="0" result="BackgroundImageFix"/>
<feBlend mode="normal" in="SourceGraphic" in2="BackgroundImageFix" result="shape"/>
<feColorMatrix in="SourceAlpha" type="matrix" values="0 0 0 0 0 0 0 0 0 0 0 0 0 0 0 0 0 0 127 0" result="hardAlpha"/>
<feMorphology radius="1.41006" operator="erode" in="SourceAlpha" result="effect1_innerShadow_440_6649"/>
<feOffset/>
<feGaussianBlur stdDeviation="0.352514"/>
<feComposite in2="hardAlpha" operator="arithmetic" k2="-1" k3="1"/>
<feColorMatrix type="matrix" values="0 0 0 0 1 0 0 0 0 1 0 0 0 0 1 0 0 0 0.9 0"/>
<feBlend mode="normal" in2="shape" result="effect1_innerShadow_440_6649"/>
</filter>
<filter id="filter7_dd_440_6649" x="112.215" y="201.505" width="341.371" height="163.288" filterUnits="userSpaceOnUse" color-interpolation-filters="sRGB">
<feFlood flood-opacity="0" result="BackgroundImageFix"/>
<feColorMatrix in="SourceAlpha" type="matrix" values="0 0 0 0 0 0 0 0 0 0 0 0 0 0 0 0 0 0 127 0" result="hardAlpha"/>
<feMorphology radius="2.92545" operator="erode" in="SourceAlpha" result="effect1_dropShadow_440_6649"/>
<feOffset dx="8.77634" dy="23.4036"/>
<feGaussianBlur stdDeviation="15.0661"/>
<feComposite in2="hardAlpha" operator="out"/>
<feColorMatrix type="matrix" values="0 0 0 0 0 0 0 0 0 0 0 0 0 0 0 0 0 0 0.07 0"/>
<feBlend mode="normal" in2="BackgroundImageFix" result="effect1_dropShadow_440_6649"/>
<feColorMatrix in="SourceAlpha" type="matrix" values="0 0 0 0 0 0 0 0 0 0 0 0 0 0 0 0 0 0 127 0" result="hardAlpha"/>
<feMorphology radius="7.68854" operator="dilate" in="SourceAlpha" result="effect2_dropShadow_440_6649"/>
<feOffset dy="0.961068"/>
<feGaussianBlur stdDeviation="14.9446"/>
<feComposite in2="hardAlpha" operator="out"/>
<feColorMatrix type="matrix" values="0 0 0 0 0 0 0 0 0 0 0 0 0 0 0 0 0 0 0.06 0"/>
<feBlend mode="normal" in2="effect1_dropShadow_440_6649" result="effect2_dropShadow_440_6649"/>
<feBlend mode="normal" in="SourceGraphic" in2="effect2_dropShadow_440_6649" result="shape"/>
</filter>
<filter id="filter8_dd_440_6649" x="90.1907" y="134.214" width="385.419" height="184.358" filterUnits="userSpaceOnUse" color-interpolation-filters="sRGB">
<feFlood flood-opacity="0" result="BackgroundImageFix"/>
<feColorMatrix in="SourceAlpha" type="matrix" values="0 0 0 0 0 0 0 0 0 0 0 0 0 0 0 0 0 0 127 0" result="hardAlpha"/>
<feMorphology radius="3.30292" operator="erode" in="SourceAlpha" result="effect1_dropShadow_440_6649"/>
<feOffset dx="9.90877" dy="26.4234"/>
<feGaussianBlur stdDeviation="17.0101"/>
<feComposite in2="hardAlpha" operator="out"/>
<feColorMatrix type="matrix" values="0 0 0 0 0 0 0 0 0 0 0 0 0 0 0 0 0 0 0.07 0"/>
<feBlend mode="normal" in2="BackgroundImageFix" result="effect1_dropShadow_440_6649"/>
<feColorMatrix in="SourceAlpha" type="matrix" values="0 0 0 0 0 0 0 0 0 0 0 0 0 0 0 0 0 0 127 0" result="hardAlpha"/>
<feMorphology radius="8.68061" operator="dilate" in="SourceAlpha" result="effect2_dropShadow_440_6649"/>
<feOffset dy="1.08508"/>
<feGaussianBlur stdDeviation="16.8729"/>
<feComposite in2="hardAlpha" operator="out"/>
<feColorMatrix type="matrix" values="0 0 0 0 0 0 0 0 0 0 0 0 0 0 0 0 0 0 0.06 0"/>
<feBlend mode="normal" in2="effect1_dropShadow_440_6649" result="effect2_dropShadow_440_6649"/>
<feBlend mode="normal" in="SourceGraphic" in2="effect2_dropShadow_440_6649" result="shape"/>
</filter>
<filter id="filter9_dd_440_6649" x="65.0204" y="53.9791" width="435.76" height="208.437" filterUnits="userSpaceOnUse" color-interpolation-filters="sRGB">
<feFlood flood-opacity="0" result="BackgroundImageFix"/>
<feColorMatrix in="SourceAlpha" type="matrix" values="0 0 0 0 0 0 0 0 0 0 0 0 0 0 0 0 0 0 127 0" result="hardAlpha"/>
<feMorphology radius="3.73433" operator="erode" in="SourceAlpha" result="effect1_dropShadow_440_6649"/>
<feOffset dx="11.203" dy="29.8746"/>
<feGaussianBlur stdDeviation="19.2318"/>
<feComposite in2="hardAlpha" operator="out"/>
<feColorMatrix type="matrix" values="0 0 0 0 0 0 0 0 0 0 0 0 0 0 0 0 0 0 0.07 0"/>
<feBlend mode="normal" in2="BackgroundImageFix" result="effect1_dropShadow_440_6649"/>
<feColorMatrix in="SourceAlpha" type="matrix" values="0 0 0 0 0 0 0 0 0 0 0 0 0 0 0 0 0 0 127 0" result="hardAlpha"/>
<feMorphology radius="9.8144" operator="dilate" in="SourceAlpha" result="effect2_dropShadow_440_6649"/>
<feOffset dy="1.2268"/>
<feGaussianBlur stdDeviation="19.0767"/>
<feComposite in2="hardAlpha" operator="out"/>
<feColorMatrix type="matrix" values="0 0 0 0 0 0 0 0 0 0 0 0 0 0 0 0 0 0 0.06 0"/>
<feBlend mode="normal" in2="effect1_dropShadow_440_6649" result="effect2_dropShadow_440_6649"/>
<feBlend mode="normal" in="SourceGraphic" in2="effect2_dropShadow_440_6649" result="shape"/>
</filter>
<clipPath id="clip0_440_6649">
<rect width="21.1509" height="21.1509" fill="white" transform="translate(147.535 326.817)"/>
</clipPath>
<clipPath id="clip1_440_6649">
<rect width="21.1509" height="21.1509" fill="white" transform="translate(397.116 326.817)"/>
</clipPath>
<clipPath id="clip2_440_6649">
<rect width="21.1509" height="21.1509" fill="white" transform="translate(147.535 467.823)"/>
</clipPath>
<clipPath id="clip3_440_6649">
<rect width="21.1509" height="21.1509" fill="white" transform="translate(397.116 467.823)"/>
</clipPath>
<clipPath id="clip4_440_6649">
<rect width="24.0213" height="24.0213" fill="white" transform="translate(163.544 206.482)"/>
</clipPath>
<clipPath id="clip5_440_6649">
<rect width="27.1587" height="27.1587" fill="white" transform="translate(147.956 135.687)"/>
</clipPath>
</defs>
</svg>
