<svg xmlns="http://www.w3.org/2000/svg" xmlns:xlink="http://www.w3.org/1999/xlink" contentStyleType="text/css" data-diagram-type="DESCRIPTION" height="1429px" preserveAspectRatio="none" style="width:2299px;height:1429px;background:#FFFFFF;" version="1.1" viewBox="0 0 2299 1429" width="2299px" zoomAndPan="magnify"><title>**SYSTEM ARCHITECTURE DIAGRAM (High-Level Data Flow)**
Project: NoteFiber Backend (Go/Fiber)</title><defs/><g><rect fill="#F9F9F9" height="28.0566" rx="2.5" ry="2.5" style="stroke:#DDDDDD;stroke-width:3;" width="2288" x="5" y="5"/><text fill="#000000" font-family="monospace" font-size="10" lengthAdjust="spacing" textLength="354.0576" x="10" y="20">Please&#160;use&#160;'!option&#160;handwritten&#160;true'&#160;to&#160;enable&#160;handwritten</text><g class="title" data-source-line="48"><text fill="#000000" font-family="'Segoe UI'" font-size="14" font-weight="bold" lengthAdjust="spacing" textLength="385.1709" x="942.4146" y="63.1641">SYSTEM ARCHITECTURE DIAGRAM (High-Level Data Flow)</text><text fill="#000000" font-family="'Segoe UI'" font-size="14" font-weight="bold" lengthAdjust="spacing" textLength="251.4668" x="1009.2666" y="81.7852">Project: NoteFiber Backend (Go/Fiber)</text></g><!--cluster L1--><g class="cluster" data-entity="L1" data-source-line="53" data-uid="ent0002" id="cluster_L1"><rect fill="none" height="110" rx="2.5" ry="2.5" style="stroke:#181818;stroke-width:1;" width="584" x="817" y="103.2988"/><text fill="#000000" font-family="'Segoe UI'" font-size="12" font-weight="bold" lengthAdjust="spacing" textLength="82.5059" x="1067.7471" y="118.248">L1: Entry Point</text></g><!--cluster L2--><g class="cluster" data-entity="L2" data-source-line="58" data-uid="ent0005" id="cluster_L2"><rect fill="none" height="254" rx="2.5" ry="2.5" style="stroke:#181818;stroke-width:1;" width="747" x="514" y="253.2988"/><text fill="#000000" font-family="'Segoe UI'" font-size="12" font-weight="bold" lengthAdjust="spacing" textLength="151.7754" x="811.6123" y="268.248">L2: Infrastructure &amp; Config</text></g><!--cluster L3--><g class="cluster" data-entity="L3" data-source-line="70" data-uid="ent0015" id="cluster_L3"><rect fill="none" height="190" rx="2.5" ry="2.5" style="stroke:#181818;stroke-width:1;" width="1315" x="7" y="547.2988"/><text fill="#000000" font-family="'Segoe UI'" font-size="12" font-weight="bold" lengthAdjust="spacing" textLength="177.9375" x="575.5313" y="562.248">L3: Interface Layer (Controllers)</text></g><!--cluster Auth & User--><g class="cluster" data-entity="Auth . User" data-source-line="71" data-uid="ent0016" id="cluster_Auth . User"><rect fill="none" height="94" rx="2.5" ry="2.5" style="stroke:#181818;stroke-width:1;" width="431" x="779" y="604.2988"/><text fill="#000000" font-family="'Segoe UI'" font-size="12" font-weight="bold" lengthAdjust="spacing" textLength="69.6328" x="959.6836" y="619.248">Auth &amp; User</text></g><!--cluster Core Features--><g class="cluster" data-entity="Core Features" data-source-line="76" data-uid="ent0019" id="cluster_Core Features"><rect fill="none" height="108" rx="2.5" ry="2.5" style="stroke:#181818;stroke-width:1;" width="653" x="39" y="597.2988"/><text fill="#000000" font-family="'Segoe UI'" font-size="12" font-weight="bold" lengthAdjust="spacing" textLength="77.0684" x="326.9658" y="612.248">Core Features</text></g><!--cluster L4--><g class="cluster" data-entity="L4" data-source-line="86" data-uid="ent0023" id="cluster_L4"><rect fill="none" height="190" rx="2.5" ry="2.5" style="stroke:#181818;stroke-width:1;" width="1255" x="57" y="777.2988"/><text fill="#000000" font-family="'Segoe UI'" font-size="12" font-weight="bold" lengthAdjust="spacing" textLength="158.543" x="605.2285" y="792.248">L4: Business Logic (Services)</text></g><!--cluster Domain Services--><g class="cluster" data-entity="Domain Services" data-source-line="87" data-uid="ent0024" id="cluster_Domain Services"><rect fill="none" height="108" rx="2.5" ry="2.5" style="stroke:#181818;stroke-width:1;" width="1111" x="89" y="827.2988"/><text fill="#000000" font-family="'Segoe UI'" font-size="12" font-weight="bold" lengthAdjust="spacing" textLength="93.0527" x="597.9736" y="842.248">Domain Services</text></g><!--cluster L5--><g class="cluster" data-entity="L5" data-source-line="99" data-uid="ent0030" id="cluster_L5"><rect fill="none" height="292" rx="2.5" ry="2.5" style="stroke:#181818;stroke-width:1;" width="996" x="132" y="1007.2988"/><text fill="#000000" font-family="'Segoe UI'" font-size="12" font-weight="bold" lengthAdjust="spacing" textLength="168.2754" x="545.8623" y="1022.248">L5: Data Access (Repositories)</text></g><!--cluster Repositories--><g class="cluster" data-entity="Repositories" data-source-line="103" data-uid="ent0035" id="cluster_Repositories"><rect fill="none" height="108" rx="2.5" ry="2.5" style="stroke:#181818;stroke-width:1;" width="924" x="164" y="1159.2988"/><text fill="#000000" font-family="'Segoe UI'" font-size="12" font-weight="bold" lengthAdjust="spacing" textLength="69.7559" x="591.1221" y="1174.248">Repositories</text></g><!--cluster L6--><g class="cluster" data-entity="L6" data-source-line="114" data-uid="ent0040" id="cluster_L6"><rect fill="none" height="94" rx="2.5" ry="2.5" style="stroke:#181818;stroke-width:1;" width="618" x="1660" y="834.2988"/><text fill="#000000" font-family="'Segoe UI'" font-size="12" font-weight="bold" lengthAdjust="spacing" textLength="152.9648" x="1892.5176" y="849.248">L6: Support &amp; External Pkg</text></g><!--entity Main--><g class="entity" data-entity="Main" data-source-line="54" data-uid="ent0003" id="entity_Main"><rect fill="#FFFFFF" height="44.0508" rx="2.5" ry="2.5" style="stroke:#333333;stroke-width:1.5;" width="145.5625" x="945" y="145.2988"/><rect fill="#FFFFFF" height="10" style="stroke:#333333;stroke-width:1.5;" width="15" x="1070.5625" y="150.2988"/><rect fill="#FFFFFF" height="2" style="stroke:#333333;stroke-width:1.5;" width="4" x="1068.5625" y="152.2988"/><rect fill="#FFFFFF" height="2" style="stroke:#333333;stroke-width:1.5;" width="4" x="1068.5625" y="156.2988"/><text fill="#000000" font-family="'Consolas'" font-size="12" lengthAdjust="spacing" textLength="105.5625" x="960" y="176.2617">cmd/rest/main.go</text></g><!--entity Migrate--><g class="entity" data-entity="Migrate" data-source-line="55" data-uid="ent0004" id="entity_Migrate"><rect fill="#FFFFFF" height="44.0508" rx="2.5" ry="2.5" style="stroke:#333333;stroke-width:1.5;" width="165.3555" x="1211.5" y="145.2988"/><rect fill="#FFFFFF" height="10" style="stroke:#333333;stroke-width:1.5;" width="15" x="1356.8555" y="150.2988"/><rect fill="#FFFFFF" height="2" style="stroke:#333333;stroke-width:1.5;" width="4" x="1354.8555" y="152.2988"/><rect fill="#FFFFFF" height="2" style="stroke:#333333;stroke-width:1.5;" width="4" x="1354.8555" y="156.2988"/><text fill="#000000" font-family="'Consolas'" font-size="12" lengthAdjust="spacing" textLength="125.3555" x="1226.5" y="176.2617">cmd/migrate/main.go</text></g><!--entity Config--><g class="entity" data-entity="Config" data-source-line="59" data-uid="ent0006" id="entity_Config"><rect fill="#FFFFFF" height="44.0508" rx="2.5" ry="2.5" style="stroke:#333333;stroke-width:1.5;" width="99.3789" x="538.5" y="295.2988"/><rect fill="#FFFFFF" height="10" style="stroke:#333333;stroke-width:1.5;" width="15" x="617.8789" y="300.2988"/><rect fill="#FFFFFF" height="2" style="stroke:#333333;stroke-width:1.5;" width="4" x="615.8789" y="302.2988"/><rect fill="#FFFFFF" height="2" style="stroke:#333333;stroke-width:1.5;" width="4" x="615.8789" y="306.2988"/><text fill="#000000" font-family="'Consolas'" font-size="12" lengthAdjust="spacing" textLength="59.3789" x="553.5" y="326.2617">config.go</text></g><!--entity Container--><g class="entity" data-entity="Container" data-source-line="60" data-uid="ent0007" id="entity_Container"><rect fill="#FFFFFF" height="44.0508" rx="2.5" ry="2.5" style="stroke:#333333;stroke-width:1.5;" width="119.1719" x="757.5" y="295.2988"/><rect fill="#FFFFFF" height="10" style="stroke:#333333;stroke-width:1.5;" width="15" x="856.6719" y="300.2988"/><rect fill="#FFFFFF" height="2" style="stroke:#333333;stroke-width:1.5;" width="4" x="854.6719" y="302.2988"/><rect fill="#FFFFFF" height="2" style="stroke:#333333;stroke-width:1.5;" width="4" x="854.6719" y="306.2988"/><text fill="#000000" font-family="'Consolas'" font-size="12" lengthAdjust="spacing" textLength="79.1719" x="772.5" y="326.2617">container.go</text></g><g class="entity" data-entity="GMN8" data-source-line="61" data-uid="ent0009" id="entity_GMN8"><path d="M997,296.2988 L997,320.2988 L876.72,324.2988 L997,328.2988 L997,338.2207 A0,0 0 0 0 997,338.2207 L1133.084,338.2207 A0,0 0 0 0 1133.084,338.2207 L1133.084,306.2988 L1123.084,296.2988 L997,296.2988 A0,0 0 0 0 997,296.2988" fill="#FAFAFA" style="stroke:#181818;stroke-width:0.5;"/><path d="M1123.084,296.2988 L1123.084,306.2988 L1133.084,306.2988 L1123.084,296.2988" fill="#FAFAFA" style="stroke:#181818;stroke-width:0.5;"/><text fill="#000000" font-family="'Segoe UI'" font-size="12" lengthAdjust="spacing" textLength="115.084" x="1003" y="314.248">Dependency Injection</text><text fill="#000000" font-family="'Segoe UI'" font-size="12" lengthAdjust="spacing" textLength="58.7402" x="1003" y="330.209">(Bootstrap)</text></g><!--entity Server--><g class="entity" data-entity="Server" data-source-line="63" data-uid="ent0011" id="entity_Server"><rect fill="#FFFFFF" height="44.0508" rx="2.5" ry="2.5" style="stroke:#333333;stroke-width:1.5;" width="99.3789" x="660.5" y="439.2988"/><rect fill="#FFFFFF" height="10" style="stroke:#333333;stroke-width:1.5;" width="15" x="739.8789" y="444.2988"/><rect fill="#FFFFFF" height="2" style="stroke:#333333;stroke-width:1.5;" width="4" x="737.8789" y="446.2988"/><rect fill="#FFFFFF" height="2" style="stroke:#333333;stroke-width:1.5;" width="4" x="737.8789" y="450.2988"/><text fill="#000000" font-family="'Consolas'" font-size="12" lengthAdjust="spacing" textLength="59.3789" x="675.5" y="470.2617">server.go</text></g><g class="entity" data-entity="GMN12" data-source-line="64" data-uid="ent0013" id="entity_GMN12"><path d="M880,440.2988 L880,464.2988 L759.63,468.2988 L880,472.2988 L880,482.2207 A0,0 0 0 0 880,482.2207 L968.3125,482.2207 A0,0 0 0 0 968.3125,482.2207 L968.3125,450.2988 L958.3125,440.2988 L880,440.2988 A0,0 0 0 0 880,440.2988" fill="#FAFAFA" style="stroke:#181818;stroke-width:0.5;"/><path d="M958.3125,440.2988 L958.3125,450.2988 L968.3125,450.2988 L958.3125,440.2988" fill="#FAFAFA" style="stroke:#181818;stroke-width:0.5;"/><text fill="#000000" font-family="'Segoe UI'" font-size="12" lengthAdjust="spacing" textLength="64.2949" x="886" y="458.248">Fiber App &amp;</text><text fill="#000000" font-family="'Segoe UI'" font-size="12" lengthAdjust="spacing" textLength="67.3125" x="886" y="474.209">Middlewares</text></g><!--entity C_Auth--><g class="entity" data-entity="C_Auth" data-source-line="72" data-uid="ent0017" id="entity_C_Auth"><rect fill="#FFFFFF" height="44.0508" rx="2.5" ry="2.5" style="stroke:#333333;stroke-width:1.5;" width="138.9648" x="1054.5" y="638.2988"/><rect fill="#FFFFFF" height="10" style="stroke:#333333;stroke-width:1.5;" width="15" x="1173.4648" y="643.2988"/><rect fill="#FFFFFF" height="2" style="stroke:#333333;stroke-width:1.5;" width="4" x="1171.4648" y="645.2988"/><rect fill="#FFFFFF" height="2" style="stroke:#333333;stroke-width:1.5;" width="4" x="1171.4648" y="649.2988"/><text fill="#000000" font-family="'Consolas'" font-size="12" lengthAdjust="spacing" textLength="98.9648" x="1069.5" y="669.2617">auth_controller</text></g><!--entity C_User--><g class="entity" data-entity="C_User" data-source-line="73" data-uid="ent0018" id="entity_C_User"><rect fill="#FFFFFF" height="44.0508" rx="2.5" ry="2.5" style="stroke:#333333;stroke-width:1.5;" width="138.9648" x="795.5" y="638.2988"/><rect fill="#FFFFFF" height="10" style="stroke:#333333;stroke-width:1.5;" width="15" x="914.4648" y="643.2988"/><rect fill="#FFFFFF" height="2" style="stroke:#333333;stroke-width:1.5;" width="4" x="912.4648" y="645.2988"/><rect fill="#FFFFFF" height="2" style="stroke:#333333;stroke-width:1.5;" width="4" x="912.4648" y="649.2988"/><text fill="#000000" font-family="'Consolas'" font-size="12" lengthAdjust="spacing" textLength="98.9648" x="810.5" y="669.2617">user_controller</text></g><!--entity C_Note--><g class="entity" data-entity="C_Note" data-source-line="77" data-uid="ent0020" id="entity_C_Note"><rect fill="#FFFFFF" height="44.0508" rx="2.5" ry="2.5" style="stroke:#333333;stroke-width:1.5;" width="138.9648" x="536.5" y="638.2988"/><rect fill="#FFFFFF" height="10" style="stroke:#333333;stroke-width:1.5;" width="15" x="655.4648" y="643.2988"/><rect fill="#FFFFFF" height="2" style="stroke:#333333;stroke-width:1.5;" width="4" x="653.4648" y="645.2988"/><rect fill="#FFFFFF" height="2" style="stroke:#333333;stroke-width:1.5;" width="4" x="653.4648" y="649.2988"/><text fill="#000000" font-family="'Consolas'" font-size="12" lengthAdjust="spacing" textLength="98.9648" x="551.5" y="669.2617">note_controller</text></g><!--entity C_Pay--><g class="entity" data-entity="C_Pay" data-source-line="78" data-uid="ent0021" id="entity_C_Pay"><rect fill="#FFFFFF" height="44.0508" rx="2.5" ry="2.5" style="stroke:#333333;stroke-width:1.5;" width="158.7578" x="257.5" y="638.2988"/><rect fill="#FFFFFF" height="10" style="stroke:#333333;stroke-width:1.5;" width="15" x="396.2578" y="643.2988"/><rect fill="#FFFFFF" height="2" style="stroke:#333333;stroke-width:1.5;" width="4" x="394.2578" y="645.2988"/><rect fill="#FFFFFF" height="2" style="stroke:#333333;stroke-width:1.5;" width="4" x="394.2578" y="649.2988"/><text fill="#000000" font-family="'Consolas'" font-size="12" lengthAdjust="spacing" textLength="118.7578" x="272.5" y="669.2617">payment_controller</text></g><!--entity C_More--><g class="entity" data-entity="C_More" data-source-line="79" data-uid="ent0022" id="entity_C_More"><rect fill="#FFFFFF" height="58.1016" rx="2.5" ry="2.5" style="stroke:#999999;stroke-width:1;stroke-dasharray:7,7;" width="81.5859" x="55" y="631.2988"/><rect fill="#FFFFFF" height="10" style="stroke:#999999;stroke-width:1;stroke-dasharray:7,7;" width="15" x="116.5859" y="636.2988"/><rect fill="#FFFFFF" height="2" style="stroke:#999999;stroke-width:1;stroke-dasharray:7,7;" width="4" x="114.5859" y="638.2988"/><rect fill="#FFFFFF" height="2" style="stroke:#999999;stroke-width:1;stroke-dasharray:7,7;" width="4" x="114.5859" y="642.2988"/><text fill="#999999" font-family="'Consolas'" font-size="12" font-style="italic" lengthAdjust="spacing" textLength="39.5859" x="71" y="662.2617">&#171;More&#187;</text><text fill="#999999" font-family="'Consolas'" font-size="12" lengthAdjust="spacing" textLength="19.793" x="80.8965" y="676.3125">...</text></g><!--entity S_Auth--><g class="entity" data-entity="S_Auth" data-source-line="88" data-uid="ent0025" id="entity_S_Auth"><rect fill="#FFFFFF" height="44.0508" rx="2.5" ry="2.5" style="stroke:#333333;stroke-width:1.5;" width="119.1719" x="1064.5" y="868.2988"/><rect fill="#FFFFFF" height="10" style="stroke:#333333;stroke-width:1.5;" width="15" x="1163.6719" y="873.2988"/><rect fill="#FFFFFF" height="2" style="stroke:#333333;stroke-width:1.5;" width="4" x="1161.6719" y="875.2988"/><rect fill="#FFFFFF" height="2" style="stroke:#333333;stroke-width:1.5;" width="4" x="1161.6719" y="879.2988"/><text fill="#000000" font-family="'Consolas'" font-size="12" lengthAdjust="spacing" textLength="79.1719" x="1079.5" y="899.2617">auth_service</text></g><!--entity S_Note--><g class="entity" data-entity="S_Note" data-source-line="89" data-uid="ent0026" id="entity_S_Note"><rect fill="#FFFFFF" height="44.0508" rx="2.5" ry="2.5" style="stroke:#333333;stroke-width:1.5;" width="119.1719" x="825.5" y="868.2988"/><rect fill="#FFFFFF" height="10" style="stroke:#333333;stroke-width:1.5;" width="15" x="924.6719" y="873.2988"/><rect fill="#FFFFFF" height="2" style="stroke:#333333;stroke-width:1.5;" width="4" x="922.6719" y="875.2988"/><rect fill="#FFFFFF" height="2" style="stroke:#333333;stroke-width:1.5;" width="4" x="922.6719" y="879.2988"/><text fill="#000000" font-family="'Consolas'" font-size="12" lengthAdjust="spacing" textLength="79.1719" x="840.5" y="899.2617">note_service</text></g><!--entity S_Pay--><g class="entity" data-entity="S_Pay" data-source-line="90" data-uid="ent0027" id="entity_S_Pay"><rect fill="#FFFFFF" height="44.0508" rx="2.5" ry="2.5" style="stroke:#333333;stroke-width:1.5;" width="138.9648" x="566.5" y="868.2988"/><rect fill="#FFFFFF" height="10" style="stroke:#333333;stroke-width:1.5;" width="15" x="685.4648" y="873.2988"/><rect fill="#FFFFFF" height="2" style="stroke:#333333;stroke-width:1.5;" width="4" x="683.4648" y="875.2988"/><rect fill="#FFFFFF" height="2" style="stroke:#333333;stroke-width:1.5;" width="4" x="683.4648" y="879.2988"/><text fill="#000000" font-family="'Consolas'" font-size="12" lengthAdjust="spacing" textLength="98.9648" x="581.5" y="899.2617">payment_service</text></g><!--entity S_Chat--><g class="entity" data-entity="S_Chat" data-source-line="91" data-uid="ent0028" id="entity_S_Chat"><rect fill="#FFFFFF" height="44.0508" rx="2.5" ry="2.5" style="stroke:#333333;stroke-width:1.5;" width="138.9648" x="307.5" y="868.2988"/><rect fill="#FFFFFF" height="10" style="stroke:#333333;stroke-width:1.5;" width="15" x="426.4648" y="873.2988"/><rect fill="#FFFFFF" height="2" style="stroke:#333333;stroke-width:1.5;" width="4" x="424.4648" y="875.2988"/><rect fill="#FFFFFF" height="2" style="stroke:#333333;stroke-width:1.5;" width="4" x="424.4648" y="879.2988"/><text fill="#000000" font-family="'Consolas'" font-size="12" lengthAdjust="spacing" textLength="98.9648" x="322.5" y="899.2617">chatbot_service</text></g><!--entity S_More--><g class="entity" data-entity="S_More" data-source-line="92" data-uid="ent0029" id="entity_S_More"><rect fill="#FFFFFF" height="58.1016" rx="2.5" ry="2.5" style="stroke:#999999;stroke-width:1;stroke-dasharray:7,7;" width="81.5859" x="105" y="861.2988"/><rect fill="#FFFFFF" height="10" style="stroke:#999999;stroke-width:1;stroke-dasharray:7,7;" width="15" x="166.5859" y="866.2988"/><rect fill="#FFFFFF" height="2" style="stroke:#999999;stroke-width:1;stroke-dasharray:7,7;" width="4" x="164.5859" y="868.2988"/><rect fill="#FFFFFF" height="2" style="stroke:#999999;stroke-width:1;stroke-dasharray:7,7;" width="4" x="164.5859" y="872.2988"/><text fill="#999999" font-family="'Consolas'" font-size="12" font-style="italic" lengthAdjust="spacing" textLength="39.5859" x="121" y="892.2617">&#171;More&#187;</text><text fill="#999999" font-family="'Consolas'" font-size="12" lengthAdjust="spacing" textLength="19.793" x="130.8965" y="906.3125">...</text></g><!--entity UoW--><g class="entity" data-entity="UoW" data-source-line="100" data-uid="ent0031" id="entity_UoW"><rect fill="#FFFFFF" height="44.0508" rx="2.5" ry="2.5" style="stroke:#333333;stroke-width:1.5;" width="105.9766" x="739" y="1049.2988"/><rect fill="#FFFFFF" height="10" style="stroke:#333333;stroke-width:1.5;" width="15" x="824.9766" y="1054.2988"/><rect fill="#FFFFFF" height="2" style="stroke:#333333;stroke-width:1.5;" width="4" x="822.9766" y="1056.2988"/><rect fill="#FFFFFF" height="2" style="stroke:#333333;stroke-width:1.5;" width="4" x="822.9766" y="1060.2988"/><text fill="#000000" font-family="'Consolas'" font-size="12" lengthAdjust="spacing" textLength="65.9766" x="754" y="1080.2617">UnitOfWork</text></g><g class="entity" data-entity="GMN32" data-source-line="101" data-uid="ent0033" id="entity_GMN32"><path d="M487,1058.2988 L487,1084.2598 A0,0 0 0 0 487,1084.2598 L619.4688,1084.2598 A0,0 0 0 0 619.4688,1084.2598 L619.4688,1076.2988 L738.87,1071.2988 L619.4688,1068.2988 L619.4688,1068.2988 L609.4688,1058.2988 L487,1058.2988 A0,0 0 0 0 487,1058.2988" fill="#FAFAFA" style="stroke:#181818;stroke-width:0.5;"/><path d="M609.4688,1058.2988 L609.4688,1068.2988 L619.4688,1068.2988 L609.4688,1058.2988" fill="#FAFAFA" style="stroke:#181818;stroke-width:0.5;"/><text fill="#000000" font-family="'Segoe UI'" font-size="12" lengthAdjust="spacing" textLength="111.4688" x="493" y="1076.248">Transaction Manager</text></g><!--entity R_User--><g class="entity" data-entity="R_User" data-source-line="104" data-uid="ent0036" id="entity_R_User"><rect fill="#FFFFFF" height="44.0508" rx="2.5" ry="2.5" style="stroke:#333333;stroke-width:1.5;" width="132.3672" x="634" y="1200.2988"/><rect fill="#FFFFFF" height="10" style="stroke:#333333;stroke-width:1.5;" width="15" x="746.3672" y="1205.2988"/><rect fill="#FFFFFF" height="2" style="stroke:#333333;stroke-width:1.5;" width="4" x="744.3672" y="1207.2988"/><rect fill="#FFFFFF" height="2" style="stroke:#333333;stroke-width:1.5;" width="4" x="744.3672" y="1211.2988"/><text fill="#000000" font-family="'Consolas'" font-size="12" lengthAdjust="spacing" textLength="92.3672" x="649" y="1231.2617">UserRepository</text></g><!--entity R_Note--><g class="entity" data-entity="R_Note" data-source-line="105" data-uid="ent0037" id="entity_R_Note"><rect fill="#FFFFFF" height="44.0508" rx="2.5" ry="2.5" style="stroke:#333333;stroke-width:1.5;" width="132.3672" x="382" y="1200.2988"/><rect fill="#FFFFFF" height="10" style="stroke:#333333;stroke-width:1.5;" width="15" x="494.3672" y="1205.2988"/><rect fill="#FFFFFF" height="2" style="stroke:#333333;stroke-width:1.5;" width="4" x="492.3672" y="1207.2988"/><rect fill="#FFFFFF" height="2" style="stroke:#333333;stroke-width:1.5;" width="4" x="492.3672" y="1211.2988"/><text fill="#000000" font-family="'Consolas'" font-size="12" lengthAdjust="spacing" textLength="92.3672" x="397" y="1231.2617">NoteRepository</text></g><!--entity R_Sub--><g class="entity" data-entity="R_Sub" data-source-line="106" data-uid="ent0038" id="entity_R_Sub"><rect fill="#FFFFFF" height="44.0508" rx="2.5" ry="2.5" style="stroke:#333333;stroke-width:1.5;" width="185.1484" x="886.5" y="1200.2988"/><rect fill="#FFFFFF" height="10" style="stroke:#333333;stroke-width:1.5;" width="15" x="1051.6484" y="1205.2988"/><rect fill="#FFFFFF" height="2" style="stroke:#333333;stroke-width:1.5;" width="4" x="1049.6484" y="1207.2988"/><rect fill="#FFFFFF" height="2" style="stroke:#333333;stroke-width:1.5;" width="4" x="1049.6484" y="1211.2988"/><text fill="#000000" font-family="'Consolas'" font-size="12" lengthAdjust="spacing" textLength="145.1484" x="901.5" y="1231.2617">SubscriptionRepository</text></g><!--entity R_More--><g class="entity" data-entity="R_More" data-source-line="107" data-uid="ent0039" id="entity_R_More"><rect fill="#FFFFFF" height="58.1016" rx="2.5" ry="2.5" style="stroke:#999999;stroke-width:1;stroke-dasharray:7,7;" width="81.5859" x="180" y="1193.2988"/><rect fill="#FFFFFF" height="10" style="stroke:#999999;stroke-width:1;stroke-dasharray:7,7;" width="15" x="241.5859" y="1198.2988"/><rect fill="#FFFFFF" height="2" style="stroke:#999999;stroke-width:1;stroke-dasharray:7,7;" width="4" x="239.5859" y="1200.2988"/><rect fill="#FFFFFF" height="2" style="stroke:#999999;stroke-width:1;stroke-dasharray:7,7;" width="4" x="239.5859" y="1204.2988"/><text fill="#999999" font-family="'Consolas'" font-size="12" font-style="italic" lengthAdjust="spacing" textLength="39.5859" x="196" y="1224.2617">&#171;More&#187;</text><text fill="#999999" font-family="'Consolas'" font-size="12" lengthAdjust="spacing" textLength="19.793" x="205.8965" y="1238.3125">...</text></g><!--entity Pkg_AI--><g class="entity" data-entity="Pkg_AI" data-source-line="115" data-uid="ent0041" id="entity_Pkg_AI"><rect fill="#FFFFFF" height="44.0508" rx="2.5" ry="2.5" style="stroke:#333333;stroke-width:1.5;" width="112.5742" x="1676.5" y="868.2988"/><rect fill="#FFFFFF" height="10" style="stroke:#333333;stroke-width:1.5;" width="15" x="1769.0742" y="873.2988"/><rect fill="#FFFFFF" height="2" style="stroke:#333333;stroke-width:1.5;" width="4" x="1767.0742" y="875.2988"/><rect fill="#FFFFFF" height="2" style="stroke:#333333;stroke-width:1.5;" width="4" x="1767.0742" y="879.2988"/><text fill="#000000" font-family="'Consolas'" font-size="12" lengthAdjust="spacing" textLength="72.5742" x="1691.5" y="899.2617">pkg/chatbot</text></g><!--entity Pkg_Embed--><g class="entity" data-entity="Pkg_Embed" data-source-line="116" data-uid="ent0042" id="entity_Pkg_Embed"><rect fill="#FFFFFF" height="44.0508" rx="2.5" ry="2.5" style="stroke:#333333;stroke-width:1.5;" width="125.7695" x="1910" y="868.2988"/><rect fill="#FFFFFF" height="10" style="stroke:#333333;stroke-width:1.5;" width="15" x="2015.7695" y="873.2988"/><rect fill="#FFFFFF" height="2" style="stroke:#333333;stroke-width:1.5;" width="4" x="2013.7695" y="875.2988"/><rect fill="#FFFFFF" height="2" style="stroke:#333333;stroke-width:1.5;" width="4" x="2013.7695" y="879.2988"/><text fill="#000000" font-family="'Consolas'" font-size="12" lengthAdjust="spacing" textLength="85.7695" x="1925" y="899.2617">pkg/embedding</text></g><!--entity Pkg_Mail--><g class="entity" data-entity="Pkg_Mail" data-source-line="117" data-uid="ent0043" id="entity_Pkg_Mail"><rect fill="#FFFFFF" height="44.0508" rx="2.5" ry="2.5" style="stroke:#333333;stroke-width:1.5;" width="105.9766" x="2156" y="868.2988"/><rect fill="#FFFFFF" height="10" style="stroke:#333333;stroke-width:1.5;" width="15" x="2241.9766" y="873.2988"/><rect fill="#FFFFFF" height="2" style="stroke:#333333;stroke-width:1.5;" width="4" x="2239.9766" y="875.2988"/><rect fill="#FFFFFF" height="2" style="stroke:#333333;stroke-width:1.5;" width="4" x="2239.9766" y="879.2988"/><text fill="#000000" font-family="'Consolas'" font-size="12" lengthAdjust="spacing" textLength="65.9766" x="2171" y="899.2617">pkg/mailer</text></g><!--entity DB--><g class="entity" data-entity="DB" data-source-line="123" data-uid="ent0044" id="entity_DB"><path d="M938.5,1361.2988 C938.5,1351.2988 979.2471,1351.2988 979.2471,1351.2988 C979.2471,1351.2988 1019.9941,1351.2988 1019.9941,1361.2988 L1019.9941,1402.2207 C1019.9941,1412.2207 979.2471,1412.2207 979.2471,1412.2207 C979.2471,1412.2207 938.5,1412.2207 938.5,1402.2207 L938.5,1361.2988" fill="#FFFFFF" style="stroke:#333333;stroke-width:0.5;"/><path d="M938.5,1361.2988 C938.5,1371.2988 979.2471,1371.2988 979.2471,1371.2988 C979.2471,1371.2988 1019.9941,1371.2988 1019.9941,1361.2988" fill="none" style="stroke:#333333;stroke-width:0.5;"/><text fill="#000000" font-family="'Segoe UI'" font-size="12" lengthAdjust="spacing" textLength="61.4941" x="948.5" y="1388.248">PostgreSQL</text><text fill="#000000" font-family="'Segoe UI'" font-size="12" lengthAdjust="spacing" textLength="56.7363" x="948.5" y="1404.209">(PGVector)</text></g><!--link Main to Config--><g class="link" data-entity-1="Main" data-entity-2="Config" data-source-line="130" data-uid="lnk45" id="link_Main_Config"><path d="M944.57,179.2988 C821.76,179.2988 588,179.2988 588,179.2988 C588,179.2988 588,250.1188 588,289.1288" fill="none" id="Main-to-Config" style="stroke:#333333;stroke-width:1;"/><polygon fill="#333333" points="588,295.1288,592,286.1288,588,290.1288,584,286.1288,588,295.1288" style="stroke:#333333;stroke-width:1;"/><text fill="#444444" font-family="'Segoe UI'" font-size="10" font-style="italic" lengthAdjust="spacing" textLength="22.7295" x="685.37" y="176.0898">loads</text></g><!--link Main to Container--><g class="link" data-entity-1="Main" data-entity-2="Container" data-source-line="131" data-uid="lnk46" id="link_Main_Container"><path d="M956.5,189.3288 C956.5,229.4388 956.5,310.2988 956.5,310.2988 C956.5,310.2988 920.48,310.2988 882.57,310.2988" fill="none" id="Main-to-Container" style="stroke:#333333;stroke-width:1;"/><polygon fill="#333333" points="876.57,310.2988,885.57,314.2988,881.57,310.2988,885.57,306.2988,876.57,310.2988" style="stroke:#333333;stroke-width:1;"/><text fill="#444444" font-family="'Segoe UI'" font-size="10" font-style="italic" lengthAdjust="spacing" textLength="78.5986" x="877.5" y="286.5698">inits dependencies</text></g><!--link Container to Server--><g class="link" data-entity-1="Container" data-entity-2="Server" data-source-line="132" data-uid="lnk47" id="link_Container_Server"><path d="M777.5,339.3088 C777.5,378.0388 777.5,454.2988 777.5,454.2988 C777.5,454.2988 775.88,454.2988 765.77,454.2988" fill="none" id="Container-to-Server" style="stroke:#333333;stroke-width:1;"/><polygon fill="#333333" points="759.77,454.2988,768.77,458.2988,764.77,454.2988,768.77,450.2988,759.77,454.2988" style="stroke:#333333;stroke-width:1;"/><text fill="#444444" font-family="'Segoe UI'" font-size="10" font-style="italic" lengthAdjust="spacing" textLength="65.2588" x="711.5" y="402.4598">registers routes</text></g><!--link Migrate to DB--><g class="link" data-entity-1="Migrate" data-entity-2="DB" data-source-line="133" data-uid="lnk48" id="link_Migrate_DB"><path d="M1231.75,189.3388 C1231.75,354.5388 1231.75,1392.2988 1231.75,1392.2988 C1231.75,1392.2988 1097.06,1392.2988 1025.61,1392.2988" fill="none" id="Migrate-to-DB" style="stroke:#333333;stroke-width:1;"/><polygon fill="#333333" points="1019.61,1392.2988,1028.61,1396.2988,1024.61,1392.2988,1028.61,1388.2988,1019.61,1392.2988" style="stroke:#333333;stroke-width:1;"/><text fill="#444444" font-family="'Segoe UI'" font-size="10" font-style="italic" lengthAdjust="spacing" textLength="77.8467" x="1232.75" y="908.6798">schema migration</text></g><!--link Server to C_Auth--><g class="link" data-entity-1="Server" data-entity-2="C_Auth" data-source-line="136" data-uid="lnk49" id="link_Server_C_Auth"><path d="M745.83,483.3388 C745.83,530.1588 745.83,635.2988 745.83,635.2988 C745.83,635.2988 1093.75,635.2988 1093.75,635.2988 C1093.75,635.2988 1093.75,630.3288 1093.75,631.9788" fill="none" id="Server-to-C_Auth" style="stroke:#333333;stroke-width:1;"/><polygon fill="#333333" points="1093.75,637.9788,1097.75,628.9788,1093.75,632.9788,1089.75,628.9788,1093.75,637.9788" style="stroke:#333333;stroke-width:1;"/><text fill="#444444" font-family="'Segoe UI'" font-size="10" font-style="italic" lengthAdjust="spacing" textLength="70.4346" x="774.15" y="632.0898">routes /api/auth</text></g><!--link Server to C_Note--><g class="link" data-entity-1="Server" data-entity-2="C_Note" data-source-line="137" data-uid="lnk50" id="link_Server_C_Note"><path d="M668,483.3588 C668,521.6088 668,593.8188 668,632.1388" fill="none" id="Server-to-C_Note" style="stroke:#333333;stroke-width:1;"/><polygon fill="#333333" points="668,638.1388,672,629.1388,668,633.1388,664,629.1388,668,638.1388" style="stroke:#333333;stroke-width:1;"/><text fill="#444444" font-family="'Segoe UI'" font-size="10" font-style="italic" lengthAdjust="spacing" textLength="73.6523" x="594" y="572.5398">routes /api/notes</text></g><!--link Server to C_Pay--><g class="link" data-entity-1="Server" data-entity-2="C_Pay" data-source-line="138" data-uid="lnk51" id="link_Server_C_Pay"><path d="M660.47,461.2988 C559.01,461.2988 337,461.2988 337,461.2988 C337,461.2988 337,580.4288 337,632.2388" fill="none" id="Server-to-C_Pay" style="stroke:#333333;stroke-width:1;"/><polygon fill="#333333" points="337,638.2388,341,629.2388,337,633.2388,333,629.2388,337,638.2388" style="stroke:#333333;stroke-width:1;"/><text fill="#444444" font-family="'Segoe UI'" font-size="10" font-style="italic" lengthAdjust="spacing" textLength="88.6084" x="321.26" y="458.0898">routes /api/payment</text></g><!--link C_Auth to S_Auth--><g class="link" data-entity-1="C_Auth" data-entity-2="S_Auth" data-source-line="141" data-uid="lnk52" id="link_C_Auth_S_Auth"><path d="M1124,682.3488 C1124,726.1988 1124,817.8988 1124,861.9788" fill="none" id="C_Auth-to-S_Auth" style="stroke:#333333;stroke-width:1;"/><polygon fill="#333333" points="1124,867.9788,1128,858.9788,1124,862.9788,1120,858.9788,1124,867.9788" style="stroke:#333333;stroke-width:1;"/><text fill="#444444" font-family="'Segoe UI'" font-size="10" font-style="italic" lengthAdjust="spacing" textLength="56.4941" x="1067" y="771.9498">handles logic</text></g><!--link C_Note to S_Note--><g class="link" data-entity-1="C_Note" data-entity-2="S_Note" data-source-line="142" data-uid="lnk53" id="link_C_Note_S_Note"><path d="M675.64,660.2988 C700.39,660.2988 722.25,660.2988 722.25,660.2988 C722.25,660.2988 722.25,883.2988 722.25,883.2988 C722.25,883.2988 772.87,883.2988 819.32,883.2988" fill="none" id="C_Note-to-S_Note" style="stroke:#333333;stroke-width:1;"/><polygon fill="#333333" points="825.32,883.2988,816.32,879.2988,820.32,883.2988,816.32,887.2988,825.32,883.2988" style="stroke:#333333;stroke-width:1;"/><text fill="#444444" font-family="'Segoe UI'" font-size="10" font-style="italic" lengthAdjust="spacing" textLength="56.4941" x="665.25" y="811.8198">handles logic</text></g><!--link C_Pay to S_Pay--><g class="link" data-entity-1="C_Pay" data-entity-2="S_Pay" data-source-line="143" data-uid="lnk54" id="link_C_Pay_S_Pay"><path d="M416.7,660.2988 C462.79,660.2988 511.75,660.2988 511.75,660.2988 C511.75,660.2988 511.75,890.2988 511.75,890.2988 C511.75,890.2988 531.93,890.2988 560.25,890.2988" fill="none" id="C_Pay-to-S_Pay" style="stroke:#333333;stroke-width:1;"/><polygon fill="#333333" points="566.25,890.2988,557.25,886.2988,561.25,890.2988,557.25,894.2988,566.25,890.2988" style="stroke:#333333;stroke-width:1;"/><text fill="#444444" font-family="'Segoe UI'" font-size="10" font-style="italic" lengthAdjust="spacing" textLength="56.4941" x="454.75" y="751.8198">handles logic</text></g><!--link S_Auth to UoW--><g class="link" data-entity-1="S_Auth" data-entity-2="UoW" data-source-line="146" data-uid="lnk55" id="link_S_Auth_UoW"><path d="M1068,912.5188 C1068,958.6088 1068,1060.2988 1068,1060.2988 C1068,1060.2988 931.42,1060.2988 851.22,1060.2988" fill="none" id="S_Auth-to-UoW" style="stroke:#333333;stroke-width:1;"/><polygon fill="#333333" points="845.22,1060.2988,854.22,1064.2988,850.22,1060.2988,854.22,1056.2988,845.22,1060.2988" style="stroke:#333333;stroke-width:1;"/><text fill="#444444" font-family="'Segoe UI'" font-size="10" font-style="italic" lengthAdjust="spacing" textLength="38.3984" x="991.5" y="1057.0898">begins tx</text></g><!--link S_Note to UoW--><g class="link" data-entity-1="S_Note" data-entity-2="UoW" data-source-line="147" data-uid="lnk56" id="link_S_Note_UoW"><path d="M835.25,912.4888 C835.25,947.3288 835.25,1008.4388 835.25,1043.2088" fill="none" id="S_Note-to-UoW" style="stroke:#333333;stroke-width:1;"/><polygon fill="#333333" points="835.25,1049.2088,839.25,1040.2088,835.25,1044.2088,831.25,1040.2088,835.25,1049.2088" style="stroke:#333333;stroke-width:1;"/><text fill="#444444" font-family="'Segoe UI'" font-size="10" font-style="italic" lengthAdjust="spacing" textLength="38.3984" x="796.25" y="977.6398">begins tx</text></g><!--link S_Pay to UoW--><g class="link" data-entity-1="S_Pay" data-entity-2="UoW" data-source-line="148" data-uid="lnk57" id="link_S_Pay_UoW"><path d="M705.55,898.2988 C730.53,898.2988 752.67,898.2988 752.67,898.2988 C752.67,898.2988 752.67,996.3088 752.67,1043.0388" fill="none" id="S_Pay-to-UoW" style="stroke:#333333;stroke-width:1;"/><polygon fill="#333333" points="752.67,1049.0388,756.67,1040.0388,752.67,1044.0388,748.67,1040.0388,752.67,1049.0388" style="stroke:#333333;stroke-width:1;"/><text fill="#444444" font-family="'Segoe UI'" font-size="10" font-style="italic" lengthAdjust="spacing" textLength="38.3984" x="713.67" y="946.8998">begins tx</text></g><!--link UoW to R_User--><g class="link" data-entity-1="UoW" data-entity-2="R_User" data-source-line="150" data-uid="lnk58" id="link_UoW_R_User"><path d="M752.5,1093.5788 C752.5,1122.1288 752.5,1165.3288 752.5,1193.9288" fill="none" id="UoW-to-R_User" style="stroke:#333333;stroke-width:1;"/><polygon fill="#333333" points="752.5,1199.9288,756.5,1190.9288,752.5,1194.9288,748.5,1190.9288,752.5,1199.9288" style="stroke:#333333;stroke-width:1;"/><text fill="#444444" font-family="'Segoe UI'" font-size="10" font-style="italic" lengthAdjust="spacing" textLength="62.5781" x="689.5" y="1143.5398">provides scope</text></g><!--link UoW to R_Note--><g class="link" data-entity-1="UoW" data-entity-2="R_Note" data-source-line="151" data-uid="lnk59" id="link_UoW_R_Note"><path d="M738.87,1089.2988 C654.79,1089.2988 500.5,1089.2988 500.5,1089.2988 C500.5,1089.2988 500.5,1156.1788 500.5,1194.0388" fill="none" id="UoW-to-R_Note" style="stroke:#333333;stroke-width:1;"/><polygon fill="#333333" points="500.5,1200.0388,504.5,1191.0388,500.5,1195.0388,496.5,1191.0388,500.5,1200.0388" style="stroke:#333333;stroke-width:1;"/><text fill="#444444" font-family="'Segoe UI'" font-size="10" font-style="italic" lengthAdjust="spacing" textLength="62.5781" x="501.32" y="1101.0898">provides scope</text></g><!--link UoW to R_Sub--><g class="link" data-entity-1="UoW" data-entity-2="R_Sub" data-source-line="152" data-uid="lnk60" id="link_UoW_R_Sub"><path d="M845.09,1083.2988 C878.56,1083.2988 915.5,1083.2988 915.5,1083.2988 C915.5,1083.2988 915.5,1155.0788 915.5,1194.2788" fill="none" id="UoW-to-R_Sub" style="stroke:#333333;stroke-width:1;"/><polygon fill="#333333" points="915.5,1200.2788,919.5,1191.2788,915.5,1195.2788,911.5,1191.2788,915.5,1200.2788" style="stroke:#333333;stroke-width:1;"/><text fill="#444444" font-family="'Segoe UI'" font-size="10" font-style="italic" lengthAdjust="spacing" textLength="62.5781" x="852.5" y="1103.3698">provides scope</text></g><!--reverse link Pkg_AI to S_Chat--><g class="link" data-entity-1="Pkg_AI" data-entity-2="S_Chat" data-source-line="155" data-uid="lnk62" id="link_Pkg_AI_S_Chat"><path d="M1733,861.9188 C1733,861.9188 431.5,864.2988 431.5,864.2988 C431.5,864.2988 431.5,865.7288 431.5,867.9188" fill="none" id="Pkg_AI-backto-S_Chat" style="stroke:#333333;stroke-width:1;"/><polygon fill="#333333" points="1733,867.9188,1737,858.9188,1733,862.9188,1729,858.9188,1733,867.9188" style="stroke:#333333;stroke-width:1;"/><text fill="#444444" font-family="'Segoe UI'" font-size="10" font-style="italic" lengthAdjust="spacing" textLength="88.8721" x="993.25" y="861.0898">calls Gemini/Ollama</text></g><!--reverse link Pkg_Embed to S_Note--><g class="link" data-entity-1="Pkg_Embed" data-entity-2="S_Note" data-source-line="156" data-uid="lnk64" id="link_Pkg_Embed_S_Note"><path d="M1973,862.1788 C1973,862.1788 939.5,866.2988 939.5,866.2988 C939.5,866.2988 939.5,867.0088 939.5,868.1788" fill="none" id="Pkg_Embed-backto-S_Note" style="stroke:#333333;stroke-width:1;"/><polygon fill="#333333" points="1973,868.1788,1977,859.1788,1973,863.1788,1969,859.1788,1973,868.1788" style="stroke:#333333;stroke-width:1;"/><text fill="#444444" font-family="'Segoe UI'" font-size="10" font-style="italic" lengthAdjust="spacing" textLength="96.6992" x="1359.25" y="863.0898">generates embeddings</text></g><!--reverse link Pkg_Mail to S_Auth--><g class="link" data-entity-1="Pkg_Mail" data-entity-2="S_Auth" data-source-line="157" data-uid="lnk66" id="link_Pkg_Mail_S_Auth"><path d="M2209,918.6788 C2209,918.6788 1152.25,916.2988 1152.25,916.2988 C1152.25,916.2988 1152.25,914.8688 1152.25,912.6788" fill="none" id="Pkg_Mail-backto-S_Auth" style="stroke:#333333;stroke-width:1;"/><polygon fill="#333333" points="2209,912.6788,2205,921.6788,2209,917.6788,2213,921.6788,2209,912.6788" style="stroke:#333333;stroke-width:1;"/><text fill="#444444" font-family="'Segoe UI'" font-size="10" font-style="italic" lengthAdjust="spacing" textLength="45.1074" x="1634.62" y="928.0898">sends OTP</text></g><!--link R_User to DB--><g class="link" data-entity-1="R_User" data-entity-2="DB" data-source-line="160" data-uid="lnk67" id="link_R_User_DB"><path d="M700,1244.4288 C700,1286.1588 700,1372.2988 700,1372.2988 C700,1372.2988 855.05,1372.2988 932.43,1372.2988" fill="none" id="R_User-to-DB" style="stroke:#333333;stroke-width:1;"/><polygon fill="#333333" points="938.43,1372.2988,929.43,1368.2988,933.43,1372.2988,929.43,1376.2988,938.43,1372.2988" style="stroke:#333333;stroke-width:1;"/><text fill="#444444" font-family="'Segoe UI'" font-size="10" font-style="italic" lengthAdjust="spacing" textLength="55.4248" x="699.28" y="1369.0898">GORM query</text></g><!--link R_Note to DB--><g class="link" data-entity-1="R_Note" data-entity-2="DB" data-source-line="161" data-uid="lnk68" id="link_R_Note_DB"><path d="M448,1244.5188 C448,1290.6088 448,1392.2988 448,1392.2988 C448,1392.2988 807.87,1392.2988 932.22,1392.2988" fill="none" id="R_Note-to-DB" style="stroke:#333333;stroke-width:1;"/><polygon fill="#333333" points="938.22,1392.2988,929.22,1388.2988,933.22,1392.2988,929.22,1396.2988,938.22,1392.2988" style="stroke:#333333;stroke-width:1;"/><text fill="#444444" font-family="'Segoe UI'" font-size="10" font-style="italic" lengthAdjust="spacing" textLength="55.4248" x="563.22" y="1389.0898">GORM query</text></g><!--link R_Sub to DB--><g class="link" data-entity-1="R_Sub" data-entity-2="DB" data-source-line="162" data-uid="lnk69" id="link_R_Sub_DB"><path d="M979,1244.4788 C979,1272.2088 979,1313.8388 979,1345.0688" fill="none" id="R_Sub-to-DB" style="stroke:#333333;stroke-width:1;"/><polygon fill="#333333" points="979,1351.0688,983,1342.0688,979,1346.0688,975,1342.0688,979,1351.0688" style="stroke:#333333;stroke-width:1;"/><text fill="#444444" font-family="'Segoe UI'" font-size="10" font-style="italic" lengthAdjust="spacing" textLength="55.4248" x="923" y="1294.5598">GORM query</text></g><!--link L1 to L2--><!--link L2 to L3--><!--link L3 to L4--><!--link L4 to L5--><!--link L5 to DB--><!--SRC=[hLXjRzis4FxkNt7mWDO9OEUzm8AkWEB8ZZ3PyYIvMR0E1IFHjcQPr4YwgJVql-z8oR9iELaTL9_YuwExupt7XwUyXL- -yscy1NlOTuQsxJl3FWJXWsl36t2j1sySGjSRzfm-OhxRdPmdB2E2B21D65MhZ08NQiOh2mlEU3GJV451YIMjhCWPYVbJmgOm8Qcihim8Yvz4eXHbjRMOJiWoLJtEr92WqsP0fvp2s6dk1mN9FnJEpXkuhM1aTMqim9qrxDe3UnXMtc0yff9cY3ojM0LXSsCzhLep4it9b0PgbL8GD5A4JLEg8tIzmSWRecTJMYnnvQs8BpBEA5FmRmFmkK4lKy6NBExob0kudoMAvYjSn5Jarfykp6FibX3ygMxEuU4iYUQCIWbddIjZh-v-_JilMPSpoLCYcyO-8d6iMJWxRNmpPS9zwTzBffPpc1TfuqOpWILYYgXa0grEftEqRtVltm-ue1y-h7TPtSlFvYcJgLjhMwbOytB7HCveh1FTn2QwBaMypQPFT-DSccU3CluIHT8aslON4qKUYQIl8WezgKIXv-FZu248xG5OVlVE2UrkEFPjk7MilcyDe7MNJ6TjbtwXATnYFEYb_Ede-FWJ6md-5_RKDGovehtaaGgJ0MKnjFhyn5YE6eUSqhVO4jZseVy08y_1vdm3ph3dMq7eZqrMXpWhcX-Qxjars4o95OnumbGJY0JthAZPfjcRqI8-mSPH9mkIiCwK6-00_zu7N2HJGHJTnkOsNTbDyFDhSDX448cY4gcbeBWfREj9CiqJET-JY5bUUyt1Up0AGrDHWUK6WsH82GXaJW6VRDRW6cvfXWnH5gqmByrVmjadrhhXN66A93iox- -6arHysSGApAyzWV85Z9AtWvLbyEOJ6oHndD8dWiND3-u13N7UmHO8RR-d5H7bt_QXXV8V-fxhsdvmzBgEkD2aA2ec9ABWaXNcsj954ZnDgP17EJKN1JMbSaBJMgeP4ZZ6UZIBrPrA4KHyZafVEJUVzNlxq4jqL4ThzmRzRKD69OakwXRqAD7T99z9G_DITwnFwZvqHbOB_AF-meYizk5HKmk0rb1OIscHyw4SNtJWPXpWPHy4u7fzfxicEh3zZqxNVYtBbzTmivI94MYNJvC8FMA39X5TCtnPP_YMwoCDQ-1BBCiSan-9PoasJ6n3_u-6RVGp74GpeXxvBhYBrfSO2tu8OvSTkBL22wnkrv2Mq-NR8ozmGiz_U2LXLzVv5MD5aUQivTECoqHnaPICNTNbSimIvKtkkPWRo9ZVRvGffHCZJ6X4LGfnJ9B4I1uAEyEWOky1gyPzfW7q4IrXAnFOtvpR7R3ckmP-hWc2vQECH9BfB6iluU9BxFe_XDqhl8H_HyqTMYxW9FghrRS3BNgXumQl8_RTDGJBBCEH6_tONr5v6KbXD2_km7TrKhFvzAJeS8D1x6VBsOUYYqTgvi8IPslBFYYUxBMqQHpUxUd1nNdNWH5UF0vEJCFrbNI8Xt9cQuwuL5D1WzzSl7z7_O_OVrpaRNvxSs1MlkrQeUCD0sZrNE_-eFE7s7Qx3UK4aEcPMazvsjpG0n2qyVk7jJyKimYUf9IJMDRMoY4ZmICfyUEc63Nm63Kso-iNoc51q6aYiISauF2g45iCKYNozWPHCfhH1O5yyCApiSxRftylSMhBCwxSuaSc_I98cQIHQHtJH88JaYKdMiphG7q-Tu1QKcGTYGAz0oo4V9rYVlda2HONIvvTaKvPaNLs-hioHMUfVh5HvB915QdjedGU6r2UrJQcoASgiYNHmNOkkM8-8ZLCWlhQ2BQJg2zNe- -kDhHXlPZh9AvdWdz9y6iMgUKPtS4KUtmHWsfOXnHxB5L63tf5oyXYe_gIXBQ-6z1DhYpe9o9fAg5F5zYz9rwQaWKfTrt16dL1-9HYCnDDUQb0iYnY1QzLHhSl7WK9NZYgac24O8ITh_kVuIogyolgizNyVSyV0FQvM3NyRIBgoxegpwqUfYh5lrlkR5TBtY7lulTL-uyPplsK_OdzVzx0xvoguQA1qtNLSDd0OQngk6hWNLyne2J-1m00]--></g></svg>