<svg xmlns="http://www.w3.org/2000/svg" xmlns:xlink="http://www.w3.org/1999/xlink" contentStyleType="text/css" data-diagram-type="DESCRIPTION" height="1363px" preserveAspectRatio="none" style="width:1471px;height:1363px;background:#FAFAFA;" version="1.1" viewBox="0 0 1471 1363" width="1471px" zoomAndPan="magnify"><title>**NoteFiber Frontend Design System**
</title><defs/><g><rect fill="#FAFAFA" height="1363" style="stroke:none;stroke-width:1;" width="1471" x="0" y="0"/><g class="title" data-source-line="25"><text fill="#000000" font-family="Helvetica" font-size="14" font-weight="bold" lengthAdjust="spacing" textLength="234.1445" x="611.4277" y="24.5332">NoteFiber Frontend Design System</text><text fill="#000000" font-family="Helvetica" font-size="14" font-weight="bold" lengthAdjust="spacing" textLength="3.8896" x="726.5552" y="42.1426">&#160;</text></g><!--cluster config--><g class="cluster" data-entity="config" data-source-line="28" data-uid="ent0002" id="cluster_config"><path d="M639.5,62.2188 L749.8301,62.2188 A3.75,3.75 0 0 1 752.3301,64.7188 L759.3301,83.3125 L1059.5,83.3125 A2.5,2.5 0 0 1 1062,85.8125 L1062,379.7188 A2.5,2.5 0 0 1 1059.5,382.2188 L639.5,382.2188 A2.5,2.5 0 0 1 637,379.7188 L637,64.7188 A2.5,2.5 0 0 1 639.5,62.2188" fill="#E0EAFC" style="stroke:#7050F0;stroke-width:1.5;"/><line style="stroke:#7050F0;stroke-width:1.5;" x1="637" x2="759.3301" y1="83.3125" y2="83.3125"/><text fill="#060B13" font-family="Helvetica" font-size="12" font-weight="bold" lengthAdjust="spacing" textLength="109.3301" x="641" y="76.6758">Configuration Files</text></g><!--cluster typography--><g class="cluster" data-entity="typography" data-source-line="39" data-uid="ent0007" id="cluster_typography"><path d="M238.5,439.2188 L354.1973,439.2188 A3.75,3.75 0 0 1 356.6973,441.7188 L363.6973,460.3125 L859.5,460.3125 A2.5,2.5 0 0 1 862,462.8125 L862,621.7188 A2.5,2.5 0 0 1 859.5,624.2188 L238.5,624.2188 A2.5,2.5 0 0 1 236,621.7188 L236,441.7188 A2.5,2.5 0 0 1 238.5,439.2188" fill="#FAFAFA" style="stroke:#7050F0;stroke-width:1.5;"/><line style="stroke:#7050F0;stroke-width:1.5;" x1="236" x2="363.6973" y1="460.3125" y2="460.3125"/><text fill="#060B13" font-family="Helvetica" font-size="12" font-weight="bold" lengthAdjust="spacing" textLength="114.6973" x="240" y="453.6758">Typography System</text></g><!--cluster colors--><g class="cluster" data-entity="colors" data-source-line="50" data-uid="ent0012" id="cluster_colors"><path d="M388.5,689.2188 L466.8555,689.2188 A3.75,3.75 0 0 1 469.3555,691.7188 L476.3555,710.3125 L1165.5,710.3125 A2.5,2.5 0 0 1 1168,712.8125 L1168,855.7188 A2.5,2.5 0 0 1 1165.5,858.2188 L388.5,858.2188 A2.5,2.5 0 0 1 386,855.7188 L386,691.7188 A2.5,2.5 0 0 1 388.5,689.2188" fill="#FAFAFA" style="stroke:#7050F0;stroke-width:1.5;"/><line style="stroke:#7050F0;stroke-width:1.5;" x1="386" x2="476.3555" y1="710.3125" y2="710.3125"/><text fill="#060B13" font-family="Helvetica" font-size="12" font-weight="bold" lengthAdjust="spacing" textLength="77.3555" x="390" y="703.6758">Color System</text></g><!--cluster gradients--><g class="cluster" data-entity="gradients" data-source-line="61" data-uid="ent0017" id="cluster_gradients"><path d="M8.5,907.2188 L65.5156,907.2188 A3.75,3.75 0 0 1 68.0156,909.7188 L75.0156,928.3125 L399.5,928.3125 A2.5,2.5 0 0 1 402,930.8125 L402,1201.7188 A2.5,2.5 0 0 1 399.5,1204.2188 L8.5,1204.2188 A2.5,2.5 0 0 1 6,1201.7188 L6,909.7188 A2.5,2.5 0 0 1 8.5,907.2188" fill="#FAFAFA" style="stroke:#7050F0;stroke-width:1.5;"/><line style="stroke:#7050F0;stroke-width:1.5;" x1="6" x2="75.0156" y1="928.3125" y2="928.3125"/><text fill="#060B13" font-family="Helvetica" font-size="12" font-weight="bold" lengthAdjust="spacing" textLength="56.0156" x="10" y="921.6758">Gradients</text></g><!--cluster animations--><g class="cluster" data-entity="animations" data-source-line="72" data-uid="ent0022" id="cluster_animations"><path d="M1127.5,1069.2188 L1193.8379,1069.2188 A3.75,3.75 0 0 1 1196.3379,1071.7188 L1203.3379,1090.3125 L1461.5,1090.3125 A2.5,2.5 0 0 1 1464,1092.8125 L1464,1353.7188 A2.5,2.5 0 0 1 1461.5,1356.2188 L1127.5,1356.2188 A2.5,2.5 0 0 1 1125,1353.7188 L1125,1071.7188 A2.5,2.5 0 0 1 1127.5,1069.2188" fill="#FAFAFA" style="stroke:#7050F0;stroke-width:1.5;"/><line style="stroke:#7050F0;stroke-width:1.5;" x1="1125" x2="1203.3379" y1="1090.3125" y2="1090.3125"/><text fill="#060B13" font-family="Helvetica" font-size="12" font-weight="bold" lengthAdjust="spacing" textLength="65.3379" x="1129" y="1083.6758">Animations</text></g><!--cluster spacing--><g class="cluster" data-entity="spacing" data-source-line="83" data-uid="ent0027" id="cluster_spacing"><path d="M1135.5,62.2188 L1238.5176,62.2188 A3.75,3.75 0 0 1 1241.0176,64.7188 L1248.0176,83.3125 L1422.5,83.3125 A2.5,2.5 0 0 1 1425,85.8125 L1425,197.7188 A2.5,2.5 0 0 1 1422.5,200.2188 L1135.5,200.2188 A2.5,2.5 0 0 1 1133,197.7188 L1133,64.7188 A2.5,2.5 0 0 1 1135.5,62.2188" fill="#FAFAFA" style="stroke:#7050F0;stroke-width:1.5;"/><line style="stroke:#7050F0;stroke-width:1.5;" x1="1133" x2="1248.0176" y1="83.3125" y2="83.3125"/><text fill="#060B13" font-family="Helvetica" font-size="12" font-weight="bold" lengthAdjust="spacing" textLength="102.0176" x="1137" y="76.6758">Spacing &amp; Radius</text></g><!--entity tailwind--><g class="entity" data-entity="tailwind" data-source-line="29" data-uid="ent0003" id="entity_tailwind"><rect fill="#FFFFFF" height="103.4688" rx="7.5" ry="7.5" style="stroke:#D8D8DB;stroke-width:0.5;" width="117.3359" x="724.5" y="263.2188"/><text fill="#000000" font-family="Helvetica" font-size="12" font-weight="bold" lengthAdjust="spacing" textLength="97.3359" x="734.5" y="285.6758">tailwind.config.js</text><line style="stroke:#D8D8DB;stroke-width:1;" x1="725.5" x2="840.8359" y1="288.3125" y2="288.3125"/><text fill="#000000" font-family="Helvetica" font-size="12" lengthAdjust="spacing" textLength="67.3652" x="734.5" y="304.7695">Color tokens</text><text fill="#000000" font-family="Helvetica" font-size="12" lengthAdjust="spacing" textLength="94.7168" x="734.5" y="319.8633">Typography scale</text><text fill="#000000" font-family="Helvetica" font-size="12" lengthAdjust="spacing" textLength="59.3613" x="734.5" y="334.957">Animations</text><text fill="#000000" font-family="Helvetica" font-size="12" lengthAdjust="spacing" textLength="52.0254" x="734.5" y="350.0508">Gradients</text></g><!--entity indexcss--><g class="entity" data-entity="indexcss" data-source-line="31" data-uid="ent0004" id="entity_indexcss"><rect fill="#FFFFFF" height="88.375" rx="7.5" ry="7.5" style="stroke:#D8D8DB;stroke-width:0.5;" width="108.043" x="938" y="96.2188"/><text fill="#000000" font-family="Helvetica" font-size="12" font-weight="bold" lengthAdjust="spacing" textLength="54.6973" x="948" y="118.6758">index.css</text><line style="stroke:#D8D8DB;stroke-width:1;" x1="939" x2="1045.043" y1="121.3125" y2="121.3125"/><text fill="#000000" font-family="Helvetica" font-size="12" lengthAdjust="spacing" textLength="78.0352" x="948" y="137.7695">CSS Variables</text><text fill="#000000" font-family="Helvetica" font-size="12" lengthAdjust="spacing" textLength="88.043" x="948" y="152.8633">Light/Dark mode</text><text fill="#000000" font-family="Helvetica" font-size="12" lengthAdjust="spacing" textLength="65.3555" x="948" y="167.957">Prose styles</text></g><!--entity fontscss--><g class="entity" data-entity="fontscss" data-source-line="33" data-uid="ent0005" id="entity_fontscss"><rect fill="#FFFFFF" height="73.2813" rx="7.5" ry="7.5" style="stroke:#D8D8DB;stroke-width:0.5;" width="116.7207" x="653.5" y="103.7188"/><text fill="#000000" font-family="Helvetica" font-size="12" font-weight="bold" lengthAdjust="spacing" textLength="52.6816" x="663.5" y="126.1758">fonts.css</text><line style="stroke:#D8D8DB;stroke-width:1;" x1="654.5" x2="769.2207" y1="128.8125" y2="128.8125"/><text fill="#000000" font-family="Helvetica" font-size="12" lengthAdjust="spacing" textLength="90.0469" x="663.5" y="145.2695">Nacelle font-face</text><text fill="#000000" font-family="Helvetica" font-size="12" lengthAdjust="spacing" textLength="96.7207" x="663.5" y="160.3633">16 weight variants</text></g><!--entity utils--><g class="entity" data-entity="utils" data-source-line="35" data-uid="ent0006" id="entity_utils"><rect fill="#FFFFFF" height="73.2813" rx="7.5" ry="7.5" style="stroke:#D8D8DB;stroke-width:0.5;" width="96.6934" x="805.5" y="103.7188"/><text fill="#000000" font-family="Helvetica" font-size="12" font-weight="bold" lengthAdjust="spacing" textLength="56.0039" x="815.5" y="126.1758">lib/utils.ts</text><line style="stroke:#D8D8DB;stroke-width:1;" x1="806.5" x2="901.1934" y1="128.8125" y2="128.8125"/><text fill="#000000" font-family="Helvetica" font-size="12" lengthAdjust="spacing" textLength="66.0293" x="815.5" y="145.2695">cn() function</text><text fill="#000000" font-family="Helvetica" font-size="12" lengthAdjust="spacing" textLength="76.6934" x="815.5" y="160.3633">Class merging</text></g><!--entity font--><g class="entity" data-entity="font" data-source-line="40" data-uid="ent0008" id="entity_font"><rect fill="#FFFFFF" height="88.375" rx="7.5" ry="7.5" style="stroke:#D8D8DB;stroke-width:0.5;" width="114.0547" x="279" y="496.7188"/><text fill="#000000" font-family="Helvetica" font-size="12" font-weight="bold" lengthAdjust="spacing" textLength="74.0156" x="289" y="519.1758">Primary Font</text><line style="stroke:#D8D8DB;stroke-width:1;" x1="280" x2="392.0547" y1="521.8125" y2="521.8125"/><text fill="#000000" font-family="Helvetica" font-size="12" lengthAdjust="spacing" textLength="40.0195" x="289" y="538.2695">Nacelle</text><text fill="#000000" font-family="Helvetica" font-size="12" lengthAdjust="spacing" textLength="94.0547" x="289" y="553.3633">Weights: 100-900</text><text fill="#000000" font-family="Helvetica" font-size="12" lengthAdjust="spacing" textLength="77.0215" x="289" y="568.457">Normal + Italic</text></g><!--entity headings--><g class="entity" data-entity="headings" data-source-line="42" data-uid="ent0009" id="entity_headings"><rect fill="#FFFFFF" height="118.5625" rx="7.5" ry="7.5" style="stroke:#D8D8DB;stroke-width:0.5;" width="120.0313" x="573" y="481.2188"/><text fill="#000000" font-family="Helvetica" font-size="12" font-weight="bold" lengthAdjust="spacing" textLength="100.0313" x="583" y="503.6758">Display Headings</text><line style="stroke:#D8D8DB;stroke-width:1;" x1="574" x2="692.0313" y1="506.3125" y2="506.3125"/><text fill="#000000" font-family="Helvetica" font-size="12" lengthAdjust="spacing" textLength="94.0605" x="583" y="522.7695">H1: 61px / 85.4px</text><text fill="#000000" font-family="Helvetica" font-size="12" lengthAdjust="spacing" textLength="94.0605" x="583" y="537.8633">H2: 49px / 68.6px</text><text fill="#000000" font-family="Helvetica" font-size="12" lengthAdjust="spacing" textLength="94.0605" x="583" y="552.957">H3: 39px / 54.6px</text><text fill="#000000" font-family="Helvetica" font-size="12" lengthAdjust="spacing" textLength="94.0605" x="583" y="568.0508">H4: 31px / 43.4px</text><text fill="#000000" font-family="Helvetica" font-size="12" lengthAdjust="spacing" textLength="84.0527" x="583" y="583.1445">H5: 25px / 35px</text></g><!--entity body--><g class="entity" data-entity="body" data-source-line="44" data-uid="ent0010" id="entity_body"><rect fill="#FFFFFF" height="118.5625" rx="7.5" ry="7.5" style="stroke:#D8D8DB;stroke-width:0.5;" width="108.7285" x="728.5" y="481.2188"/><text fill="#000000" font-family="Helvetica" font-size="12" font-weight="bold" lengthAdjust="spacing" textLength="58.0078" x="738.5" y="503.6758">Body Text</text><line style="stroke:#D8D8DB;stroke-width:1;" x1="729.5" x2="836.2285" y1="506.3125" y2="506.3125"/><text fill="#000000" font-family="Helvetica" font-size="12" lengthAdjust="spacing" textLength="69.3809" x="738.5" y="522.7695">body-1: 20px</text><text fill="#000000" font-family="Helvetica" font-size="12" lengthAdjust="spacing" textLength="88.7285" x="738.5" y="537.8633">body-base: 16px</text><text fill="#000000" font-family="Helvetica" font-size="12" lengthAdjust="spacing" textLength="69.3809" x="738.5" y="552.957">body-3: 13px</text><text fill="#000000" font-family="Helvetica" font-size="12" lengthAdjust="spacing" textLength="69.3809" x="738.5" y="568.0508">body-4: 11px</text><text fill="#000000" font-family="Helvetica" font-size="12" lengthAdjust="spacing" textLength="79.3887" x="738.5" y="583.1445">body-5: 10.5px</text></g><!--entity captions--><g class="entity" data-entity="captions" data-source-line="46" data-uid="ent0011" id="entity_captions"><rect fill="#FFFFFF" height="103.4688" rx="7.5" ry="7.5" style="stroke:#D8D8DB;stroke-width:0.5;" width="109.3906" x="428.5" y="489.2188"/><text fill="#000000" font-family="Helvetica" font-size="12" font-weight="bold" lengthAdjust="spacing" textLength="51.334" x="438.5" y="511.6758">Captions</text><line style="stroke:#D8D8DB;stroke-width:1;" x1="429.5" x2="536.8906" y1="514.3125" y2="514.3125"/><text fill="#000000" font-family="Helvetica" font-size="12" lengthAdjust="spacing" textLength="75.3809" x="438.5" y="530.7695">caption-1: 8px</text><text fill="#000000" font-family="Helvetica" font-size="12" lengthAdjust="spacing" textLength="75.3809" x="438.5" y="545.8633">caption-2: 7px</text><text fill="#000000" font-family="Helvetica" font-size="12" lengthAdjust="spacing" textLength="89.3906" x="438.5" y="560.957">button-text: 14px</text><text fill="#000000" font-family="Helvetica" font-size="12" lengthAdjust="spacing" textLength="74.7129" x="438.5" y="576.0508">overline: 12px</text></g><!--entity brand--><g class="entity" data-entity="brand" data-source-line="51" data-uid="ent0013" id="entity_brand"><rect fill="#7050F0" height="73.2813" rx="7.5" ry="7.5" style="stroke:#D8D8DB;stroke-width:0.5;" width="178.7363" x="429.5" y="746.2188"/><text fill="#FFFFFF" font-family="Helvetica" font-size="12" font-weight="bold" lengthAdjust="spacing" textLength="76.0078" x="439.5" y="768.6758">Brand Colors</text><line style="stroke:#D8D8DB;stroke-width:1;" x1="430.5" x2="607.2363" y1="771.3125" y2="771.3125"/><text fill="#FFFFFF" font-family="Helvetica" font-size="12" lengthAdjust="spacing" textLength="10.0078" x="439.5" y="787.7695">1.</text><text fill="#FFFFFF" font-family="Helvetica" font-size="12" lengthAdjust="spacing" textLength="132.0703" x="452.8418" y="787.7695">7050F0 royal-violet-base</text><text fill="#FFFFFF" font-family="Helvetica" font-size="12" lengthAdjust="spacing" textLength="10.0078" x="439.5" y="802.8633">2.</text><text fill="#FFFFFF" font-family="Helvetica" font-size="12" lengthAdjust="spacing" textLength="145.3945" x="452.8418" y="802.8633">B7AAEE royal-violet-muted</text></g><!--entity semantic--><g class="entity" data-entity="semantic" data-source-line="53" data-uid="ent0014" id="entity_semantic"><rect fill="#FFFFFF" height="103.4688" rx="7.5" ry="7.5" style="stroke:#D8D8DB;stroke-width:0.5;" width="128.0469" x="845" y="731.2188"/><text fill="#000000" font-family="Helvetica" font-size="12" font-weight="bold" lengthAdjust="spacing" textLength="94.6934" x="855" y="753.6758">Semantic Colors</text><line style="stroke:#D8D8DB;stroke-width:1;" x1="846" x2="972.0469" y1="756.3125" y2="756.3125"/><text fill="#000000" font-family="Helvetica" font-size="12" lengthAdjust="spacing" textLength="108.0469" x="855" y="772.7695">primary / foreground</text><text fill="#000000" font-family="Helvetica" font-size="12" lengthAdjust="spacing" textLength="98.7188" x="855" y="787.8633">secondary / muted</text><text fill="#000000" font-family="Helvetica" font-size="12" lengthAdjust="spacing" textLength="103.3828" x="855" y="802.957">accent / destructive</text><text fill="#000000" font-family="Helvetica" font-size="12" lengthAdjust="spacing" textLength="100.7227" x="855" y="818.0508">border / input / ring</text></g><!--entity custom--><g class="entity" data-entity="custom" data-source-line="55" data-uid="ent0015" id="entity_custom"><rect fill="#FFFFFF" height="103.4688" rx="7.5" ry="7.5" style="stroke:#D8D8DB;stroke-width:0.5;" width="166.0918" x="644" y="731.2188"/><text fill="#000000" font-family="Helvetica" font-size="12" font-weight="bold" lengthAdjust="spacing" textLength="86.0039" x="654" y="753.6758">Custom Colors</text><line style="stroke:#D8D8DB;stroke-width:1;" x1="645" x2="809.0918" y1="756.3125" y2="756.3125"/><text fill="#000000" font-family="Helvetica" font-size="12" lengthAdjust="spacing" textLength="146.0918" x="654" y="772.7695">customFont-base: #909090</text><text fill="#000000" font-family="Helvetica" font-size="12" lengthAdjust="spacing" textLength="144.7441" x="654" y="787.8633">customFont-dark: #060B13</text><text fill="#000000" font-family="Helvetica" font-size="12" lengthAdjust="spacing" textLength="120.0469" x="654" y="802.957">cool-grey-1: #E0EAFC</text><text fill="#000000" font-family="Helvetica" font-size="12" lengthAdjust="spacing" textLength="119.3672" x="654" y="818.0508">cool-grey-2: #FAFAFA</text></g><!--entity darkmode--><g class="entity" data-entity="darkmode" data-source-line="57" data-uid="ent0016" id="entity_darkmode"><rect fill="#FFFFFF" height="88.375" rx="7.5" ry="7.5" style="stroke:#D8D8DB;stroke-width:0.5;" width="136.0508" x="1008" y="738.7188"/><text fill="#000000" font-family="Helvetica" font-size="12" font-weight="bold" lengthAdjust="spacing" textLength="61.3477" x="1018" y="761.1758">Dark Mode</text><line style="stroke:#D8D8DB;stroke-width:1;" x1="1009" x2="1143.0508" y1="763.8125" y2="763.8125"/><text fill="#000000" font-family="Helvetica" font-size="12" lengthAdjust="spacing" textLength="93.3809" x="1018" y="780.2695">.dark class toggle</text><text fill="#000000" font-family="Helvetica" font-size="12" lengthAdjust="spacing" textLength="116.0508" x="1018" y="795.3633">Full variable inversion</text><text fill="#000000" font-family="Helvetica" font-size="12" lengthAdjust="spacing" textLength="86.7129" x="1018" y="810.457">Sidebar variants</text></g><!--entity grad1--><g class="entity" data-entity="grad1" data-source-line="62" data-uid="ent0018" id="entity_grad1"><rect fill="#FFFFFF" height="65.2813" rx="7.5" ry="7.5" style="stroke:#D8D8DB;stroke-width:0.5;" width="150.6934" x="30.5" y="949.2188"/><text fill="#000000" font-family="Helvetica" font-size="12" font-weight="bold" lengthAdjust="spacing" textLength="130.6934" x="40.5" y="971.6758">gradient-primary-violet</text><text fill="#000000" font-family="Helvetica" font-size="12" lengthAdjust="spacing" textLength="10.0078" x="40.5" y="986.7695">1.</text><text fill="#000000" font-family="Helvetica" font-size="12" lengthAdjust="spacing" textLength="111.0879" x="53.8418" y="986.7695">7050F0 &#8594; #B7AAEE</text><text fill="#000000" font-family="Helvetica" font-size="12" lengthAdjust="spacing" textLength="40.043" x="40.5" y="1001.8633">360deg</text></g><!--entity grad2--><g class="entity" data-entity="grad2" data-source-line="64" data-uid="ent0019" id="entity_grad2"><rect fill="#FFFFFF" height="65.2813" rx="7.5" ry="7.5" style="stroke:#D8D8DB;stroke-width:0.5;" width="142.4316" x="217" y="949.2188"/><text fill="#000000" font-family="Helvetica" font-size="12" font-weight="bold" lengthAdjust="spacing" textLength="111.3633" x="227" y="971.6758">gradient-secondary</text><text fill="#000000" font-family="Helvetica" font-size="12" lengthAdjust="spacing" textLength="10.0078" x="227" y="986.7695">1.</text><text fill="#000000" font-family="Helvetica" font-size="12" lengthAdjust="spacing" textLength="109.0898" x="240.3418" y="986.7695">7050F0 &#8594; #9E8CE8</text><text fill="#000000" font-family="Helvetica" font-size="12" lengthAdjust="spacing" textLength="26.6953" x="227" y="1001.8633">0deg</text></g><!--entity grad3--><g class="entity" data-entity="grad3" data-source-line="66" data-uid="ent0020" id="entity_grad3"><rect fill="#FFFFFF" height="65.2813" rx="7.5" ry="7.5" style="stroke:#D8D8DB;stroke-width:0.5;" width="141.7168" x="35" y="1115.2188"/><text fill="#000000" font-family="Helvetica" font-size="12" font-weight="bold" lengthAdjust="spacing" textLength="88.002" x="45" y="1137.6758">gradient-purple</text><text fill="#000000" font-family="Helvetica" font-size="12" lengthAdjust="spacing" textLength="10.0078" x="45" y="1152.7695">1.</text><text fill="#000000" font-family="Helvetica" font-size="12" lengthAdjust="spacing" textLength="108.375" x="58.3418" y="1152.7695">7050F0 &#8594; #FFFFFF</text><text fill="#000000" font-family="Helvetica" font-size="12" lengthAdjust="spacing" textLength="40.043" x="45" y="1167.8633">360deg</text></g><!--entity grad4--><g class="entity" data-entity="grad4" data-source-line="68" data-uid="ent0021" id="entity_grad4"><rect fill="#FFFFFF" height="65.2813" rx="7.5" ry="7.5" style="stroke:#D8D8DB;stroke-width:0.5;" width="143.7031" x="212" y="1115.2188"/><text fill="#000000" font-family="Helvetica" font-size="12" font-weight="bold" lengthAdjust="spacing" textLength="76.002" x="222" y="1137.6758">gradient-pink</text><text fill="#000000" font-family="Helvetica" font-size="12" lengthAdjust="spacing" textLength="10.0078" x="222" y="1152.7695">1.</text><text fill="#000000" font-family="Helvetica" font-size="12" lengthAdjust="spacing" textLength="110.3613" x="235.3418" y="1152.7695">FF649A &#8594; #FFFFFF</text><text fill="#000000" font-family="Helvetica" font-size="12" lengthAdjust="spacing" textLength="40.043" x="222" y="1167.8633">360deg</text></g><!--entity anim1--><g class="entity" data-entity="anim1" data-source-line="73" data-uid="ent0023" id="entity_anim1"><rect fill="#FFFFFF" height="73.2813" rx="7.5" ry="7.5" style="stroke:#D8D8DB;stroke-width:0.5;" width="124.7188" x="1168.5" y="1111.2188"/><text fill="#000000" font-family="Helvetica" font-size="12" font-weight="bold" lengthAdjust="spacing" textLength="32.0156" x="1178.5" y="1133.6758">scroll</text><line style="stroke:#D8D8DB;stroke-width:1;" x1="1169.5" x2="1292.2188" y1="1136.3125" y2="1136.3125"/><text fill="#000000" font-family="Helvetica" font-size="12" lengthAdjust="spacing" textLength="90.0527" x="1178.5" y="1152.7695">40s linear infinite</text><text fill="#000000" font-family="Helvetica" font-size="12" lengthAdjust="spacing" textLength="104.7188" x="1178.5" y="1167.8633">Horizontal marquee</text></g><!--entity anim2--><g class="entity" data-entity="anim2" data-source-line="75" data-uid="ent0024" id="entity_anim2"><rect fill="#FFFFFF" height="73.2813" rx="7.5" ry="7.5" style="stroke:#D8D8DB;stroke-width:0.5;" width="110.709" x="1328.5" y="1111.2188"/><text fill="#000000" font-family="Helvetica" font-size="12" font-weight="bold" lengthAdjust="spacing" textLength="42.6855" x="1338.5" y="1133.6758">scroll-y</text><line style="stroke:#D8D8DB;stroke-width:1;" x1="1329.5" x2="1438.209" y1="1136.3125" y2="1136.3125"/><text fill="#000000" font-family="Helvetica" font-size="12" lengthAdjust="spacing" textLength="90.0527" x="1338.5" y="1152.7695">60s linear infinite</text><text fill="#000000" font-family="Helvetica" font-size="12" lengthAdjust="spacing" textLength="90.709" x="1338.5" y="1167.8633">Vertical marquee</text></g><!--entity anim3--><g class="entity" data-entity="anim3" data-source-line="77" data-uid="ent0025" id="entity_anim3"><rect fill="#FFFFFF" height="73.2813" rx="7.5" ry="7.5" style="stroke:#D8D8DB;stroke-width:0.5;" width="110.7266" x="1172.5" y="1259.2188"/><text fill="#000000" font-family="Helvetica" font-size="12" font-weight="bold" lengthAdjust="spacing" textLength="57.3457" x="1182.5" y="1281.6758">accordion</text><line style="stroke:#D8D8DB;stroke-width:1;" x1="1173.5" x2="1282.2266" y1="1284.3125" y2="1284.3125"/><text fill="#000000" font-family="Helvetica" font-size="12" lengthAdjust="spacing" textLength="72.7148" x="1182.5" y="1300.7695">0.2s ease-out</text><text fill="#000000" font-family="Helvetica" font-size="12" lengthAdjust="spacing" textLength="90.7266" x="1182.5" y="1315.8633">Expand/Collapse</text></g><!--entity anim4--><g class="entity" data-entity="anim4" data-source-line="79" data-uid="ent0026" id="entity_anim4"><rect fill="#FFFFFF" height="73.2813" rx="7.5" ry="7.5" style="stroke:#D8D8DB;stroke-width:0.5;" width="120.7285" x="1318.5" y="1259.2188"/><text fill="#000000" font-family="Helvetica" font-size="12" font-weight="bold" lengthAdjust="spacing" textLength="50.0215" x="1328.5" y="1281.6758">shimmer</text><line style="stroke:#D8D8DB;stroke-width:1;" x1="1319.5" x2="1438.2285" y1="1284.3125" y2="1284.3125"/><text fill="#000000" font-family="Helvetica" font-size="12" lengthAdjust="spacing" textLength="50.6953" x="1328.5" y="1300.7695">2s infinite</text><text fill="#000000" font-family="Helvetica" font-size="12" lengthAdjust="spacing" textLength="100.7285" x="1328.5" y="1315.8633">Button hover effect</text></g><!--entity container--><g class="entity" data-entity="container" data-source-line="84" data-uid="ent0028" id="entity_container"><rect fill="#FFFFFF" height="88.375" rx="7.5" ry="7.5" style="stroke:#D8D8DB;stroke-width:0.5;" width="120.7168" x="1287.5" y="96.2188"/><text fill="#000000" font-family="Helvetica" font-size="12" font-weight="bold" lengthAdjust="spacing" textLength="56.0039" x="1297.5" y="118.6758">Container</text><line style="stroke:#D8D8DB;stroke-width:1;" x1="1288.5" x2="1407.2168" y1="121.3125" y2="121.3125"/><text fill="#000000" font-family="Helvetica" font-size="12" lengthAdjust="spacing" textLength="60.6973" x="1297.5" y="137.7695">center: true</text><text fill="#000000" font-family="Helvetica" font-size="12" lengthAdjust="spacing" textLength="76.7168" x="1297.5" y="152.8633">padding: 2rem</text><text fill="#000000" font-family="Helvetica" font-size="12" lengthAdjust="spacing" textLength="100.7168" x="1297.5" y="167.957">max-width: 1400px</text></g><!--entity radius--><g class="entity" data-entity="radius" data-source-line="86" data-uid="ent0029" id="entity_radius"><rect fill="#FFFFFF" height="88.375" rx="7.5" ry="7.5" style="stroke:#D8D8DB;stroke-width:0.5;" width="102.6816" x="1149.5" y="96.2188"/><text fill="#000000" font-family="Helvetica" font-size="12" font-weight="bold" lengthAdjust="spacing" textLength="82.6816" x="1159.5" y="118.6758">Border Radius</text><line style="stroke:#D8D8DB;stroke-width:1;" x1="1150.5" x2="1251.1816" y1="121.3125" y2="121.3125"/><text fill="#000000" font-family="Helvetica" font-size="12" lengthAdjust="spacing" textLength="53.3555" x="1159.5" y="137.7695">lg: 0.5rem</text><text fill="#000000" font-family="Helvetica" font-size="12" lengthAdjust="spacing" textLength="74.0332" x="1159.5" y="152.8633">md: 0.375rem</text><text fill="#000000" font-family="Helvetica" font-size="12" lengthAdjust="spacing" textLength="66.6855" x="1159.5" y="167.957">sm: 0.25rem</text></g><!--link tailwind to font--><g class="link" data-entity-1="tailwind" data-entity-2="font" data-source-line="90" data-uid="lnk30" id="link_tailwind_font"><path d="M724.19,319.9888 C645.74,328.3087 505.76,352.6588 411,423.2188 C385.82,441.9688 369.5317,466.5265 356.9617,491.3365" fill="none" id="tailwind-to-font" style="stroke:#181818;stroke-width:1;"/><polygon fill="#181818" points="354.25,496.6888,361.8857,490.4682,356.5098,492.2285,354.7494,486.8526,354.25,496.6888" style="stroke:#181818;stroke-width:1;"/><text fill="#000000" font-family="Helvetica" font-size="12" lengthAdjust="spacing" textLength="38.6953" x="447" y="411.6758">defines</text></g><!--link tailwind to headings--><g class="link" data-entity-1="tailwind" data-entity-2="headings" data-source-line="91" data-uid="lnk31" id="link_tailwind_headings"><path d="M749.15,366.2687 C726.34,400.3288 699.5082,440.4031 675.6382,476.0531" fill="none" id="tailwind-to-headings" style="stroke:#181818;stroke-width:1;"/><polygon fill="#181818" points="672.3,481.0388,680.631,475.7858,675.0818,476.8841,673.9836,471.3349,672.3,481.0388" style="stroke:#181818;stroke-width:1;"/><text fill="#000000" font-family="Helvetica" font-size="12" lengthAdjust="spacing" textLength="38.6953" x="726" y="411.6758">defines</text></g><!--link tailwind to body--><g class="link" data-entity-1="tailwind" data-entity-2="body" data-source-line="92" data-uid="lnk32" id="link_tailwind_body"><path d="M783,366.2687 C783,400.3288 783,439.3887 783,475.0388" fill="none" id="tailwind-to-body" style="stroke:#181818;stroke-width:1;"/><polygon fill="#181818" points="783,481.0388,787,472.0388,783,476.0388,779,472.0388,783,481.0388" style="stroke:#181818;stroke-width:1;"/><text fill="#000000" font-family="Helvetica" font-size="12" lengthAdjust="spacing" textLength="38.6953" x="784" y="411.6758">defines</text></g><!--link tailwind to captions--><g class="link" data-entity-1="tailwind" data-entity-2="captions" data-source-line="93" data-uid="lnk33" id="link_tailwind_captions"><path d="M724.27,332.9288 C674.76,349.7088 604.29,379.2088 555,423.2188 C534.6,441.4288 520.8506,461.5092 508.7506,483.9192" fill="none" id="tailwind-to-captions" style="stroke:#181818;stroke-width:1;"/><polygon fill="#181818" points="505.9,489.1988,513.6957,483.1798,508.2755,484.7991,506.6562,479.379,505.9,489.1988" style="stroke:#181818;stroke-width:1;"/><text fill="#000000" font-family="Helvetica" font-size="12" lengthAdjust="spacing" textLength="38.6953" x="583" y="411.6758">defines</text></g><!--link tailwind to brand--><g class="link" data-entity-1="tailwind" data-entity-2="brand" data-source-line="95" data-uid="lnk34" id="link_tailwind_brand"><path d="M825.23,366.4588 C836.89,383.4488 847.98,403.1888 854,423.2188 C881.75,515.5888 917.12,567.2988 854,640.2188 C786.99,717.6288 717.38,627.0288 626,673.2188 C592.59,690.1088 567.1279,716.7616 547.7279,741.4416" fill="none" id="tailwind-to-brand" style="stroke:#181818;stroke-width:1;"/><polygon fill="#181818" points="544.02,746.1588,552.7267,741.555,547.11,742.2278,546.4372,736.6111,544.02,746.1588" style="stroke:#181818;stroke-width:1;"/><text fill="#000000" font-family="Helvetica" font-size="12" lengthAdjust="spacing" textLength="38.6953" x="890" y="545.6758">defines</text></g><!--link tailwind to custom--><g class="link" data-entity-1="tailwind" data-entity-2="custom" data-source-line="96" data-uid="lnk35" id="link_tailwind_custom"><path d="M841.63,328.6888 C888.38,342.7787 949.18,370.6988 969,423.2188 C1003.05,513.4488 1003.05,549.9888 969,640.2188 C963.77,654.0688 960.27,658.6688 947,665.2188 C899.46,688.6588 875.87,650.4388 828,673.2188 C801.16,685.9888 781.7219,704.6385 764.3619,726.3985" fill="none" id="tailwind-to-custom" style="stroke:#181818;stroke-width:1;"/><polygon fill="#181818" points="760.62,731.0888,769.3596,726.5479,763.7382,727.1802,763.106,721.5588,760.62,731.0888" style="stroke:#181818;stroke-width:1;"/><text fill="#000000" font-family="Helvetica" font-size="12" lengthAdjust="spacing" textLength="38.6953" x="995" y="545.6758">defines</text></g><!--link tailwind to gradients--><g class="link" data-entity-1="tailwind" data-entity-2="gradients" data-source-line="97" data-uid="lnk36" id="link_tailwind_gradients"><path d="M724.28,349.9088 C694.88,365.2088 658.14,381.7088 623,390.2188 C579.34,400.7988 465.76,394.4388 421,398.2188 C377.91,401.8588 257.12,391.2488 228,423.2188 C155.54,502.7787 188.14,562.4288 220,665.2188 C256.06,781.5588 326.99,779.2788 375,891.2188 C376.9412,895.7438 378.6909,900.4853 380.267,905.3246 C380.464,905.9295 378.8541,921.9074 379.0457,922.5152" fill="none" id="tailwind-to-gradients" style="stroke:#181818;stroke-width:1;"/><polygon fill="#181818" points="380.8499,928.2375,381.9585,918.4512,379.3464,923.4689,374.3287,920.8568,380.8499,928.2375" style="stroke:#181818;stroke-width:1;"/><text fill="#000000" font-family="Helvetica" font-size="12" lengthAdjust="spacing" textLength="38.6953" x="221" y="661.6758">defines</text></g><!--link tailwind to animations--><g class="link" data-entity-1="tailwind" data-entity-2="animations" data-source-line="98" data-uid="lnk37" id="link_tailwind_animations"><path d="M841.57,322.0487 C935.24,333.2088 1113.2,358.9788 1162,398.2188 C1215.93,441.5888 1227,470.5087 1227,539.7188 C1227,539.7188 1227,539.7188 1227,982.7188 C1227,1028.4688 1174.27,1013.2588 1152,1053.2188 C1149.5,1057.7038 1147.3269,1062.4736 1145.4381,1067.3935 C1145.3201,1067.701 1145.2031,1068.0091 1145.0873,1068.3178 C1145.0294,1068.4721 1147.0592,1063.0014 1147.0019,1063.156" fill="none" id="tailwind-to-animations" style="stroke:#181818;stroke-width:1;"/><polygon fill="#181818" points="1144.9144,1068.7811,1151.7957,1061.7351,1146.654,1064.0935,1144.2955,1058.9517,1144.9144,1068.7811" style="stroke:#181818;stroke-width:1;"/><text fill="#000000" font-family="Helvetica" font-size="12" lengthAdjust="spacing" textLength="38.6953" x="1228" y="787.6758">defines</text></g><!--link indexcss to semantic--><g class="link" data-entity-1="indexcss" data-entity-2="semantic" data-source-line="100" data-uid="lnk38" id="link_indexcss_semantic"><path d="M1011.8,184.5087 C1050.17,275.2787 1123.97,489.5488 1042,640.2188 C1029.1,663.9388 1010.77,654.8388 991,673.2188 C972.67,690.2588 958.952,706.9096 945.082,726.2896" fill="none" id="indexcss-to-semantic" style="stroke:#181818;stroke-width:1;"/><polygon fill="#181818" points="941.59,731.1688,950.0807,726.178,944.5,727.1028,943.5752,721.522,941.59,731.1688" style="stroke:#181818;stroke-width:1;"/><text fill="#000000" font-family="Helvetica" font-size="12" lengthAdjust="spacing" textLength="78.0352" x="1075" y="411.6758">CSS Variables</text></g><!--link indexcss to darkmode--><g class="link" data-entity-1="indexcss" data-entity-2="darkmode" data-source-line="101" data-uid="lnk39" id="link_indexcss_darkmode"><path d="M1046.16,174.7887 C1109.55,217.6488 1211.18,298.3588 1253,398.2188 C1305.4,523.3488 1193.8015,663.5861 1125.5515,734.1461" fill="none" id="indexcss-to-darkmode" style="stroke:#181818;stroke-width:1;"/><polygon fill="#181818" points="1121.38,738.4588,1130.5123,734.7708,1124.8562,734.8649,1124.7621,729.2088,1121.38,738.4588" style="stroke:#181818;stroke-width:1;"/><text fill="#000000" font-family="Helvetica" font-size="12" lengthAdjust="spacing" textLength="57.3516" x="1259" y="411.6758">.dark class</text></g><!--link fontscss to font--><g class="link" data-entity-1="fontscss" data-entity-2="font" data-source-line="103" data-uid="lnk40" id="link_fontscss_font"><path d="M663.06,176.8888 C601.65,223.2288 495.38,308.8588 421,398.2188 C395.7,428.6188 375.8,462.0627 360.22,491.3227" fill="none" id="fontscss-to-font" style="stroke:#181818;stroke-width:1;"/><polygon fill="#181818" points="357.4,496.6188,365.1606,490.5547,359.75,492.2054,358.0993,486.7947,357.4,496.6188" style="stroke:#181818;stroke-width:1;"/><text fill="#000000" font-family="Helvetica" font-size="12" lengthAdjust="spacing" textLength="58.875" x="556" y="319.6758">@font-face</text></g><!--link utils to tailwind--><g class="link" data-entity-1="utils" data-entity-2="tailwind" data-source-line="105" data-uid="lnk41" id="link_utils_tailwind"><path d="M839.29,176.9588 C829.05,201.8287 817.5433,229.8002 806.1733,257.4302" fill="none" id="utils-to-tailwind" style="stroke:#181818;stroke-width:1;stroke-dasharray:7,7;"/><polygon fill="#181818" points="803.89,262.9788,811.014,256.1781,805.7927,258.3549,803.6159,253.1337,803.89,262.9788" style="stroke:#181818;stroke-width:1;"/><text fill="#000000" font-family="Helvetica" font-size="12" lengthAdjust="spacing" textLength="64.0371" x="823" y="229.6758">uses tokens</text></g><!--link typography to colors--><!--link colors to gradients--><!--link gradients to animations--><!--SRC=[XLVRSk8s6BxtKwZPcHxec9XZ4ZhTAH0xOIOXcS1kPwVkXR25KMFBhYGdOJkzxGFq4Via_IKVWHZW8j7_Izz_Fl2DJzQK4VHaJvVZ-SsTZRmG2s4Oufco17CSeHNsdWCUfyoVnc7CqGTdhBwr6u21qr0wCPDp715qIy8N8gc7tx-pe5y9wdJhCZZn96P1ID1V1eBFv42c_cIycFk4v_JhI_XEDFqfkyuPuQWpCFwkuoU0XuDcz84pTAuEqI-iWULOcguKpwdMq9fqUhi2M2mRqMtB7ZlJHdJ0aLI2wQtM750SkW8370xo2FFHDH4qO6Yn5P94hPRB3ECxzFCx7pHzc3kpcqzFu-NiOOwSsPszUFUYKJZZR1gpDGrIZYMD6N9eICGPmW9vcbuedfjLXUYirPAOXg-K-UtiQliFeLGpJTDbcN4oVYPCk6ovJUA0usIpHSB38N7PcD582mJk3SS-9KncOWjGBUvG9d38MziJDL6B1VgCESKhqDnbTpJOoFDhp9zH5FiWwf77WY0XjuLX6W8G6YIimUTYHy8SUoG4fkAOQpYuh3D4hqH9GYzATA6yVjiC7TBLUIffADgoGlVOzp-WTSeyvGumHrKUYWWFA0iqg7wX4gGXvCilZmytJ-F7soyd8bqBGvP9cSChQbxKxyNwaKF0-5PNmBvZNFQhzeKOeOvbcLUM1QoOHpX4FwAPn27rIkyqUEQQYYJ4MsWQa0iigBnpsncXOITvG-VeSj3k9sz0wevG_qgJXfVjeIRrHgYNaGRzdDG7KlQmtyiV3aQeEz2a7lpHEcroWGrwJM9_YvRahR9v1HGJbEfQ2bAVLbWGC7rO4a2RJgyyWIATJdaQA2Ur2_6Ar21wYXDT85MYP0Gb_5B15MTmnuM6JwM4emHjGOQsE7uXF8JE3kTkBZ5_TIoXfWzt3qzeyMMnjEzFDWzLvxLiyXH17Cka2SVGqVJ3ohQy3I8URt5elj0u95Bx5LYJY_7OjdTPKIg9dtbGm-NlVzB6lswe90rUNP08gfLw-meaUNwVGvPoadLkbma2hStFw5gaox3dGQ-2iq-4v2bKxGjHeLKj7QWm2bB5vKNrYbnWKvHJ8UDeNnjFKrMjvSdruSfItnqEwFKyAWOHSE8uD0DET7RcNRjEXJJ9ev85IWCrbQDgd_VGFakDsafQjXP0Mmy2LVLE6ePP_uFM2vP3iWdTmnRK9olCTtkZ0b0T-KZYGHUxdjdpvQcHjJinWk9qBEkAIsOUw3oHb7r5xlttpxyeJpQNzOQMJu8IlzFWg1Asp9G3n2lxScfVkcm7htiABqbv4f83i6m3Eb2lTnAEicSDvZZ3_jNuA5Z_I8J6yzczNYrEXQWQy1eNbyTZGH8UZyEmpBc-9P3gNf1951OC1bKDJJpcz2kaFmmNYEEVAI6bWAOWPR3cjWGUlWVycN2rhHx2DiKAEW5KFTXKubhjha042jQCK-ao-os1tdGEjHtYH5I0JT4I6nh1u2_XkgActaHtTxHHBHsHzHeUbe378hPu74zdynlqBLB5zUbKt1Rm7xGkTHrI9ysY9tBYaT1DLKZ0fPNsgaqIFaBG947z1FjgpiBSv2HoMOJVp5VgousQL9PLpAO2f74QwowRQLOA2W4L9cg6wwl_UnVPIKJgr5K7ZS_rmoFEUhBliko-dJqsUAhOJv5fVjGR3HgXxEUJsEKLcqKJNut-9bunf6lylSTwwZMzpcPA0xTgbmqNQhLQ4rzipVfACTJWmixwlNkhwFXmgpO-3AFOakik_ALShWr3BxoetVvO_XY02waW8lz10RweTbRpjmtrVS9-z-DNfepNazJ8zv1zRccyKRbX_qvbl_4_]--></g></svg>