<svg width="51" height="53" viewBox="0 0 51 53" fill="none" xmlns="http://www.w3.org/2000/svg">
<path d="M0 23.5848C0 25.6394 1.46173 27.1902 3.39941 27.1903C10.9498 27.1903 18.5242 27.8957 23.0605 32.1835C23.1225 32.2421 23.2002 32.2818 23.2842 32.2968C23.3684 32.3117 23.4556 32.3014 23.5342 32.2675C23.6127 32.2335 23.6797 32.177 23.7266 32.1053C23.7733 32.0338 23.7983 31.9496 23.7979 31.8641V52.2626C23.7982 52.3479 23.7731 52.4314 23.7266 52.5028C23.6798 52.5744 23.6126 52.631 23.5342 52.6649C23.4556 52.6989 23.3684 52.7092 23.2842 52.6942C23.2001 52.6792 23.1225 52.6397 23.0605 52.5809C18.5242 48.2931 10.9498 47.5878 3.39941 47.5878C1.46179 47.5876 8.88147e-05 46.0378 0 43.9833V23.5848ZM50.999 44.1864C50.9989 45.0879 50.6404 45.9523 50.0029 46.5897C49.3654 47.2273 48.5003 47.5858 47.5986 47.5858C35.4203 47.5848 30.6344 49.8496 27.9072 52.5585C27.8485 52.616 27.7732 52.6554 27.6924 52.6708C27.6119 52.686 27.5287 52.6771 27.4531 52.6454C27.3773 52.6135 27.3121 52.5596 27.2666 52.4911C27.2213 52.4228 27.1973 52.3426 27.1973 52.2606V31.8622C27.1972 31.9444 27.2211 32.0251 27.2666 32.0936C27.3121 32.1621 27.3773 32.2151 27.4531 32.2469C27.5288 32.2787 27.6118 32.2876 27.6924 32.2723C27.7732 32.2569 27.8485 32.2186 27.9072 32.161C30.6344 29.452 35.42 27.1864 47.5986 27.1874C48.5002 27.1874 49.3654 26.8297 50.0029 26.1923C50.6405 25.5547 50.999 24.6896 50.999 23.788V44.1864Z" fill="#8267EC"/>
<path d="M0 0C0 2.05457 1.46173 3.60437 3.39941 3.60449C10.9498 3.60449 18.5242 4.31085 23.0605 8.59863C23.1225 8.65728 23.2002 8.69696 23.2842 8.71191C23.3684 8.72688 23.4556 8.71657 23.5342 8.68262C23.6127 8.64866 23.6797 8.59213 23.7266 8.52051C23.7733 8.44891 23.7983 8.36483 23.7979 8.2793V28.6777C23.7982 28.763 23.7731 28.8465 23.7266 28.918C23.6798 28.9895 23.6126 29.0461 23.5342 29.0801C23.4556 29.114 23.3684 29.1243 23.2842 29.1094C23.2001 29.0944 23.1225 29.0549 23.0605 28.9961C18.5242 24.7083 10.9498 24.0029 3.39941 24.0029C1.46179 24.0028 8.88147e-05 22.4529 0 20.3984V0ZM50.999 20.6016C50.9989 21.503 50.6404 22.3674 50.0029 23.0049C49.3654 23.6424 48.5003 24.001 47.5986 24.001C35.4203 24 30.6344 26.2647 27.9072 28.9736C27.8485 29.0312 27.7732 29.0705 27.6924 29.0859C27.6119 29.1012 27.5287 29.0922 27.4531 29.0605C27.3773 29.0287 27.3121 28.9748 27.2666 28.9062C27.2213 28.8379 27.1973 28.7578 27.1973 28.6758V8.27734C27.1972 8.35957 27.2211 8.44028 27.2666 8.50879C27.3121 8.57723 27.3774 8.63025 27.4531 8.66211C27.5287 8.69386 27.6118 8.70279 27.6924 8.6875C27.7732 8.6721 27.8485 8.63371 27.9072 8.57617C30.6343 5.86717 35.4199 3.60154 47.5986 3.60254C48.5002 3.60254 49.3654 3.24485 50.0029 2.60742C50.6405 1.96987 50.999 1.10476 50.999 0.203125V20.6016Z" fill="#8267EC"/>
</svg>
